<svg width="258" height="71" viewBox="0 0 258 71" fill="none" xmlns="http://www.w3.org/2000/svg">
<path d="M52.7 22.4C51.8 24.3 50.8 26.1 49.8 27.8C49.5 28.3 49.2 28.8 48.7 29.1C47.7 29.7 46.4 29.3 45.3 28.8C41.8 27.3 38.5 25.6 35.3 23.7C34.2 23 33.1 22.3 32.7 21.1C33.3 17.7 33.1 14 32.1 10.7C31.2 7.50002 30.7 4.30002 30.5 1.00002C30.5 0.900021 30.5 0.800022 30.5 0.600022C30.5 -0.199978 38.7 1.40002 39.4 1.70002C42.2 2.70002 44.3 4.40002 46.3 6.50002C46.9 7.10002 47.4 7.80002 48 8.50002C50.4 11.6 52.1 15.2 53 18.9C53.3 20.2 53.2 21.4 52.7 22.4Z" fill="url(#paint0_linear_9_5738)"/>
<path d="M45.1999 46.3C45.1999 46.4 30.3999 45.8 29.0999 45.7C24.7999 45.3 20.2999 46.1 16.0999 47.3C15.3999 47.5 14.7999 47.7 14.0999 47.9C14.5999 42.4 17.3999 37.1 21.0999 33C21.1999 32.9 21.1999 32.9 21.2999 32.8C22.1999 31.8 23.1999 30.9 24.2999 30.2C26.8999 28.7 30.0999 28.8 33.0999 29.2C38.0999 29.8 41.9999 29.6 43.4999 35C44.5999 38.7 45.1999 42.5 45.1999 46.3Z" fill="url(#paint1_linear_9_5738)"/>
<path d="M42.5 33.6C42.4 34 42.2 34.3 41.9 34.5C41.6 34.6 41.3 34.6 41 34.5C33.5 33.5 25.8 32.3 18.8 29.5C17.5 29 16.3 28.4 15.1 27.7C16.4 26 17.9 24.4 19.5 22.9C16.9 23.5 14.9 24.1 12.9 25.8C9.10002 23.6 5.2 21.7 1 20.2C5.9 16.3 11.9 14.1 18.1 12.9C20.7 12.4 23.4 12.2 26 12.7C29.2 13.3 32 14.8 34.5 16.8C37.6 19.2 40.2 22.4 42.6 25.5C44.3 27.6 43.3 31.1 42.5 33.6Z" fill="url(#paint2_linear_9_5738)"/>
<path d="M48.0999 8.60002C47.8999 9.00002 47.4999 9.20002 47.1999 9.30002C45.6999 10 44.1999 10.7 42.7999 11.4C41.2999 9.10002 39.5999 6.90002 37.7999 4.90002C39.0999 7.00002 39.8999 9.40002 40.1999 11.8C40.1999 12 40.1999 12.2 40.0999 12.4C39.9999 12.6 39.6999 12.7 39.4999 12.7C37.7999 13 36.1999 13.4 34.4999 13.7C32.8999 10.3 31.6999 6.70002 30.9999 3.00002C30.8999 2.40002 30.6999 1.70002 30.5999 1.00002C30.5999 0.900021 30.5999 0.800022 30.5999 0.600022C30.5999 -0.199978 38.7999 1.40002 39.4999 1.70002C42.2999 2.70002 44.3999 4.40002 46.3999 6.50002C46.9999 7.30002 47.4999 7.90002 48.0999 8.60002Z" fill="url(#paint3_linear_9_5738)"/>
<path d="M34.4999 16.8C34.2999 18.2 32.5999 20 31.1999 20.3C30.5999 20.4 29.9999 20.3 29.3999 20.2C25.0999 19.5 20.6999 19 16.2999 18.7C19.5999 19.2 22.8999 20 25.9999 21C27.2999 21.4 28.5999 21.9 29.4999 22.9C27.6999 24.8 26.2999 26.5 24.1999 28.1C23.6999 28.5 23.0999 28.9 22.4999 29.2C21.5999 29.6 20.6999 29.6 19.7999 29.6C19.3999 29.6 19.0999 29.6 18.6999 29.6C17.3999 29.1 16.1999 28.5 14.9999 27.8C16.2999 26.1 17.7999 24.5 19.3999 23C16.7999 23.6 14.7999 24.2 12.7999 25.9C8.99987 23.7 5.0999 21.8 0.899902 20.3C5.7999 16.4 11.7999 14.2 17.9999 13C20.5999 12.5 23.2999 12.3 25.8999 12.8C29.1999 13.2 31.9999 14.8 34.4999 16.8Z" fill="url(#paint4_linear_9_5738)"/>
<path d="M32.8 43.4C27.1 44.1 21.3 45.1 16 47.2C15.3 47.4 14.7 47.6 14 47.8C14.5 42.3 17.3 37 21 32.9C24 33.2 27 34.4 29.4 36.3C25.6 36.9 21.9 38.6 19 41.1C21.9 40 24.9 39.3 27.9 39.2C28.4 39.2 28.9 39.1 29.4 39.3C31.4 39.7 32.2 41.7 32.8 43.4Z" fill="url(#paint5_linear_9_5738)"/>
<path d="M221 34.6C220.7 36.5 220.6 38.4 220.6 40.3C220.6 40.8 220.6 41.4 220.8 41.9C221.3 42.9 222.5 43.2 223.6 43.4C227 44 230.5 44.4 234 44.4C235.2 44.4 236.4 44.4 237.3 43.7C238.5 40.7 240.5 38 243 35.9C245.3 33.9 247.4 31.6 249.1 29.1C249.2 29 249.2 28.9 249.3 28.8C249.7 28.2 242.5 25.3 241.8 25.2C239.1 24.6 236.7 24.8 234 25.5C233.2 25.7 232.5 25.9 231.7 26.2C228.3 27.4 225.1 29.3 222.5 31.8C221.6 32.5 221.2 33.5 221 34.6Z" fill="url(#paint6_linear_9_5738)"/>
<path d="M214.2 61.6C214.2 61.7 227.6 64.5 228.8 64.7C232.8 65.3 236.6 67 240.2 69.1C240.7 69.4 241.3 69.7 241.8 70.1C242.6 65 241.2 59.6 238.8 55.1C238.8 55 238.7 54.9 238.7 54.9C238.1 53.8 237.5 52.8 236.6 51.9C234.6 50 231.7 49.3 228.9 49C224.3 48.4 220.8 47.4 218.2 51.9C216.4 54.9 215.1 58.2 214.2 61.6Z" fill="url(#paint7_linear_9_5738)"/>
<path d="M218.3 48.6C218.2 48.9 218.2 49.3 218.4 49.6C218.6 49.8 218.8 49.9 219.1 50.1C225.6 52.8 232.3 55.4 239.2 56.4C240.5 56.6 241.7 56.7 243 56.7C242.8 54.7 242.3 52.7 241.7 50.8C243.5 52.5 244.9 53.9 245.7 56.2C249.8 56.1 253.8 56.5 257.8 57.2C255.6 51.8 251.9 47.2 247.5 43.4C245.6 41.8 243.6 40.4 241.3 39.5C238.5 38.5 235.5 38.4 232.5 38.8C228.9 39.3 225.3 40.6 221.9 42C219.6 42.9 218.8 46.2 218.3 48.6Z" fill="url(#paint8_linear_9_5738)"/>
<path d="M231.6 26.2C231.6 26.6 231.7 26.9 231.9 27.2C232.7 28.5 233.5 29.8 234.3 31C236.6 30 239 29.1 241.4 28.4C239.4 29.4 237.5 30.8 236.1 32.6C236 32.8 235.8 32.9 235.8 33.1C235.8 33.3 236 33.5 236.1 33.6C237.2 34.7 238.3 35.8 239.5 36.9C242.5 35.1 245.2 32.9 247.6 30.3C248 29.9 248.5 29.4 248.9 29C249 28.9 249 28.8 249.1 28.7C249.5 28.1 242.3 25.2 241.6 25.1C238.9 24.5 236.5 24.7 233.8 25.4C233.1 25.7 232.3 25.9 231.6 26.2Z" fill="url(#paint9_linear_9_5738)"/>
<path d="M232.5 38.8C232 40.1 232.5 42.3 233.5 43.1C233.9 43.5 234.5 43.7 235 43.9C238.8 45.4 242.5 47 246.2 48.8C243.3 47.7 240.3 46.8 237.3 46.1C236.1 45.8 234.8 45.6 233.7 46C234.2 48.4 234.6 50.4 235.5 52.7C235.7 53.3 236 53.9 236.3 54.4C236.8 55.1 237.6 55.5 238.3 56C238.6 56.2 238.9 56.3 239.2 56.5C240.5 56.7 241.7 56.8 243 56.8C242.8 54.8 242.3 52.8 241.7 50.9C243.5 52.6 244.9 54 245.7 56.3C249.8 56.2 253.8 56.6 257.8 57.3C255.6 51.9 251.9 47.3 247.5 43.5C245.6 41.9 243.6 40.5 241.3 39.6C238.4 38.5 235.4 38.4 232.5 38.8Z" fill="url(#paint10_linear_9_5738)"/>
<path d="M225.9 61.8C230.9 63.7 235.9 65.9 240.1 69C240.6 69.3 241.2 69.6 241.7 70C242.5 64.9 241.1 59.5 238.7 55C235.9 54.6 233 55 230.4 56.2C233.7 57.6 236.6 59.9 238.7 62.8C236.4 61.2 233.8 59.9 231.1 59C230.6 58.9 230.2 58.7 229.7 58.7C228.1 58.8 226.9 60.4 225.9 61.8Z" fill="url(#paint11_linear_9_5738)"/>
<path d="M229.4 24C229.3 27.5 229.1 31 228.6 34.4C228.6 34.6 228.6 34.7 228.5 34.8C228.4 35 228.2 35 228.1 35.2C227.7 35.6 227.8 36.2 228 36.7C228.3 37.6 228.5 38.6 228.5 39.6C228.6 44.4 227.5 49.5 226.8 54.2C226.7 54.6 226.6 55 226.4 55.3C225.2 57.2 223.7 58.9 222 60.3C220.6 61.5 218.7 63.1 216.8 63C214.1 62.8 211.4 62.8 208.8 62.9C206.2 63 203.7 62.9 201.1 62.9C197.4 62.9 193.6 62.8 189.9 62.8C185.9 62.8 181.9 62.7 177.9 62.7C174 62.7 170 63 166.2 61.9C165.9 61.8 165.6 61.7 165.3 61.8C164.6 61.9 164 62.6 163.3 62.7C162.6 62.9 161.4 62.6 160.6 62.6C158.4 62.6 156.2 62.6 154 62.6C149.7 62.6 145.4 62.5 141.1 62.5C132.6 62.5 124.1 62.5 115.5 62.5C105.8 62.6 96.1 62.6 86.5 62.7L46.8 63C46.4 63 45.9 62.9 45.6 62.7C43.3 61.5 41.3 59.9 39.6 58C38 56.2 37.4 53.9 36.7 51.5C36.3 49.8 37.2 49.3 38.8 49.1C38.2 49 37.6 48.8 37 48.7C36.8 48.7 36.6 48.6 36.5 48.5C36.4 48.4 36.4 48.2 36.3 48.1C34.6 40.1 34.8 32.2 34.5 24.1C34.5 23.5 34.6 22.9 35 22.5C37.2 19.5 40 16.6 42.5 15C42.9 14.7 43.4 14.6 43.9 14.6C46.9 14.6 49.9 14.6 52.8 14.6C55.7 14.6 58.6 14.6 61.5 14.6C64.3 14.6 67.6 14.1 70.2 15.3C70.9 15.6 71.4 15.1 72 14.9C72.7 14.7 73.4 14.6 74.1 14.6C75.9 14.6 77.8 14.6 79.6 14.6C81.2 14.6 82.9 14.6 84.5 14.6C103.5 14.6 122.5 14.5 141.6 14.5C145.9 14.5 150.2 14.5 154.5 14.5C156.6 14.5 158.7 14.5 160.8 14.5C161.8 14.5 163 14.4 164 14.5C165.1 14.7 165.2 15.1 165.9 16C165.9 16.1 166 16.1 166.1 16.2C166.3 16.2 166.4 16.1 166.5 15.9C167.2 14.6 168.7 14.5 170 14.5L220.1 14.6C220.5 14.7 221.1 14.9 221.5 15C224.1 16.6 226.8 19.5 229 22.5C229.3 22.9 229.4 23.5 229.4 24Z" fill="url(#paint12_linear_9_5738)"/>
<path d="M226 23.7C226 23.9 226 24 226 24.2C226 24.8 226 25.3 225.9 25.9C225.8 28.8 225.6 31.7 225.4 34.6C225.4 35.3 225.3 35.9 225.2 36.5C224.8 41.9 224.2 47.2 223.5 52.5C223.4 52.9 223.4 53.3 223.3 53.8C222.9 54.5 222.4 55.2 221.9 55.8C221.3 56.6 220.6 57.3 219.8 57.9C219.8 57.9 219.8 57.9 219.7 57.9L219.5 58.1C218.8 58.6 217.5 59.8 217 59.8C215.7 59.7 214.2 59.6 212.6 59.6C211.3 59.6 209.9 59.6 208.6 59.7C207.9 59.7 207.2 59.7 206.5 59.7C205.4 59.7 204.4 59.7 203.3 59.7C202.5 59.7 201.8 59.7 201 59.7L189.8 59.6C184.9 59.6 179.9 59.5 175 59.5C172.6 59.5 169.8 59.9 167.5 59.1C166.9 58.9 166.2 58.7 165.5 58.7C164.7 58.7 164 59.1 163.2 59.2C162.9 59.3 162.6 59.3 162.2 59.3C160.8 59.3 159.3 59.3 157.9 59.3C155 59.3 152.1 59.3 149.2 59.2C143.3 59.2 137.4 59.1 131.4 59.1C125.7 59.1 120.4 59.1 115.2 59.2L105.4 59.3L96.7001 59.4L46.7001 59.8C46.4001 59.8 46.1 59.7 45.8 59.5C45.3 59.3 44.9001 58.9 44.4001 58.5C43.4001 57.6 42.4001 56.4 42.0001 55.9C40.9001 54.7 40.4 53.5 40.1 52.1C40 51.7 40.0001 51.3 40.0001 50.9C40.0001 50.6 40.0001 50.3 40.0001 50C41.7001 49.5 43.5 49 45.3 48.6C43.5 48.8 41.7001 48.9 39.9001 48.9C39.8001 47.4 39.7001 45.9 39.5001 44.4C39.4001 43.9 39.4 43.4 39.3 42.9C39.1 40.9 38.8 38.9 38.6 36.9C38.6 36.6 38.6001 36.3 38.5001 36.1C38.5001 35.7 38.4001 35.3 38.4001 34.9C38.3001 33.4 38.2 31.9 38.1 30.4C38 29.3 38.0001 28.1 37.9001 27C37.9001 26.4 37.5 24.3 37.8 23.9C38.4 23 39.1 22.2 39.8 21.4C40.5 20.6 41.2001 19.9 41.9001 19.2C42.6001 18.6 43.3001 18 43.9001 17.6L61.3 17.5H69.0001H81.9001H83.9001H84.4001C89.7001 17.5 94.8001 17.5 99.9001 17.5C100.9 17.5 101.9 17.5 103 17.5C113.9 17.5 124.1 17.5 134.1 17.5H138.2C148.8 17.5 159.4 17.5 170 17.6C172.5 17.6 175 17.7 177.5 17.9C177.7 17.9 178 17.9 178.2 17.9C178.4 17.8 178.6 17.7 178.9 17.6C180.1 17 181.5 17.7 182.7 17.7C183.8 17.7 185 17.7 186.1 17.7C188.5 17.7 191 17.7 193.5 17.7C198.3 17.7 203.1 17.7 207.9 17.7C210.7 17.7 213.6 17.7 216.4 17.7C217.4 17.7 218.8 17.5 219.7 17.7L220.1 17.8C222 18.8 224.1 21.1 226 23.7Z" fill="url(#paint13_radial_9_5738)"/>
<path d="M225.5 26.8C225.5 26.2 225.6 25.6 225.4 25.1C225.2 24.5 224.7 24 224.2 23.5C222.7 22 221.3 19.9 219.4 18.9C217.6 17.9 215.1 18.6 213.1 18.5C210.4 18.5 207.8 18.5 205.1 18.4C199.7 18.4 194.2 18.3 188.8 18.3C185.8 18.3 182.8 18.2 179.8 17.7C179.6 17.7 179.4 17.6 179.1 17.6C178.8 17.6 178.6 17.8 178.4 17.9C176.9 18.6 175.2 18.2 173.6 18.2C171.8 18.2 169.9 18.2 168.1 18.2C164.4 18.2 160.7 18.2 157.1 18.2C143.5 18.2 130 18.2 116.4 18.2C114.3 18.2 112.1 18.1 110 18.2C108.3 18.3 106.9 19 105.3 19.3C104 19.6 102.7 18.8 101.5 18.4C100.4 18.1 99.2999 18 98.1999 18C93.8999 18 89.4999 18.3 85.0999 18.5C83.4999 18.6 81.8999 18.3 80.2999 18.3C74.2999 18.3 68.1999 18.4 62.1999 18.5C59.1999 18.5 56.1999 18.6 53.0999 18.6C51.4999 18.6 49.9999 18.6 48.3999 18.7C47.5999 18.7 44.9999 18.3 44.3999 18.8C42.3999 20.3 40.8999 22.2 39.2999 24.1C39.0999 24.3 38.9999 24.5 38.8999 24.8C38.7999 25 38.8999 25.2 38.8999 25.4C38.9999 27.1 38.6999 28.4 39.1999 30.1C39.5999 31.4 39.0999 32.2 38.9999 33.5C38.7999 34.9 39.0999 36.5 39.1999 37.9C39.2999 39.5 39.3999 41 39.4999 42.6C39.5999 43.6 39.2999 46.1 39.7999 46.9C39.6999 46.8 39.5999 46.6 39.4999 46.5C38.6999 39.1 38.0999 31.5 37.8999 23.9C39.7999 21.2 42.0999 18.9 43.9999 17.6L84.4999 17.5C102.4 17.4 118.7 17.4 134.1 17.4C146.1 17.4 158 17.4 170 17.5C172.3 17.5 174.6 17.5 176.9 17.3C177.2 17.3 177.5 17.2 177.7 17.2C178.3 17 178.7 16.6 179.3 16.4C179.8 16.3 180.4 16.4 180.9 16.6C182.2 17 183.5 17.5 184.8 17.6C186.1 17.6 187.3 17.6 188.6 17.6C191.2 17.6 193.8 17.6 196.5 17.6C201.4 17.6 206.2 17.6 211.1 17.6C214 17.6 216.9 17.6 219.7 17.6L220.1 17.7C222 19 224.1 21.3 226 23.9C225.9 25.8 225.9 27.8 225.8 29.7C225.7 31.5 225.3 33.3 225.6 35C225.7 35.3 225.7 35.6 225.7 35.9C225.8 37.1 225.2 38.2 225.1 39.4C225 40.9 224.8 42.5 224.7 44C224.4 46.8 223.7 49.9 223.7 52.7C223.7 43.9 225 35.3 225.5 26.8Z" fill="#E6C9C3"/>
<path d="M221.5 49.9C221.2 49.6 220.9 49.3 220.6 49.1C219.3 48.1 217.9 47.4 216.3 47.1C216.2 47 216.1 47 216 47C215.7 47 215.4 47.2 215.1 47.4C213.8 48.4 212.7 49.8 211.9 51.3C211.7 51.7 211.6 52 211.8 52.3C212 52.6 212.4 52.8 212.7 53C213.5 53.5 214.2 53.8 215 54.2C215.4 54.3 215.8 54.2 216.1 54C216.8 53.6 217.5 52.7 218 52.1C218 52 218.1 52 218.1 51.9C218.1 51.8 218 51.7 218 51.7C217.8 51.5 217.7 51.4 217.5 51.2L217.4 51.1C217.3 51.1 217.3 51.1 217.2 51.2C216.6 51.8 216 52.4 215.4 53C215.1 52.8 214.8 52.6 214.4 52.4C214.1 52.2 213.7 52.1 213.5 51.8C213.4 51.7 213.2 51.5 213.3 51.3C213.3 51.1 213.5 51 213.6 50.8C214 50.2 214.4 49.6 214.8 49C215.1 48.6 215.5 48.2 215.8 47.8C217.1 48.1 218.2 48.6 219.3 49.4C219.3 49.5 219.7 49.8 219.8 49.8C220 50 220.1 50.1 220.3 50.3C220.5 50.5 220.7 50.7 220.8 50.9C220.9 51 221.1 51.3 221.1 51.4C221.1 51.6 220.8 52 220.6 52.1C220.3 52.4 220.1 52.7 219.8 53C219.3 53.6 218.7 54.1 218.2 54.7C218 54.9 217.8 55.1 217.5 55.4C217 55.9 216.6 56.4 216 56.8C215.4 57.2 214.8 57.4 214.1 57.4C213.3 57.4 212.5 57.4 211.7 57.4C208.5 57.4 205.4 57.4 202.2 57.4C199 57.4 195.9 57.4 192.7 57.4C189.6 57.4 186.4 57.4 183.3 57.4C172.2 57.4 161.2 57.4 150.1 57.5C128.2 57.5 106.2 57.6 84.3 57.6C82 57.6 79.6 57.6 77.3 57.6C71.8 57.6 66.3 57.6 60.8 57.6C58.1 57.6 55.3 57.6 52.6 57.7C51.9 57.7 51.2 57.7 50.5 57.7C49.9 57.7 49.3 57.8 48.7 57.8C48.2 57.8 47.6 57.3 47.2 57.1C46.7 56.8 46.2 56.5 45.8 56.1C45.5 55.8 45.2 55.5 44.9 55.2C44.8 55.1 44.8 55 44.7 54.9C44.3 51.7 43.7 43.9 43.3 40.7C43.1 39.1 42.8 37.5 42.6 36C42.5 35.2 42.4 34.5 42.3 33.7C42.2 32.8 42.1 31.9 41.7 31.1C41.6 31 41.2 31.1 41.2 31.3C40.9 32.8 41.4 34.5 41.6 36C41.8 37.7 42 39.3 42.2 41C42.5 43 42.9 49.6 43.2 51.6C43.3 52.6 43.5 53.6 43.6 54.7C43.7 55.5 44.2 56.1 44.8 56.7C45.4 57.3 46.1 57.7 46.8 58.2C47.3 58.6 47.9 58.5 48.5 58.5C49.2 58.5 49.9 58.5 50.6 58.5C52 58.5 53.3 58.5 54.7 58.5C57.4 58.5 60.2 58.5 62.9 58.5C68.4 58.5 73.8 58.4 79.3 58.4C90.3 58.4 101.4 58.4 112.4 58.4C134.4 58.4 156.3 58.3 178.3 58.3C190.8 58.3 203.2 58.1 215.7 58.1C216.2 58.1 216.7 57.6 217.1 57.3C217.6 56.9 218 56.6 218.4 56.1C219 55.5 219.6 54.8 220.1 54.1C220.6 53.4 221.2 52.8 221.7 52.2C221.8 52.1 221.7 52.1 221.7 52.1C221.9 51.9 222.1 51.6 222 51.3C222.1 50.5 221.8 50.2 221.5 49.9Z" fill="#E6C9C3"/>
<path d="M222.1 22.2C221.7 21.6 221 21.2 220.5 20.7C220.1 20.3 219.5 20.4 218.9 20.4C218.2 20.4 217.5 20.4 216.8 20.4C215.4 20.4 214.1 20.4 212.7 20.4C210 20.4 207.2 20.4 204.5 20.4C199 20.4 189.9 20.5 184.5 20.5C173.5 20.5 162.4 20.5 151.4 20.5C129.4 20.5 107.5 20.6 85.5 20.6C73 20.6 60.6 20.8 48.1 20.8C47.6 20.8 47.1001 21.3 46.7001 21.6C46.2001 22 45.8001 22.3 45.4001 22.8C44.8001 23.4 44.2001 24.1 43.7001 24.8C43.2001 25.5 42.6 26.1 42.1 26.7C42 26.8 42.1 26.8 42.1 26.8C41.9 27 41.7 27.3 41.8 27.6C41.9 28 42.2 28.3 42.5 28.5C42.8 28.8 43.1001 29.1 43.4001 29.3C44.7001 30.3 46.1001 31 47.7001 31.3C47.8001 31.4 47.9 31.4 48 31.4C48.3 31.4 48.6001 31.2 48.9001 31C50.2001 30 51.3 28.6 52.1 27.1C52.3 26.7 52.4001 26.4 52.2001 26.1C52.0001 25.8 51.6 25.6 51.3 25.4C50.5 24.9 49.8 24.6 49 24.2C48.6 24.1 48.2001 24.2 47.9001 24.4C47.2001 24.8 46.5 25.7 46 26.3C46 26.4 45.9001 26.4 45.9001 26.5C45.9001 26.6 46 26.7 46 26.7C46.2 26.9 46.3 27 46.5 27.2L46.6 27.3C46.7 27.3 46.7 27.3 46.8 27.2C47.4 26.6 48 26 48.6 25.4C48.9 25.6 49.2 25.8 49.6 26C49.9 26.2 50.3 26.3 50.5 26.6C50.6 26.7 50.8001 26.9 50.7001 27.1C50.7001 27.3 50.5001 27.4 50.4001 27.6C50.0001 28.2 49.6001 28.8 49.2001 29.4C48.9001 29.8 48.5001 30.2 48.2001 30.6C46.9001 30.3 45.8001 29.8 44.7001 29C44.7001 28.9 44.3001 28.6 44.2001 28.6C44.0001 28.4 43.9001 28.3 43.7001 28.1C43.5001 27.9 43.3001 27.7 43.2001 27.5C43.1001 27.4 42.9001 27.1 42.9001 27C42.9001 26.8 43.2001 26.4 43.4001 26.3C43.7001 26 43.9001 25.7 44.2001 25.4C44.7001 24.8 45.3 24.3 45.8 23.7C46 23.5 46.2 23.3 46.5 23C47 22.5 47.4 22 48 21.6C48.6 21.2 49.2001 21 49.9001 21C50.7001 21 51.5 21 52.3 21C55.5 21 58.6 21 61.8 21C65 21 68.1 21 71.3 21C74.4 21 77.6001 21 80.7001 21C91.8001 21 102.8 21 113.9 20.9C135.8 20.9 157.8 20.8 179.7 20.8C182 20.8 184.4 20.8 186.7 20.8C192.2 20.8 201.1 20.8 206.6 20.8C209.4 20.8 212.1 20.8 214.9 20.7C215.6 20.7 216.3 20.7 217 20.7C217.6 20.7 218.2 20.6 218.8 20.6C219.3 20.6 219.8 21.1 220.1 21.3C220.5 21.6 220.9 21.9 221.3 22.3C221.6 22.6 221.8 22.9 222 23.2C222.1 23.3 222.1 23.4 222.2 23.5C221.9 26.7 221.5 29.9 221.2 33C221 34.6 220.9 40.7 220.8 42.3C220.7 43.1 220.7 43.8 220.6 44.6C220.5 45.5 220.4 46.4 220.6 47.2C220.6 47.3 221.1 47.2 221.1 47C221.7 45.5 221.7 43.8 221.8 42.3C222 40.6 222.2 34.4 222.4 32.7C222.6 30.7 222.8 28.7 223 26.7C223.1 25.7 223.2 24.7 223.3 23.6C222.8 23.4 222.5 22.8 222.1 22.2Z" fill="#E6C9C3"/>
<path d="M221 49.4C220.7 49.1 220.4 48.8 220.1 48.6C218.8 47.6 217.4 46.9 215.8 46.6C215.7 46.5 215.6 46.5 215.5 46.5C215.2 46.5 214.9 46.7 214.6 46.9C213.3 47.9 212.2 49.3 211.4 50.8C211.2 51.2 211.1 51.5 211.3 51.8C211.5 52.1 211.9 52.3 212.2 52.5C213 53 213.7 53.3 214.5 53.7C214.9 53.8 215.3 53.7 215.6 53.5C216.3 53.1 217 52.2 217.5 51.6C217.5 51.5 217.6 51.5 217.6 51.4C217.6 51.3 217.5 51.2 217.5 51.2C217.3 51 217.2 50.9 217 50.7L216.9 50.6C216.8 50.6 216.8 50.6 216.7 50.7C216.1 51.3 215.5 51.9 214.9 52.5C214.6 52.3 214.3 52.1 213.9 51.9C213.6 51.7 213.2 51.6 213 51.3C212.9 51.2 212.7 51 212.8 50.8C212.8 50.6 213 50.5 213.1 50.3C213.5 49.7 213.9 49.1 214.3 48.5C214.6 48.1 215 47.7 215.3 47.3C216.6 47.6 217.7 48.1 218.8 48.9C218.8 49 219.2 49.3 219.3 49.3C219.5 49.5 219.6 49.6 219.8 49.8C220 50 220.2 50.2 220.3 50.4C220.4 50.5 220.6 50.8 220.6 50.9C220.6 51.1 220.3 51.5 220.1 51.6C219.8 51.9 219.6 52.2 219.3 52.5C218.8 53.1 218.2 53.6 217.7 54.2C217.5 54.4 217.3 54.6 217 54.9C216.5 55.4 216.1 55.9 215.5 56.3C214.9 56.7 214.3 56.9 213.6 56.9C212.8 56.9 212 56.9 211.2 56.9C208 56.9 204.9 56.9 201.7 56.9C198.5 56.9 195.4 56.9 192.2 56.9C189.1 56.9 185.9 56.9 182.8 56.9C171.7 56.9 160.7 56.9 149.6 57C127.7 57 105.7 57.1 83.8 57.1C81.5 57.1 79.1 57.1 76.8 57.1C71.3 57.1 65.8 57.1 60.3 57.1C57.6 57.1 54.8 57.1 52.1 57.2C51.4 57.2 50.7 57.2 50 57.2C49.4 57.2 48.8 57.3 48.2 57.3C47.7 57.3 47.1 56.8 46.7 56.6C46.2 56.3 45.7 56 45.3 55.6C45 55.3 44.7 55 44.4 54.7C44.3 54.6 44.3 54.5 44.2 54.4C43.8 51.2 43.2 43.4 42.8 40.2C42.6 38.6 42.3 37 42.1 35.5C42 34.7 41.9 34 41.8 33.2C41.7 32.3 41.6 31.4 41.2 30.6C41.1 30.5 40.7 30.6 40.7 30.8C40.4 32.3 40.9 34 41.1 35.5C41.3 37.2 41.5 38.8 41.7 40.5C42 42.5 42.4 49.1 42.7 51.1C42.8 52.1 43 53.1 43.1 54.2C43.2 55 43.7 55.6 44.3 56.2C44.9 56.8 45.6 57.2 46.3 57.7C46.8 58.1 47.4 58 48 58C48.7 58 49.4 58 50.1 58C51.5 58 52.8 58 54.2 58C56.9 58 59.7 58 62.4 58C67.9 58 73.3 57.9 78.8 57.9C89.8 57.9 100.9 57.9 111.9 57.9C133.9 57.9 155.8 57.8 177.8 57.8C190.3 57.8 202.7 57.6 215.2 57.6C215.7 57.6 216.2 57.1 216.6 56.8C217.1 56.4 217.5 56.1 217.9 55.6C218.5 55 219.1 54.3 219.6 53.6C220.1 52.9 220.7 52.3 221.2 51.7C221.3 51.6 221.2 51.6 221.2 51.6C221.4 51.4 221.6 51.1 221.5 50.8C221.6 50 221.2 49.7 221 49.4Z" fill="#6D5873"/>
<path d="M221.5 21.7C221.1 21.1 220.4 20.7 219.9 20.2C219.5 19.8 218.9 19.9 218.3 19.9C217.6 19.9 216.9 19.9 216.2 19.9C214.8 19.9 213.5 19.9 212.1 19.9C209.4 19.9 206.6 19.9 203.9 19.9C198.4 19.9 189.3 20 183.9 20C172.9 20 161.8 20 150.8 20C128.8 20 106.9 20.1 84.9 20.1C72.4 20.1 59.9999 20.3 47.4999 20.3C46.9999 20.3 46.4999 20.8 46.0999 21.1C45.5999 21.5 45.1999 21.8 44.7999 22.3C44.1999 22.9 43.5999 23.6 43.0999 24.3C42.5999 25 41.9999 25.6 41.4999 26.2C41.3999 26.3 41.4999 26.3 41.4999 26.3C41.2999 26.5 41.0999 26.8 41.1999 27.1C41.2999 27.5 41.6 27.8 41.9 28C42.2 28.3 42.4999 28.6 42.7999 28.8C44.0999 29.8 45.4999 30.5 47.0999 30.8C47.1999 30.9 47.3 30.9 47.4 30.9C47.7 30.9 47.9999 30.7 48.2999 30.5C49.5999 29.5 50.6999 28.1 51.4999 26.6C51.6999 26.2 51.7999 25.9 51.5999 25.6C51.3999 25.3 50.9999 25.1 50.6999 24.9C49.8999 24.4 49.2 24.1 48.4 23.7C48 23.6 47.5999 23.7 47.2999 23.9C46.5999 24.3 45.9 25.2 45.4 25.8C45.4 25.9 45.2999 25.9 45.2999 26C45.2999 26.1 45.4 26.2 45.4 26.2C45.6 26.4 45.7 26.5 45.9 26.7L45.9999 26.8C46.0999 26.8 46.0999 26.8 46.1999 26.7C46.7999 26.1 47.3999 25.5 47.9999 24.9C48.2999 25.1 48.5999 25.3 48.9999 25.5C49.2999 25.7 49.7 25.8 49.9 26.1C50 26.2 50.1999 26.4 50.0999 26.6C50.0999 26.8 49.8999 26.9 49.7999 27.1C49.3999 27.7 48.9999 28.3 48.5999 28.9C48.2999 29.3 47.8999 29.7 47.5999 30.1C46.2999 29.8 45.1999 29.3 44.0999 28.5C44.0999 28.4 43.6999 28.1 43.5999 28.1C43.3999 27.9 43.2999 27.8 43.0999 27.6C42.8999 27.4 42.6999 27.2 42.5999 27C42.4999 26.9 42.2999 26.6 42.2999 26.5C42.2999 26.3 42.5999 25.9 42.7999 25.8C43.0999 25.5 43.2999 25.2 43.5999 24.9C44.0999 24.3 44.6999 23.8 45.1999 23.2C45.3999 23 45.6 22.8 45.9 22.5C46.4 22 46.8 21.5 47.4 21.1C48 20.7 48.5999 20.5 49.2999 20.5C50.0999 20.5 50.8999 20.5 51.6999 20.5C54.8999 20.5 57.9999 20.5 61.1999 20.5C64.3999 20.5 67.4999 20.5 70.6999 20.5C73.7999 20.5 76.9999 20.5 80.0999 20.5C91.1999 20.5 102.2 20.5 113.3 20.4C135.2 20.4 157.2 20.3 179.1 20.3C181.4 20.3 183.8 20.3 186.1 20.3C191.6 20.3 200.5 20.3 206 20.3C208.8 20.3 211.5 20.3 214.3 20.2C215 20.2 215.7 20.2 216.4 20.2C217 20.2 217.6 20.1 218.2 20.1C218.7 20.1 219.2 20.6 219.5 20.8C219.9 21.1 220.3 21.4 220.7 21.8C221 22.1 221.2 22.4 221.4 22.7C221.5 22.8 221.5 22.9 221.6 23C221.3 26.2 220.9 29.4 220.6 32.5C220.4 34.1 220.3 40.2 220.2 41.8C220.1 42.6 220.1 43.3 220 44.1C219.9 45 219.8 45.9 220 46.7C220 46.8 220.5 46.7 220.5 46.5C221.1 45 221.1 43.3 221.2 41.8C221.4 40.1 221.6 33.9 221.8 32.2C222 30.2 222.2 28.2 222.4 26.2C222.5 25.2 222.6 24.2 222.7 23.1C222.3 22.9 221.9 22.3 221.5 21.7Z" fill="#6D5873"/>
<g opacity="0.15">
<path d="M193.2 37.5C194.1 37 195.3 36.9 196.4 37.1C196.9 37 197.6 37.5 197.8 37.7C198 36 199.1 34.9 200.5 33.9C202.2 32.7 203.8 32 205.8 32.7C207.4 33.3 209.6 34.5 209.9 36.4C210.2 38.2 208.7 39.6 207.7 40.9C207.1 41.6 206.6 42.2 206 42.6C206 42.7 205.9 42.7 205.9 42.8C204.6 44.2 202.6 43.4 201.1 42.6C200.1 42 199 41.2 198.4 40.2C198.1 40.6 197.9 41 197.4 41.3C196.9 41.6 196.2 41.8 195.6 41.9C194.8 42.1 193.5 41.4 193.1 40.7C192.8 40.2 192.5 39.4 192.5 38.8C192.3 38.2 192.7 37.8 193.2 37.5Z" fill="#E8E6E8"/>
<path d="M193.7 46.7C194.1 46.3 194.8 46.1 195.3 46C196.1 45.8 196.8 46 197.6 46.2C198 46.3 198.6 46.5 198.9 47C199.1 47.5 199.3 47.9 199 48.4C198.7 48.8 198.3 49.1 197.9 49.2C197.2 49.4 196.3 49.4 195.6 49.3C195 49.2 194.3 48.9 193.9 48.5C193.4 48 193.3 47.2 193.7 46.7Z" fill="#E8E6E8"/>
<path d="M212.8 35.2C212.9 34.9 213.2 34.6 213.4 34.4C213.6 34.1 214.7 34.7 214.7 35C214.7 35.3 214.7 35.7 214.6 36C214.5 36.3 214.1 36.5 213.8 36.6C213.6 36.7 213.1 36.4 213 36.2C212.8 35.9 212.7 35.5 212.8 35.2Z" fill="#E8E6E8"/>
<path d="M185.1 51.5C185.2 51.4 185.2 51.3 185.3 51.1C185.4 51 185.6 50.9 185.7 50.8C186.1 50.6 186.6 50.6 187 50.5C187.3 50.4 187.6 50.6 187.8 50.7C187.9 50.8 188.4 51.1 188.3 51.3C188.1 51.6 187.9 52 187.5 52.1C186.9 52.3 186.4 52.1 185.8 52C185.8 52.1 184.9 51.7 185.1 51.5Z" fill="#E8E6E8"/>
<path d="M192.6 40.3C193.1 40.9 193.6 41.6 194.4 41.8C194.7 41.9 195 41.9 195.2 41.9C196.4 41.8 197.6 41.1 198.2 40.1C198.7 41.1 199.7 41.8 200.6 42.4C201.3 42.9 202 43.3 202.8 43.5C203.5 43.6 204.1 43.4 204.8 43.4C205.4 43.3 205.8 42.9 206.2 42.4C207.6 40.8 208.9 39.2 209.7 37.2C209.6 38.3 209.1 39.4 208.4 40.3C207.3 41.8 206.3 43.3 205 44.6C204.2 44.7 203.2 44.6 202.4 44.4C202 44.2 201.6 44 201.2 43.7C200.1 43 199 42.2 198.2 41.2C198.4 41.5 195.7 42.2 195.4 42.3C193.7 42.8 193.6 41.8 192.6 40.3Z" fill="#E6C9C3"/>
<path d="M193.4 47.4C193.4 48.1 194 48.6 194.6 48.9C195.6 49.3 199.4 49.8 198.9 47.8C199.1 48.6 198.8 49.4 198 49.7C197 50.1 196 50.1 195 49.8C194.1 49.4 193.4 48.4 193.4 47.4Z" fill="#E6C9C3"/>
</g>
<path opacity="0.15" d="M63.2999 44.8C63.0999 44.5 62.7 44.4 62.4 44.3C62.2 44.2 62 44.1 61.9 43.9C61.6 43.6 60.7999 43.9 60.4999 44C60.0999 44.1 59.4999 44.4 59.2999 44.8C59.1999 45.1 59.1999 45.3 58.9999 45.5C58.8999 45.6 58.9 45.8 58.9 45.9C58.6 45.3 58.1 44.8 57.7 44.4C55.9 42.5 52.6999 42.4 50.7999 44.4C49.2999 46 50 48.8 51.9 49.8C53.5 50.7 56.6999 50.9 58.0999 49.4C58.6999 48.8 59.2999 47.6 59.0999 46.7C59.0999 46.6 59.0999 46.6 59.0999 46.5C59.1999 46.6 59.3999 46.7 59.5999 46.7C60.1999 46.9 61.0999 46.7 61.5999 46.5C62.2999 46.4 63.8999 45.7 63.2999 44.8Z" fill="#E8E6E8"/>
<path opacity="0.15" d="M59.3001 25.4C59.3001 25.4 59.2001 25.4 59.2001 25.5C58.9001 25.5 58.6001 25.6 58.3001 25.8C57.2001 26.4 56.4001 27.2 56.6001 28.5C56.7001 28.9 57.8001 28.7 58.0001 28.6C59.6001 28.2 61.5001 27.2 61.9001 25.4C62.1001 24.4 59.6001 25.3 59.3001 25.4Z" fill="#E8E6E8"/>
<path opacity="0.15" d="M97.4999 48.6C96.8999 48.1 96.1999 48 95.4999 48.1C95.0999 48.1 94.6 48.3 94.2 48.5H94.0999C93.8999 48.5 93.4999 48.6 93.2999 48.8C93.0999 49.1 92.8 49.3 92.7 49.7C92.7 50 92.7 50.3 92.9 50.6C93.1 51.1 93.7999 51.4 94.2999 51.6C95.0999 51.9 96 51.6 96.7 51.3C97.2 51.1 98.2 50.7 98.2 50C98.2 49.4 97.8999 49 97.4999 48.6Z" fill="#E8E6E8"/>
<path opacity="0.15" d="M90.7 50.7C90.6 50.6 90.6 50.5 90.4 50.5C90.3 50.5 90.2 50.4 90 50.4C89.8 50.4 89.6 50.4 89.4 50.4C89 50.5 88.7 50.5 88.4 50.8C88.3 50.9 88.1 51.1 88 51.3C88 51.4 88 51.5 88 51.5L88.1 51.6C88.2 51.6 88.3 51.7 88.4 51.7C88.7 51.8 89.1 51.8 89.4 51.7C89.8 51.6 90.2 51.4 90.5 51.2C90.6 51.1 90.7 50.9 90.7 50.7C90.7 50.8 90.7 50.8 90.7 50.7Z" fill="#E8E6E8"/>
<path opacity="0.15" d="M121.3 49.9L121.2 49.8C121.2 49.7 121.1 49.7 121 49.6C120.9 49.5 120.7 49.5 120.5 49.5C120.3 49.5 120 49.5 119.8 49.6C119.5 49.6 119 49.8 118.8 50.1C118.7 50.2 118.6 50.4 118.7 50.5C118.8 50.7 119.1 50.7 119.3 50.7C119.4 50.7 119.5 50.7 119.6 50.8C119.9 50.8 120.1 50.8 120.4 50.7C120.6 50.6 120.8 50.6 121 50.4C121.1 50.3 121.3 50.2 121.3 50.1C121.3 50.1 121.3 50.1 121.3 49.9C121.2 50 121.2 49.9 121.3 49.9Z" fill="#E8E6E8"/>
<path opacity="0.15" d="M55.9999 40.6H55.8999C55.7999 40.6 55.6999 40.6 55.5999 40.6H55.4999C55.3999 40.6 55.1999 40.7 55.0999 40.7C54.9999 40.7 54.9999 40.7 54.8999 40.8L54.7999 40.9C54.6999 41 54.5999 41 54.4999 41.1C54.3999 41.2 54.3999 41.2 54.3999 41.3C54.3999 41.4 54.4999 41.4 54.5999 41.4C54.6999 41.4 54.6999 41.4 54.7999 41.4C54.9999 41.4 55.1999 41.4 55.3999 41.3C55.5999 41.2 55.7999 41.1 55.9999 41C56.0999 40.9 56.0999 40.9 56.0999 40.8C55.9999 40.7 55.9999 40.7 55.9999 40.6Z" fill="#E8E6E8"/>
<path opacity="0.15" d="M180.2 25.4C180 25.1 179.6 24.9 179.3 24.8C178.9 24.7 178.5 24.6 178 24.7C177.4 24.8 176.7 25 176.4 25.4C176.2 25.7 176.1 25.8 176.2 26.1C176.2 26.3 176.3 26.4 176.4 26.5C176.6 26.7 176.9 26.9 177.2 27C177.6 27.1 178.2 27.1 178.7 27C179.1 26.9 179.6 26.8 179.9 26.5C180.1 26.2 180.5 25.8 180.2 25.4Z" fill="#E8E6E8"/>
<path opacity="0.15" d="M189.8 26.4C189.7 26.4 189.7 26.3 189.6 26.3C189.5 26.3 189.4 26.2 189.3 26.2C189.1 26.2 189 26.2 188.8 26.3C188.7 26.3 188.6 26.4 188.6 26.5C188.6 26.6 188.6 26.6 188.6 26.7C188.6 26.8 188.7 26.8 188.8 26.8C189 26.9 189.2 26.9 189.4 26.9C189.5 26.9 189.8 26.8 189.8 26.7C189.8 26.6 189.8 26.6 189.8 26.5C189.9 26.5 189.9 26.5 189.8 26.4Z" fill="#E8E6E8"/>
<path opacity="0.15" d="M59.2 46.8C59.2 47.7 58.8 48.6 58.2 49.3C58 49.5 57.7 49.8 57.4 49.9C56.8 50.2 56.1 50.3 55.4 50.3C54.3 50.3 53.0999 50.1 52.0999 49.5C51.0999 48.9 50.3 47.9 50.2 46.8C50.3 48 50.9 49 51.9 49.6C52.9 50.3 53.9999 50.6 55.0999 51C55.3999 51.1 55.7999 51.2 56.0999 51.1C56.3999 51 56.6999 50.8 56.9999 50.6C57.4999 50.2 58 49.8 58.4 49.2C58.8 48.7 59.1 47.8 59.2 46.8Z" fill="#E6C9C3"/>
<path d="M63.4999 45.1C63.2999 45.5 62.9999 45.9 62.5999 46.1C62.2999 46.3 62 46.4 61.7 46.5C61.3 46.6 60.8999 46.7 60.4999 46.8C60.1999 46.8 59.9 46.8 59.7 46.8C59.9 46.9 60.0999 47 60.2999 47C60.4999 47.1 60.7 47.1 60.9 47.1C61.2 47.1 61.4999 47 61.7999 46.9C62.4999 46.6 63.0999 45.9 63.4999 45.1Z" fill="#E6C9C3"/>
<path opacity="0.15" d="M61.7 25.6C61.3 27 59.7 27.8 58.4 28.2C58.1 28.3 55.9 28.9 56.5 27.8C56.1 28.1 56.3 28.7 56.7 28.9C57.1 29.1 57.6 29.1 58 28.9C59 28.6 59.9 27.9 60.7 27.1C61.2 26.7 61.7 26.2 61.7 25.6Z" fill="#E6C9C3"/>
<path opacity="0.15" d="M98.2001 49.6C98.1001 50 97.9001 50.3 97.6001 50.5C97.5001 50.6 97.3001 50.7 97.2001 50.7C96.6001 51 96.1001 51.2 95.5001 51.3C94.9001 51.4 94.3001 51.3 93.7001 51.1C93.5001 51 93.2001 51 93.1001 50.8C92.8001 50.5 92.8001 50.1 92.9001 49.6C92.8001 50.1 92.7001 50.6 92.9001 51C93.1001 51.5 93.6001 51.8 94.1001 51.9C94.6001 52 95.1001 52 95.6001 51.9C96.2001 51.8 96.8001 51.5 97.3001 51.1C97.6001 50.8 98.1001 50.2 98.2001 49.6Z" fill="#E6C9C3"/>
<path opacity="0.15" d="M180.3 25.5C180.3 25.7 180.2 25.9 180.1 26.1C180 26.2 179.9 26.3 179.7 26.4C178.8 27 177.6 27 176.7 26.4C176.6 26.3 176.4 26.2 176.3 26C176.2 25.8 176.2 25.6 176.3 25.5C176.2 25.9 176.3 26.4 176.6 26.7C176.9 27 177.4 27.2 177.8 27.3C178.1 27.4 178.4 27.4 178.7 27.4C179.1 27.3 179.5 27.1 179.8 26.7C179.9 26.5 180.1 25.9 180.3 25.5Z" fill="#E6C9C3"/>
<defs>
<linearGradient id="paint0_linear_9_5738" x1="13.9254" y1="-9.82758" x2="46.0824" y2="20.2322" gradientUnits="userSpaceOnUse">
<stop stop-color="#B39B19"/>
<stop offset="0.3744" stop-color="#7C852D"/>
<stop offset="1" stop-color="#195C52"/>
</linearGradient>
<linearGradient id="paint1_linear_9_5738" x1="-8.37937" y1="5.79471" x2="23.7774" y2="35.8543" gradientUnits="userSpaceOnUse">
<stop stop-color="#B39B19"/>
<stop offset="0.3744" stop-color="#7C852D"/>
<stop offset="1" stop-color="#195C52"/>
</linearGradient>
<linearGradient id="paint2_linear_9_5738" x1="-2.4955" y1="-0.499677" x2="29.6615" y2="29.5601" gradientUnits="userSpaceOnUse">
<stop stop-color="#B39B19"/>
<stop offset="0.3744" stop-color="#7C852D"/>
<stop offset="1" stop-color="#195C52"/>
</linearGradient>
<linearGradient id="paint3_linear_9_5738" x1="5.78906" y1="-21.7817" x2="76.3942" y2="43.2419" gradientUnits="userSpaceOnUse">
<stop stop-color="#B39B19"/>
<stop offset="0.3744" stop-color="#7C852D"/>
<stop offset="1" stop-color="#195C52"/>
</linearGradient>
<linearGradient id="paint4_linear_9_5738" x1="-12.9268" y1="-9.75817" x2="57.6783" y2="55.2653" gradientUnits="userSpaceOnUse">
<stop stop-color="#B39B19"/>
<stop offset="0.3744" stop-color="#7C852D"/>
<stop offset="1" stop-color="#195C52"/>
</linearGradient>
<linearGradient id="paint5_linear_9_5738" x1="-22.8178" y1="0.982615" x2="47.7869" y2="66.0058" gradientUnits="userSpaceOnUse">
<stop stop-color="#B39B19"/>
<stop offset="0.3744" stop-color="#7C852D"/>
<stop offset="1" stop-color="#195C52"/>
</linearGradient>
<linearGradient id="paint6_linear_9_5738" x1="267.449" y1="28.956" x2="227.274" y2="36.2152" gradientUnits="userSpaceOnUse">
<stop stop-color="#B39B19"/>
<stop offset="0.3744" stop-color="#7C852D"/>
<stop offset="1" stop-color="#195C52"/>
</linearGradient>
<linearGradient id="paint7_linear_9_5738" x1="271.478" y1="37.2313" x2="235.79" y2="57.0563" gradientUnits="userSpaceOnUse">
<stop stop-color="#B39B19"/>
<stop offset="0.3744" stop-color="#7C852D"/>
<stop offset="1" stop-color="#195C52"/>
</linearGradient>
<linearGradient id="paint8_linear_9_5738" x1="270.224" y1="42.1638" x2="230.44" y2="51.3221" gradientUnits="userSpaceOnUse">
<stop stop-color="#B39B19"/>
<stop offset="0.3744" stop-color="#7C852D"/>
<stop offset="1" stop-color="#195C52"/>
</linearGradient>
<linearGradient id="paint9_linear_9_5738" x1="279.8" y1="23.7344" x2="192.08" y2="38.9038" gradientUnits="userSpaceOnUse">
<stop stop-color="#B39B19"/>
<stop offset="0.3744" stop-color="#7C852D"/>
<stop offset="1" stop-color="#195C52"/>
</linearGradient>
<linearGradient id="paint10_linear_9_5738" x1="282.9" y1="39.5878" x2="196.003" y2="58.913" gradientUnits="userSpaceOnUse">
<stop stop-color="#B39B19"/>
<stop offset="0.3744" stop-color="#7C852D"/>
<stop offset="1" stop-color="#195C52"/>
</linearGradient>
<linearGradient id="paint11_linear_9_5738" x1="285.551" y1="36.1438" x2="207.413" y2="78.7948" gradientUnits="userSpaceOnUse">
<stop stop-color="#B39B19"/>
<stop offset="0.3744" stop-color="#7C852D"/>
<stop offset="1" stop-color="#195C52"/>
</linearGradient>
<linearGradient id="paint12_linear_9_5738" x1="131.825" y1="-9.24449" x2="132.231" y2="77.7918" gradientUnits="userSpaceOnUse">
<stop stop-color="#BFA0A2"/>
<stop offset="0.2596" stop-color="#8B7588"/>
<stop offset="0.5642" stop-color="#493E66"/>
<stop offset="0.8176" stop-color="#224569"/>
<stop offset="1" stop-color="#0A4A6B"/>
</linearGradient>
<radialGradient id="paint13_radial_9_5738" cx="0" cy="0" r="1" gradientUnits="userSpaceOnUse" gradientTransform="translate(128.602 5.3004) scale(223.516 223.516)">
<stop stop-color="#CCAAAC"/>
<stop offset="1" stop-color="#6C6778"/>
</radialGradient>
</defs>
</svg>
