<svg width="249" height="319" viewBox="0 0 249 319" fill="none" xmlns="http://www.w3.org/2000/svg">
<path d="M36.0066 86.4206C28.068 90.4213 21.6482 97.4218 17.948 105.546C15.5537 110.802 9.54709 134.378 20.0026 134.986C30.7885 135.629 34.9839 116.536 36.2672 109.158C37.2203 101.745 37.3652 94.079 36.0066 86.4206Z" fill="url(#paint0_linear_10_10248)"/>
<path d="M155.144 96.7166C152.081 100.399 149.644 104.483 146.582 108.166C142.572 112.917 145.539 119.577 149.525 124.508C153.51 129.439 158.93 135.023 165.162 134.515C170.221 134.05 174.872 132.706 179.445 130.52C181.019 129.852 182.297 128.818 183.393 127.933C185.255 126.126 186.638 124.102 188.274 121.27C193.148 113.104 196.11 104.066 196.613 94.6016C196.78 91.4467 196.8 88.1092 195.247 85.4397C190.778 86.6357 185.614 88.0919 180.843 87.4189C178.531 87.1738 176.22 86.9286 173.725 86.831C171.231 86.7335 168.666 87.2965 166.432 87.8945C161.746 89.5684 158.206 93.0337 155.144 96.7166Z" fill="url(#paint1_linear_10_10248)"/>
<path d="M69.592 62.5967L69.7396 62.7793C72.6144 65.5889 72.3692 67.9007 72.6095 71.9338C72.8497 75.9669 73.09 80.0001 73 83.9981C73.0027 91.8467 72.4924 99.8078 71.3216 107.699C70.7887 111.149 70.4036 114.782 72.6178 117.521C77.0463 123.001 84.7596 117.974 89.5157 115.64C96.2108 112.342 101.978 106.775 105.355 100.12C106.844 97.1051 108.185 93.9077 107.874 90.5351C107.824 87.858 106.931 85.2585 105.673 82.9542C104.302 80.1371 102.6 77.2849 100.498 75.0582L100.351 74.8756C97.5112 71.7358 94.1235 69.0387 90.4832 67.1498C89.8577 66.7495 89.3798 66.5319 88.5717 66.2792C84.2709 64.3203 79.8999 63.0218 75.2414 62.8618C73.4425 62.504 71.6086 62.4766 69.592 62.5967Z" fill="url(#paint2_linear_10_10248)"/>
<path d="M69.5921 62.5967L69.7396 62.7793C70.2175 62.9969 70.5128 63.3623 70.9907 63.5799C70.9907 63.5799 70.9906 63.5799 71.1382 63.7625C72.5368 64.7458 73.9004 66.0593 74.7511 67.4854C75.897 69.2767 76.3124 71.6586 76.9104 73.8928C78.1489 79.5346 79.5701 85.0288 80.6611 90.488C85.8325 90.5354 90.4761 87.6882 94.6417 84.6232C95.5549 83.8851 96.4331 83.4773 97.1987 82.5566C98.8774 80.8978 99.8881 77.6653 100.351 74.8756L100.203 74.693C97.3636 71.5531 93.9759 68.8561 90.3356 66.9672C89.7101 66.5669 89.2323 66.3493 88.4241 66.0966C84.1233 64.1376 79.7524 62.8392 75.0938 62.6792C73.4425 62.504 71.6086 62.4766 69.5921 62.5967Z" fill="url(#paint3_linear_10_10248)"/>
<path d="M173.725 86.831C173.69 87.1613 173.507 87.3089 173.472 87.6392C171.128 95.5728 169.852 104.455 173.228 111.993C173.34 112.506 173.636 112.871 174.296 112.941C174.626 112.976 174.809 112.829 175.174 112.533C181.026 109.313 185.88 104.484 189.152 98.8201C185.775 105.475 180.964 111.477 175.119 116.201C176.898 119.897 179.007 123.627 181.664 126.914C181.96 127.28 182.403 127.828 183.063 127.898C183.063 127.898 183.063 127.898 183.393 127.933C185.255 126.126 186.638 124.102 188.274 121.27C193.148 113.104 196.11 104.066 196.613 94.6016C196.78 91.4467 196.8 88.1092 195.247 85.4397C190.778 86.6357 185.614 88.0919 180.843 87.4189C178.531 87.1738 176.22 86.9286 173.725 86.831Z" fill="url(#paint4_linear_10_10248)"/>
<path d="M111.049 65.3231C107.664 70.4747 105.052 76.2091 103.101 82.0136C99.2679 92.9621 97.8246 104.999 98.763 116.62C105.876 123.553 114.393 125.124 124.265 126.505C134.173 127.556 144.578 125.486 152.987 120.2C153.865 119.792 154.623 117.367 154.068 116.307C157.551 108.661 158.791 100.109 158.676 91.7477C158.611 86.0633 158.068 80.1612 157.16 74.5544C154.963 60.6287 151.445 46.563 152.108 32.4396C135.45 38.3544 120.656 50.3114 111.049 65.3231Z" fill="url(#paint5_linear_10_10248)"/>
<path d="M111.049 65.3231C107.664 70.4747 105.052 76.2091 103.101 82.0136C102.533 85.794 102.625 89.6445 103.379 93.565C111.705 93.78 120.024 92.4914 127.97 89.9944C130.96 79.1234 133.471 68.0348 135.8 57.0938L132.781 83.9921C132.423 85.791 132.213 87.7725 133.211 89.3812C134.027 91.1376 135.756 92.1559 137.52 92.8439C142.411 95.5334 147.885 97.4497 153.38 96.0286C155.944 95.4656 157.623 93.8067 159.189 91.635C159.124 85.9507 158.581 80.0487 157.673 74.4419C155.476 60.5162 151.958 46.4504 152.62 32.3271C135.45 38.3545 120.656 50.3114 111.049 65.3231Z" fill="url(#paint6_linear_10_10248)"/>
<path d="M-10.2878 157.656C-21.7289 172.64 -29.7823 190.322 -36.6272 207.63C-38.2209 211.636 -38.8863 217.911 -42.2088 220.898L-25.5963 205.961C-22.4564 203.121 -20.2598 195.005 -17.858 191.252C-9.70447 178.925 0.570668 165.487 11.3388 155.274C19.1497 147.753 28.149 143.197 39.0749 142.519C46.1154 142.263 52.4602 142.268 58.8827 143.116C60.534 143.291 62.0026 143.614 63.8015 143.972C85.831 148.813 107.215 156.591 129.14 162.423C141.809 165.77 154.95 167.831 168.23 168.572C178.025 169.109 194.553 173.868 199.594 162.546C200.429 160.965 200.787 159.166 201.145 157.367C201.538 155.238 202.078 153.292 202.471 151.163C202.576 150.172 203.011 149.216 202.456 148.155C202.048 147.277 201.275 146.694 200.684 145.964C195.603 141.918 190.304 138.35 184.97 135.113C182.763 133.877 180.556 132.641 178.497 131.588C181.997 134.798 185.653 139.694 188.205 143.972C194.047 153.442 179.748 154.431 172.743 154.356C171.57 154.398 170.579 154.293 169.918 154.223C157.699 152.927 145.845 151.336 133.695 149.38C110.24 145.39 86.629 139.713 64.0015 132.638C63.1934 132.386 62.3852 132.133 61.5771 131.88C53.018 129.136 44.9367 126.609 35.7671 126.471C17.7932 125.901 -0.195289 144.366 -10.2878 157.656Z" fill="url(#paint7_linear_10_10248)"/>
<path d="M64.4648 151.891C64.6124 152.073 64.9426 152.108 65.2729 152.143C85.2234 159.269 105.321 166.576 125.742 172.415C146.163 178.255 168.27 183.939 189.617 184.198C191.12 184.191 192.807 184.036 194.31 184.028C194.641 184.063 194.823 183.916 194.971 184.098C200.508 183.851 206.079 183.273 211.278 181.486C216.295 179.847 216.229 174.163 217.233 169.427C217.338 168.436 217.773 167.48 217.218 166.419C216.585 164.515 213.682 163.54 211.736 162.999C210.45 162.529 208.729 163.014 208.111 164.118C207.893 164.596 207.823 165.256 207.753 165.917C207.29 168.706 205.941 170.4 203.342 171.293C199.316 173.037 195.206 172.434 191.095 171.831C187.315 171.264 183.907 171.904 179.944 171.484C169.376 170.363 158.843 168.912 148.345 167.131C133.258 164.529 118.241 161.267 103.442 157.527C96.4645 155.618 89.7392 152.901 82.9089 151.175C77.5473 149.771 70.1266 147.315 64.6324 148.736C63.9369 148.996 63.2413 149.256 63.0236 149.734C63.0662 150.908 63.8393 151.491 64.4648 151.891Z" fill="url(#paint8_linear_10_10248)"/>
<path d="M206.68 171.313C207.888 170.94 208.696 171.193 209.687 171.298C210.347 171.368 210.207 172.689 209.99 173.167C209.224 174.088 208.606 175.191 207.215 175.712C206.007 176.084 205.051 175.649 204.278 175.066C203.8 174.848 203.757 173.675 204.158 173.05C204.888 172.459 205.654 171.538 206.68 171.313Z" fill="#DBCF5E"/>
<path d="M188.033 175.514C189.058 175.289 190.415 175.099 191.44 174.874C192.466 174.648 193.675 174.276 194.848 174.233C195.361 174.121 196.056 173.86 196.717 173.93C197.377 174 198.038 174.07 198.663 174.471C199.141 174.688 199.366 175.714 199.149 176.192C198.678 177.478 197.175 177.486 196.001 177.528C194.828 177.571 193.655 177.613 192.333 177.473C191.16 177.516 189.839 177.376 188.701 177.088C187.38 176.948 186.094 176.477 184.773 176.337C184.773 176.337 184.477 175.972 184.66 175.824C185.981 175.965 187.007 175.739 188.033 175.514Z" fill="#DBCF5E"/>
<path d="M41.38 185.344C42.6309 186.145 43.7343 186.763 44.9853 187.563C52.3435 192.184 59.1463 195.744 62.7467 204.309C62.6341 203.796 41.1126 205.187 38.5832 205.42C28.0226 205.803 17.9872 201.232 9.26542 195.298C-2.54882 187.031 12.3451 180.429 20.2286 180.096C28.1122 179.763 35.055 182.002 41.38 185.344Z" fill="url(#paint9_linear_10_10248)"/>
<defs>
<linearGradient id="paint0_linear_10_10248" x1="42.0885" y1="59.3545" x2="16.0441" y2="144.135" gradientUnits="userSpaceOnUse">
<stop stop-color="#B39B19"/>
<stop offset="0.3744" stop-color="#7C852D"/>
<stop offset="1" stop-color="#195C52"/>
</linearGradient>
<linearGradient id="paint1_linear_10_10248" x1="226.752" y1="54.3761" x2="161.065" y2="120.237" gradientUnits="userSpaceOnUse">
<stop stop-color="#B39B19"/>
<stop offset="0.3744" stop-color="#7C852D"/>
<stop offset="1" stop-color="#195C52"/>
</linearGradient>
<linearGradient id="paint2_linear_10_10248" x1="94.1157" y1="35.3527" x2="86.4368" y2="95.3076" gradientUnits="userSpaceOnUse">
<stop stop-color="#B39B19"/>
<stop offset="0.3744" stop-color="#7C852D"/>
<stop offset="1" stop-color="#195C52"/>
</linearGradient>
<linearGradient id="paint3_linear_10_10248" x1="94.7322" y1="37.6272" x2="67.6479" y2="126.573" gradientUnits="userSpaceOnUse">
<stop stop-color="#B39B19"/>
<stop offset="0.3744" stop-color="#7C852D"/>
<stop offset="1" stop-color="#195C52"/>
</linearGradient>
<linearGradient id="paint4_linear_10_10248" x1="202.295" y1="36.8594" x2="156.155" y2="188.386" gradientUnits="userSpaceOnUse">
<stop stop-color="#B39B19"/>
<stop offset="0.3744" stop-color="#7C852D"/>
<stop offset="1" stop-color="#195C52"/>
</linearGradient>
<linearGradient id="paint5_linear_10_10248" x1="185.704" y1="4.74076" x2="117.286" y2="117.187" gradientUnits="userSpaceOnUse">
<stop stop-color="#B39B19"/>
<stop offset="0.3744" stop-color="#7C852D"/>
<stop offset="1" stop-color="#195C52"/>
</linearGradient>
<linearGradient id="paint6_linear_10_10248" x1="163.059" y1="20.2072" x2="83.2723" y2="183.99" gradientUnits="userSpaceOnUse">
<stop stop-color="#B39B19"/>
<stop offset="0.3744" stop-color="#7C852D"/>
<stop offset="1" stop-color="#195C52"/>
</linearGradient>
<linearGradient id="paint7_linear_10_10248" x1="248.995" y1="56.396" x2="0.258849" y2="218.89" gradientUnits="userSpaceOnUse">
<stop stop-color="#B39B19"/>
<stop offset="0.3744" stop-color="#7C852D"/>
<stop offset="1" stop-color="#195C52"/>
</linearGradient>
<linearGradient id="paint8_linear_10_10248" x1="213.797" y1="135.915" x2="-80.1357" y2="250.081" gradientUnits="userSpaceOnUse">
<stop stop-color="#B39B19"/>
<stop offset="0.3744" stop-color="#7C852D"/>
<stop offset="1" stop-color="#195C52"/>
</linearGradient>
<linearGradient id="paint9_linear_10_10248" x1="92.2725" y1="190.876" x2="10.4439" y2="193.283" gradientUnits="userSpaceOnUse">
<stop stop-color="#B39B19"/>
<stop offset="0.3744" stop-color="#7C852D"/>
<stop offset="1" stop-color="#195C52"/>
</linearGradient>
</defs>
</svg>
