<svg width="553" height="320" viewBox="0 0 553 320" fill="none" xmlns="http://www.w3.org/2000/svg">
<path d="M27.4 282C29.4 282 31.5 281.8 33.5 281.8C36.2 281.9 37.6 279.1 38.2 276.5C38.8 273.9 39.2 270.5 37.3 268.6C35.8 267.1 34.1 265.8 32.2 264.9C31.5 264.6 30.9 264.4 30.3 264.3C29.2 264.1 28.1 264.3 26.8 264.4C22.8 264.9 19 266.4 15.7 268.7C14.6 269.5 13.5 270.4 13 271.6C14.6 272.8 16.4 274.1 17.5 275.8C18 276.6 18.6 277.5 19.2 278.3C19.9 279.1 20.7 279.9 21.5 280.4C23.2 281.7 25.3 282 27.4 282Z" fill="url(#paint0_linear_9_8704)"/>
<path d="M38.9 319.5V319.4C39.1 317.7 39.9 317.2 41.2 316C42.5 314.8 43.8 313.7 45.1 312.7C47.7 310.6 50.5 308.7 53.4 306.9C54.6 306.1 56 305.3 56.3 303.9C56.9 301 53.2 299.7 51.2 298.8C48.3 297.5 45 297.1 41.8 297.7C40.4 298 39 298.5 37.9 299.4C37.1 300.1 36.5 301.1 36 302.1C35.4 303.3 35 304.6 34.7 305.9V306C34.4 307.8 34.4 309.6 34.8 311.4C34.9 311.7 34.9 312 35 312.2C35.5 314.1 36.2 315.9 37.5 317.5C37.9 318.2 38.4 318.9 38.9 319.5Z" fill="url(#paint1_linear_9_8704)"/>
<path d="M38.9 319.5V319.4C38.9 319.2 38.8 319 38.8 318.7C38.8 318.7 38.8 318.7 38.8 318.6C38.7 317.8 38.8 317.1 39.1 316.4C39.4 315.5 40 314.7 40.6 314C42.1 312.1 43.6 310.2 45.1 308.3C43.8 306.5 41.5 305.8 39.4 305.2C39 305.1 38.5 304.9 38.1 304.9C37.1 304.8 35.7 305.3 34.8 305.9V306C34.5 307.8 34.5 309.6 34.9 311.4C35 311.7 35 312 35.1 312.2C35.6 314.1 36.3 315.9 37.6 317.5C37.9 318.2 38.4 318.9 38.9 319.5Z" fill="url(#paint2_linear_9_8704)"/>
<path d="M19.2 278.5C19.3 278.5 19.4 278.4 19.5 278.4C22.8 277.1 26 275.1 27.6 272C27.7 271.8 27.8 271.6 27.7 271.4C27.6 271.3 27.5 271.2 27.4 271.2C24.8 270.1 21.9 269.8 19.1 270.3C22.2 269.6 25.5 269.6 28.6 270.3C29.4 268.7 30 267 30.4 265.3C30.5 265.1 30.5 264.8 30.4 264.6C30.4 264.6 30.4 264.6 30.3 264.5C29.2 264.3 28.1 264.5 26.8 264.6C22.8 265.1 19 266.6 15.7 268.9C14.6 269.7 13.5 270.6 13 271.8C14.6 273 16.4 274.3 17.5 276C18 276.8 18.5 277.7 19.2 278.5Z" fill="url(#paint3_linear_9_8704)"/>
<path d="M28.8 305C31.4 304.7 34 304.1 36.5 303.2C41.2 301.5 45.6 298.9 49.1 295.4C49.5 291.2 47.8 287.9 45.5 284.3C43.2 280.7 39.7 277.9 35.7 276.4C35.3 276.2 34.3 276.6 34.1 277C30.6 277.9 27.5 279.8 24.7 282.1C22.8 283.7 21.1 285.4 19.4 287.2C15.4 291.7 11.7 296.6 6.79999 300.1C13.3 304.2 21.2 305.9 28.8 305Z" fill="url(#paint4_linear_9_8704)"/>
<path d="M28.8 305C31.4 304.7 34 304.1 36.5 303.2C37.9 302.4 39.2 301.3 40.2 300C38.1 297.2 35.4 294.7 32.4 292.8C28 294.8 23.7 296.8 19.4 299L29.2 292.9C29.9 292.5 30.6 292 30.9 291.3C31.2 290.6 31.1 289.7 30.9 288.9C30.4 286.6 29.6 284.2 27.7 282.8C26.8 282.1 25.8 282 24.7 282.1C22.8 283.7 21.1 285.4 19.4 287.2C15.4 291.7 11.7 296.6 6.79999 300.1C13.3 304.2 21.2 305.9 28.8 305Z" fill="url(#paint5_linear_9_8704)"/>
<path d="M4.59998 233.9C2.59998 236.9 1 240.2 0 243.7C3.2 241.9 7.29998 242 10.7 243C12.9 243.7 15.1 244.8 17.4 244.9C17.7 244.9 18.1 244.9 18.4 244.9C20 244.7 21.4 244 22.8 243.2C26 241.3 30.7 237.8 32.3 234.4C32.6 233.8 32.8 233.2 32.6 232.6C31.7 229.5 26 228.1 23.3 227.6C19.4 226.8 15.3 227 11.5 228.3C10.6 228.6 9.69999 229 8.89999 229.4C8.49999 229.6 8.19999 229.8 7.79999 230.1C6.59999 231.2 5.49998 232.5 4.59998 233.9Z" fill="url(#paint6_linear_9_8704)"/>
<path d="M3.79999 217.8C6.29999 217.1 8.99998 217.6 11.2 218.9C13.5 220.3 14.2 222.8 15.5 225.1C16.2 226.4 16.9 227.7 17.6 229C18.2 230.2 18.8 231.5 19.3 232.8C19.5 233.4 19.8 234 20.3 234.4C20.8 234.7 21.4 234.8 21.9 234.8C25.9 235 29.9 234.8 33.8 234.2C35.4 230.3 35.2 227.2 35.2 222.9C35.2 219.9 34.4 217 33 214.4C32.7 213.9 32.4 213.4 31.9 213C31.8 212.9 31.7 212.9 31.7 212.8C31.1 212.5 30.5 212.4 29.8 212.3C23.1 211.6 16.7 211 10.4 213.5C8.99999 214 7.59999 214.7 6.39999 215.5C6.09999 215.7 5.39999 216.5 4.79999 217.1C4.29999 217.4 3.99999 217.7 3.79999 217.8Z" fill="url(#paint7_linear_9_8704)"/>
<path d="M4.59998 217.4C4.59998 217.5 4.59998 217.5 4.59998 217.4C5.19998 217.3 5.9 217.3 6.5 217.3C8.2 217.4 9.69998 217.3 11.2 218.2C12.9 219.2 14 221 15.1 222.6C16.2 224.3 17.3 226.1 18.4 227.8C18.7 228.3 19.1 228.8 19.6 229.2C21 230.1 24 227 25.2 226.2C25.7 225.9 26.2 225.5 26.4 224.9C26.5 224.4 26.3 223.8 26 223.3C24.8 221.2 23.4 219.2 21.6 217.4C24.1 218.6 26.6 219.7 29.1 220.8C29.6 221 30.2 221.3 30.7 221.1C31.5 220.9 31.9 219.9 32.1 219.1C32.5 217 32.1 214.9 31.8 212.9C31.7 212.8 31.6 212.8 31.6 212.7C31 212.4 30.4 212.3 29.7 212.2C26.1 211.8 22.4 211.4 18.8 211.6C17 211.7 15.2 211.9 13.4 212.4C12.5 212.6 11.6 212.9 10.8 213.2C9.59999 213.6 8.29999 213.9 7.29999 214.6C6.19999 215.4 5.39998 216.4 4.59998 217.4Z" fill="url(#paint8_linear_9_8704)"/>
<path d="M4.59998 233.9C2.59998 236.9 1 240.2 0 243.7C3.2 241.9 7.29998 242 10.7 243C12.9 243.7 15.1 244.8 17.4 244.9C19 243.9 20.5 242.7 21.1 241.2C22.1 238.9 20.7 237.5 18.7 236.7C16.3 235.7 13 235.6 11.4 235.6C13.3 235.3 15.1 235 17 234.7C17.3 231.7 14.2 229.2 11.2 229.2C10.4 229.2 9.7 229.3 9 229.5C8.6 229.7 8.29999 229.9 7.89999 230.2C6.59999 231.2 5.49998 232.5 4.59998 233.9Z" fill="url(#paint9_linear_9_8704)"/>
<path d="M524.758 45.8C524.49 51 524.089 56.2 523.821 61.4C523.152 71.8 522.482 82.3 521.813 92.7C521.545 98 521.144 103.4 520.876 108.7C520.608 113.6 521.144 119.2 519.671 124C519.671 124.2 519.538 124.4 519.404 124.5C519.136 124.7 518.868 124.8 518.467 124.8C517.396 125 516.325 125 515.254 124.9C517.396 126.4 519.671 126.7 519.538 129.4C519.27 132.4 519.002 135.3 518.734 138.3C518.199 144 518.065 149.7 517.797 155.4C517.53 160 517.262 164.5 516.86 169.1C516.593 171.4 517.262 175.2 515.12 177.2C514.049 178.2 512.577 178.3 511.105 178.9C512.443 178.4 514.585 180 515.12 180.8C515.522 181.6 515.522 182.4 515.656 183.2C515.923 187.8 515.388 192.4 515.12 197C514.317 208.3 513.514 219.6 512.577 230.9C511.506 243.6 510.569 256.4 509.632 269.1C509.364 273.5 508.963 277.8 508.561 282.2C508.16 287.6 504.01 291.9 499.727 296C497.853 297.7 495.979 299.4 493.971 301C490.624 303.6 488.75 305 483.664 305C481.656 305 479.648 305 477.64 305C471.617 305 465.459 304.9 459.436 304.9C447.522 304.8 435.475 304.7 423.562 304.7C422.759 304.7 422.089 304.7 421.286 304.7C383.94 304.5 346.728 305.8 309.381 304.1C308.31 304 307.106 304 306.169 303.6C305.5 303.3 304.83 302.9 304.161 302.7C303.224 302.4 302.153 302.5 301.082 302.6C298.673 302.9 296.397 303.5 294.255 304.2C293.185 304.5 291.98 305 290.909 305.1C289.972 305.2 289.035 305.2 287.964 305.1C275.649 304.6 263.468 304.3 251.153 304.3C213.539 304.3 175.925 304.4 138.311 304.6C136.17 304.6 134.028 304.6 131.886 304.6C117.028 304.7 102.17 304.8 87.4456 304.9C81.4221 304.9 75.2646 305 69.241 305C67.2332 305 65.2253 305 63.2174 305C58.2647 305 56.2569 303.6 52.9104 301C50.9026 299.4 49.0285 297.8 47.1545 296C42.7372 291.9 38.7215 287.6 38.3199 282.2C38.1861 280.3 38.0522 278.5 37.9184 276.6C37.7845 274.8 37.6507 273 37.5168 271.3C36.1782 253.8 34.8397 236.2 33.5011 218.7C33.2334 214.8 32.9656 211 32.6979 207.1C31.8948 195.4 30.9578 183.6 30.2885 171.9C30.0208 166.3 30.2885 160.5 29.3515 154.9C28.8161 151.9 27.6114 148.8 28.6822 145.9C29.3515 143.8 30.2885 141.9 30.8239 139.7C32.0287 135.2 26.4066 135.2 26.1389 131.1C25.7374 123.9 25.4696 116.6 25.068 109.4C24.3988 93.4 23.8633 77.4 22.7925 61.4C22.5248 56.2 22.1232 51 21.8555 45.8C21.7216 43.6 21.3201 41.2 22.1232 39.1C22.9263 37.2 24.6665 35.5 26.1389 33.9C28.5484 31.2 31.2255 28.6 33.9026 26.1C36.9814 23.4 39.7924 20.2 44.0758 18.6C46.6191 17.7 49.2963 17.6 52.1073 17.6C55.8553 17.6 59.4694 17.7 63.2174 17.7C71.6504 17.8 79.9496 17.9 88.3827 17.9C96.4141 18 103.91 19.3 111.808 20.3C113.414 20.5 115.02 20.7 116.493 20.4C118.099 20.2 119.571 19.5 121.044 19.1C126.398 17.7 134.697 18.4 140.453 18.4C155.847 18.5 171.374 18.7 186.768 18.8C214.343 19 241.783 19.3 269.358 19.5C286.893 19.4 304.429 19.2 321.964 19.1C330.665 19 339.499 18.9 348.2 18.9C352.082 18.9 356.901 18.2 360.783 18.8C364.129 19.3 367.609 20.6 370.822 21.4C370.153 20.9 369.751 20.3 369.617 19.7C374.838 18.1 381.397 18.6 387.019 18.6C393.444 18.5 399.735 18.5 406.16 18.4C420.751 18.3 435.207 18.1 449.664 18C460.908 17.9 472.152 17.8 483.53 17.7C487.278 17.7 490.892 17.6 494.64 17.6C497.317 17.6 500.128 17.7 502.672 18.6C506.955 20.2 509.9 23.4 512.845 26.1C515.656 28.6 518.199 31.2 520.608 33.9C522.081 35.6 523.955 37.2 524.624 39.1C525.293 41.2 524.892 43.6 524.758 45.8Z" fill="url(#paint10_linear_9_8704)"/>
<path d="M515.254 42.4C515.254 42.9 515.12 43.4 515.12 43.8C514.853 47.5 514.719 51.2 514.451 54.9C514.451 55.7 514.317 56.5 514.317 57.2C514.317 57.9 514.183 58.7 514.183 59.4C514.049 61.9 513.915 64.4 513.782 66.8C513.782 67.5 513.648 68.2 513.648 68.9C513.38 72.2 513.246 75.5 512.979 78.8C512.979 79.6 512.845 80.3 512.845 81C512.711 82.5 512.711 84 512.577 85.5C512.577 86.3 512.711 87.4 512.309 88.2C512.042 88.9 511.238 89.6 510.837 90.3C510.569 90.7 510.301 91.1 510.167 91.5C509.9 92.1 509.766 92.8 509.766 93.5C509.498 96 509.23 98.5 509.9 100.9C510.569 103.4 512.041 105.5 511.238 108.1C510.837 109.4 510.971 110.9 510.971 112.2C510.837 113.7 510.837 115.1 510.703 116.6C510.569 118.7 510.435 120.9 510.301 123C509.9 128.4 509.632 133.8 509.23 139.2C509.23 140 509.097 140.8 509.097 141.6C508.829 145.6 508.561 149.5 508.294 153.5C507.892 160.3 507.356 167.1 506.821 173.9C506.687 175 506.955 176.2 506.419 177.2C506.018 178.2 505.616 179.3 506.018 180.3C506.419 181.3 506.286 182.1 506.152 183.1C505.884 186.5 505.616 189.8 505.482 193.2C505.482 193.8 505.349 194.4 505.349 195C504.947 200.1 504.546 205.2 504.278 210.2C504.278 210.9 504.144 211.7 504.144 212.4C504.01 213.8 504.01 215.2 503.876 216.6C503.341 224.7 502.671 232.8 502.002 240.9C501.868 242.2 501.868 243.6 501.734 244.9C501.467 248 501.199 251.1 501.065 254.3C500.931 256.1 500.664 257.9 500.396 259.7C500.262 260.9 499.86 262 499.86 263.1C499.86 264.7 500.128 266.2 500.128 267.8C500.128 269.4 499.593 271 499.459 272.6C499.325 274.7 499.191 276.7 499.057 278.8C499.057 279.3 498.923 279.7 498.923 280.2C498.656 283.6 495.577 286.7 491.963 290.1C490.357 291.7 488.483 293.2 486.742 294.6C486.073 295.1 484.735 296.2 484.199 296.4C484.199 296.4 483.931 296.4 483.262 296.4C481.924 296.4 480.719 296.4 479.38 296.4L449.396 296.2C441.231 296.1 433.066 294.4 425.168 293.3C423.294 293 421.018 292.9 419.68 293.9C418.743 294.6 418.475 295.7 417.27 296.1C416.735 296.2 416.2 296.2 415.664 296.2C406.83 295.6 397.861 295.9 389.026 295.9C373.901 295.8 358.373 295.1 343.247 295.8C339.499 296 335.617 295.8 331.869 295.8C324.641 295.8 317.279 295.8 310.051 295.8C295.728 295.8 281.405 295.8 267.082 295.8C249.279 295.8 231.878 295.8 214.744 295.8C208.988 295.8 203.232 295.8 197.476 295.8C159.193 295.9 122.115 296.1 85.4377 296.3L64.9575 296.4C63.6189 296.4 62.4142 296.4 61.0756 296.4C60.2725 296.4 60.1386 296.3 60.1386 296.3C59.7371 296.1 58.3985 295.1 57.7292 294.5C55.989 293.1 54.115 291.5 52.5088 290C51.1702 288.8 49.9655 287.6 48.8946 286.4C48.7608 286.2 48.493 286 48.3592 285.7C46.7529 283.8 45.682 282 45.5482 280.1C45.2805 276.9 45.0127 273.7 44.745 270.5C44.745 270.3 44.745 270.1 44.745 269.9C44.4773 266.9 44.2096 263.9 44.0757 260.9C44.0757 259.9 44.2096 258.9 44.2096 257.9C44.2096 256.7 43.808 255.5 43.5403 254.3C43.2726 252.7 43.6742 251.2 43.4065 249.6C43.2726 248.5 42.871 247.3 42.871 246.2C42.6033 243.4 42.4695 240.6 42.2018 237.8C42.2018 236.9 42.0679 236 42.0679 235.1C41.6663 229.8 41.2647 224.5 40.8632 219.2C40.7293 216.9 43.1387 217.7 43.808 215.6C42.2017 212.8 40.4616 210.1 40.06 207.1C39.5246 203.8 39.5246 200.4 39.3907 197.1C39.2569 196.2 39.2569 195.2 39.123 194.2C38.8553 189.8 38.4537 185.5 38.186 181.1C38.0522 179.9 38.0522 178.8 37.9183 177.6C37.7844 175.5 36.9813 172.8 37.3829 170.8C37.7844 168.9 39.3907 167.7 38.3199 165.7C36.4458 162.2 36.5797 158.7 36.312 154.9C36.312 154.3 36.1782 153.8 36.1782 153.2C35.9104 148.9 35.6427 144.6 35.2411 140.3C35.2411 139.9 35.2411 139.4 35.1073 139C34.8396 135.1 34.5718 131.2 34.3041 127.3C34.0364 123.1 33.501 118.8 33.2333 114.6C33.0994 111.9 32.9656 109.1 32.8317 106.4C32.564 101.2 32.1624 96 31.8947 90.8C31.8947 90.7 31.8947 90.5 31.8947 90.4C31.627 85.6 31.3593 80.9 30.9577 76.1C30.8238 75 30.8239 73.9 30.8239 72.8C30.5562 68.7 30.2884 64.6 30.0207 60.4C30.0207 60 30.0207 59.5 29.8868 59C29.8868 58.2 29.753 57.4 29.753 56.6C29.4853 52.2 29.2175 47.8 28.9498 43.4C28.9498 42.9 28.9499 42.4 28.816 42C28.6821 41 28.5483 39.6 28.816 39.1C28.9499 38.6 29.8869 37.7 30.69 36.9C31.0916 36.5 31.3593 36.1 31.7608 35.7C34.0364 33.1 36.4458 30.8 38.9891 28.6C39.6584 28.1 40.1939 27.5 40.8632 26.9C41.3986 26.5 41.8001 26 42.3356 25.6C43.6742 24.4 45.0128 23.3 46.2175 22.9C46.7529 22.7 47.8238 22.6 49.43 22.6L92.2644 23L98.5557 23.1L216.35 24.1C217.555 24.1 218.76 24.1 219.964 24.1C223.846 24.1 227.862 24.2 231.744 24.2C243.791 24.3 255.838 24.4 267.885 24.5H268.153C268.956 24.5 269.626 24.5 270.429 24.5C274.712 24.5 278.996 24.4 283.279 24.4C292.114 24.3 300.814 24.3 309.515 24.2C312.058 24.2 314.736 24.2 317.279 24.1C346.594 23.9 375.908 23.6 405.089 23.3L426.373 23.1L432.664 23L494.238 22.4C495.845 22.4 497.049 22.5 497.451 22.7C498.254 23 499.191 23.6 500.128 24.4C500.396 24.6 500.664 24.8 500.797 25C501.467 25.6 502.136 26.2 502.805 26.8C503.475 27.4 504.01 27.9 504.679 28.5C507.089 30.7 509.632 33.1 511.908 35.6L512.042 35.7C512.309 36.1 512.711 36.4 512.979 36.7C513.648 37.5 514.585 38.4 514.719 38.9C515.522 40 515.388 41.4 515.254 42.4Z" fill="url(#paint11_radial_9_8704)"/>
<path d="M515.254 42.3C515.254 42.8 515.12 43.3 515.12 43.7C514.853 47.4 514.719 51.1 514.451 54.8C514.451 55.6 514.317 56.4 514.317 57.1C514.317 57.8 514.183 58.6 514.183 59.3C514.049 61.8 513.916 64.3 513.782 66.7C513.782 67.4 513.648 68.1 513.648 68.8C513.38 72.1 513.246 75.4 512.979 78.7C512.979 79.5 512.845 80.2 512.845 80.9C512.711 82.4 512.711 83.9 512.577 85.4C512.443 86.7 512.711 88.2 512.309 89.5C511.908 90.7 511.104 91.9 510.569 93C510.168 93.9 509.766 94.9 509.766 95.9C509.766 96.6 509.9 97.4 510.034 98.1C510.435 100 510.837 101.9 511.238 103.8C511.372 104.3 511.372 104.8 511.506 105.3C511.64 109 510.971 112.8 510.703 116.6C510.569 118.7 510.435 120.9 510.301 123C509.9 128.4 509.632 133.8 509.23 139.2C509.23 140 509.097 140.8 509.097 141.6C508.829 145.6 508.561 149.5 508.294 153.5C507.892 160.3 507.357 167.1 506.821 173.9C506.687 175.4 506.553 176.8 506.553 178.3C506.152 183.3 505.884 188.3 505.483 193.3C505.483 193.9 505.349 194.5 505.349 195.1C504.947 200.2 504.679 205.3 504.278 210.3C504.278 211 504.144 211.8 504.144 212.5C504.01 213.9 504.01 215.3 503.876 216.7C503.341 224.7 502.672 232.9 502.002 241C501.868 242.3 501.735 243.7 501.735 245C501.467 248.1 501.199 251.2 501.065 254.4C500.798 255.3 500.53 256.2 500.396 257.1C500.664 255.9 500.53 254.5 500.664 253.3C500.798 252 500.798 250.6 500.931 249.3C501.065 246.6 501.199 244 501.333 241.3C501.601 236 501.868 230.7 502.136 225.4C502.672 214.8 503.341 204.2 503.876 193.5C504.01 190.8 504.144 188.1 504.278 185.4C504.278 184.3 504.278 183.1 504.546 182C504.813 181 504.947 180.1 503.742 179.3C502.538 178.6 501.065 178.4 499.593 178.3C496.514 178 493.302 177.7 490.223 177.4C495.711 178 501.065 178.5 506.553 178.9C506.152 178.3 505.349 177.8 504.412 177.6C505.483 176.8 504.947 175.8 504.947 174.9C504.947 173.6 505.081 172.2 505.215 170.9C505.349 168.1 505.616 165.4 505.616 162.6C505.616 161.6 505.215 160.6 505.349 159.6C505.483 158.5 506.553 157.6 506.687 156.4C506.821 155 506.018 153.6 506.152 152.2C506.286 150.5 506.419 148.7 506.553 147C506.687 143.3 506.955 139.7 507.089 136C507.223 133.6 507.892 131.1 507.624 128.7C507.49 127.4 506.821 126.5 507.223 125.3C507.758 123.8 508.561 122.3 509.364 120.8C507.223 121 507.758 120 507.758 118.9C507.758 118 507.758 117 507.892 116.1C508.026 113.9 508.16 111.6 508.294 109.4C508.561 106.1 508.829 102.9 509.097 99.6V99.5C509.498 91.3 510.034 83.1 510.435 75C510.971 64.9 512.309 54.6 512.042 44.4C511.908 37 506.152 31.1 498.79 26C493.301 22.2 482.593 24.5 475.9 24.4C467.869 24.2 459.703 24.2 451.672 24.3C444.042 24.4 436.546 24.7 428.916 25C421.955 25.3 416.467 26.6 409.774 28.2C411.648 27.4 413.656 26.6 415.53 25.8C405.625 25.9 395.853 25.9 385.948 26C366.94 26.1 348.066 26.2 329.058 26.3C319.554 26.3 310.051 26.4 300.547 26.4C295.862 26.4 291.043 26.4 286.358 26.5C282.208 26.5 277.791 26.4 273.775 26.9C273.641 27.5 274.712 29.7 275.382 30C273.24 29 271.098 27.7 268.689 27.2C266.145 26.6 263.334 26.6 260.791 26.6C256.106 26.6 251.287 26.6 246.602 26.6C237.098 26.6 227.594 26.6 218.091 26.6C199.083 26.6 180.209 26.5 161.201 26.4C142.193 26.3 123.319 26.2 104.312 26C85.3039 25.8 66.43 25.6 47.4222 25.2C45.9498 25.2 43.5403 27.8 43.0049 28.7C42.2018 30.2 42.6034 31.9 43.9419 33.2C41.6664 32.2 38.9892 31.7 37.3829 33.3C35.6428 35 33.9026 36.8 32.4302 38.7C29.0837 43 30.4223 47 30.69 51.8C30.9578 56.1 31.2255 60.5 31.4932 64.8C31.6271 66.7 31.3593 68.8 32.0286 70.6C32.8318 72.7 33.7688 74.7 33.2333 76.9C33.0995 77.5 32.8318 78.1 32.6979 78.7C31.8948 81.6 32.6979 84.6 32.8318 87.5C32.9656 90.8 33.0995 94 33.3672 97.3C33.6349 103.7 34.0365 110.1 34.438 116.5C33.9026 107.8 33.3672 99.1 32.6979 90.5C32.4302 85.7 32.1625 81 31.7609 76.2C31.7609 75.1 31.627 74 31.627 72.9C31.3593 68.8 31.0916 64.7 30.8239 60.5C30.8239 60 30.8239 59.6 30.69 59.1C30.69 58.3 30.5562 57.5 30.5562 56.7C30.2885 52.3 30.0207 47.9 29.753 43.5C29.753 43 29.753 42.5 29.6192 42.1C29.4853 41.1 29.3514 39.7 29.6192 39.2C29.753 38.7 30.6901 37.8 31.4932 37C31.8948 36.6 32.1625 36.2 32.564 35.8C34.8396 33.3 37.249 30.9 39.7923 28.7C40.3278 28.2 40.9971 27.6 41.6663 27C42.2018 26.6 42.6033 26.1 43.1388 25.7C44.4774 24.5 45.8159 23.4 47.0206 23C47.5561 22.8 48.627 22.7 50.2332 22.7L93.0676 23.1L99.3589 23.2L217.153 24.3C218.358 24.3 219.563 24.3 220.768 24.3C224.65 24.3 228.665 24.4 232.547 24.4C244.594 24.5 256.641 24.6 268.822 24.7H269.09C269.893 24.7 270.563 24.7 271.366 24.7C275.649 24.7 279.933 24.6 284.216 24.6C292.917 24.5 301.751 24.5 310.452 24.4C312.995 24.4 315.673 24.4 318.216 24.3C347.531 24.1 376.845 23.8 406.026 23.5L427.31 23.3L433.601 23.2L495.175 22.6C496.782 22.6 497.853 22.7 498.388 22.9C499.191 23.2 500.128 23.8 501.065 24.6C501.333 24.8 501.601 25 501.735 25.2C502.404 25.8 503.073 26.4 503.742 27C504.412 27.6 504.947 28.1 505.616 28.7C508.16 30.9 510.569 33.3 512.845 35.8L512.979 35.9C513.246 36.3 513.648 36.6 513.915 36.9C514.719 37.7 515.522 38.6 515.79 39.1C515.388 39.9 515.254 41.4 515.254 42.3Z" fill="#E6C9C3"/>
<path d="M261.764 31.4C260.821 31.2 259.07 31.5 258.262 31.5C254.355 31.7 250.313 31.8 246.406 31.8C238.457 31.8 230.509 31.5 222.695 31.3C218.114 31.1 213.534 31 208.953 30.9C191.843 30.6 174.733 30.4 157.624 30.4C141.053 30.4 124.347 30.5 107.776 30.8C96.0554 31 84.1998 31.1 72.3442 31.4C62.9136 31.6 52.54 31.2 44.9955 35.9C42.0316 37.7 39.7413 39.9 37.3163 42C35.4302 43.6 32.3316 44.9 33.5441 47.1C36.1038 51.4 42.7052 54.7 47.9594 57.2C51.058 58.7 54.965 54.1 56.3122 52.8C58.6025 50.5 60.7581 47.9 63.3178 45.7C65.0692 44.3 66.6859 44 64.665 42.5C63.0483 41.3 61.4317 40.2 59.9497 39C59.0067 38.2 56.1775 39.3 55.5038 39.8C52.4052 42 49.4413 44.5 46.208 46.7C44.3219 47.9 49.5761 47.3 50.5191 46.4C52.4052 44.7 54.8303 43.1 57.2553 41.8C58.8719 40.9 58.333 41.1 59.5455 41.9C60.4886 42.5 61.4317 43.3 61.4317 44.2C61.4317 44.5 61.1622 44.9 61.0275 45.2C58.4678 48.6 53.7525 51.1 50.7886 54.4C50.1149 55.1 39.6066 47.5 38.6635 46.9C36.3732 45.3 36.3733 44.2 38.5288 42.5C41.8969 39.9 45.2649 37.2 49.4413 35.3C55.6386 32.6 63.5872 33.3 70.5928 33.2C82.179 33.1 93.8998 32.5 105.486 32.3C123 32 140.649 31.9 158.163 31.9C175.272 31.9 192.382 32.1 209.492 32.5C226.198 32.8 242.903 33.9 259.474 32.9C256.914 34.3 254.759 36.2 252.334 37.7C249.639 39.4 246.675 40.9 243.577 42.2C241.017 40.9 238.457 39.6 236.032 38.3C235.898 38.1 235.898 37.9 235.763 37.7C235.763 37.6 245.328 36.8 246.136 36.8C245.193 37.5 244.25 38.1 243.442 38.8C243.173 39 244.924 39.2 245.193 39.2C245.867 39.1 246.541 38.6 247.08 38.4C248.427 37.7 249.774 36.9 250.852 36C251.391 35.5 250.582 35.3 250.043 35.3C246.945 35.2 243.846 35.5 240.882 36C239.4 36.2 237.918 36.5 236.302 36.7C235.628 36.8 233.607 36.9 233.338 37.5C233.068 38.1 234.281 38.5 234.82 38.8C235.628 39.2 236.302 39.8 237.11 40.3C238.457 41.1 241.152 43.2 243.038 43.1C245.059 43 246.945 41.5 248.427 40.8C250.582 39.8 252.603 38.8 254.489 37.7C256.106 36.8 257.857 35.9 259.205 34.8C260.013 34.2 261.899 33.2 262.169 32.3C262.438 31.6 262.169 31.5 261.764 31.4Z" fill="#E6C9C3"/>
<path d="M260.956 30.9C260.013 30.7 258.262 31 257.453 31C253.546 31.2 249.505 31.3 245.598 31.3C237.649 31.3 229.7 31 221.886 30.8C217.306 30.6 212.725 30.5 208.145 30.4C191.035 30.1 173.925 29.9 156.815 29.9C140.244 29.9 123.539 30 106.968 30.3C95.2471 30.5 83.3915 30.6 71.6706 30.9C62.24 31.1 51.8664 30.7 44.3219 35.4C41.358 37.2 39.0677 39.4 36.6427 41.5C34.7566 43.1 31.658 44.4 32.8705 46.6C35.4302 50.9 42.0316 54.2 47.2858 56.7C50.3844 58.2 54.2914 53.6 55.6386 52.3C57.9289 50 60.0845 47.4 62.6442 45.2C64.3956 43.8 66.0123 43.5 63.9914 42C62.3748 40.8 60.7581 39.7 59.2761 38.5C58.3331 37.7 55.5039 38.8 54.8303 39.3C51.7316 41.5 48.7677 44 45.5344 46.2C43.6483 47.4 48.9025 46.8 49.8455 45.9C51.7317 44.2 54.1567 42.6 56.5817 41.3C58.1984 40.4 57.6594 40.6 58.8719 41.4C59.815 42 60.7581 42.8 60.7581 43.7C60.7581 44 60.4886 44.4 60.3539 44.7C57.7942 48.1 53.0789 50.6 50.115 53.8C49.4414 54.5 38.933 46.9 37.9899 46.3C35.6996 44.7 35.6997 43.6 37.8552 41.9C41.2233 39.3 44.5913 36.6 48.7677 34.7C54.965 32 62.9136 32.7 69.9192 32.6C81.5054 32.5 93.2262 31.9 104.812 31.7C122.326 31.4 139.975 31.3 157.489 31.3C174.599 31.3 191.709 31.5 208.818 31.9C225.524 32.2 242.23 33.3 258.8 32.3C256.241 33.7 254.085 35.6 251.66 37.1C248.966 38.8 246.002 40.3 242.903 41.6C240.343 40.3 237.784 39 235.359 37.7C235.224 37.5 235.224 37.3 235.089 37.1C235.089 37 244.655 36.2 245.463 36.2C244.52 36.9 243.577 37.5 242.768 38.2C242.499 38.4 244.25 38.6 244.52 38.6C245.193 38.5 245.867 38 246.406 37.8C247.753 37.1 249.1 36.3 250.178 35.4C250.717 34.9 249.909 34.7 249.37 34.7C246.271 34.6 243.173 34.9 240.209 35.4C238.727 35.6 237.245 35.9 235.628 36.1C234.955 36.2 232.934 36.3 232.664 36.9C232.395 37.5 233.607 37.9 234.146 38.2C234.955 38.6 235.628 39.2 236.436 39.7C237.784 40.5 240.478 42.6 242.364 42.5C244.385 42.4 246.271 40.9 247.753 40.2C249.909 39.2 251.93 38.2 253.816 37.1C255.432 36.2 257.184 35.3 258.531 34.2C259.339 33.6 261.225 32.6 261.495 31.7C261.495 31.1 261.225 31 260.956 30.9Z" fill="#6D5873"/>
<path d="M275.641 31.7C276.584 31.5 278.335 31.8 279.144 31.8C283.051 32 287.092 32.1 290.999 32.1C298.948 32.1 306.897 31.8 314.71 31.6C319.291 31.4 323.872 31.3 328.452 31.2C345.562 30.9 362.672 30.7 379.781 30.7C396.352 30.7 413.058 30.8 429.629 31.1C441.35 31.3 453.205 31.4 464.926 31.7C474.357 31.9 484.73 31.5 492.275 36.2C495.239 38 497.529 40.2 499.954 42.3C501.84 43.9 504.939 45.2 503.726 47.4C501.167 51.7 494.565 55 489.311 57.5C486.212 59 482.305 54.4 480.958 53.1C478.668 50.8 476.512 48.2 473.953 46C472.201 44.6 470.585 44.3 472.605 42.8C474.222 41.6 475.839 40.5 477.321 39.3C478.264 38.5 481.093 39.6 481.767 40.1C484.865 42.3 487.829 44.8 491.062 47C492.949 48.2 487.694 47.6 486.751 46.7C484.865 45 482.44 43.4 480.015 42.1C478.399 41.2 478.937 41.4 477.725 42.2C476.782 42.8 475.839 43.6 475.839 44.5C475.839 44.8 476.108 45.2 476.243 45.5C478.803 48.9 483.518 51.4 486.482 54.6C487.155 55.3 497.664 47.7 498.607 47.1C500.897 45.5 500.897 44.4 498.742 42.7C495.374 40.1 492.006 37.4 487.829 35.5C481.632 32.8 473.683 33.5 466.678 33.4C455.091 33.3 443.371 32.7 431.784 32.5C414.27 32.2 396.622 32.1 379.108 32.1C361.998 32.1 344.888 32.3 327.779 32.7C311.073 33 294.367 34.1 277.796 33.1C280.356 34.5 282.512 36.4 284.937 37.9C287.631 39.6 290.595 41.1 293.694 42.4C296.253 41.1 298.813 39.8 301.238 38.5C301.373 38.3 301.373 38.1 301.508 37.9C301.508 37.8 291.942 37 291.134 37C292.077 37.7 293.02 38.3 293.828 39C294.098 39.2 292.346 39.4 292.077 39.4C291.403 39.3 290.73 38.8 290.191 38.6C288.844 37.9 287.496 37.1 286.419 36.2C285.88 35.7 286.688 35.5 287.227 35.5C290.326 35.4 293.424 35.7 296.388 36.2C297.87 36.4 299.352 36.7 300.969 36.9C301.642 37 303.663 37.1 303.933 37.7C304.202 38.3 302.99 38.7 302.451 39C301.642 39.4 300.969 40 300.16 40.5C298.813 41.3 296.119 43.4 294.233 43.3C292.212 43.2 290.326 41.7 288.844 41C286.688 40 284.667 39 282.781 37.9C281.164 37 279.413 36.1 278.066 35C277.258 34.4 275.371 33.4 275.102 32.5C275.102 32 275.237 31.8 275.641 31.7Z" fill="#E6C9C3"/>
<path d="M275.102 30.9C276.045 30.7 277.796 31 278.605 31C282.512 31.2 286.553 31.3 290.46 31.3C298.409 31.3 306.358 31 314.171 30.8C318.752 30.6 323.333 30.5 327.913 30.4C345.023 30.1 362.133 29.9 379.243 29.9C395.813 29.9 412.519 30 429.09 30.3C440.811 30.5 452.666 30.6 464.522 30.9C473.953 31.1 484.326 30.7 491.871 35.4C494.835 37.2 497.125 39.4 499.55 41.5C501.436 43.1 504.535 44.4 503.322 46.6C500.762 50.9 494.161 54.2 488.907 56.7C485.808 58.2 481.901 53.6 480.554 52.3C478.264 50 476.108 47.4 473.548 45.2C471.797 43.8 470.18 43.5 472.201 42C473.818 40.8 475.435 39.7 476.916 38.5C477.86 37.7 480.689 38.8 481.362 39.3C484.461 41.5 487.425 44 490.658 46.2C492.544 47.4 487.29 46.8 486.347 45.9C484.461 44.2 482.036 42.6 479.611 41.3C477.994 40.4 478.533 40.6 477.321 41.4C476.378 42 475.435 42.8 475.435 43.7C475.435 44 475.704 44.4 475.839 44.7C478.398 48.1 483.114 50.6 486.078 53.8C486.751 54.5 497.26 46.9 498.203 46.3C500.493 44.7 500.493 43.6 498.337 41.9C494.969 39.3 491.601 36.6 487.425 34.7C481.228 32 473.279 32.7 466.273 32.6C454.687 32.5 442.966 31.9 431.38 31.7C413.866 31.4 396.218 31.3 378.704 31.3C361.594 31.3 344.484 31.5 327.374 31.9C310.669 32.2 293.963 33.3 277.392 32.3C279.952 33.7 282.107 35.6 284.532 37.1C287.227 38.8 290.191 40.3 293.289 41.6C295.849 40.3 298.409 39 300.834 37.7C300.969 37.5 300.969 37.3 301.103 37.1C301.103 37 291.538 36.2 290.73 36.2C291.673 36.9 292.616 37.5 293.424 38.2C293.694 38.4 291.942 38.6 291.673 38.6C290.999 38.5 290.326 38 289.787 37.8C288.439 37.1 287.092 36.3 286.014 35.4C285.476 34.9 286.284 34.7 286.823 34.7C289.921 34.6 293.02 34.9 295.984 35.4C297.466 35.6 298.948 35.9 300.565 36.1C301.238 36.2 303.259 36.3 303.528 36.9C303.798 37.5 302.585 37.9 302.046 38.2C301.238 38.6 300.564 39.2 299.756 39.7C298.409 40.5 295.714 42.6 293.828 42.5C291.808 42.4 289.921 40.9 288.439 40.2C286.284 39.2 284.263 38.2 282.377 37.1C280.76 36.2 279.009 35.3 277.662 34.2C276.853 33.6 274.967 32.6 274.698 31.7C274.563 31.1 274.698 31 275.102 30.9Z" fill="#6D5873"/>
<path d="M274.428 36.8C271.734 35.5 269.578 34.5 268.77 34.4C266.21 34.3 262.977 36.5 261.091 37.3C256.51 39.4 252.469 42 248.023 44.3C246.406 45.1 249.235 44.8 249.774 44.6C251.66 43.9 253.277 42.4 254.894 41.4C257.049 40.1 259.339 38.9 261.764 37.8C262.977 37.2 264.189 36.7 265.402 36.2C266.614 35.7 267.288 35.2 268.635 35.7C269.848 36.1 270.791 36.7 271.869 37.2C274.698 38.6 277.527 40.1 280.221 41.5C281.569 42.2 283.051 42.9 284.398 43.6C285.071 43.9 286.419 45.2 287.092 44.3C287.766 43.5 285.476 42.9 284.802 42.5C283.724 41.9 282.646 41.3 281.569 40.7C279.413 39.4 276.853 38.1 274.428 36.8Z" fill="#E6C9C3"/>
<path d="M274.159 36.2C271.464 34.9 269.309 33.9 268.501 33.8C265.941 33.7 262.707 35.9 260.821 36.7C256.241 38.8 252.199 41.4 247.753 43.7C246.137 44.5 248.966 44.2 249.505 44C251.391 43.3 253.007 41.8 254.624 40.8C256.78 39.5 259.07 38.3 261.495 37.2C262.707 36.6 263.92 36.1 265.132 35.6C266.345 35.1 267.019 34.6 268.366 35.1C269.578 35.5 270.521 36.1 271.599 36.6C274.428 38 277.257 39.5 279.952 40.9C281.299 41.6 282.781 42.3 284.128 43C284.802 43.3 286.149 44.6 286.823 43.7C287.496 42.9 285.206 42.3 284.532 41.9C283.455 41.3 282.377 40.7 281.299 40.1C279.278 38.8 276.719 37.5 274.159 36.2Z" fill="#6D5873"/>
<path d="M262.169 291.1C261.36 291.3 259.609 291 258.935 291C255.163 290.8 251.391 290.8 247.753 290.8C240.209 290.8 232.799 291 225.254 291.3C220.943 291.4 216.632 291.6 212.186 291.7C196.02 292 179.718 292.2 163.551 292.2C147.789 292.2 132.026 292.1 116.264 291.9C105.082 291.7 93.8999 291.6 82.7179 291.4C73.8262 291.2 63.8567 291.6 56.8511 287.5C54.1566 285.9 51.8664 284 49.5761 282.1C47.8247 280.7 44.8608 279.6 46.0733 277.6C48.4983 273.8 54.6955 271 59.6803 268.7C62.6442 267.4 66.4164 271.4 67.6289 272.6C69.7845 274.6 71.8053 276.9 74.3651 278.8C75.9817 280 77.5984 280.3 75.5776 281.6C74.0956 282.6 72.4789 283.6 71.1317 284.7C70.1887 285.4 67.629 284.4 66.8206 284C63.8567 282 61.0275 279.9 57.9289 278C56.1775 276.9 61.0275 277.5 61.9706 278.2C63.8567 279.7 66.0122 281.1 68.3025 282.3C69.9192 283.1 69.3803 282.9 70.5928 282.2C71.4012 281.7 72.4789 281 72.3442 280.2C72.3442 279.9 72.2095 279.6 71.9401 279.3C69.5151 276.3 65.0692 274.1 62.24 271.3C61.5664 270.6 51.5969 277.3 50.7886 277.9C48.633 279.3 48.6331 280.3 50.6539 281.8C53.7525 284.1 56.9858 286.5 61.0275 288.1C66.9553 290.5 74.4998 289.9 81.1012 290C92.1484 290.1 103.196 290.6 114.108 290.8C130.814 291.1 147.385 291.2 164.09 291.1C180.257 291.1 196.559 290.9 212.725 290.6C228.488 290.3 244.385 289.4 260.148 290.2C257.723 289 255.702 287.3 253.412 286C250.852 284.5 248.023 283.2 245.059 282C242.634 283.1 240.209 284.3 237.784 285.4C237.784 285.6 237.649 285.7 237.514 285.9C237.514 286 246.541 286.7 247.349 286.7C246.541 286.1 245.598 285.5 244.789 285C244.52 284.8 246.271 284.6 246.406 284.7C246.945 284.8 247.753 285.2 248.292 285.4C249.639 286 250.852 286.7 251.93 287.5C252.468 287.9 251.66 288.1 251.121 288.1C248.157 288.2 245.328 287.9 242.499 287.5C241.017 287.3 239.67 287.1 238.188 286.9C237.514 286.8 235.628 286.7 235.359 286.2C235.089 285.6 236.167 285.3 236.706 285.1C237.514 284.7 238.188 284.2 238.861 283.8C240.209 283.1 242.768 281.3 244.52 281.3C246.406 281.4 248.157 282.7 249.639 283.4C251.66 284.3 253.546 285.2 255.432 286.2C256.914 287 258.531 287.8 259.878 288.7C260.687 289.3 262.438 290.1 262.707 290.9C262.707 290.8 262.438 291 262.169 291.1Z" fill="#E6C9C3"/>
<path d="M261.226 290.3C260.417 290.5 258.666 290.2 257.992 290.2C254.22 290 250.448 290 246.81 290C239.266 290 231.856 290.2 224.312 290.5C220 290.6 215.689 290.8 211.243 290.9C195.077 291.2 178.775 291.4 162.609 291.4C146.846 291.4 131.083 291.3 115.321 291.1C104.139 290.9 92.9569 290.8 81.7749 290.6C72.8832 290.4 62.9137 290.8 55.9082 286.7C53.2137 285.1 50.9234 283.2 48.6332 281.3C46.8818 279.9 43.9179 278.8 45.1304 276.8C47.5554 273 53.7526 270.2 58.7374 267.9C61.7013 266.6 65.4735 270.6 66.686 271.8C68.8415 273.8 70.8624 276.1 73.4221 278C75.0388 279.2 76.6555 279.5 74.6346 280.8C73.1527 281.8 71.536 282.8 70.1888 283.9C69.2457 284.6 66.686 283.6 65.8776 283.2C62.9137 281.2 60.0846 279.1 56.9859 277.2C55.2345 276.1 60.0846 276.7 61.0276 277.4C62.9137 278.9 65.0693 280.3 67.3596 281.5C68.9763 282.3 68.4374 282.1 69.6499 281.4C70.4582 280.9 71.536 280.2 71.4013 279.4C71.4013 279.1 71.2665 278.8 70.9971 278.5C68.5721 275.5 64.1263 273.3 61.2971 270.5C60.6235 269.8 50.654 276.5 49.8457 277.1C47.6901 278.5 47.6901 279.5 49.7109 281C52.8095 283.3 56.0429 285.7 60.0846 287.3C66.0124 289.7 73.5568 289.1 80.1583 289.2C91.2055 289.3 102.253 289.8 113.165 290C129.871 290.3 146.442 290.4 163.147 290.3C179.314 290.3 195.616 290.1 211.782 289.8C227.545 289.5 243.442 288.6 259.205 289.4C256.78 288.2 254.759 286.5 252.469 285.2C249.909 283.7 247.08 282.4 244.116 281.2C241.691 282.3 239.266 283.5 236.841 284.6C236.841 284.8 236.706 284.9 236.571 285.1C236.571 285.2 245.598 285.9 246.406 285.9C245.598 285.3 244.655 284.7 243.846 284.2C243.577 284 245.328 283.8 245.463 283.9C246.002 284 246.81 284.4 247.349 284.6C248.696 285.2 249.909 285.9 250.987 286.7C251.526 287.1 250.717 287.3 250.178 287.3C247.214 287.4 244.385 287.1 241.556 286.7C240.074 286.5 238.727 286.3 237.245 286.1C236.571 286 234.685 285.9 234.416 285.4C234.146 284.8 235.224 284.5 235.763 284.3C236.571 283.9 237.245 283.4 237.919 283C239.266 282.3 241.825 280.5 243.577 280.5C245.463 280.6 247.214 281.9 248.696 282.6C250.717 283.5 252.603 284.4 254.489 285.4C255.971 286.2 257.588 287 258.935 287.9C259.744 288.5 261.495 289.3 261.764 290.1C261.899 290 261.63 290.2 261.226 290.3Z" fill="#6D5873"/>
<path d="M275.237 290.8C276.045 291 277.796 290.7 278.47 290.7C282.242 290.5 286.014 290.5 289.652 290.5C297.196 290.5 304.606 290.7 312.151 291C316.462 291.1 320.773 291.3 325.219 291.4C341.386 291.7 357.687 291.9 373.854 291.9C389.616 291.9 405.379 291.8 421.141 291.6C432.323 291.4 443.505 291.3 454.687 291.1C463.579 290.9 473.548 291.3 480.554 287.2C483.249 285.6 485.539 283.7 487.829 281.8C489.581 280.4 492.544 279.3 491.332 277.3C488.907 273.5 482.71 270.7 477.725 268.4C474.761 267.1 470.989 271.1 469.776 272.3C467.621 274.3 465.6 276.6 463.04 278.5C461.423 279.7 459.807 280 461.828 281.3C463.31 282.3 464.926 283.3 466.273 284.4C467.217 285.1 469.776 284.1 470.585 283.7C473.549 281.7 476.378 279.6 479.476 277.7C481.228 276.6 476.378 277.2 475.435 277.9C473.548 279.4 471.393 280.8 469.103 282C467.486 282.8 468.025 282.6 466.812 281.9C466.004 281.4 464.926 280.7 465.061 279.9C465.061 279.6 465.196 279.3 465.465 279C467.89 276 472.336 273.8 475.165 271C475.839 270.3 485.808 277 486.617 277.6C488.772 279 488.772 280 486.751 281.5C483.653 283.8 480.419 286.2 476.378 287.8C470.45 290.2 462.905 289.6 456.304 289.7C445.257 289.8 434.209 290.3 423.297 290.5C406.591 290.8 390.02 290.9 373.315 290.8C357.148 290.8 340.847 290.6 324.68 290.3C308.917 290 293.02 289.1 277.258 289.9C279.683 288.7 281.703 287 283.994 285.7C286.553 284.2 289.383 282.9 292.346 281.7C294.771 282.8 297.197 284 299.622 285.1C299.622 285.3 299.756 285.4 299.891 285.6C299.891 285.7 290.865 286.4 290.056 286.4C290.865 285.8 291.808 285.2 292.616 284.7C292.885 284.5 291.134 284.3 290.999 284.4C290.46 284.5 289.652 284.9 289.113 285.1C287.766 285.7 286.553 286.4 285.476 287.2C284.937 287.6 285.745 287.8 286.284 287.8C289.248 287.9 292.077 287.6 294.906 287.2C296.388 287 297.735 286.8 299.217 286.6C299.891 286.5 301.777 286.4 302.047 285.9C302.316 285.3 301.238 285 300.699 284.8C299.891 284.4 299.217 283.9 298.544 283.5C297.197 282.8 294.637 281 292.885 281C290.999 281.1 289.248 282.4 287.766 283.1C285.745 284 283.859 284.9 281.973 285.9C280.491 286.7 278.874 287.5 277.527 288.4C276.719 289 274.967 289.8 274.698 290.6C274.698 290.6 274.967 290.7 275.237 290.8Z" fill="#E6C9C3"/>
<path d="M274.698 290.3C275.506 290.5 277.258 290.2 277.931 290.2C281.703 290 285.476 290 289.113 290C296.658 290 304.067 290.2 311.612 290.5C315.923 290.6 320.234 290.8 324.68 290.9C340.847 291.2 357.148 291.4 373.315 291.4C389.077 291.4 404.84 291.3 420.603 291.1C431.785 290.9 442.967 290.8 454.148 290.6C463.04 290.4 473.01 290.8 480.015 286.7C482.71 285.1 485 283.2 487.29 281.3C489.042 279.9 492.006 278.8 490.793 276.8C488.368 273 482.171 270.2 477.186 267.9C474.222 266.6 470.45 270.6 469.237 271.8C467.082 273.8 465.061 276.1 462.501 278C460.885 279.2 459.268 279.5 461.289 280.8C462.771 281.8 464.387 282.8 465.735 283.9C466.678 284.6 469.237 283.6 470.046 283.2C473.01 281.2 475.839 279.1 478.937 277.2C480.689 276.1 475.839 276.7 474.896 277.4C473.01 278.9 470.854 280.3 468.564 281.5C466.947 282.3 467.486 282.1 466.274 281.4C465.465 280.9 464.387 280.2 464.522 279.4C464.522 279.1 464.657 278.8 464.926 278.5C467.351 275.5 471.797 273.3 474.626 270.5C475.3 269.8 485.269 276.5 486.078 277.1C488.233 278.5 488.233 279.5 486.212 281C483.114 283.3 479.88 285.7 475.839 287.3C469.911 289.7 462.367 289.1 455.765 289.2C444.718 289.3 433.671 289.8 422.758 290C406.053 290.3 389.482 290.4 372.776 290.3C356.609 290.3 340.308 290.1 324.141 289.8C308.379 289.5 292.481 288.6 276.719 289.4C279.144 288.2 281.165 286.5 283.455 285.2C286.015 283.7 288.844 282.4 291.808 281.2C294.233 282.3 296.658 283.5 299.083 284.6C299.083 284.8 299.217 284.9 299.352 285.1C299.352 285.2 290.326 285.9 289.517 285.9C290.326 285.3 291.269 284.7 292.077 284.2C292.347 284 290.595 283.8 290.46 283.9C289.922 284 289.113 284.4 288.574 284.6C287.227 285.2 286.015 285.9 284.937 286.7C284.398 287.1 285.206 287.3 285.745 287.3C288.709 287.4 291.538 287.1 294.367 286.7C295.849 286.5 297.197 286.3 298.678 286.1C299.352 286 301.238 285.9 301.508 285.4C301.777 284.8 300.699 284.5 300.16 284.3C299.352 283.9 298.678 283.4 298.005 283C296.658 282.3 294.098 280.5 292.346 280.5C290.46 280.6 288.709 281.9 287.227 282.6C285.206 283.5 283.32 284.4 281.434 285.4C279.952 286.2 278.335 287 276.988 287.9C276.18 288.5 274.428 289.3 274.159 290.1C274.159 290 274.428 290.2 274.698 290.3Z" fill="#6D5873"/>
<path d="M274.024 286.3C271.464 287.5 269.309 288.3 268.635 288.4C266.21 288.5 263.112 286.6 261.36 285.8C257.049 283.9 253.142 281.7 248.966 279.7C247.484 279 250.043 279.2 250.582 279.4C252.334 280 253.95 281.4 255.432 282.2C257.453 283.3 259.609 284.4 261.899 285.4C263.112 285.9 264.189 286.4 265.402 286.8C266.614 287.2 267.288 287.7 268.501 287.2C269.578 286.8 270.656 286.3 271.599 285.8C274.294 284.5 276.853 283.3 279.548 282C280.895 281.4 282.242 280.8 283.589 280.1C284.263 279.8 285.476 278.7 286.149 279.5C286.688 280.2 284.667 280.7 283.994 281.1C282.916 281.6 281.973 282.1 280.895 282.7C278.874 284 276.449 285.2 274.024 286.3Z" fill="#E6C9C3"/>
<path d="M273.89 285.6C271.33 286.8 269.174 287.6 268.501 287.7C266.076 287.8 262.977 285.9 261.226 285.1C256.914 283.2 253.007 281 248.831 279C247.349 278.3 249.909 278.5 250.448 278.7C252.199 279.3 253.816 280.7 255.298 281.5C257.319 282.6 259.474 283.7 261.764 284.7C262.977 285.2 264.055 285.7 265.267 286.1C266.48 286.5 267.153 287 268.366 286.5C269.444 286.1 270.521 285.6 271.464 285.1C274.159 283.8 276.719 282.6 279.413 281.3C280.76 280.7 282.108 280.1 283.455 279.4C284.128 279.1 285.341 278 286.015 278.8C286.553 279.5 284.533 280 283.859 280.4C282.781 280.9 281.838 281.4 280.76 282C278.605 283.3 276.315 284.5 273.89 285.6Z" fill="#6D5873"/>
<path d="M547.7 53.1C548.5 56.8 547.9 60.8 546.2 64.2C545.1 66.4 538.9 74.7 535.9 71.4C532.8 68 538 61.5 540.1 59.1C542.3 56.8 544.8 54.7 547.7 53.1Z" fill="url(#paint12_linear_9_8704)"/>
<path d="M512.4 16.4C512 18.4 511.3 20.3 510.9 22.3C510.4 24.9 507.4 25.7 504.7 25.7C502 25.7 498.7 25.4 497.2 23.2C496 21.4 495.2 19.5 494.7 17.4C494.5 16.7 494.5 16 494.5 15.4C494.6 14.3 494.9 13.3 495.4 12C496.8 8.2 499 4.79999 502 2.09999C503 1.19999 504.1 0.299991 505.4 0.0999908C506.2 1.89999 507.1 3.99999 508.6 5.39999C509.3 6.09999 510 6.79999 510.7 7.59999C511.4 8.39999 511.9 9.39999 512.3 10.3C513 12.3 512.8 14.4 512.4 16.4Z" fill="url(#paint13_linear_9_8704)"/>
<path d="M546.6 35.6H546.5C544.8 35.4 544.1 36.1 542.7 37.1C541.3 38.1 539.9 39.1 538.6 40.2C536 42.3 533.5 44.6 531.2 47.1C530.2 48.2 529.1 49.3 527.6 49.3C524.6 49.3 524.2 45.4 523.7 43.2C523 40.1 523.3 36.7 524.6 33.8C525.2 32.5 525.9 31.2 527.1 30.4C528 29.7 529.1 29.3 530.2 29.1C531.5 28.8 532.9 28.6 534.2 28.7H534.3C536.1 28.8 537.9 29.2 539.5 29.9C539.8 30 540 30.1 540.3 30.3C542.1 31.2 543.7 32.3 545 33.8C545.6 34.3 546.1 34.9 546.6 35.6Z" fill="url(#paint14_linear_9_8704)"/>
<path d="M546.6 35.6H546.5C546.3 35.5 546.1 35.5 545.9 35.4C545.9 35.4 545.9 35.4 545.8 35.4C545.1 35.2 544.3 35.1 543.6 35.2C542.7 35.3 541.8 35.8 540.9 36.2C538.7 37.3 536.5 38.3 534.4 39.4C533 37.7 532.7 35.4 532.6 33.2C532.6 32.7 532.5 32.3 532.6 31.8C532.7 30.8 533.5 29.6 534.3 28.7H534.4C536.2 28.8 538 29.2 539.6 29.9C539.9 30 540.1 30.1 540.4 30.3C542.2 31.2 543.8 32.3 545.1 33.8C545.6 34.3 546.1 34.9 546.6 35.6Z" fill="url(#paint15_linear_9_8704)"/>
<path d="M510.7 7.59999C510.6 7.69999 510.6 7.79999 510.5 7.89999C508.5 10.8 505.9 13.6 502.5 14.5C502.3 14.6 502.1 14.6 501.9 14.4C501.8 14.3 501.8 14.2 501.8 14C501.3 11.2 501.6 8.3 502.6 5.7C501.3 8.6 500.6 11.8 500.6 15C498.9 15.4 497.1 15.7 495.3 15.7C495.1 15.7 494.8 15.7 494.6 15.5C494.6 15.5 494.6 15.5 494.5 15.4C494.6 14.3 494.9 13.3 495.4 12C496.8 8.2 499 4.79999 502 2.09999C503 1.19999 504.1 0.299991 505.4 0.0999908C506.2 1.89999 507.1 3.99999 508.6 5.39999C509.3 6.09999 510 6.79999 510.7 7.59999Z" fill="url(#paint16_linear_9_8704)"/>
<path d="M534.6 22.6C533.8 25.1 532.6 27.5 531.2 29.7C528.6 33.9 525 37.6 520.9 40.4C516.7 39.9 513.9 37.5 510.8 34.6C507.8 31.6 505.7 27.6 505.2 23.4C505.1 23 505.7 22.1 506.2 22C507.8 18.8 510.3 16.1 513.1 13.9C515 12.4 517.1 11 519.2 9.79999C524.4 6.79999 530 4.2 534.5 0.199997C537 7.3 537 15.4 534.6 22.6Z" fill="url(#paint17_linear_9_8704)"/>
<path d="M534.6 22.6C533.8 25.1 532.6 27.5 531.2 29.7C530.1 30.9 528.8 31.9 527.3 32.7C525 30 523.2 26.9 521.9 23.6C524.7 19.7 527.7 15.9 530.7 12.2L522.6 20.4C522.1 21 521.5 21.6 520.7 21.7C519.9 21.9 519.1 21.6 518.4 21.2C516.2 20.3 514.1 19 513.1 16.8C512.6 15.8 512.7 14.8 513 13.7C514.9 12.2 517 10.8 519.1 9.59999C524.3 6.59999 529.9 4 534.4 0C537 7.3 537 15.4 534.6 22.6Z" fill="url(#paint18_linear_9_8704)"/>
<path d="M543.5 124.9C543.5 128.2 543.1 131.6 542.1 134.8C540.6 131.8 537.3 129.9 534.2 129C532.1 128.4 529.9 128.2 528.1 127.1C527.8 127 527.6 126.8 527.3 126.6C526.2 125.7 525.4 124.4 524.8 123.1C523.3 120 521.4 115 521.8 111.5C521.9 110.9 522 110.3 522.5 110C524.7 108.1 529.8 109.9 532.1 110.8C535.5 112.2 538.6 114.4 540.9 117.2C541.4 117.9 541.9 118.6 542.4 119.4C542.6 119.7 542.7 120.1 542.9 120.5C543.3 121.8 543.4 123.4 543.5 124.9Z" fill="url(#paint19_linear_9_8704)"/>
<path d="M552.1 112.9C550.5 111.2 548.2 110.1 545.8 110.1C543.3 110.1 541.5 111.7 539.4 112.7C538.2 113.3 537 114 535.9 114.7C534.8 115.4 533.8 116.1 532.7 116.8C532.2 117.1 531.7 117.5 531.2 117.5C530.7 117.5 530.2 117.3 529.7 117C526.5 115.2 523.5 113 520.8 110.6C521.5 106.8 523.2 104.5 525.3 101.2C526.8 98.9 528.8 97 531.2 95.7C531.7 95.4 532.2 95.2 532.8 95.2C532.9 95.2 533 95.2 533.1 95.2C533.7 95.2 534.3 95.5 534.8 95.8C540.3 98.5 545.5 101.3 549.2 106.4C550 107.5 550.7 108.7 551.3 109.9C551.4 110.2 551.6 111.2 551.8 111.9C551.9 112.3 552 112.8 552.1 112.9Z" fill="url(#paint20_linear_9_8704)"/>
<path d="M551.7 112.2C551.7 112.3 551.7 112.3 551.7 112.2C551.3 111.8 550.8 111.5 550.3 111.2C549 110.5 547.8 109.6 546.2 109.5C544.4 109.4 542.6 110.2 541 111C539.3 111.8 537.6 112.6 535.9 113.4C535.4 113.6 534.9 113.9 534.3 113.9C532.7 113.9 532 110 531.4 108.8C531.2 108.3 531 107.7 531.2 107.2C531.4 106.7 531.8 106.4 532.3 106.2C534.3 105.1 536.4 104.3 538.6 103.8C536.1 103.4 533.6 103.1 531.1 102.7C530.6 102.6 530 102.5 529.7 102.2C529.2 101.6 529.3 100.7 529.6 100C530.4 98.2 531.7 96.8 532.9 95.3C533 95.3 533.1 95.3 533.2 95.3C533.8 95.3 534.4 95.6 534.9 95.9C537.9 97.4 540.9 98.9 543.6 100.9C544.9 101.9 546.2 103 547.4 104.2C548 104.8 548.5 105.5 549 106.1C549.7 107 550.6 107.8 551.1 108.9C551.5 109.9 551.6 111.1 551.7 112.2Z" fill="url(#paint21_linear_9_8704)"/>
<path d="M543.5 124.9C543.5 128.2 543.1 131.6 542.1 134.8C540.6 131.8 537.3 129.9 534.2 129C532.1 128.4 529.9 128.2 528.1 127.1C527.4 125.5 526.8 123.9 527.1 122.4C527.5 120.2 529.2 119.8 531.2 120.2C533.5 120.7 536.2 122.2 537.4 123C536.1 121.8 534.8 120.7 533.5 119.5C534.7 117 538.4 116.7 540.7 118.1C541.3 118.5 541.8 118.9 542.3 119.4C542.5 119.7 542.6 120.1 542.8 120.5C543.3 121.8 543.4 123.4 543.5 124.9Z" fill="url(#paint22_linear_9_8704)"/>
<path d="M477.3 24.4C477.7 26.1 478.9 27.4 480.1 28.7C491.1 40.6 504.5 50.1 516.9 60.6C518.3 61.8 519.7 63 520.7 64.4C521.6 65.6 522.2 67.1 522.8 68.5C524.3 72.3 525.5 76.3 526.3 80.3C527 75 526.7 69.7 526.3 64.4C526.3 63.9 526.2 63.5 526.1 63C525.9 62.3 525.4 61.8 525 61.3C521.5 57.4 517 54.5 512.8 51.4C501 42.8 490.5 32.3 481.9 20.4C479.6 17.5 476.7 22.3 477.3 24.4Z" fill="#CDBFDE"/>
<path d="M536.5 87.5C534.6 95.3 530.9 102.7 527 109.6C526.1 111.2 524.2 113.1 524.1 115L524.6 105.5C524.7 103.7 526.8 100.8 527.4 99C529.3 93 531 86 531.5 79.7C531.9 75.1 531 70.9 528.3 67.1C526.5 64.7 524.8 62.6 522.8 60.7C522.3 60.2 521.8 59.8 521.2 59.3C513.7 53.3 505.4 48.3 497.6 42.6C493.1 39.3 488.9 35.5 485.1 31.3C482.3 28.2 476.3 24 478.7 19.3C479 18.6 479.5 18 480 17.4C480.6 16.7 481.1 16 481.7 15.3C482 15 482.2 14.6 482.7 14.5C483.1 14.4 483.5 14.5 483.9 14.5C486.6 15.1 489.2 15.9 491.7 16.8C492.7 17.2 493.7 17.6 494.6 18C492.6 17.7 490 17.8 487.9 18.1C483.2 18.7 486.7 23.7 488.6 26C488.9 26.4 489.2 26.7 489.4 26.9C493.1 30.6 496.8 34.1 500.7 37.6C508.3 44.3 516.5 50.6 524.9 56.2C525.2 56.4 525.5 56.6 525.8 56.8C529 58.9 532 60.9 534.5 63.9C539.5 69.7 538.2 80.6 536.5 87.5Z" fill="url(#paint23_linear_9_8704)"/>
<path d="M518.4 61.2C518.3 61.2 518.2 61.1 518.1 61C510.4 56.3 502.6 51.6 495.2 46.4C487.8 41.2 480 35.4 474.2 28.4C473.8 27.9 473.4 27.3 473 26.8C472.9 26.7 472.9 26.6 472.8 26.6C471.4 24.7 470.1 22.7 469.3 20.5C468.5 18.4 470.4 16.9 471.7 15.3C472 15 472.2 14.6 472.7 14.5C473.5 14.2 474.6 14.9 475.3 15.4C475.8 15.7 476.1 16.4 475.9 16.9C475.8 17.1 475.6 17.3 475.4 17.5C474.6 18.4 474.4 19.3 474.8 20.4C475.3 22.2 476.6 23.4 477.9 24.6C479.1 25.7 479.8 27 481 28.2C484.2 31.4 487.5 34.5 490.9 37.5C495.8 41.8 500.9 45.9 506.1 49.8C508.6 51.6 511.3 53.1 513.7 54.9C515.6 56.3 518.4 58.1 519.4 60.3C519.5 60.6 519.6 60.9 519.5 61.1C519.1 61.4 518.7 61.3 518.4 61.2Z" fill="url(#paint24_linear_9_8704)"/>
<path d="M473.9 19.3C473.7 18.8 473.4 18.6 473.1 18.3C472.9 18.1 472.5 18.5 472.4 18.7C472.3 19.2 472.1 19.7 472.3 20.3C472.5 20.8 472.9 21 473.3 21.1C473.5 21.2 473.9 20.9 474 20.6C474 20.2 474.1 19.7 473.9 19.3Z" fill="#DBCF5E"/>
<path d="M477.5 26.6C477.3 26.2 477 25.7 476.8 25.3C476.6 24.9 476.4 24.4 476.1 24C476 23.8 475.9 23.5 475.7 23.3C475.5 23.1 475.3 22.9 475 22.8C474.8 22.7 474.4 22.9 474.3 23.1C474 23.6 474.4 24.1 474.7 24.5C475 24.9 475.3 25.3 475.7 25.7C476 26.1 476.4 26.5 476.8 26.8C477.2 27.2 477.7 27.5 478.1 27.9C478.1 27.9 478.3 27.9 478.3 27.8C477.9 27.4 477.7 27 477.5 26.6Z" fill="#DBCF5E"/>
<path d="M500.8 85C502.2 86.4 506 88.7 506.6 88.9C509.6 89.9 512.7 91.4 515.9 90.5C516.2 90.4 516.4 90.3 516.6 90.2C517.4 89.6 516.9 88.3 516.3 87.5C515 85.7 513.3 84 511.3 82.9C509.2 81.7 506.9 82.1 504.6 82.3C503 82.5 501.3 82.9 500.2 84.1C500.1 84.3 500.3 84.6 500.8 85Z" fill="#CDBFDE"/>
<path d="M513.5 77.8C512.9 77.6 512.4 77.4 511.8 77.2C508.3 76 505.3 74.7 501.5 75.8C501.7 75.7 507 83.2 507.6 84.1C510.3 87.7 514.5 89.8 518.8 91.1C524.7 92.8 522.9 86.1 520.9 83.4C518.9 80.7 516.3 79 513.5 77.8Z" fill="url(#paint25_linear_9_8704)"/>
<path opacity="0.1" d="M108.6 304.5C107 304.5 105.4 304.5 103.8 304.5C102.4 303.5 101.4 301.9 100.3 300.5C95.8 294.7 89.1 291.1 82.5 287.8C80.5 286.8 78.6 285.9 76.5 285C63 279.1 48.2 276.2 33.5 276.6C33.4 274.8 33.3 273 33.2 271.3C34.3 270.9 36.3 271 37.2 271C40.9 270.7 44.6 270.6 48.3 271C51 271.3 53.7 271.9 56.4 272.6C68.1 275.4 79.7999 278.9 89.5999 285.8C95.5999 290 100.8 295.4 105.8 300.8C106.9 301.9 108 303.1 108.6 304.5Z" fill="#CDBFDE"/>
<path opacity="0.1" d="M115 309.9C111.1 313.3 82.3 304.6 82.3 304.6L93.4 304.4C98 306.5 103.2 307.2 108.3 307C107.8 304.7 106 302.9 104.3 301.3C100.5 297.8 96.7 294.2 92.6 291.1C84.2 284.6 75.1 280.7 65.3 276.8C53.9 272.3 41 274.5 28.8 272.6C27.6 272.4 26.3 272.2 25.3 271.4C23.9 270.4 23.2 268.7 22.6 267.1C21.4 263.5 20.6 259.8 20.2 256C20.1 255.2 20.1 254.4 20.3 253.5C20.6 252.3 21.3 251.3 22 250.4C25.7 245.4 28.9 239.8 31 233.9L31.6 244C31.6 244 24.2 251.8 23.5 257.2C23.3 258.9 23.4 260.4 23.8 261.8C24.7 265 26.9 267.6 29.8 269.3C34.1 271.7 43.9 267.1 66.7 273.4C83 277.9 102.7 292.9 111.1 302.3C114.6 306.1 116.2 308.9 115 309.9Z" fill="url(#paint26_linear_9_8704)"/>
<path opacity="0.1" d="M51.4 267C51.2 266 50.7 265 49.6 264.2C48.9 263.7 41.3 261.3 41.4 261.8C42 266.6 44.9 270.9 49.8 271.7C50 271.7 50.3 271.8 50.5 271.7C51.1 271.5 51.3 270.9 51.3 270.4C51.5 269.1 51.6 268 51.4 267Z" fill="#CDBFDE"/>
<path opacity="0.1" d="M53.2 265.1C53 264.1 52.5 263.2 51.4 262.3C50.7 261.8 43.1 259.4 43.2 259.9C43.8 264.7 46.6999 269 51.5999 269.8C51.7999 269.8 52.1 269.9 52.3 269.8C52.9 269.6 53.0999 269 53.0999 268.5C53.1999 267.2 53.4 266.1 53.2 265.1Z" fill="url(#paint27_linear_9_8704)"/>
<path opacity="0.1" d="M111.3 302.4C111.2 302.7 111 303 110.7 303.2C110.1 303.6 109.3 303.2 108.7 302.8C104.6 300 101.1 296.6 97.1 293.6C90.9 288.9 84.3 284.5 77.4 280.8C68 275.8 57.8 273.8 47.3 272.9C44 272.6 40.8 272.7 37.5 272.4C34.7 272.2 32.3 271.4 29.5 271.3C26.8 271.2 25.4 270.4 24.2 267.9C23.3 266.1 22.9 263.8 23.9 262C24.8 265.2 27.4 267 30.4 268.6C34.7 271 45 265.7 67.8 272C84.2 276.5 102.9 293 111.3 302.4Z" fill="url(#paint28_linear_9_8704)"/>
<path opacity="0.1" d="M58.8 270.8C58.6 270.7 58.4 270.7 58.2 270.6C58 270.5 57.8 270.5 57.6 270.4C57 270.2 56.5 270.2 55.9 270.1C54.5 270 53.2 269.9 51.8 270.1C51.7 270.1 51.4 270.2 51.4 270.3C51.5 270.5 51.5 270.6 51.7 270.7C51.9 270.8 52.2 270.9 52.4 271C53 271.1 53.5 271.3 54.1 271.3C54.8 271.4 55.5 271.4 56.3 271.3C57 271.2 57.7 271.2 58.4 271C58.4 271.2 58.9 271 58.8 270.8Z" fill="#DBCF5E"/>
<path opacity="0.1" d="M63.8 272C63.7 272 63.6 271.9 63.5 271.9C63.3 271.8 63 271.8 62.8 271.8C62.5 271.8 62.3 271.8 62 271.8C61.7 271.8 61.4 271.8 61 271.8C61 271.8 60.8 271.8 60.9 271.9C61 272 61 272 61.1 272.1C61.2 272.2 61.2 272.2 61.3 272.2C61.5 272.3 61.7 272.3 61.9 272.4C62.1 272.5 62.4 272.5 62.6 272.5C62.8 272.5 62.9 272.5 63.1 272.5C63.3 272.5 63.4 272.5 63.6 272.5C63.7 272.5 63.8 272.4 63.9 272.4C63.9 272.4 64.1 272.3 64 272.2C64 272.1 63.9 272.1 63.8 272Z" fill="#DBCF5E"/>
<path opacity="0.1" d="M87.6 291.4C86.4 291.1 85.1 291.2 83.6 291.7C81.2 292.5 79 294 77.5 296.1C77.1 296.6 76.8 297.4 77.3 297.8C77.5 298 80.2 297.5 80.5 297.5C82.2 297.5 83.8 297.4 85.5 297.1C87.8 296.7 90.1 295.8 91.9 294.2C92.1 294.1 92.2 293.9 92.3 293.7C92.4 293.2 91.9 292.8 91.4 292.7C89.8 292.1 88.7 291.6 87.6 291.4Z" fill="#CDBFDE"/>
<path opacity="0.1" d="M87 288.1C85.6 287.8 84.2 287.8 82.5 288.4C79.8 289.3 77.3 291 75.7 293.3C75.3 293.9 74.9 294.8 75.5 295.2C75.7 295.4 78.7 294.9 79.1 294.9C81 294.8 82.8 294.8 84.7 294.4C87.3 293.9 89.9 292.9 91.9 291.2C92.1 291 92.3 290.9 92.3 290.6C92.4 290 91.8 289.6 91.3 289.4C89.6 288.9 88.3 288.4 87 288.1Z" fill="url(#paint29_linear_9_8704)"/>
<g opacity="0.1">
<path d="M90.9001 254C89.7001 253.2 87.9001 253 86.4001 253.3C85.7001 253.2 84.7001 253.8 84.3001 254.1C84.1001 251.7 82.6001 249.9 80.7001 248.4C78.4001 246.5 76.1001 245.5 73.2001 246.4C70.9001 247.1 67.7 248.8 67.1 251.4C66.5 253.9 68.7 256.2 70.1 258.1C70.9 259.2 71.6001 260.1 72.5001 260.7C72.6001 260.8 72.6001 260.9 72.7001 261C74.5001 263.1 77.5 262 79.6 261C81.1 260.2 82.7 259.2 83.6 257.7C83.6 257.7 83.6 257.7 83.6 257.8C84 258.5 84.3001 259.1 85.0001 259.5C85.7001 260 86.7 260.3 87.6 260.6C88.7 260.9 90.7001 260 91.3001 259C91.7001 258.3 92.2001 257.2 92.3001 256.3C92.1001 255.1 91.6001 254.5 90.9001 254Z" fill="#E8E6E8"/>
<path d="M89.5 267.3C89 266.7 88 266.4 87.3 266.2C86.2 265.9 85.1 266 84 266.3C83.4 266.4 82.5 266.7 82.1 267.3C81.7 268 81.4 268.6 81.9 269.3C82.2 269.8 82.8 270.3 83.4 270.6C84.3 271 85.7 271 86.7 270.9C87.6 270.8 88.6 270.5 89.3 269.9C90 269.2 90.1 268 89.5 267.3Z" fill="#E8E6E8"/>
<path d="M62.7 249.5C62.6 249 62.2 248.6 61.8 248.3C61.5 247.9 59.9 248.6 59.9 249.1C59.9 249.6 59.9 250.1 60 250.6C60.2 251.1 60.7 251.4 61.2 251.5C61.5 251.6 62.2 251.3 62.4 251C62.7 250.5 62.9 250 62.7 249.5Z" fill="#E8E6E8"/>
<path d="M101.7 274.8C101.5 274.6 101.5 274.4 101.4 274.3C101.2 274.1 101 274 100.8 273.9C100.2 273.6 99.5 273.6 98.9 273.4C98.5 273.3 98 273.5 97.7 273.7C97.5 273.8 96.8 274.2 97 274.5C97.3 275 97.6 275.5 98.2 275.7C99 276 99.8 275.8 100.6 275.7C100.6 275.6 102 275.1 101.7 274.8Z" fill="#E8E6E8"/>
<path d="M91.6 258.2C90.9 259.1 90 260 88.9 260.2C88.5 260.3 88.1 260.3 87.7 260.2C86 260 84.2 259 83.4 257.4C82.6 258.9 81.2 259.8 79.7 260.6C78.7 261.2 77.6 261.8 76.4 262C75.4 262.2 74.5 261.8 73.6 261.7C72.7 261.6 72.1 260.8 71.6 260.2C69.7 257.8 67.9 255.3 66.9 252.4C66.9 254 67.7 255.6 68.6 257C70 259.2 71.5 261.5 73.2 263.5C74.3 263.7 75.8 263.7 76.9 263.3C77.5 263.1 78.1 262.8 78.7 262.4C80.3 261.4 81.9 260.4 83.1 259C82.7 259.4 86.7 260.6 87 260.7C89.8 261.6 90.1 260.3 91.6 258.2Z" fill="#E6C9C3"/>
<path d="M90 268.3C89.9 269.3 89.1 270 88.2 270.4C86.7 271 81.2 271.3 82 268.5C81.7 269.6 82 270.8 83.1 271.3C84.5 271.9 85.9 272.1 87.4 271.6C88.8 271.2 89.9 269.8 90 268.3Z" fill="#E6C9C3"/>
</g>
<path opacity="0.1" d="M346 56.7C342.6 52.6 336.7 51.5 332.3 54.9C330.2 56.5 331.3 58.7 332.3 60.7C332.9 61.9 333.5 62.8 334.3 63.5C334.5 63.9 334.8 64.3 335.1 64.7C336.5 66.5 338.6 67.9 341 67.6C346.4 66.7 349.9 61.4 346 56.7Z" fill="#E8E6E8"/>
<path opacity="0.1" d="M340.3 48.9C338.3 48.7 336 49.1 334.7 50.7C334.2 51.3 335.4 51.9 335.8 52C336.5 52.3 337.2 52.3 338 52.3C339.2 52.3 341.6 52.4 342.1 50.9C342.5 49.6 341.3 49 340.3 48.9Z" fill="#E8E6E8"/>
<path opacity="0.1" d="M328.5 44.8C328.4 44.7 328.2 44.6 328.1 44.6C327.8 44.5 327.5 44.5 327.2 44.5C327 44.5 326.7 44.5 326.5 44.5C326.1 44.5 325.7 44.6 325.3 44.7C325.2 44.8 324.5 45.1 324.7 45.3C324.8 45.4 324.8 45.6 324.8 45.7C324.9 45.9 324.9 46 325.1 46C325.5 46.2 326 46.3 326.4 46.2C326.9 46.2 327.3 46 327.8 45.8C328 45.7 328.6 45.4 328.6 45.1C328.7 45 328.7 44.9 328.5 44.8Z" fill="#E8E6E8"/>
<path opacity="0.1" d="M365.9 72.6C364.5 73.5 362.7 74.7 362 76.3C361.8 76.9 361.7 77.4 362.1 77.9C362.5 78.3 362.9 78.5 363.4 78.8C364.3 79.4 365.9 78.7 367 78.1C367.1 78.1 367.1 78 367.2 78C367.2 78 367.2 78 367.3 77.9C367.4 77.8 367.6 77.7 367.7 77.6C367.7 77.6 367.6 77.6 367.6 77.7C367.7 77.6 367.8 77.6 367.9 77.5C368.4 77.1 368.9 76.7 369.4 76.4C370.2 75.7 371.5 74.7 371.4 73.5C371 70.8 367.4 71.6 365.9 72.6Z" fill="#E8E6E8"/>
<path opacity="0.1" d="M49.5 112.8C48.3 111.4 46.1 111.2 44.6 112.4C43.2 113.5 42.4 115.2 42.6 117.1C42.9 119.2 45.1 119.8 46.8 120.4C47.5 120.7 48.7 120.2 49.1 119.6C49.7 118.4 50.7 117.1 50.7 115.7C50.8 114.6 50.2 113.6 49.5 112.8Z" fill="#E8E6E8"/>
<path opacity="0.1" d="M47.7 126.1C47.7 126 47.5 125.9 47.5 125.8C47.3 125.5 46.9 125.5 46.6 125.4C46.4 125.4 46.2 125.3 46 125.3C45.8 125.3 45.6 125.4 45.4 125.3C45.2 125.3 45 125.3 44.8 125.4C44.7 125.4 44.4 125.6 44.4 125.7C44.3 125.8 44.2 126 44.1 126.1V126.2C44.1 126.3 44.1 126.4 44.1 126.5C44.1 126.8 44.3 127 44.5 127.1C45.2 127.5 46.2 127.4 46.9 127.1C47.2 127 47.7 126.6 47.7 126.2C47.7 126.3 47.7 126.2 47.7 126.1Z" fill="#E8E6E8"/>
<path opacity="0.1" d="M55.1 102.6C55 102.3 54.8 102.2 54.5 102C54.2 101.8 54 101.6 53.7 101.4C53.3 101 51.5 101.7 51.5 102.3C51.5 102.8 51.4 103.6 51.8 104C52.3 104.5 52.8 104.8 53.5 105C53.9 105.1 54.7 104.8 54.9 104.4C55 104.1 55.1 103.8 55.1 103.5C55.2 103.2 55.1 102.8 55.1 102.6Z" fill="#E8E6E8"/>
<path opacity="0.1" d="M255.1 278.8C254.5 277.3 252.6 275.8 251.2 275.1C249 274.1 246.3 274.9 244.3 276.1C243.6 276.6 242.7 277.2 242.5 278.1C242.2 279.2 243 280.1 243.5 280.9C243.7 281.2 243.9 281.4 244.1 281.6C244.4 282.6 245.1 283.4 246 284C248 285.2 250.9 284.4 252.7 283.4C254.4 282.5 255.9 280.8 255.1 278.8Z" fill="#E8E6E8"/>
<path opacity="0.1" d="M263.1 279.6C263 279.4 262.7 279.3 262.4 279.2C262.1 279.2 261.8 279.2 261.5 279.3C261.2 279.2 260.6 279.4 260.4 279.8C260.4 279.9 260.1 279.9 260.1 280C260 280.1 259.8 280.2 259.7 280.4C259.6 280.6 259.6 280.8 259.7 281C259.8 281.1 260 281.3 260.1 281.3C260.4 281.4 260.7 281.4 261 281.4C261.3 281.4 261.6 281.4 261.9 281.3C262.2 281.2 262.5 281.1 262.7 280.8C262.8 280.6 263.1 280.4 263.2 280.2C263.2 280 263.2 279.7 263.1 279.6Z" fill="#E8E6E8"/>
<path opacity="0.1" d="M236.6 275.6C236.4 275.5 236.1 275.4 235.8 275.3C235.7 275.2 235.4 275.3 235.3 275.4C235.2 275.4 235 275.6 235 275.7C235.1 275.8 235.2 276.1 235.3 276.2C235.4 276.3 235.5 276.3 235.6 276.3C235.8 276.3 235.9 276.4 236.1 276.4C236.2 276.4 236.8 276.3 236.7 276.1C236.8 275.9 236.8 275.6 236.6 275.6Z" fill="#E8E6E8"/>
<path opacity="0.1" d="M365.2 238.5C363.7 238 361.8 237.8 360.3 238.7C359.1 239.5 358.6 240.2 358.8 241.6C358.9 242.6 359.7 243 360.5 243.3C362.2 243.9 364.8 243.9 366 242.3C366.5 241.7 366.9 240.8 366.8 240C366.7 239.2 365.8 238.7 365.2 238.5Z" fill="#E8E6E8"/>
<path opacity="0.1" d="M356.1 248.9C356.1 248.7 355.8 248.6 355.7 248.4C355.5 248.2 354.8 248.4 354.6 248.5C354.3 248.6 353.8 248.8 353.7 249.1C353.6 249.3 353.5 249.5 353.6 249.7C353.6 249.8 353.8 250.1 353.9 250.2C354 250.3 354.3 250.4 354.5 250.5C354.8 250.6 355 250.5 355.3 250.4C355.7 250.2 356.1 249.8 356.3 249.4C356.2 249.3 356.2 249.1 356.1 248.9Z" fill="#E8E6E8"/>
<path opacity="0.1" d="M365.7 209.8C365.5 209.7 364.6 210 364.6 210.3C364.8 211.1 364.9 211.8 365.6 212.5C366.3 213.2 367.4 213.6 368.3 213.9C368.7 214 369.8 213.7 369.8 213.2C369.7 211.1 367.3 210.4 365.7 209.8Z" fill="#E8E6E8"/>
<path opacity="0.1" d="M365 195.8C365 195.5 365.1 195.3 364.8 195.2C364.5 195 364 195.3 363.8 195.4C363.5 195.6 363.2 195.8 363 196.1C362.7 196.4 362.3 196.7 362.1 197.1C362 197.3 361.9 197.6 361.9 197.9C361.9 198.1 362.1 198.3 362.2 198.5C362.4 198.7 363.1 198.3 363.3 198.2C363.9 197.8 364.6 197.2 364.9 196.5C365 196.2 365 196 365 195.8Z" fill="#E8E6E8"/>
<path opacity="0.1" d="M101.5 39.9C97.7 38.7 91.3 41.8 88.9 44.8C88.7 45.1 88.5 45.4 88.3 45.7C87.9 45.2 87.2 44.9 86.7 44.7C86.1 44.5 84.9 45 84.6 45.5C84 46.3 83.3 47.4 83.3 48.4C83.3 49.2 84.2 50 84.9 50.3C85.5 50.5 86.4 50.2 86.9 49.8C87.2 49.5 87.7 49.1 88 48.7C88.7 51.3 91.6 53.6 93.4 55.3L93.5 55.4C94.7 57 96.1 58.2 98 58.3C101.9 58.4 106.4 55.8 106.7 51.7C107.1 48 105.4 41.1 101.5 39.9Z" fill="#E8E6E8"/>
<path opacity="0.1" d="M118.6 42C117.2 41.2 115.3 41.2 114.1 42.3C113.6 42.7 113.2 43.1 112.9 43.7C112.7 44.1 112.5 44.7 112.7 45.2C113.2 46.6 115 46.2 116.1 46.3C116.8 46.4 118 46 118.4 45.4C118.8 44.7 119.6 44.4 119.6 43.5C119.5 42.9 119.1 42.3 118.6 42Z" fill="#E8E6E8"/>
<path opacity="0.1" d="M154.2 233.3C153.4 233.2 152.2 233.6 151.7 234.3C149.5 238.1 154.9 240.5 157.7 241.1C158.4 241.3 160.3 240.7 160.3 239.9C160.4 236.4 157.6 233.7 154.2 233.3Z" fill="#E8E6E8"/>
<path opacity="0.1" d="M146.3 233.5C146.2 233.4 146.2 233.2 146.2 233.1C146.1 232.8 145.8 232.7 145.7 232.5C145.6 232.3 145.1 232.5 145 232.7C144.8 232.9 144.5 233.4 144.8 233.7C145 234 145.4 234.2 145.8 234.2C146 234.2 146.6 234.1 146.5 233.8C146.4 233.7 146.3 233.6 146.3 233.5Z" fill="#E8E6E8"/>
<path opacity="0.1" d="M270.5 71.7C269.4 70 267.8 69 265.8 69.1C263.8 69.2 261.1 70.2 259.9 71.9C259 73.2 259 74.9 259.6 76.3C260.2 77.7 261 78.7 262 79.5C262.3 80.1 262.6 80.6 262.9 81C264 82.5 265.4 82.2 267 81.6C271.3 80.1 273.1 75.7 270.5 71.7Z" fill="#E8E6E8"/>
<path opacity="0.1" d="M281.2 78.6C281 78.3 280.6 78.2 280.2 78.2C279.5 78.2 278.8 78.1 278.1 78.2C277.1 78.3 276.1 78.7 275.2 79.1C274.5 79.5 273.6 79.9 273.2 80.6C273 80.9 272.6 81.6 272.9 82C273.1 82.2 273.4 82.3 273.8 82.3C273.3 82.7 272.3 83.5 272.5 84.3C272.7 85 274.4 84.6 274.8 84.5C274.7 84.5 274.7 84.5 274.6 84.5C274.7 84.5 274.8 84.5 274.9 84.4C275.5 84.2 276.2 84 276.8 83.7C277.9 83.2 278.7 82.5 279.5 81.7C280.2 81 281.7 79.5 281.2 78.6Z" fill="#E8E6E8"/>
<path opacity="0.1" d="M337.2 80.9C337.1 80.6 336.5 80.8 336.3 80.9C336 81 335.6 81.1 335.5 81.4C335.5 81.4 335.5 81.4 335.5 81.5V81.6C335.4 81.8 335.4 82 335.4 82.2C335.4 82.3 335.4 82.6 335.5 82.7C335.6 82.9 335.8 83 336 83.1C336.2 83.3 336.8 83 336.9 82.8C337.1 82.5 337.4 82.2 337.4 81.8C337.4 81.7 337.5 81.5 337.5 81.4C337.4 81.2 337.3 81 337.2 80.9Z" fill="#E8E6E8"/>
<path opacity="0.1" d="M244.5 58.1C244.2 57.8 243.8 57.5 243.5 57.2C243.2 56.9 241.5 57.6 241.9 58C242.2 58.3 242.4 58.7 242.7 58.9C243.1 59.3 243.8 59.3 244.3 59.1C244.5 59 244.8 58.8 244.8 58.6C244.8 58.4 244.6 58.2 244.5 58.1Z" fill="#E8E6E8"/>
<g opacity="0.1">
<path d="M262.1 46.2C262 46.3 262 46.3 261.9 46.3C262 46.3 262.1 46.3 262.1 46.2Z" fill="#E8E6E8"/>
<path d="M262.5 45C262.4 44.8 262.1 44.7 261.9 44.7C261.7 44.5 261.1 44.8 260.9 45C260.8 45.1 260.6 45.2 260.5 45.3C260.4 45.4 260.3 45.5 260.3 45.6C260.2 45.8 260.2 45.9 260.3 46.1C260.3 46.3 260.4 46.4 260.6 46.5C260.9 46.6 261.3 46.5 261.7 46.4C261.9 46.3 262 46.3 262.1 46.2C262.1 46.2 262.2 46.2 262.2 46.1C262.4 45.9 262.5 45.8 262.6 45.5C262.6 45.4 262.6 45.2 262.5 45Z" fill="#E8E6E8"/>
</g>
<path opacity="0.1" d="M166.5 46.9C166.5 46.8 166.2 46.9 166.1 46.9C166.1 46.9 165.7 47.1 165.8 47.2C166 47.4 166.1 47.6 166.3 47.8C166.4 47.9 166.8 47.8 166.8 47.6C166.6 47.4 166.5 47.1 166.5 46.9Z" fill="#E8E6E8"/>
<path opacity="0.1" d="M157.5 48.9C157.3 48.7 157.1 48.4 156.9 48.2H156.7C156.6 48.2 156.5 48.2 156.4 48.3C156.3 48.3 156.1 48.5 156.2 48.6C156.4 48.8 156.7 49 156.9 49.3C157.1 49.3 157.7 49.1 157.5 48.9Z" fill="#E8E6E8"/>
<path opacity="0.1" d="M174.2 41.9C174.2 41.6 174.1 41.3 174.1 41C174.1 40.7 172.5 41.1 172.6 41.5C172.7 41.8 172.7 42.1 172.8 42.4C172.9 42.7 173.1 42.9 173.3 43.1C173.4 43.2 173.9 43 174 42.9C174.1 42.5 174.2 42.2 174.2 41.9Z" fill="#E8E6E8"/>
<path opacity="0.1" d="M74.7 176.7C74.6 176.6 74.5 176.5 74.5 176.5C74.5 176.5 74.4 176.4 74.3 176.4C74.2 176.4 74.1 176.3 74 176.3C73.9 176.3 73.8 176.2 73.7 176.2C73.6 176.2 73.5 176.2 73.4 176.1C73.2 176.1 73 176.1 72.9 176.2C72.8 176.2 72.6 176.4 72.6 176.5C72.6 176.6 72.6 176.6 72.6 176.7C72.6 176.7 72.7 176.8 72.7 176.9C72.8 177 72.9 177.1 73 177.2C73.1 177.3 73.3 177.4 73.5 177.4C73.7 177.4 74 177.4 74.2 177.3C74.3 177.3 74.4 177.2 74.4 177.1V177C74.6 176.8 74.6 176.8 74.7 176.7Z" fill="#E8E6E8"/>
<path opacity="0.1" d="M91 164.6C90.5 164.7 89.9 164.9 89.5 165.2C89 165.5 88.5 166 88.3 166.5C88.2 166.7 88.2 166.9 88.2 167.1C88.3 167.4 88.6 167.5 88.8 167.8C89 168.1 89.8 167.7 90 167.5C90.2 167.2 90.3 167 90.5 166.8C90.8 166.6 91 166.3 91.1 166C91.2 165.8 91.4 165.6 91.5 165.4C91.6 165.2 91.6 165 91.7 164.8C92 164.5 91.1 164.6 91 164.6Z" fill="#E8E6E8"/>
<path opacity="0.1" d="M68.5 200.2C68.5 200.2 68.3 200.2 68.3 200.3C68.4 200.4 68.5 200.5 68.6 200.6C68.6 200.6 68.8 200.6 68.8 200.5C68.7 200.4 68.6 200.3 68.5 200.2Z" fill="#E8E6E8"/>
<path opacity="0.1" d="M249.9 160.6C249.6 160 248.9 159.5 248.4 159.1C248.2 158.9 247.1 159.3 247.2 159.6C247.4 160.2 247.3 161 247.7 161.6C248.1 162.2 248.4 162.7 249 163.1C249.3 163.3 250 163 250.1 162.7C250.3 161.9 250.2 161.3 249.9 160.6Z" fill="#E8E6E8"/>
<path opacity="0.1" d="M221.6 170.4C221.6 171.1 221.6 171.7 221.8 172.4C221.8 172.5 222.1 172.4 222.2 172.3C222.3 171.6 222.4 170.9 222.4 170.2C222.3 170 221.6 170.2 221.6 170.4Z" fill="#E8E6E8"/>
<path opacity="0.1" d="M366.4 195.1C366.2 194.8 365.9 194.5 365.6 194.3C365.3 194.1 363.9 194.6 364.1 194.9C364.3 195.2 364.4 195.6 364.7 195.8C365 196.1 365.4 196.3 365.8 196.5C366 196.6 366.7 196.4 366.7 196.1C366.7 195.7 366.6 195.4 366.4 195.1Z" fill="#E8E6E8"/>
<path opacity="0.1" d="M437.8 140.4C437.5 140.5 437.1 140.6 436.9 140.9C436.5 141.6 435.9 142.5 436 143.3C436 143.6 436.8 143.1 436.9 143.1C437.6 142.4 438 141.4 438.5 140.5C438.6 140.2 437.9 140.4 437.8 140.4Z" fill="#E8E6E8"/>
<path opacity="0.1" d="M427.5 176.1C427.3 176 426.7 176.4 426.8 176.4C427.5 176.8 428.2 177.2 429 177.4C429.1 177.4 429.5 177.3 429.4 177.2C428.9 176.7 428.2 176.4 427.5 176.1Z" fill="#E8E6E8"/>
<path opacity="0.1" d="M404.5 254C404.4 254 404.3 254 404.3 254.1C404.1 254.3 403.9 254.6 403.6 254.8C403.5 254.9 403.7 254.9 403.7 254.9C403.8 254.9 403.9 254.9 403.9 254.8C404.1 254.5 404.3 254.3 404.5 254Z" fill="#E8E6E8"/>
<path opacity="0.1" d="M257.8 125C257.7 124.8 257.6 124.5 257.5 124.3C257.4 124.1 256.5 124.4 256.6 124.6C256.7 124.8 256.9 125.1 257 125.3C257.1 125.5 257.2 125.8 257.4 125.9C257.5 126 257.9 125.8 258 125.7C258.1 125.4 257.9 125.2 257.8 125Z" fill="#E8E6E8"/>
<path opacity="0.1" d="M243 118.4C242.9 118 241.8 118.6 241.7 118.7C241.5 119 241.2 119.3 241 119.6C240.8 119.9 240.7 120.1 240.6 120.5C240.6 120.6 240.6 120.7 240.7 120.7C241.4 121.3 242.2 120.7 242.8 120.2C243.1 120 243.3 119.5 243.2 119.2C243.2 118.9 243.1 118.7 243 118.4Z" fill="#E8E6E8"/>
<path opacity="0.1" d="M249.1 110C248.7 109.9 248.1 109.7 247.8 109.3C247.7 109.2 247.1 109.4 247.2 109.5C247.3 109.8 247.5 110.1 247.8 110.2C248.1 110.3 248.5 110.3 248.9 110.2C248.9 110.3 249.3 110 249.1 110Z" fill="#E8E6E8"/>
<path opacity="0.1" d="M230.8 108.9C230.3 109 229.8 109.2 229.5 109.5C229.2 109.8 228.9 110.1 228.7 110.5C228.6 110.8 228.4 111 228.4 111.3C228.5 111.6 229.3 111.2 229.4 111.1C229.8 110.8 230.2 110.5 230.5 110.2C230.8 109.9 231 109.6 231.3 109.2C231.6 108.9 231.1 108.9 230.8 108.9Z" fill="#E8E6E8"/>
<path opacity="0.1" d="M270.3 248.9C270.5 249.7 270 250.7 269.1 251C268.6 251.2 268 251.2 267.4 251C266 250.7 264.8 250.1 263.6 249.3C263 248.9 262.3 248.5 261.8 247.9C261.3 247.3 261 246.5 261.2 245.8C261.1 247 261.4 248.2 262.2 249.1C263 250 264 250.7 265.1 251.2C266.2 251.7 267.4 252 268.5 251.7C269.6 251.4 270.6 250 270.3 248.9Z" fill="#E6C9C3"/>
<path opacity="0.1" d="M365.5 290C365.3 291.1 364.5 292 363.6 292.7C362.7 293.4 361.7 293.8 360.6 294C359.5 294.3 358.3 294.4 357.2 294.2C356.5 294 355.9 293.7 355.3 293.3C355 293.1 354.8 292.8 354.6 292.5C354.5 292.3 354.4 292 354.3 291.8C354 291.2 353.5 290.7 353 290.2C352.6 289.7 352.2 289.1 352.3 288.4C352.2 289.1 352.2 289.9 352.6 290.5C352.9 291 353.3 291.4 353.6 291.9C353.8 292.2 353.9 292.6 354 293C354.5 294.1 355.6 294.8 356.8 295.1C358 295.3 359.2 295.1 360.3 294.7C362.7 293.9 364.8 292.3 365.5 290Z" fill="#E6C9C3"/>
<path opacity="0.1" d="M476.8 249.8C476.7 250.2 476.6 250.5 476.4 250.9C476.2 251.4 476.1 251.9 475.8 252.3C474.6 253.8 472.1 253.4 470.5 253C469.7 252.8 468.5 252 468.8 250.9C468.5 251.8 469 252.9 469.9 253.4C470.8 253.9 471.8 253.9 472.8 253.9C473.9 253.9 475.1 253.8 475.8 253C476.1 252.6 476.3 252.2 476.4 251.7C476.6 251.1 476.7 250.4 476.8 249.8Z" fill="#E6C9C3"/>
<path opacity="0.1" d="M479.9 222.4C479.8 222.8 479.7 223.1 479.5 223.4C479.4 223.5 479.3 223.6 479.2 223.7C479.1 223.7 478.9 223.7 478.8 223.7C478.1 223.6 477.4 223.4 476.7 223.1C476.5 223 476.2 222.9 476 222.8C475.4 222.4 475.2 221.7 475 221C475.1 221.8 475.1 222.5 475.7 223.1C476 223.4 476.4 223.7 476.8 223.9C477.3 224.2 477.9 224.4 478.5 224.6C478.7 224.7 478.9 224.7 479.1 224.7C479.4 224.7 479.6 224.5 479.7 224.2C479.9 223.7 480 222.9 479.9 222.4Z" fill="#E6C9C3"/>
<path opacity="0.1" d="M475 206C474.7 206.6 474.2 207.2 473.6 207.6C473.3 207.8 473 208 472.7 208C472.4 208 472 207.7 472 207.4C471.8 208 472.3 208.6 472.9 208.6C473.2 208.6 473.4 208.5 473.6 208.4C474.4 207.9 475 207 475 206Z" fill="#E6C9C3"/>
<path opacity="0.1" d="M481.1 83C481.2 83.6 481 84.3 480.6 84.8C480.2 85.3 479.7 85.7 479.2 86.1C478.1 87 476.9 88 475.5 88.4C474.7 88.7 473.7 88.7 473 88.3C472.2 87.9 471.7 86.9 472.1 86.1C471.4 86.9 471.7 88.2 472.5 88.9C473.3 89.6 474.5 89.6 475.5 89.3C476.5 89 477.4 88.3 478.2 87.7C479 87.1 479.7 86.5 480.3 85.7C480.9 85 481.3 84 481.1 83Z" fill="#E6C9C3"/>
<path opacity="0.1" d="M457.5 70.8C457.6 71.8 457.7 73.1 457.2 74.1C456.8 74.9 455.9 75 455.3 75.6C454.8 76.1 454.6 76.8 454 77.2C453.4 77.6 452.6 77.6 451.9 77.5C450.9 77.4 449.8 77.3 448.8 77.3C447.9 77.2 446.8 77.1 446.1 76.5C445.2 75.8 444.9 74.5 444.2 73.6C443.9 73.3 443.6 73 443.3 72.7C441.7 71.1 440.8 68.7 440.9 66.4C440.7 67.7 441.5 69.2 442.1 70.3C442.4 70.9 442.8 71.5 443.4 71.9C443.6 72 443.9 72.1 444.1 72.3C444.4 72.5 444.5 72.9 444.7 73.2C446 75.9 449.2 77.5 452.2 76.9C453.2 76.7 454.2 76.2 454.7 75.3C454.8 75.1 454.9 74.9 455.1 74.7C455.3 74.5 455.7 74.4 456 74.3C457.2 73.8 457.3 72 457.5 70.8Z" fill="#E6C9C3"/>
<path opacity="0.1" d="M452.2 60.4C452.2 60.7 452.1 61.1 451.9 61.3C451 62.4 448.4 62.3 447.2 62.1C446.6 62 444.5 61.7 444.5 60.8C445 61.6 445.7 62.3 446.6 62.5C447.5 62.7 448.5 62.7 449.4 62.7C450 62.7 450.7 62.6 451.3 62.3C451.9 61.8 452.4 61 452.2 60.4Z" fill="#E6C9C3"/>
<path opacity="0.1" d="M381.6 85.7C381.4 88.4 379.4 90.9 376.8 91.8C375.6 92.2 374.1 92.2 373.3 91.2C372.7 90.5 372.5 89.5 371.8 88.8C371.5 88.5 371.1 88.3 370.7 88C369.7 87.3 369.3 86 369 84.9C369.1 86.1 369.2 87.3 370.1 88.2C370.5 88.6 371.1 88.9 371.5 89.3C372.1 89.9 372.5 90.8 373.1 91.5C374.3 92.7 376.3 92.7 377.7 91.9C379.2 91.1 380.1 89.6 380.9 88.1C381.3 87.5 381.7 86.5 381.6 85.7Z" fill="#E6C9C3"/>
<path opacity="0.1" d="M390.9 89.7C390.7 90.4 390.2 90.9 389.7 91.4C387.9 93 385.7 94 383.3 94.3C383.1 94.3 382.8 94.3 382.7 94.2C382.4 94 382.5 93.5 382.7 93.3C382.9 93 383.2 92.8 383.3 92.4C383.1 92.7 382.6 93.2 382.4 93.5C382.2 93.8 382 94.2 382.2 94.6C382.4 95 382.9 95.1 383.3 95C385.8 95 388.1 93.4 389.9 91.6C390.3 91.2 390.9 90.4 390.9 89.7Z" fill="#E6C9C3"/>
<path opacity="0.1" d="M216.6 58.5C216.7 59.8 216.8 61.2 216.5 62.4C215.8 65 213.3 66.9 210.7 67.8C210.1 68 209.4 68.2 208.7 68.2C207.4 68.2 206.3 67.5 205.4 66.6C204.5 65.8 203.7 64.7 202.8 63.8C201.1 62.1 198.8 60.7 197.8 58.5C197.2 59.4 196.2 60.1 195.1 60.1C194 60 193 58.9 193.4 57.9C193.3 58.6 193.1 59.4 193.6 60C194 60.5 194.7 60.7 195.4 60.7C196.1 60.6 196.7 60.4 197.4 60.2C197.6 60.2 197.7 60.1 197.9 60.2C198.2 60.3 198.4 60.7 198.5 61C199.2 62.5 200.7 63.5 201.9 64.6C202.9 65.5 203.7 66.5 204.6 67.3C205.6 68.2 206.7 68.9 208 68.9C209.2 69 210.4 68.4 211.5 67.9C212.6 67.3 213.8 66.7 214.7 65.8C216.7 63.9 217.5 60.9 216.6 58.5Z" fill="#E6C9C3"/>
<path opacity="0.1" d="M224.7 56.3C225.3 56.3 225.9 56.2 226.4 56.1C226.6 56.1 226.9 56 227.1 55.9C227.3 55.8 227.4 55.7 227.5 55.6C228.1 55.1 229.2 54.4 229.5 53.7C229.1 55.3 228 56.7 226.5 57.1C226.1 57.2 225.6 57.2 225.1 57.3C224.3 57.3 223.5 57.3 222.9 56.8C222.2 56.2 222.2 55 222.7 54.3C222.2 55.8 223.4 56.3 224.7 56.3Z" fill="#E6C9C3"/>
<path opacity="0.1" d="M152.7 127.8C153 128.4 153.6 129 154.2 129.2C154.6 129.3 155.1 129.3 155.5 129.4C155.9 129.5 156.3 129.8 156.7 129.9C157.4 130.1 158.1 129.8 158.6 129.3C159.1 128.8 159.5 128.2 159.8 127.6C160.2 126.8 160.7 126 160.7 125.1C160.6 126.5 160.3 127.9 159.8 129.2C159.7 129.4 159.7 129.6 159.5 129.7C159.3 129.9 159.1 130 158.9 130C158 130.4 157 130.6 156 130.6C155 130.6 154 130.2 153.3 129.5C152.4 128.6 152.1 127.4 152.6 126.3C152.5 126.8 152.5 127.4 152.7 127.8Z" fill="#E6C9C3"/>
<defs>
<linearGradient id="paint0_linear_9_8704" x1="-5.7785" y1="269.579" x2="33.6116" y2="273.751" gradientUnits="userSpaceOnUse">
<stop stop-color="#B39B19"/>
<stop offset="0.3744" stop-color="#7C852D"/>
<stop offset="1" stop-color="#195C52"/>
</linearGradient>
<linearGradient id="paint1_linear_9_8704" x1="23.3667" y1="318.633" x2="45.2944" y2="305.153" gradientUnits="userSpaceOnUse">
<stop stop-color="#B39B19"/>
<stop offset="0.3744" stop-color="#7C852D"/>
<stop offset="1" stop-color="#195C52"/>
</linearGradient>
<linearGradient id="paint2_linear_9_8704" x1="23.9562" y1="317.82" x2="60.6808" y2="303.025" gradientUnits="userSpaceOnUse">
<stop stop-color="#B39B19"/>
<stop offset="0.3744" stop-color="#7C852D"/>
<stop offset="1" stop-color="#195C52"/>
</linearGradient>
<linearGradient id="paint3_linear_9_8704" x1="-5.04851" y1="282.368" x2="57.515" y2="257.164" gradientUnits="userSpaceOnUse">
<stop stop-color="#B39B19"/>
<stop offset="0.3744" stop-color="#7C852D"/>
<stop offset="1" stop-color="#195C52"/>
</linearGradient>
<linearGradient id="paint4_linear_9_8704" x1="-11.2607" y1="296.453" x2="44.3018" y2="289.079" gradientUnits="userSpaceOnUse">
<stop stop-color="#B39B19"/>
<stop offset="0.3744" stop-color="#7C852D"/>
<stop offset="1" stop-color="#195C52"/>
</linearGradient>
<linearGradient id="paint5_linear_9_8704" x1="-0.0815011" y1="299.826" x2="75.5386" y2="282.5" gradientUnits="userSpaceOnUse">
<stop stop-color="#B39B19"/>
<stop offset="0.3744" stop-color="#7C852D"/>
<stop offset="1" stop-color="#195C52"/>
</linearGradient>
<linearGradient id="paint6_linear_9_8704" x1="-5.628" y1="247.942" x2="29.8778" y2="228.91" gradientUnits="userSpaceOnUse">
<stop stop-color="#B39B19"/>
<stop offset="0.3744" stop-color="#7C852D"/>
<stop offset="1" stop-color="#195C52"/>
</linearGradient>
<linearGradient id="paint7_linear_9_8704" x1="12.7646" y1="188.939" x2="22.4438" y2="232.766" gradientUnits="userSpaceOnUse">
<stop stop-color="#B39B19"/>
<stop offset="0.3744" stop-color="#7C852D"/>
<stop offset="1" stop-color="#195C52"/>
</linearGradient>
<linearGradient id="paint8_linear_9_8704" x1="14.9571" y1="209.743" x2="32.4505" y2="239.544" gradientUnits="userSpaceOnUse">
<stop stop-color="#B39B19"/>
<stop offset="0.3744" stop-color="#7C852D"/>
<stop offset="1" stop-color="#195C52"/>
</linearGradient>
<linearGradient id="paint9_linear_9_8704" x1="-1.67977" y1="250.242" x2="41.03" y2="212.888" gradientUnits="userSpaceOnUse">
<stop stop-color="#B39B19"/>
<stop offset="0.3744" stop-color="#7C852D"/>
<stop offset="1" stop-color="#195C52"/>
</linearGradient>
<linearGradient id="paint10_linear_9_8704" x1="272.311" y1="6.73559" x2="277.196" y2="363.156" gradientUnits="userSpaceOnUse">
<stop stop-color="#BFA0A2"/>
<stop offset="0.2596" stop-color="#8B7588"/>
<stop offset="0.5642" stop-color="#493E66"/>
<stop offset="0.8176" stop-color="#224569"/>
<stop offset="1" stop-color="#0A4A6B"/>
</linearGradient>
<radialGradient id="paint11_radial_9_8704" cx="0" cy="0" r="1" gradientUnits="userSpaceOnUse" gradientTransform="translate(290.206 1.46962) scale(924.179 690.421)">
<stop stop-color="#CCAAAC"/>
<stop offset="1" stop-color="#6C6778"/>
</radialGradient>
<linearGradient id="paint12_linear_9_8704" x1="555.036" y1="43.8408" x2="533.929" y2="75.1601" gradientUnits="userSpaceOnUse">
<stop stop-color="#B39B19"/>
<stop offset="0.3744" stop-color="#7C852D"/>
<stop offset="1" stop-color="#195C52"/>
</linearGradient>
<linearGradient id="paint13_linear_9_8704" x1="507.254" y1="-18.649" x2="503.025" y2="20.735" gradientUnits="userSpaceOnUse">
<stop stop-color="#B39B19"/>
<stop offset="0.3744" stop-color="#7C852D"/>
<stop offset="1" stop-color="#195C52"/>
</linearGradient>
<linearGradient id="paint14_linear_9_8704" x1="549.058" y1="20.1856" x2="531.258" y2="38.7773" gradientUnits="userSpaceOnUse">
<stop stop-color="#B39B19"/>
<stop offset="0.3744" stop-color="#7C852D"/>
<stop offset="1" stop-color="#195C52"/>
</linearGradient>
<linearGradient id="paint15_linear_9_8704" x1="548.14" y1="20.5903" x2="525.932" y2="53.3689" gradientUnits="userSpaceOnUse">
<stop stop-color="#B39B19"/>
<stop offset="0.3744" stop-color="#7C852D"/>
<stop offset="1" stop-color="#195C52"/>
</linearGradient>
<linearGradient id="paint16_linear_9_8704" x1="519.602" y1="-15.2382" x2="481.77" y2="40.6026" gradientUnits="userSpaceOnUse">
<stop stop-color="#B39B19"/>
<stop offset="0.3744" stop-color="#7C852D"/>
<stop offset="1" stop-color="#195C52"/>
</linearGradient>
<linearGradient id="paint17_linear_9_8704" x1="534.68" y1="-18.3407" x2="515.754" y2="34.4172" gradientUnits="userSpaceOnUse">
<stop stop-color="#B39B19"/>
<stop offset="0.3744" stop-color="#7C852D"/>
<stop offset="1" stop-color="#195C52"/>
</linearGradient>
<linearGradient id="paint18_linear_9_8704" x1="535.62" y1="-6.7014" x2="502.735" y2="63.5636" gradientUnits="userSpaceOnUse">
<stop stop-color="#B39B19"/>
<stop offset="0.3744" stop-color="#7C852D"/>
<stop offset="1" stop-color="#195C52"/>
</linearGradient>
<linearGradient id="paint19_linear_9_8704" x1="544.348" y1="140.818" x2="526.475" y2="108.476" gradientUnits="userSpaceOnUse">
<stop stop-color="#B39B19"/>
<stop offset="0.3744" stop-color="#7C852D"/>
<stop offset="1" stop-color="#195C52"/>
</linearGradient>
<linearGradient id="paint20_linear_9_8704" x1="559.562" y1="86.2099" x2="530.282" y2="115.149" gradientUnits="userSpaceOnUse">
<stop stop-color="#B39B19"/>
<stop offset="0.3744" stop-color="#7C852D"/>
<stop offset="1" stop-color="#195C52"/>
</linearGradient>
<linearGradient id="paint21_linear_9_8704" x1="547.513" y1="101.143" x2="519.198" y2="115.388" gradientUnits="userSpaceOnUse">
<stop stop-color="#B39B19"/>
<stop offset="0.3744" stop-color="#7C852D"/>
<stop offset="1" stop-color="#195C52"/>
</linearGradient>
<linearGradient id="paint22_linear_9_8704" x1="540.161" y1="140.624" x2="525.863" y2="90.5816" gradientUnits="userSpaceOnUse">
<stop stop-color="#B39B19"/>
<stop offset="0.3744" stop-color="#7C852D"/>
<stop offset="1" stop-color="#195C52"/>
</linearGradient>
<linearGradient id="paint23_linear_9_8704" x1="500.632" y1="-25.4747" x2="513.398" y2="100.398" gradientUnits="userSpaceOnUse">
<stop stop-color="#B39B19"/>
<stop offset="0.3744" stop-color="#7C852D"/>
<stop offset="1" stop-color="#195C52"/>
</linearGradient>
<linearGradient id="paint24_linear_9_8704" x1="483.718" y1="7.4676" x2="524.587" y2="135.372" gradientUnits="userSpaceOnUse">
<stop stop-color="#B39B19"/>
<stop offset="0.3744" stop-color="#7C852D"/>
<stop offset="1" stop-color="#195C52"/>
</linearGradient>
<linearGradient id="paint25_linear_9_8704" x1="498.045" y1="62.426" x2="519.152" y2="90.1706" gradientUnits="userSpaceOnUse">
<stop stop-color="#B39B19"/>
<stop offset="0.3744" stop-color="#7C852D"/>
<stop offset="1" stop-color="#195C52"/>
</linearGradient>
<linearGradient id="paint26_linear_9_8704" x1="97.6131" y1="212.922" x2="65.6906" y2="286.296" gradientUnits="userSpaceOnUse">
<stop stop-color="#B39B19"/>
<stop offset="0.3744" stop-color="#7C852D"/>
<stop offset="1" stop-color="#195C52"/>
</linearGradient>
<linearGradient id="paint27_linear_9_8704" x1="45.9027" y1="251.154" x2="52.1159" y2="282.415" gradientUnits="userSpaceOnUse">
<stop stop-color="#B39B19"/>
<stop offset="0.3744" stop-color="#7C852D"/>
<stop offset="1" stop-color="#195C52"/>
</linearGradient>
<linearGradient id="paint28_linear_9_8704" x1="76.4642" y1="261.847" x2="59.9273" y2="299.646" gradientUnits="userSpaceOnUse">
<stop stop-color="#B39B19"/>
<stop offset="0.3744" stop-color="#7C852D"/>
<stop offset="1" stop-color="#195C52"/>
</linearGradient>
<linearGradient id="paint29_linear_9_8704" x1="62.4048" y1="283.56" x2="94.5102" y2="297.164" gradientUnits="userSpaceOnUse">
<stop stop-color="#B39B19"/>
<stop offset="0.3744" stop-color="#7C852D"/>
<stop offset="1" stop-color="#195C52"/>
</linearGradient>
</defs>
</svg>
