<svg width="116" height="68" viewBox="0 0 116 68" fill="none" xmlns="http://www.w3.org/2000/svg">
<path d="M113.602 11.8092C109.902 7.39853 105.776 3.84154 101.223 0.853682C100.37 0.284566 99.2314 0 98.2355 0C82.8694 0.426836 67.5033 0.995952 51.9949 1.42279C47.8688 1.56507 43.885 1.70737 39.7589 1.84965C37.9092 1.84965 36.2019 1.70737 34.4946 2.56104C33.3563 3.13016 33.214 3.55696 31.9335 3.41468C29.5148 2.98785 28.092 2.27647 25.3887 2.27647C22.97 2.41875 20.6935 2.41877 18.2748 2.56104C16.2829 2.56104 14.291 2.70329 12.2991 2.70329C11.3031 2.70329 10.3072 2.98786 9.59576 3.55697C6.46563 5.69115 3.76234 8.10992 1.48588 11.0978C0.632202 12.0937 0.205362 13.3742 0.34764 14.6547C1.05903 27.7444 1.77044 41.2609 2.62411 55.2042C2.76639 56.627 3.33549 57.9075 4.47372 58.9034C8.03069 62.1758 12.0145 64.8792 16.4252 67.1556C17.1365 67.5825 17.9902 67.7247 18.8439 67.7247C24.535 67.7247 30.0839 67.7247 35.7751 67.7247C41.3239 67.7247 46.7305 67.7247 52.2794 67.7247C57.5437 67.7247 63.0926 68.2938 68.2146 66.871C69.6374 66.4442 70.9179 66.1597 72.3407 65.7328C72.6253 65.5906 72.9098 65.5905 73.1944 65.5905C73.3367 65.5905 73.6212 65.7328 73.7635 65.8751C76.4668 68.0093 78.3164 67.5824 81.7311 67.5824C84.2921 67.5824 86.9954 67.5824 89.5565 67.5824C91.8329 67.5824 94.2517 67.5824 96.5281 67.5824C97.0973 67.5824 97.8086 67.4402 98.3777 67.2979C103.358 65.4483 107.626 62.3181 111.183 58.192C112.037 57.3384 112.463 56.2001 112.606 54.9196C113.032 48.8016 114.171 42.1145 113.602 36.1388C112.179 35.8543 110.898 35.8543 109.475 35.8543C111.041 34.1469 113.175 35.1429 113.886 32.4396C114.455 30.0209 114.313 27.1752 114.455 24.7565C114.598 21.7687 114.882 18.7808 115.024 15.793C114.74 14.2279 114.455 12.8051 113.602 11.8092Z" fill="url(#paint0_linear_9_9285)"/>
<path d="M5.61203 14.5125L5.89658 20.2036C6.03886 23.0492 6.18115 26.037 6.32342 28.8826C6.32342 29.8786 6.46571 30.8745 6.46571 31.8704C6.60799 35.1429 6.75026 38.4153 7.03482 41.6877L7.17711 45.1024C7.31938 46.8097 7.31938 48.3748 7.46166 50.0822C7.60394 51.6472 7.60393 53.3546 7.74621 54.9196C9.45356 56.4847 11.4455 58.0498 13.4374 59.3303C15.0024 60.4685 16.7098 61.4645 18.5594 62.3181H19.4131C23.3969 62.3181 27.2384 62.3181 31.2222 62.3181H41.0395C41.6086 62.3181 42.1777 62.3181 42.7468 62.3181C48.0111 62.3181 53.2754 62.3181 58.5397 62.3181C61.5276 62.3181 64.5155 62.3181 67.3611 62.3181C70.0644 62.3181 72.3408 61.749 74.9018 62.0336C75.3287 62.1759 75.8978 62.1759 76.3246 62.1759C77.3206 62.1759 78.3165 62.1759 79.3125 62.1759C81.3044 62.1759 83.2963 62.1759 85.2882 62.1759C86.1418 62.1759 87.1378 62.1759 87.9915 62.1759C90.1257 62.1759 93.8249 62.8873 95.9591 62.1759C99.9429 60.7531 103.5 58.1921 106.63 54.4928C107.341 53.6391 107.057 49.2285 107.057 47.948V47.8057C107.057 47.3789 107.057 46.952 107.199 46.5252C107.199 46.0984 107.199 45.6715 107.341 45.2447C107.484 43.8219 107.484 42.2568 107.626 40.834C107.626 40.1226 108.195 36.1388 107.484 35.4274C107.341 35.2851 107.341 35.2852 107.199 35.2852C106.63 35.2852 106.061 35.2852 105.349 35.2852C105.207 35.2852 104.923 35.2852 104.78 35.2852C105.207 35.0006 105.634 34.5738 106.061 34.2892C107.911 32.2973 108.48 29.8786 108.622 27.3176C108.622 26.4639 108.764 25.4679 108.764 24.6143C108.764 23.9029 108.764 23.3337 108.906 22.6223C109.049 21.4841 110.187 15.9352 109.333 15.0816C106.203 11.3823 102.646 8.25216 98.6624 5.54886C98.5201 5.40658 98.3778 5.40661 98.2356 5.26433C96.1014 5.26433 93.8249 5.40662 91.6907 5.40662C78.1742 5.83346 64.6577 6.26028 51.1413 6.68712C47.7266 6.8294 44.4542 6.82937 41.0395 6.97165C39.6167 6.97165 37.6248 6.68711 36.3443 7.25623C34.9215 7.68306 34.0678 9.39042 32.3605 8.8213C27.8075 6.97168 23.3969 7.54078 18.5594 7.82533C17.2789 7.82533 13.5796 7.25623 12.4414 7.96762C9.8804 9.95952 7.46165 12.0937 5.61203 14.5125Z" fill="url(#paint1_linear_9_9285)"/>
<path d="M105.492 35.4274C105.207 35.8542 104.78 36.1388 104.211 36.2811C104.638 37.1348 106.061 36.5657 106.772 37.2771C107.057 37.5616 107.057 37.9884 107.057 38.273C107.199 40.6917 106.63 44.2487 107.484 46.5252C107.626 44.6756 107.768 42.6837 107.91 40.834C107.91 40.1226 108.48 36.1388 107.768 35.4274C107.626 35.2851 107.626 35.2852 107.484 35.2852C106.63 35.4274 106.061 35.4274 105.492 35.4274Z" fill="#CCA5B3"/>
<path d="M5.61203 14.5125L5.89658 20.2036C6.4657 30.0208 6.89254 39.9804 7.46166 50.0822C7.46166 50.3667 7.60395 50.7935 7.60395 51.0781C7.31939 42.6836 6.89254 34.2892 6.60798 25.8948C6.4657 22.9069 6.32342 19.7767 7.03482 16.9312C7.60393 14.5124 8.74217 12.0937 10.7341 10.5286C12.726 8.96355 14.7179 9.24811 16.9943 9.10583C20.409 8.96356 23.966 8.53674 27.2384 8.8213C28.3766 8.96358 29.5149 9.10586 30.6531 9.5327C31.2222 9.81725 31.7913 10.2441 32.3605 10.2441C33.9255 10.5286 35.3483 8.96356 36.9134 8.53673C37.6248 8.25217 38.4784 8.2522 39.1898 8.2522C54.556 7.68308 69.9221 7.11395 85.2882 6.54483C88.9874 6.40255 94.6786 5.40658 97.951 7.68305C99.3738 8.679 100.654 9.67497 101.793 10.8132C103.358 12.3783 105.065 13.9433 106.63 15.5084C106.915 15.7929 107.199 16.0775 107.341 16.5043C107.626 17.0735 107.484 17.6426 107.341 18.354C106.63 22.1955 106.772 25.8947 106.63 29.7363C106.63 31.1591 106.488 33.0087 105.919 34.5738C108.906 31.5859 108.337 27.1753 108.622 22.9069C108.764 21.7687 109.902 16.2198 109.049 15.3661C105.919 11.5246 102.077 8.25217 97.951 5.69115C82.3003 6.11799 66.5074 6.6871 50.8567 7.11394C47.442 7.25622 44.1696 7.25624 40.7549 7.39851C39.3321 7.39851 37.3402 7.11393 36.0597 7.68305C34.6369 8.10988 33.7832 9.81724 32.0759 9.24812C27.523 7.3985 23.1123 7.96764 18.2749 8.2522C16.9943 8.2522 13.2951 7.68305 12.1569 8.39444C9.8804 9.95951 7.46165 12.0937 5.61203 14.5125Z" fill="#CCA5B3"/>
<path d="M8.7421 17.358C8.7421 17.2158 8.7421 17.0735 8.88438 16.9312C9.31122 15.9352 10.5917 15.5084 11.5877 15.0816C13.0105 14.3702 14.5755 12.8051 16.1406 12.6628C17.1366 12.5205 18.2748 12.6628 19.2707 12.5206C32.2181 12.3783 45.1655 12.0937 58.1129 11.5246C64.8 11.24 71.4871 10.8132 78.1742 10.3864C84.2922 9.95954 90.2679 9.5327 96.3859 9.5327C96.5281 9.5327 96.6704 9.5327 96.8127 9.5327C96.955 9.5327 97.0973 9.67495 97.2395 9.81723C98.52 11.3823 99.9428 12.8051 101.366 14.3702C102.788 15.9352 104.78 17.6426 105.634 19.4922C105.634 19.6345 105.634 19.6345 105.492 19.7767C103.927 20.4881 102.504 21.3419 100.939 21.7687C100.227 22.0532 99.3737 22.3378 98.6623 22.6223C98.0932 22.7646 97.2395 23.3337 96.6704 23.0492C96.3858 22.9069 96.2436 22.7646 95.959 22.6223C93.8248 20.6304 91.8329 18.0694 90.837 15.2239C90.837 15.0816 90.837 15.0816 90.837 14.9393C90.837 14.0856 93.398 14.5125 93.9671 14.5125C95.1053 14.5125 96.2436 14.6547 97.3818 14.797C97.5241 14.797 97.5241 14.797 97.5241 14.9393C97.8086 15.2238 97.6664 16.2198 97.2395 16.3621C96.955 16.5043 96.3859 16.3621 96.1013 16.2198C95.1053 16.0775 94.1094 15.9352 93.1134 15.793C94.2517 17.5003 95.3899 19.0654 96.6704 20.6304C96.8127 20.7727 96.8127 20.915 96.955 20.915C97.0972 21.0573 97.3818 20.915 97.6664 20.915C99.516 20.3459 101.366 19.4922 103.073 18.6385C100.654 16.0775 98.3778 13.5165 96.1013 10.8132C89.841 10.1018 83.0116 11.3823 76.7514 11.8092C70.0643 12.236 63.2349 12.5205 56.5478 12.8051C50.003 13.0897 43.6004 13.2319 37.0556 13.5165C30.7953 13.6588 24.2505 14.0856 17.848 13.6588C17.5634 13.6588 17.2788 13.6588 16.852 13.5165C15.5715 13.3742 14.4333 14.3702 13.4373 14.9393C12.4413 15.6507 11.4454 16.3621 10.4495 17.0735C10.3072 17.2157 10.1649 17.2158 10.1649 17.358C10.0226 17.5003 10.1649 17.6426 10.1649 17.7849C10.734 25.4679 10.8763 33.2933 11.1609 40.9763C11.1609 41.6877 12.2991 47.6634 11.3031 47.948C10.1649 48.2325 10.0226 46.3829 10.0226 45.6715C9.88034 36.4234 9.02666 27.1753 8.88438 17.7849C8.7421 17.7849 8.7421 17.5003 8.7421 17.358ZM13.0105 55.631C13.7219 56.2001 14.4332 56.627 15.1446 57.1961C16.5674 58.1921 18.1325 59.3303 19.5553 60.3262C20.6935 61.1799 22.2586 60.6108 23.5391 60.6108C25.2465 60.6108 26.9538 60.6108 28.6611 60.6108C39.332 60.6108 50.1452 60.4685 60.8162 60.3262C72.483 60.1839 85.0036 61.1799 96.5281 58.9034C96.6704 58.9034 96.955 58.9035 97.0973 58.7612C97.2395 58.7612 97.3818 58.6189 97.5241 58.4766C99.2314 57.1961 100.939 55.631 102.504 54.066C102.788 53.7814 103.073 53.4969 103.215 53.07C103.5 52.5009 103.215 52.2164 103.215 51.6472C103.215 51.0781 103.215 50.3667 103.358 49.7976C103.358 48.5171 103.5 47.2366 103.5 46.0983C103.642 43.6796 103.784 41.1186 103.927 38.6999C104.069 36.5657 103.927 34.2892 104.069 32.155C104.211 30.3054 104.211 28.4558 104.353 26.4639C104.353 25.6102 104.638 24.3297 104.496 23.476C104.353 22.6223 103.784 22.6223 103.358 23.476C103.215 23.9028 103.215 24.3297 103.215 24.7565C103.358 33.7201 102.077 42.5414 102.077 51.3627C102.077 53.07 100.796 53.9237 99.516 54.9196C98.2355 55.9156 96.955 56.9115 95.6745 57.6229C95.2476 57.9075 94.8208 58.0497 94.394 58.192C82.4425 58.3343 70.6334 58.9034 58.682 59.0457C46.0192 59.188 33.3563 59.3303 20.6935 59.4726C19.5553 58.4766 18.1325 57.6229 16.9943 56.7692C15.7138 55.9156 14.0064 54.9197 12.8682 53.7814L12.7259 53.6391V53.4968C13.295 51.6472 14.291 49.9399 15.7138 48.6594C16.4252 49.0862 17.2788 49.513 17.848 50.0822C18.5593 50.7936 19.413 51.505 20.1244 52.3586C20.409 52.6432 21.4049 53.4968 21.6895 53.9237C20.2667 53.7814 18.8439 53.9237 17.5634 54.4928C16.9943 54.7774 19.413 55.7733 19.6976 55.631C21.1204 55.4887 22.4009 55.0619 23.8237 55.2042C23.9659 55.2042 24.2505 55.2042 24.3928 55.0619C24.535 54.2082 23.6814 53.7814 23.1123 53.2123C22.4009 52.5009 21.6895 51.7895 20.8358 50.9358C19.2707 49.3708 17.4211 48.2325 15.856 46.6675L15.7138 46.5252H15.5715C13.1527 47.948 11.73 51.0781 11.1609 53.6391C11.1609 53.7814 11.1609 53.7814 11.1609 53.9237C11.4454 54.7773 12.5836 55.3465 13.0105 55.631Z" fill="#CCA5B3"/>
<path d="M8.45759 16.3621C8.45759 16.2198 8.4576 16.0775 8.59988 15.9352C9.02671 14.9393 10.3072 14.5124 11.3032 14.0856C12.726 13.3742 14.291 11.8092 15.8561 11.6669C16.852 11.5246 17.9903 11.6669 18.9862 11.5246C31.9336 11.3823 44.881 11.0977 57.8283 10.5286C64.5154 10.2441 71.2026 9.81725 77.8897 9.39041C84.0076 8.96357 89.9834 8.53673 96.1013 8.53673C96.2436 8.53673 96.3859 8.53673 96.5282 8.53673C96.6705 8.53673 96.8127 8.8213 96.955 8.8213C98.2355 10.3864 99.6583 11.8091 101.081 13.3742C102.504 14.9393 104.496 16.6466 105.349 18.4962C105.349 18.6385 105.349 18.6385 105.207 18.7808C103.642 19.4922 102.219 20.3459 100.654 20.7727C99.9429 21.0573 99.0892 21.3418 98.3778 21.6264C97.8087 21.7687 96.955 22.3378 96.3859 22.0532C96.1013 21.9109 95.9591 21.7687 95.6745 21.6264C93.5403 19.6345 91.5484 17.0735 90.5525 14.2279C90.5525 14.0856 90.5525 14.0856 90.5525 13.9433C90.5525 13.0897 93.1135 13.5165 93.6826 13.5165C94.8208 13.5165 95.9591 13.6588 97.0973 13.8011C97.2396 13.8011 97.2396 13.8011 97.2396 13.9433C97.5241 14.2279 97.3819 15.2239 96.955 15.3661C96.6705 15.5084 96.1014 15.3661 95.8168 15.2238C94.8208 15.0816 93.8249 14.9393 92.8289 14.797C93.9672 16.5043 95.1054 18.0694 96.3859 19.6345C96.5282 19.7768 96.5282 19.919 96.6705 19.919C96.8127 20.0613 97.0973 19.919 97.3819 19.919C99.2315 19.3499 101.081 18.4962 102.788 17.6426C100.37 15.0815 98.0933 12.5205 95.8168 9.81723C89.5565 9.10583 82.7271 10.3864 76.4669 10.8132C69.7798 11.24 62.9504 11.5246 56.2633 11.8092C49.7185 12.0937 43.3159 12.236 36.7711 12.5206C30.5108 12.6628 23.966 13.0896 17.5634 12.6628C17.2789 12.6628 16.9943 12.6628 16.5675 12.5206C15.287 12.3783 14.1487 13.3742 13.1528 13.9433C12.1568 14.6547 11.1609 15.3661 10.1649 16.0775C10.0227 16.2198 9.88038 16.2198 9.88038 16.3621C9.7381 16.5043 9.88038 16.6466 9.88038 16.7889C10.4495 24.472 10.5918 32.2973 10.8763 39.9804C10.8763 40.6917 12.0146 46.6674 11.0186 46.952C9.88038 47.2366 9.73811 45.3869 9.73811 44.6755C9.59583 35.4274 8.74216 26.1793 8.59988 16.7889C8.31532 16.7889 8.31531 16.5043 8.45759 16.3621ZM12.726 54.6351C13.4373 55.2042 14.1487 55.631 14.8601 56.2001C16.2829 57.1961 17.848 58.3343 19.2708 59.3303C20.409 60.184 21.9741 59.6148 23.2546 59.6148C24.9619 59.6148 26.6693 59.6148 28.3766 59.6148C39.0475 59.6148 49.8607 59.4726 60.5316 59.3303C72.1985 59.188 84.719 60.184 96.2436 57.9075C96.3859 57.9075 96.6705 57.9075 96.8127 57.7652C96.955 57.7652 97.0973 57.6229 97.2396 57.4806C98.9469 56.2001 100.654 54.6351 102.219 53.07C102.504 52.7855 102.788 52.5009 102.931 52.0741C103.215 51.5049 102.931 51.2204 102.931 50.6513C102.931 50.0821 102.931 49.3708 103.073 48.8017C103.073 47.5211 103.215 46.2406 103.215 45.1024C103.358 42.6837 103.5 40.1226 103.642 37.7039C103.784 35.5697 103.642 33.2932 103.784 31.159C103.927 29.3094 103.927 27.4598 104.069 25.4679C104.069 24.6142 104.354 23.3338 104.211 22.4801C104.069 21.6264 103.5 21.6264 103.073 22.4801C102.931 22.9069 102.931 23.3337 102.931 23.7606C103.073 32.7241 101.793 41.5454 101.793 50.3667C101.793 52.074 100.512 52.9277 99.2315 53.9237C97.951 54.9196 96.6705 55.9156 95.39 56.627C94.9631 56.9116 94.5363 57.0538 94.1094 57.1961C82.158 57.3384 70.3489 57.9075 58.3975 58.0498C45.7346 58.1921 33.0718 58.3343 20.409 58.4766C19.2708 57.4806 17.848 56.627 16.7098 55.7733C15.4293 54.9196 13.7219 53.9237 12.5837 52.7854L12.4414 52.6432V52.5009C13.0105 50.6512 14.0065 48.9439 15.4293 47.6634C16.1407 48.0902 16.9943 48.5171 17.5634 49.0862C18.2748 49.7976 19.1285 50.509 19.8399 51.3627C20.1245 51.6472 21.1204 52.5009 21.405 52.9277C19.9822 52.7855 18.5594 52.9277 17.2789 53.4968C16.7098 53.9237 19.1285 54.7773 19.4131 54.6351C20.8358 54.4928 22.1164 54.066 23.5392 54.2082C23.6814 54.2082 23.966 54.2082 24.1083 54.0659C24.2505 53.2123 23.3969 52.7855 22.8278 52.2163C22.1164 51.5049 21.405 50.7935 20.5513 49.9399C18.9862 48.3748 17.1366 47.2366 15.5715 45.6715L15.4293 45.5292H15.287C12.8682 46.952 11.4454 50.0821 10.8763 52.6432C10.8763 52.7854 10.8763 52.7855 10.8763 52.9277C11.1609 53.7814 12.2991 54.3505 12.726 54.6351Z" fill="#573E69"/>
<path d="M33.0718 41.2608C32.3604 40.5495 31.2221 40.2649 30.2262 40.2649C29.7993 40.1226 29.088 40.4072 28.8034 40.5495C28.9457 38.9844 28.092 37.7039 26.9538 36.4234C25.6733 35.0006 24.2505 34.0046 22.2586 34.2892C20.6935 34.5737 18.417 35.2851 17.7056 36.9925C17.1365 38.5575 18.2748 40.2649 18.9862 41.5454C19.413 42.2568 19.6976 42.9682 20.2667 43.395C20.2667 43.395 20.2667 43.5373 20.409 43.5373C21.4049 45.1024 23.3968 44.6755 24.8196 44.2487C25.9578 43.9642 26.9538 43.395 27.8075 42.5413C27.9497 42.9682 28.092 43.3951 28.5188 43.8219C28.9457 44.2487 29.5148 44.5333 30.0839 44.8178C30.7953 45.1024 32.2181 44.6755 32.6449 44.1064C33.0718 43.6796 33.4986 42.9682 33.4986 42.3991C33.7832 42.1145 33.4986 41.6877 33.0718 41.2608Z" fill="#E8E6E8"/>
<path d="M30.7953 49.6553C30.5107 49.2285 29.9416 48.9439 29.5148 48.8017C28.8034 48.5171 28.092 48.5171 27.3806 48.5171C26.9538 48.5171 26.3847 48.6593 26.1001 48.9439C25.8156 49.3707 25.531 49.6553 25.6733 50.2244C25.8156 50.6513 26.2424 50.9358 26.5269 51.2204C27.0961 51.5049 27.9497 51.6472 28.6611 51.7895C29.2302 51.7895 29.9416 51.6472 30.3685 51.3627C30.9376 50.9358 31.2221 50.2244 30.7953 49.6553Z" fill="#E8E6E8"/>
<path d="M15.287 35.4274C15.287 35.1428 15.0024 34.8583 14.8601 34.5738C14.7178 34.2892 13.5796 34.5737 13.5796 34.8583C13.5796 35.1429 13.4373 35.5697 13.5796 35.8543C13.7219 36.1388 14.0065 36.4234 14.291 36.5657C14.4333 36.7079 15.0024 36.5656 15.1447 36.2811C15.1447 35.9965 15.287 35.712 15.287 35.4274Z" fill="#E8E6E8"/>
<path d="M37.9093 55.7733C37.7671 55.631 37.7671 55.4887 37.7671 55.3465C37.6248 55.2042 37.4825 55.0619 37.3402 55.0619C36.9134 54.7774 36.4866 54.7774 36.202 54.4928C35.9174 54.3505 35.6329 54.4928 35.3483 54.4928C35.2061 54.4928 34.7792 54.7774 34.7792 54.9196C34.9215 55.2042 35.0638 55.631 35.3483 55.7733C35.9174 56.0579 36.3443 56.0579 36.9134 56.0579C37.1979 56.2001 38.0516 56.0579 37.9093 55.7733Z" fill="#E8E6E8"/>
<path d="M33.0719 43.9641C32.5028 44.391 31.9337 44.9601 31.08 44.9601C30.7954 44.9601 30.5109 44.9601 30.2263 44.8178C29.0881 44.5333 28.0921 43.6796 27.8076 42.5414C27.0962 43.395 26.1002 43.8219 25.1043 44.2487C24.3929 44.5333 23.6815 44.8178 22.8278 44.8178C22.1164 44.8178 21.6896 44.5333 20.9782 44.2487C20.4091 44.1064 20.1245 43.5373 19.8399 43.1105C18.844 41.4032 17.8481 39.5535 17.5635 37.5616C17.4212 38.5575 17.7058 39.6958 18.1326 40.6917C18.844 42.2568 19.5554 43.8219 20.4091 45.3869C21.1205 45.6715 22.1164 45.8138 22.8278 45.6715C23.2546 45.6715 23.6815 45.387 24.1083 45.2447C25.2465 44.8178 26.3848 44.2487 27.3807 43.5373C27.0962 43.8219 29.5149 44.9601 29.7995 45.1024C31.6491 46.0984 31.9337 45.2447 33.0719 43.9641Z" fill="#CCA5B3"/>
<path d="M31.0799 50.3667C30.9376 50.9358 30.3685 51.3627 29.6571 51.5049C28.6612 51.7895 25.1042 51.3626 25.8156 49.6553C25.531 50.3667 25.6733 51.2204 26.2424 51.5049C27.0961 52.0741 27.9498 52.3586 28.9457 52.2163C29.9417 52.0741 30.7954 51.3626 31.0799 50.3667Z" fill="#CCA5B3"/>
<path d="M101.223 27.6021C100.939 26.6061 99.8006 26.3216 98.9469 26.3216C97.6664 26.1793 96.2436 26.4639 94.9631 27.033L95.1054 26.8907C95.2477 26.7484 95.2477 26.6061 95.2477 26.4639C95.2477 26.3216 95.2477 26.3216 95.2477 26.1793L95.1054 26.0371C94.8208 25.8948 94.5363 25.7525 94.394 25.7525C94.1094 25.6102 93.6826 25.6102 93.2558 25.6102C92.8289 25.7525 92.4021 25.8948 91.833 26.0371C91.4061 26.1793 90.9793 26.3216 90.6947 26.6062C90.5525 26.7484 90.1256 27.033 90.2679 27.3176L90.4102 27.7444C90.5525 28.0289 90.6947 28.029 90.9793 28.1712C91.1216 28.1712 91.2638 28.1712 91.2638 28.3135C91.4061 28.3135 91.5484 28.3135 91.6907 28.3135C91.9752 28.3135 92.2598 28.3135 92.4021 28.1712H92.5444C92.4021 28.3135 92.2598 28.3135 92.1175 28.4558C91.5484 28.8826 90.6947 29.8786 90.9793 30.8745C91.1216 31.1591 91.2639 31.1591 91.5484 31.3013V31.4436C91.4061 32.155 91.2638 33.151 91.9752 33.5778C92.4021 33.8624 93.1135 33.8624 93.6826 33.8624C95.1054 33.8624 96.6705 33.2932 97.951 32.7241C99.2315 32.155 100.797 31.3013 101.223 29.7363C101.508 29.1671 101.508 28.1712 101.223 27.6021Z" fill="#E8E6E8"/>
<path d="M100.085 36.708C100.085 36.4234 99.9429 36.1388 99.6583 35.9966C98.6624 35.5697 97.5241 35.8543 96.6705 36.5657C96.3859 36.8502 95.9591 37.1348 95.9591 37.7039C95.9591 37.9884 95.9591 38.273 96.1014 38.4153C96.3859 38.6998 97.0973 38.6998 97.5242 38.6998C98.2355 38.5576 99.0892 38.273 99.6583 37.7039C99.9429 37.4193 100.227 37.1348 100.085 36.708Z" fill="#E8E6E8"/>
<path d="M85.5727 13.3742C85.0036 13.2319 84.4345 13.3742 84.0076 13.3742C83.154 13.5165 82.158 13.8011 81.3043 14.2279C80.7352 14.5125 80.1661 14.797 79.7393 15.3662C79.597 15.5084 79.0279 16.0775 79.3124 16.3621C79.597 16.7889 80.1661 16.9312 80.5929 16.7889C81.1621 16.7889 81.7312 16.6466 82.3003 16.5044C82.7271 16.3621 83.0117 16.2198 83.4385 16.2198C84.0076 16.0775 84.5768 15.793 85.1459 15.5084C85.5727 15.2238 85.8573 14.9393 86.1418 14.6548C86.4264 14.3702 86.4264 14.2279 86.4264 13.9434C86.1418 13.5165 85.8573 13.3742 85.5727 13.3742Z" fill="#E8E6E8"/>
<path d="M75.3286 14.6548C75.3286 14.6548 75.1864 14.6547 75.1864 14.5125C75.0441 14.3702 74.9018 14.5125 74.7595 14.5125C74.475 14.5125 74.1904 14.6547 74.0481 14.797C73.9058 14.9393 73.7636 14.9393 73.6213 15.0816C73.479 15.2239 73.6213 15.3662 73.7636 15.3662C73.9058 15.3662 73.9058 15.3662 74.0481 15.3662C74.3327 15.3662 74.6172 15.3661 74.9018 15.2239C75.0441 15.2239 75.3286 15.0816 75.4709 14.9393C75.3286 14.9393 75.4709 14.797 75.3286 14.6548Z" fill="#E8E6E8"/>
<path d="M89.5565 51.0781C89.5565 50.9358 89.5565 50.9358 89.5565 50.7936L89.2719 50.509C88.9874 50.3667 88.8451 50.3667 88.5605 50.2244C88.1337 50.2244 87.7068 50.2244 87.28 50.2244C87.1377 50.2244 87.1377 50.2244 86.9954 50.2244C86.4263 50.3667 85.8572 50.3667 85.4304 50.6513C85.0035 50.7935 84.5767 51.0781 84.1499 51.2204C83.8653 51.3627 83.5808 51.6472 83.2962 51.9318C82.8694 52.3586 82.5848 52.6432 82.7271 53.2123C82.8694 53.4968 83.1539 53.6391 83.4385 53.6391C83.5807 53.6391 83.723 53.7814 83.8653 53.7814C84.2921 53.9237 84.719 53.7814 85.1458 53.7814C85.5727 53.7814 85.9995 53.6391 86.4263 53.4968C86.9954 53.3546 87.4223 53.07 87.9914 52.9277C88.276 52.7855 88.5605 52.6432 88.8451 52.3586C88.9873 52.2164 89.1296 52.074 89.2719 51.9318C89.4142 51.7895 89.5565 51.5049 89.5565 51.0781C89.5565 51.2204 89.5565 51.2204 89.5565 51.0781Z" fill="#E8E6E8"/>
<path d="M75.7555 52.2164C75.6132 52.2164 75.471 52.2164 75.471 52.2164L75.3287 52.3586L75.471 52.5009H75.6132H75.7555C75.8978 52.5009 76.0401 52.5009 75.7555 52.2164C75.8978 52.3586 75.8978 52.3586 75.7555 52.2164Z" fill="#E8E6E8"/>
<path d="M27.523 18.9231C27.3807 18.7808 27.0961 18.6385 26.9539 18.4962C26.8116 18.354 26.3847 18.354 26.2425 18.4962C26.1002 18.4962 25.9579 18.6385 25.8156 18.6385C25.6733 18.6385 25.5311 18.7808 25.5311 18.9231C25.5311 19.0654 25.5311 19.3499 25.5311 19.4922C25.5311 19.6345 25.5311 19.6345 25.6734 19.7767C25.8156 19.919 26.1002 19.919 26.2425 19.919C26.6693 19.919 26.9539 19.919 27.3807 19.6345C27.523 19.6345 27.523 19.4922 27.6652 19.3499C27.6652 19.2076 27.8075 19.2076 27.8075 19.0653C27.6653 18.9231 27.6653 18.9231 27.523 18.9231Z" fill="#E8E6E8"/>
<path d="M31.3645 17.7849H31.2222C31.0799 17.7849 30.9376 17.7849 30.7954 17.9271C30.7954 17.9271 30.6531 17.9271 30.6531 18.0694L30.5108 18.2117V18.354C30.5108 18.354 30.5108 18.354 30.6531 18.354C30.7954 18.354 30.7954 18.354 30.9376 18.354C30.9376 18.354 30.9377 18.354 31.0799 18.354C31.0799 18.354 31.0799 18.354 31.2222 18.354C31.3645 18.354 31.3645 18.354 31.5068 18.2117C31.5068 18.2117 31.649 18.2117 31.649 18.0694C31.649 18.0694 31.649 18.0694 31.649 17.9271C31.3645 18.0694 31.3645 17.9271 31.3645 17.7849Z" fill="#E8E6E8"/>
<path d="M86.284 13.8011C85.8572 14.797 85.0035 15.5084 83.8653 15.9352C82.8694 16.3621 81.7311 16.5044 80.7352 16.6466C80.1661 16.6466 79.5969 16.6466 79.1701 16.2198C79.8815 16.7889 80.5929 16.9312 81.4466 17.0735C81.7311 17.0735 82.0157 17.0735 82.4425 17.0735C83.2962 16.9312 84.0076 16.5044 84.719 16.0775C85.2881 15.3661 85.7149 14.5125 86.284 13.8011Z" fill="#CCA5B3"/>
<path d="M92.4021 28.1712C92.1176 28.4558 91.833 28.5981 91.5485 28.8826C91.4062 29.0249 90.4102 27.8866 90.2679 27.7444C90.8371 28.0289 91.833 28.5981 92.4021 28.1712Z" fill="#CCA5B3"/>
<path d="M101.366 28.1712C101.65 29.1672 101.223 30.4477 100.512 31.1591C99.8005 32.0127 98.8045 32.4396 97.6663 32.8664C96.8126 33.151 96.1012 33.4355 95.2475 33.7201C94.5362 33.8624 93.967 34.0046 93.2557 34.0046C92.5443 33.8624 91.9751 33.5778 91.5483 33.0087C91.8329 33.8624 92.8288 34.5738 93.6825 34.5738C94.5362 34.7161 95.5321 34.2892 96.3858 34.0046C97.6663 33.5778 99.0891 33.0087 100.085 32.0127C101.223 31.0168 101.792 29.4517 101.366 28.1712Z" fill="#CCA5B3"/>
<path d="M97.9509 38.5576C98.2355 38.5576 98.52 38.4153 98.8046 38.273C99.516 37.9884 100.085 37.4194 100.37 36.708C100.085 37.2771 99.6583 37.8462 99.2314 38.4153C99.0892 38.5576 98.9469 38.6999 98.6623 38.8421C98.5201 38.9844 98.2355 38.9844 97.9509 38.9844C97.3818 39.1267 96.1013 39.1267 96.1013 38.273C96.1013 38.8421 97.6664 38.5576 97.9509 38.5576Z" fill="#CCA5B3"/>
<path d="M85.4304 53.7814C86.2841 53.6391 87.1377 53.3546 87.8491 52.9277C88.1337 52.7855 88.4182 52.7854 88.5605 52.5009C89.1296 52.074 89.4142 51.505 89.5565 50.7936C89.4142 51.6472 88.8451 52.3586 88.276 52.9277C87.9914 53.2123 87.7068 53.4969 87.4223 53.7814C86.9955 54.066 86.4263 54.066 85.8572 54.066C85.2881 54.066 83.723 54.066 83.4385 53.6391C84.1499 53.7814 84.719 53.9237 85.4304 53.7814Z" fill="#CCA5B3"/>
<defs>
<linearGradient id="paint0_linear_9_9285" x1="56.9304" y1="-16.2983" x2="58.5683" y2="75.4334" gradientUnits="userSpaceOnUse">
<stop stop-color="#965485"/>
<stop offset="1" stop-color="#2F2959"/>
</linearGradient>
<linearGradient id="paint1_linear_9_9285" x1="57.6295" y1="10.5974" x2="57.6295" y2="156.571" gradientUnits="userSpaceOnUse">
<stop stop-color="#A66F94"/>
<stop offset="1" stop-color="#362C54"/>
</linearGradient>
</defs>
</svg>
