<svg width="91" height="83" viewBox="0 0 91 83" fill="none" xmlns="http://www.w3.org/2000/svg">
<path d="M80.8393 57.3968C76.3447 62.3195 71.2079 66.8141 66.0712 71.0947C61.3626 74.9472 56.8679 79.0138 51.0891 81.5821C49.5909 82.2242 48.0927 82.6523 46.5945 82.6523C45.3103 82.6523 44.0262 82.2242 42.742 81.7962C35.0369 78.7998 28.402 73.449 22.4092 67.8843C17.4865 63.3896 12.9919 58.467 8.71126 53.3303C7.21305 51.618 5.28679 49.4777 3.57455 47.3374C1.43426 44.555 -0.0639553 41.5586 0.578134 38.7762C1.00619 36.8499 2.07634 35.3518 3.36052 33.8535C6.57096 29.573 10.2095 25.2923 14.062 21.4398C19.8408 15.661 26.2617 10.0962 32.8966 5.6016C35.893 3.46131 39.5315 1.53505 43.17 0.464903C47.2366 -0.605246 50.8751 1.96314 54.2996 4.10343C59.4363 7.31388 64.359 10.9523 68.8536 15.2329C71.2079 17.3732 73.3482 19.5135 75.7026 21.8679C79.7691 25.9344 84.0497 30.215 87.6882 34.9237C89.1864 36.85 90.0425 38.7762 90.0425 40.9165C90.4706 46.6953 84.6918 52.9022 80.8393 57.3968Z" fill="url(#paint0_linear_9_8225)"/>
<path d="M89.8285 40.0605C88.7583 36.4219 85.7619 33.4255 82.9795 30.6432C72.278 19.7276 60.5064 8.81211 46.8085 1.5351C45.7384 0.893016 44.2401 0.25094 43.17 0.678999C36.7491 2.60527 31.3984 7.09985 26.4757 11.8085C19.4127 18.2294 12.5638 24.6503 6.14287 31.4993C4.2166 33.6396 2.29033 35.7798 1.22018 38.5622C0.364063 41.3446 0.792125 44.5551 3.14645 46.2673C3.14645 46.4813 3.14645 46.6953 3.14645 47.1234C1.00616 44.341 -0.492056 41.3446 0.150033 38.5622C0.578093 36.6359 1.64825 35.1378 2.93243 33.6396C6.14287 29.359 9.78137 25.0784 13.6339 21.2259C19.4127 15.4471 25.8336 9.88224 32.4685 5.38761C35.4649 3.24732 39.1034 1.32106 42.7419 0.250914C46.8085 -0.819235 50.447 1.74915 53.8715 3.88944C59.0082 7.09989 63.9309 10.7384 68.4255 15.0189C70.7798 17.1592 72.9201 19.2996 75.2744 21.6539C79.341 25.7204 83.6216 30.0011 87.2601 34.7097C88.9724 36.2079 89.8285 38.1342 89.8285 40.0605Z" fill="#CCA5B3"/>
<path d="M56.4399 66.6C58.3661 65.1018 60.0784 63.6036 61.7906 61.6773C64.359 58.6809 66.9273 55.6845 69.4957 52.474C72.064 49.4776 75.0604 46.4812 77.2007 43.2708C75.2745 43.0567 72.9201 44.769 70.9939 45.4111C68.6396 46.2672 66.2852 46.9092 63.7169 47.3373C58.7942 48.1934 54.0855 47.9794 49.1629 47.9794C42.3139 47.3373 35.679 45.4111 29.0441 43.4848C26.6897 42.8427 24.3354 41.3445 21.9811 40.9164C19.1987 40.4884 16.2023 41.3445 13.4199 40.9164C12.9918 40.9164 12.7778 40.9164 12.5638 41.1305C12.5638 41.3445 12.5638 41.5585 12.5638 41.7725C12.9918 43.9128 14.49 45.8391 15.9883 47.5514C23.0512 56.5406 30.9703 64.4597 39.9596 71.0946C44.2402 74.091 47.6646 72.1648 51.0891 69.8104C58.1521 65.1018 64.1449 59.537 69.7097 53.3302C72.9201 49.6917 75.9166 45.8391 78.0569 41.5585C75.0604 42.4147 72.2781 43.0567 69.2817 43.9128L56.4399 66.6Z" fill="#CCA5B3"/>
<path d="M45.7384 71.0947C39.5315 68.7404 33.9667 63.8177 29.6861 59.7511C25.1915 55.4706 20.9109 50.9759 17.0584 46.2672C16.4163 45.4111 15.7742 44.769 14.9181 43.9129C14.276 43.0568 12.9918 41.7726 12.3497 40.7025C12.3497 40.7025 12.3497 40.7025 12.3497 40.4885C19.8408 30.6431 29.044 21.6538 39.5315 14.3768C41.6718 12.8786 43.8121 11.8085 45.5243 11.1664C46.1664 11.5944 47.0225 12.0225 47.6646 12.4506L48.9488 13.0926C54.7276 16.5171 60.5064 21.4398 67.7834 28.7168L69.4957 30.4291C72.7061 33.6395 76.1306 37.064 78.6989 40.2744C78.0569 42.6288 73.9903 47.3374 72.4921 49.0497L72.2781 49.2636C67.9975 54.1863 63.0748 58.2529 58.7942 61.6774C57.9381 62.3195 57.0819 62.9616 56.2258 63.8177C52.8014 66.6001 49.5909 69.1684 46.1664 70.6666C45.9524 70.8806 45.7384 71.0947 45.7384 71.0947Z" fill="url(#paint1_linear_9_8225)"/>
<path d="M45.7384 71.0947C39.5315 68.7404 33.9667 63.8177 29.6861 59.7511C25.1915 55.4706 20.9109 50.9759 17.0584 46.2672C16.4163 45.4111 15.7742 44.769 14.9181 43.9129C14.276 43.0568 12.9918 41.7726 12.3497 40.7025C12.3497 40.7025 12.3497 40.7025 12.3497 40.4885C19.8408 30.6431 29.044 21.6538 39.5315 14.3768C41.6718 12.8786 43.8121 11.8085 45.5243 11.1664C46.1664 11.5944 47.0225 12.0225 47.6646 12.4506L48.9488 13.0926C54.7276 16.5171 60.5064 21.4398 67.7834 28.7168L69.4957 30.4291C72.7061 33.6395 76.1306 37.064 78.6989 40.2744C78.0569 42.6288 73.9903 47.3374 72.4921 49.0497L72.2781 49.2636C67.9975 54.1863 63.0748 58.2529 58.7942 61.6774C57.9381 62.3195 57.0819 62.9616 56.2258 63.8177C52.8014 66.6001 49.5909 69.1684 46.1664 70.6666C45.9524 70.8806 45.7384 71.0947 45.7384 71.0947Z" fill="url(#paint2_radial_9_8225)"/>
<path d="M45.7384 71.0947C39.5315 68.7404 33.9667 63.8177 29.6861 59.7511C25.1915 55.4706 20.9109 50.9759 17.0584 46.2672C16.4163 45.4111 15.7742 44.769 14.9181 43.9129C14.276 43.0568 12.9918 41.7726 12.3497 40.7025C12.3497 40.7025 12.3497 40.7025 12.3497 40.4885C19.8408 30.6431 29.044 21.6538 39.5315 14.3768C41.6718 12.8786 43.8121 11.8085 45.5243 11.1664C46.1664 11.5944 47.0225 12.0225 47.6646 12.4506L48.9488 13.0926C54.7276 16.5171 60.5064 21.4398 67.7834 28.7168L69.4957 30.4291C72.7061 33.6395 76.1306 37.064 78.6989 40.2744C78.0569 42.6288 73.9903 47.3374 72.4921 49.0497L72.2781 49.2636C67.9975 54.1863 63.0748 58.2529 58.7942 61.6774C57.9381 62.3195 57.0819 62.9616 56.2258 63.8177C52.8014 66.6001 49.5909 69.1684 46.1664 70.6666C45.9524 70.8806 45.7384 71.0947 45.7384 71.0947Z" fill="url(#paint3_radial_9_8225)"/>
<defs>
<linearGradient id="paint0_linear_9_8225" x1="45.0946" y1="-3.29217" x2="45.0946" y2="97.9837" gradientUnits="userSpaceOnUse">
<stop stop-color="#A66F94"/>
<stop offset="1" stop-color="#362C54"/>
</linearGradient>
<linearGradient id="paint1_linear_9_8225" x1="49.6919" y1="114.433" x2="50.5137" y2="53.2847" gradientUnits="userSpaceOnUse">
<stop stop-color="#965485"/>
<stop offset="1" stop-color="#2F2959"/>
</linearGradient>
<radialGradient id="paint2_radial_9_8225" cx="0" cy="0" r="1" gradientUnits="userSpaceOnUse" gradientTransform="translate(44.3819 -5.85719) scale(78.7532 315.599)">
<stop stop-color="#FFFBFB"/>
<stop offset="1" stop-color="#6C6778"/>
</radialGradient>
<radialGradient id="paint3_radial_9_8225" cx="0" cy="0" r="1" gradientUnits="userSpaceOnUse" gradientTransform="translate(48.0052 6.58856) scale(125.99 151.006)">
<stop stop-color="#CCAAAC"/>
<stop offset="1" stop-color="#6C6778"/>
</radialGradient>
</defs>
</svg>
