<svg width="115" height="68" viewBox="0 0 115 68" fill="none" xmlns="http://www.w3.org/2000/svg">
<path d="M1.42279 11.9474C5.12204 7.53674 9.24812 3.97975 13.801 0.991894C14.6547 0.422779 15.7929 0.138256 16.7889 0.138256C32.155 0.565093 47.6634 1.13421 63.0295 1.56104C67.1556 1.70332 71.1394 1.84558 75.2655 1.98786C77.1151 1.98786 78.8225 1.84558 80.5298 2.69926C81.668 3.26837 81.8103 3.69522 83.0908 3.55294C85.5096 3.1261 86.9324 2.41468 89.6357 2.41468C92.0544 2.55696 94.3309 2.55698 96.7496 2.69926C98.7415 2.69926 100.733 2.84155 102.725 2.84155C103.721 2.84155 104.717 3.12611 105.429 3.69523C108.559 5.82941 111.262 8.24813 113.538 11.236C114.392 12.2319 114.819 13.5124 114.677 14.793C113.965 27.8826 113.254 41.3991 112.4 55.3424C112.258 56.7652 111.689 58.0457 110.551 59.0417C106.994 62.3141 103.01 65.0174 98.5992 67.2938C97.8878 67.7207 97.0341 67.8629 96.1805 67.8629C90.4893 67.8629 84.9404 67.8629 79.2493 67.8629C73.7004 67.8629 68.2938 67.8629 62.745 67.8629C57.4806 67.8629 51.9318 68.4321 46.8097 67.0093C45.3869 66.5825 44.1064 66.2979 42.6836 65.871C42.3991 65.7288 42.1145 65.7288 41.83 65.7288C41.6877 65.7288 41.4031 65.8711 41.2609 66.0133C38.5576 68.1475 36.7079 67.7207 33.2932 67.7207C30.7322 67.7207 28.0289 67.7207 25.4679 67.7207C23.1914 67.7207 20.7727 67.7207 18.4962 67.7207C17.9271 67.7207 17.2157 67.5784 16.6466 67.4361C11.6669 65.5865 7.39849 62.4564 3.84152 58.3303C2.98785 57.4766 2.56101 56.3384 2.41874 55.0578C1.9919 48.9399 0.853673 42.2528 1.42279 36.2771C2.84558 35.9925 4.12608 35.9925 5.54887 35.9925C3.9838 34.2851 1.84962 35.2811 1.13823 32.5778C0.569114 30.1591 0.711391 27.3135 0.569112 24.8948C0.426833 21.9069 0.142279 18.919 0 15.9312C0.142279 14.2238 0.569115 12.9433 1.42279 11.9474Z" fill="url(#paint0_linear_9_8833)"/>
<path d="M109.27 14.5084L108.986 20.1995C108.843 23.0451 108.701 26.033 108.559 28.8786C108.559 29.8745 108.416 30.8705 108.416 31.8664C108.274 35.1388 108.132 38.4112 107.847 41.6836L107.705 45.0983C107.563 46.8057 107.563 48.3707 107.42 50.0781C107.278 51.6432 107.278 53.3505 107.136 54.9156C105.429 56.4807 103.437 58.0457 101.445 59.3262C99.8797 60.4644 98.1724 61.4604 96.3228 62.3141H95.4691C91.4853 62.3141 87.6437 62.3141 83.6599 62.3141H73.8427C73.2736 62.3141 72.7045 62.3141 72.1353 62.3141C66.871 62.3141 61.6067 62.3141 56.3424 62.3141C53.3545 62.3141 50.3667 62.3141 47.5211 62.3141C44.8178 62.3141 42.5414 61.745 39.9803 62.0295C39.5535 62.1718 38.9844 62.1718 38.5575 62.1718C37.5616 62.1718 36.5656 62.1718 35.5697 62.1718C33.5778 62.1718 31.5859 62.1718 29.594 62.1718C28.7403 62.1718 27.7444 62.1718 26.8907 62.1718C24.7565 62.1718 21.0572 62.8832 18.9231 62.1718C14.9393 60.749 11.3823 58.188 8.25216 54.4887C7.54076 53.6351 7.82532 49.2244 7.82532 47.9439V47.8017C7.82532 47.3748 7.82532 46.948 7.68304 46.5211C7.68304 46.0943 7.68304 45.6674 7.54076 45.2406C7.39849 43.8178 7.39848 42.2528 7.25621 40.83C7.25621 40.1186 6.68709 36.1348 7.39848 35.4234C7.54076 35.2811 7.54076 35.2811 7.68304 35.2811C8.25216 35.2811 8.82127 35.2811 9.53266 35.2811C9.67494 35.2811 9.9595 35.2811 10.1018 35.2811C9.67495 34.9965 9.24811 34.5697 8.82127 34.2852C6.97165 32.2933 6.40253 29.8745 6.26025 27.3135C6.26025 26.4598 6.11798 25.4639 6.11798 24.6102C6.11798 23.8988 6.11797 23.3297 5.97569 22.6183C5.83342 21.4801 4.69519 15.9312 5.54886 15.0775C8.67899 11.3783 12.236 8.24813 16.2198 5.54483C16.3621 5.40255 16.5043 5.40254 16.6466 5.26026C18.7808 5.26026 21.0572 5.40255 23.1914 5.40255C36.7079 5.82938 50.2244 6.25621 63.7409 6.68305C67.1556 6.82532 70.428 6.82534 73.8427 6.96762C75.2655 6.96762 77.2574 6.68308 78.5379 7.2522C79.9607 7.67903 80.8144 9.38634 82.5217 8.81723C87.0746 6.9676 91.4853 7.53674 96.3228 7.8213C97.6033 7.8213 101.303 7.2522 102.441 7.96359C105.144 9.95549 107.42 12.0896 109.27 14.5084Z" fill="url(#paint1_linear_9_8833)"/>
<path d="M109.27 14.5084L108.986 20.1995C108.843 23.0451 108.701 26.033 108.559 28.8786C108.559 29.8745 108.416 30.8705 108.416 31.8664C108.274 35.1388 108.132 38.4112 107.847 41.6836L107.705 45.0983C107.563 46.8057 107.563 48.3707 107.42 50.0781C107.278 51.6432 107.278 53.3505 107.136 54.9156C105.429 56.4807 103.437 58.0457 101.445 59.3262C99.8797 60.4644 98.1724 61.4604 96.3228 62.3141H95.4691C91.4853 62.3141 87.6437 62.3141 83.6599 62.3141H73.8427C73.2736 62.3141 72.7045 62.3141 72.1353 62.3141C66.871 62.3141 61.6067 62.3141 56.3424 62.3141C53.3545 62.3141 50.3667 62.3141 47.5211 62.3141C44.8178 62.3141 42.5414 61.745 39.9803 62.0295C39.5535 62.1718 38.9844 62.1718 38.5575 62.1718C37.5616 62.1718 36.5656 62.1718 35.5697 62.1718C33.5778 62.1718 31.5859 62.1718 29.594 62.1718C28.7403 62.1718 27.7444 62.1718 26.8907 62.1718C24.7565 62.1718 21.0572 62.8832 18.9231 62.1718C14.9393 60.749 11.3823 58.188 8.25216 54.4887C7.54076 53.6351 7.82532 49.2244 7.82532 47.9439V47.8017C7.82532 47.3748 7.82532 46.948 7.68304 46.5211C7.68304 46.0943 7.68304 45.6674 7.54076 45.2406C7.39849 43.8178 7.39848 42.2528 7.25621 40.83C7.25621 40.1186 6.68709 36.1348 7.39848 35.4234C7.54076 35.2811 7.54076 35.2811 7.68304 35.2811C8.25216 35.2811 8.82127 35.2811 9.53266 35.2811C9.67494 35.2811 9.9595 35.2811 10.1018 35.2811C9.67495 34.9965 9.24811 34.5697 8.82127 34.2852C6.97165 32.2933 6.40253 29.8745 6.26025 27.3135C6.26025 26.4598 6.11798 25.4639 6.11798 24.6102C6.11798 23.8988 6.11797 23.3297 5.97569 22.6183C5.83342 21.4801 4.69519 15.9312 5.54886 15.0775C8.67899 11.3783 12.236 8.24813 16.2198 5.54483C16.3621 5.40255 16.5043 5.40254 16.6466 5.26026C18.7808 5.26026 21.0572 5.40255 23.1914 5.40255C36.7079 5.82938 50.2244 6.25621 63.7409 6.68305C67.1556 6.82532 70.428 6.82534 73.8427 6.96762C75.2655 6.96762 77.2574 6.68308 78.5379 7.2522C79.9607 7.67903 80.8144 9.38634 82.5217 8.81723C87.0746 6.9676 91.4853 7.53674 96.3228 7.8213C97.6033 7.8213 101.303 7.2522 102.441 7.96359C105.144 9.95549 107.42 12.0896 109.27 14.5084Z" fill="url(#paint2_radial_9_8833)"/>
<path d="M9.3904 35.5657C9.67495 35.9925 10.1018 36.2771 10.6709 36.4194C10.2441 37.273 8.82128 36.7039 8.10988 37.4153C7.82533 37.6998 7.82533 38.1267 7.82533 38.4113C7.68305 40.83 8.25216 44.3869 7.39849 46.6634C7.25621 44.8138 7.11393 42.8219 6.97165 40.9723C6.97165 40.2609 6.40254 36.2771 7.11394 35.5657C7.25622 35.4234 7.25621 35.4234 7.39849 35.4234C8.25216 35.5657 8.82128 35.5657 9.3904 35.5657Z" fill="#CCA5B3"/>
<path d="M109.27 14.5084L108.986 20.1995C108.416 30.0168 107.99 39.9763 107.42 50.0781C107.42 50.3626 107.278 50.7895 107.278 51.0741C107.563 42.6796 107.99 34.2851 108.274 25.8907C108.416 22.9028 108.559 19.7727 107.847 16.9271C107.278 14.5084 106.14 12.0897 104.148 10.5246C102.156 8.95952 100.164 9.24408 97.8878 9.1018C94.4731 8.95952 90.9161 8.53267 87.6437 8.81723C86.5055 8.95951 85.3672 9.10178 84.229 9.52862C83.6599 9.81318 83.0908 10.24 82.5217 10.24C80.9566 10.5246 79.5338 8.95953 77.9687 8.5327C77.2573 8.24814 76.4037 8.24812 75.6923 8.24812C60.3262 7.679 44.96 7.10992 29.5939 6.5408C25.8947 6.39852 20.2035 5.40255 16.9311 7.67901C15.5083 8.67497 14.2278 9.67093 13.0896 10.8092C11.5245 12.3742 9.81718 13.9393 8.25212 15.5043C7.96756 15.7889 7.683 16.0735 7.54072 16.5003C7.25616 17.0694 7.39844 17.6385 7.54072 18.3499C8.25212 22.1915 8.10984 25.8907 8.25212 29.7322C8.25212 31.155 8.39439 33.0046 8.96351 34.5697C5.97565 31.5818 6.54477 27.1712 6.26021 22.9029C6.11793 21.7646 4.9797 16.2157 5.83337 15.3621C8.96351 11.5205 12.805 8.24814 16.9311 5.68712C32.5818 6.11396 48.3747 6.68307 64.0254 7.10991C67.4401 7.25219 70.7125 7.25216 74.1272 7.39444C75.55 7.39444 77.5419 7.1099 78.8224 7.67901C80.2452 8.10585 81.0989 9.8132 82.8062 9.24409C87.3591 7.39446 91.7698 7.96356 96.6073 8.24812C97.8878 8.24812 101.587 7.67901 102.725 8.39041C105.144 9.95547 107.42 12.0896 109.27 14.5084Z" fill="#CCA5B3"/>
<path d="M106.567 17.7808C106.282 27.0289 105.571 36.2771 105.429 45.6675C105.429 46.3789 105.286 48.2285 104.148 47.9439C103.152 47.6594 104.29 41.6837 104.29 40.9723C104.575 33.2892 104.717 25.4639 105.286 17.7808C105.286 17.6385 105.286 17.4962 105.286 17.354C105.286 17.2117 105.144 17.2117 105.002 17.0694C104.006 16.358 103.01 15.6466 102.014 14.9353C101.018 14.2239 99.8798 13.3702 98.5992 13.5125C98.3147 13.5125 98.0301 13.5125 97.6033 13.6548C91.343 14.0816 84.7982 13.6547 78.3957 13.5125C71.8508 13.3702 65.4483 13.0856 58.9035 12.8011C52.2164 12.5165 45.387 12.2319 38.6999 11.8051C32.4396 11.3783 25.6102 10.0978 19.3499 10.8092C17.0735 13.5125 14.6547 16.0735 12.3783 18.6345C14.0856 19.4882 15.9353 20.3418 17.7849 20.9109C18.0694 21.0532 18.2117 21.0532 18.4963 20.9109C18.6386 20.9109 18.7808 20.7687 18.7808 20.6264C20.0613 19.0613 21.1996 17.4963 22.3378 15.7889C21.3418 15.9312 20.3459 16.0735 19.3499 16.2158C19.0654 16.2158 18.4963 16.5003 18.2117 16.358C17.7849 16.2158 17.6426 15.2198 17.9272 14.9353C17.9272 14.9353 18.0694 14.9352 18.0694 14.793C19.2077 14.6507 20.3459 14.5084 21.4841 14.5084C22.0532 14.5084 24.472 14.0816 24.6143 14.9353C24.6143 15.0775 24.6143 15.0775 24.6143 15.2198C23.6183 18.0654 21.6264 20.4841 19.4922 22.6183C19.3499 22.7606 19.0654 23.0451 18.7808 23.0451C18.2117 23.3297 17.358 22.7606 16.7889 22.6183C16.0775 22.3337 15.2239 22.0492 14.5125 21.7646C12.9474 21.3378 11.3823 20.4841 9.95954 19.7727C9.81726 19.7727 9.81726 19.6304 9.81726 19.4881C10.6709 17.6385 12.6628 15.9312 14.0856 14.3661C15.3661 12.8011 16.9312 11.3783 18.2117 9.81321C18.354 9.67093 18.4963 9.52863 18.6385 9.52863C18.7808 9.52863 18.9231 9.52863 19.0654 9.52863C25.1834 9.38635 31.1591 9.95548 37.2771 10.3823C43.9642 10.8091 50.6513 11.236 57.3384 11.5206C70.2858 12.0897 83.2331 12.5165 96.1805 12.5165C97.1765 12.5165 98.3147 12.5165 99.3106 12.6588C100.876 12.8011 102.441 14.3661 103.864 15.0775C104.86 15.5044 106.14 15.9312 106.567 16.9271C106.567 17.0694 106.709 17.2117 106.709 17.354C106.567 17.354 106.567 17.6385 106.567 17.7808ZM103.864 54.0619C103.864 53.9196 103.864 53.9196 103.864 53.7774C103.294 51.2163 101.872 48.0862 99.4529 46.6634C99.4529 46.6634 99.3106 46.5211 99.3106 46.6634C99.1684 46.6634 99.1684 46.6634 99.1684 46.8057C97.6033 48.3708 95.896 49.509 94.1886 51.0741C93.4772 51.7855 92.6235 52.4969 91.9121 53.3505C91.343 53.9196 90.6316 54.4887 90.6316 55.2001C90.6316 55.3424 91.0585 55.3424 91.2008 55.3424C92.6235 55.2001 93.9041 55.4847 95.3268 55.7692C95.7537 55.7692 98.1724 54.9156 97.461 54.631C96.3228 53.9196 94.7577 53.9196 93.3349 54.0619C93.6195 53.4928 94.6154 52.6391 94.9 52.4968C95.6114 51.7855 96.3228 50.9318 97.1765 50.2204C97.8878 49.6513 98.5992 49.2244 99.3106 48.7976C100.733 50.0781 101.729 51.7854 102.299 53.6351V53.7774C102.299 53.9196 102.298 53.9196 102.156 53.9196C101.018 55.0579 99.4529 55.9116 98.0301 56.9075C96.7496 57.7612 95.4691 58.6148 94.3309 59.6108C81.6681 59.4685 69.0053 59.3263 56.3424 59.184C44.391 59.0417 32.4396 58.4726 20.6305 58.3303C20.2036 58.188 19.7768 58.0457 19.3499 57.7612C17.9272 57.0498 16.7889 56.0538 15.5084 55.0579C14.2279 54.0619 12.9474 53.2082 12.9474 51.5009C12.9474 42.5373 11.6669 33.7161 11.8092 24.8948C11.8092 24.4679 11.8092 24.0411 11.6669 23.6143C11.24 22.6183 10.6709 22.7606 10.5287 23.6143C10.3864 24.4679 10.5287 25.6061 10.6709 26.6021C10.6709 28.4517 10.8132 30.3013 10.9555 32.2932C11.0978 34.4274 10.9555 36.7039 11.0978 38.8381C11.2401 41.2568 11.3823 43.8179 11.5246 46.2366C11.5246 47.5171 11.6669 48.7976 11.6669 49.9358C11.6669 50.505 11.8092 51.2163 11.8092 51.7855C11.8092 52.3546 11.5246 52.6391 11.8092 53.2082C11.9514 53.6351 12.236 53.9197 12.5206 54.2042C14.0856 55.7693 15.6507 57.3343 17.5003 58.6148C17.6426 58.7571 17.7849 58.7571 17.9272 58.8994C18.0694 59.0417 18.354 59.0417 18.4963 59.0417C30.0209 61.3181 42.5414 60.4645 54.2083 60.4645C64.8792 60.6068 75.6924 60.6067 86.3633 60.749C88.0706 60.749 89.778 60.749 91.4853 60.749C92.7658 60.749 94.3309 61.1759 95.4691 60.4645C97.0342 59.4685 98.457 58.4726 99.8798 57.3343C100.591 56.7652 101.303 56.3384 102.014 55.7692C102.725 55.2001 103.721 54.631 103.864 54.0619Z" fill="#CCA5B3"/>
<path opacity="0.5" d="M106.567 17.0694C106.282 26.3176 105.571 35.5657 105.429 44.9561C105.429 45.6675 105.286 47.5171 104.148 47.2325C103.152 46.948 104.29 40.9723 104.29 40.2609C104.575 32.5778 104.717 24.7525 105.286 17.0694C105.286 16.9272 105.286 16.7849 105.286 16.6426C105.286 16.5003 105.144 16.5003 105.002 16.358C104.006 15.6466 103.01 14.9353 102.014 14.2239C101.018 13.5125 99.8798 12.6588 98.5992 12.8011C98.3147 12.8011 98.0301 12.8011 97.6033 12.9434C91.343 13.3702 84.7982 12.9434 78.3957 12.8011C71.8508 12.6588 65.4483 12.3742 58.9035 12.0897C52.2164 11.8051 45.387 11.5205 38.6999 11.0937C32.4396 10.6669 25.6102 9.38639 19.3499 10.0978C17.0735 12.8011 14.6547 15.3621 12.3783 17.9231C14.0856 18.7768 15.9353 19.6304 17.7849 20.1995C18.0694 20.3418 18.2117 20.3418 18.4963 20.1995C18.6386 20.1995 18.7808 20.0573 18.7808 19.915C20.0613 18.3499 21.1996 16.7849 22.3378 15.0775C21.3418 15.2198 20.3459 15.3621 19.3499 15.5044C19.0654 15.5044 18.4963 15.7889 18.2117 15.6466C17.7849 15.5044 17.6426 14.5084 17.9272 14.2239C17.9272 14.2239 18.0694 14.2239 18.0694 14.0816C19.2077 13.9393 20.3459 13.797 21.4841 13.797C22.0532 13.797 24.472 13.3702 24.6143 14.2239C24.6143 14.3661 24.6143 14.3661 24.6143 14.5084C23.6183 17.354 21.6264 19.7727 19.4922 21.9069C19.3499 22.0492 19.0654 22.3337 18.7808 22.3337C18.2117 22.6183 17.358 22.0492 16.7889 21.9069C16.0775 21.6223 15.2239 21.3378 14.5125 21.0532C12.9474 20.6264 11.3823 19.7727 9.95954 19.0613C9.81726 19.0613 9.81726 18.919 9.81726 18.7768C10.6709 16.9271 12.6628 15.2198 14.0856 13.6548C15.3661 12.0897 16.9312 10.6669 18.2117 9.10181C18.354 8.95954 18.4963 8.81724 18.6385 8.81724C18.7808 8.81724 18.9231 8.81724 19.0654 8.81724C25.1834 8.67496 31.1591 9.24408 37.2771 9.67092C43.9642 10.0978 50.6513 10.5246 57.3384 10.8092C70.2858 11.3783 83.2331 11.8051 96.1805 11.8051C97.1765 11.8051 98.3147 11.8051 99.3106 11.9474C100.876 12.0897 102.441 13.6548 103.864 14.3661C104.86 14.793 106.14 15.2198 106.567 16.2158C106.567 16.358 106.709 16.5003 106.709 16.6426C106.567 16.6426 106.567 16.7849 106.567 17.0694ZM103.864 53.3505C103.864 53.2083 103.864 53.2082 103.864 53.066C103.294 50.5049 101.872 47.3748 99.4529 45.952C99.4529 45.952 99.3106 45.8097 99.3106 45.952C99.1684 45.952 99.1684 45.952 99.1684 46.0943C97.6033 47.6594 95.896 48.7976 94.1886 50.3627C93.4772 51.0741 92.6235 51.7855 91.9121 52.6391C91.343 53.2083 90.6316 53.7774 90.6316 54.4888C90.6316 54.631 91.0585 54.631 91.2008 54.631C92.6235 54.4888 93.9041 54.7733 95.3268 55.0579C95.7537 55.0579 98.1724 54.2042 97.461 53.9196C96.3228 53.2082 94.7577 53.2083 93.3349 53.3505C93.6195 52.7814 94.6154 51.9277 94.9 51.7855C95.6114 51.0741 96.3228 50.2204 97.1765 49.509C97.8878 48.9399 98.5992 48.513 99.3106 48.0862C100.733 49.3667 101.729 51.074 102.299 52.9237V53.066C102.299 53.2082 102.298 53.2082 102.156 53.2082C101.018 54.3465 99.4529 55.2002 98.0301 56.1961C96.7496 57.0498 95.4691 57.9035 94.3309 58.8994C81.6681 58.7571 69.0053 58.6149 56.3424 58.4726C44.391 58.3303 32.4396 57.7612 20.6305 57.6189C20.2036 57.4766 19.7768 57.3344 19.3499 57.0498C17.9272 56.3384 16.7889 55.3424 15.5084 54.3465C14.2279 53.3505 12.9474 52.4968 12.9474 50.7895C12.9474 41.8259 11.6669 33.0047 11.8092 24.1834C11.8092 23.7565 11.8092 23.3297 11.6669 22.9029C11.24 21.9069 10.6709 22.0492 10.5287 22.9029C10.3864 23.7565 10.5287 24.8947 10.6709 25.8907C10.6709 27.7403 10.8132 29.5899 10.9555 31.5819C11.0978 33.716 10.9555 35.9925 11.0978 38.1267C11.2401 40.5454 11.3823 43.1065 11.5246 45.5252C11.5246 46.8057 11.6669 48.0862 11.6669 49.2245C11.6669 49.7936 11.8092 50.5049 11.8092 51.0741C11.8092 51.6432 11.5246 51.9277 11.8092 52.4969C11.9514 52.9237 12.236 53.2083 12.5206 53.4928C14.0856 55.0579 15.6507 56.6229 17.5003 57.9034C17.6426 58.0457 17.7849 58.0457 17.9272 58.188C18.0694 58.3303 18.354 58.3303 18.4963 58.3303C30.0209 60.6068 42.5414 59.7531 54.2083 59.7531C64.8792 59.8954 75.6924 59.8953 86.3633 60.0376C88.0706 60.0376 89.778 60.0376 91.4853 60.0376C92.7658 60.0376 94.3309 60.4645 95.4691 59.7531C97.0342 58.7571 98.457 57.7612 99.8798 56.6229C100.591 56.0538 101.303 55.627 102.014 55.0579C102.725 54.3465 103.721 53.9196 103.864 53.3505Z" fill="#573E69"/>
<path d="M34.8582 40.83C34.1468 40.2609 33.0086 40.2609 32.0126 40.4032C31.5858 40.2609 31.0167 40.6877 30.7321 40.9723C30.5898 39.5495 29.5939 38.4112 28.4556 37.4153C27.0329 36.2771 25.6101 35.5657 23.7604 36.1348C22.3376 36.5616 20.3457 37.5576 19.9189 39.2649C19.4921 40.83 20.9149 42.2528 21.7685 43.391C22.1954 44.1024 22.7645 44.6715 23.1913 44.9561L23.3336 45.0983C24.4718 46.3788 26.3215 45.6675 27.602 45.0983C28.5979 44.6715 29.4516 43.9601 30.0207 43.1064C30.3053 43.5333 30.4475 43.8179 30.8744 44.1024C31.3012 44.387 32.0126 44.6715 32.4394 44.8138C33.1508 44.9561 34.2891 44.387 34.7159 43.8178C35.0005 43.391 35.285 42.6796 35.285 42.1105C35.7119 41.3991 35.285 41.1145 34.8582 40.83Z" fill="#E8E6E8"/>
<path d="M34.0046 48.9399C33.7201 48.513 33.1509 48.3707 32.5818 48.2285C31.8704 48.0862 31.3013 48.0862 30.5899 48.2285C30.1631 48.3707 29.594 48.513 29.4517 48.7976C29.1671 49.2244 29.0248 49.6512 29.3094 50.0781C29.4517 50.3626 29.8785 50.6472 30.3054 50.9318C30.8745 51.2163 31.7281 51.2163 32.2973 51.074C32.8664 51.074 33.4355 50.7895 33.8623 50.3626C34.2892 50.0781 34.4314 49.3667 34.0046 48.9399Z" fill="#E8E6E8"/>
<path d="M17.5002 37.9844C17.3579 37.6998 17.2157 37.4153 16.9311 37.273C16.7888 36.9884 15.7929 37.4153 15.7929 37.8421C15.7929 38.1267 15.7929 38.4112 15.9352 38.6958C16.0774 38.9803 16.362 39.1226 16.6465 39.2649C16.7888 39.2649 17.2157 39.1226 17.3579 38.9804C17.5002 38.5535 17.6425 38.2689 17.5002 37.9844Z" fill="#E8E6E8"/>
<path d="M41.5453 53.6351C41.403 53.4928 41.403 53.3505 41.403 53.3505C41.2607 53.2083 41.1185 53.2083 40.9762 53.066C40.5493 52.9237 40.1225 52.9237 39.838 52.7814C39.5534 52.6392 39.2688 52.7814 39.1266 52.9237C38.9843 52.9237 38.5574 53.2083 38.6997 53.3505C38.842 53.6351 39.1266 53.9197 39.4111 54.0619C39.9802 54.2042 40.4071 54.0619 40.9762 54.0619C40.9762 54.0619 41.6876 53.7774 41.5453 53.6351Z" fill="#E8E6E8"/>
<path d="M35.2851 43.391C34.8582 43.9601 34.2891 44.5292 33.5777 44.6715C33.2932 44.6715 33.0086 44.6715 32.8663 44.6715C31.7281 44.5292 30.7322 43.9601 30.3053 42.9641C29.8785 43.8178 28.8825 44.387 28.0289 44.9561C27.4597 45.3829 26.7483 45.6674 26.037 45.8097C25.4678 45.952 24.8987 45.6675 24.3296 45.6675C23.7605 45.6675 23.4759 45.0983 23.0491 44.6715C21.9109 43.2487 20.7726 41.6837 20.2035 39.834C20.2035 40.83 20.6304 41.8259 21.1995 42.6796C22.0532 44.1024 22.9068 45.3829 24.0451 46.6634C24.7565 46.8057 25.6101 46.8057 26.3215 46.5211C26.7484 46.3788 27.0329 46.2366 27.4597 45.952C28.4557 45.3829 29.4516 44.6715 30.163 43.8178C29.8785 44.1024 32.4395 44.8138 32.5818 44.9561C34.2891 45.5252 34.4314 44.6715 35.2851 43.391Z" fill="#CCA5B3"/>
<path d="M34.2892 49.509C34.2892 50.0781 33.7201 50.6472 33.151 50.7895C32.2973 51.074 28.8826 51.3586 29.3095 49.6513C29.1672 50.3627 29.3095 51.0741 30.0209 51.3586C30.8745 51.7855 31.7282 51.7854 32.7242 51.5009C33.5778 51.3586 34.2892 50.5049 34.2892 49.509Z" fill="#CCA5B3"/>
<path d="M94.4732 20.4841C94.0464 19.7727 93.335 19.4882 92.6236 19.2036C91.4853 18.7768 90.0625 18.7768 88.9243 19.0613C88.2129 19.2036 87.5015 19.3459 86.7901 19.6304C86.3633 19.7727 85.9365 19.915 85.6519 20.1996C85.2251 20.4841 84.9405 20.7687 84.6559 21.0532C83.8023 21.6223 83.3754 22.7606 83.8023 23.7565C84.0868 24.4679 84.9405 25.037 85.6519 25.1793C86.3633 25.3216 87.217 25.3216 88.0706 25.1793C87.6438 25.1793 89.0666 25.0371 89.2089 25.0371C90.4894 24.7525 91.7699 24.3257 92.9081 23.472C93.6195 22.9029 95.0423 21.7646 94.4732 20.4841Z" fill="#E8E6E8"/>
<path d="M84.9404 17.354C84.5136 17.2117 83.9445 17.2117 83.5176 17.2117C83.2331 17.2117 82.8063 17.2117 82.5217 17.354C82.0949 17.4962 81.668 17.6386 81.2412 17.9231C80.9566 18.0654 80.6721 18.2077 80.5298 18.4922C80.3875 18.6345 80.2452 18.7768 80.2452 19.0613C80.2452 19.2036 80.2452 19.3459 80.3875 19.4881V19.6304C80.5298 19.915 80.8144 19.915 81.0989 20.0573C81.5257 20.1996 81.8103 20.0573 82.2371 20.0573C82.3794 20.0573 82.664 19.915 82.8063 19.915C82.2371 20.0573 82.3794 20.0573 82.9485 19.915C83.5176 19.7727 84.229 19.4882 84.7982 19.0613C85.0827 18.7768 85.5096 18.3499 85.3673 17.9231C85.225 17.354 85.0827 17.354 84.9404 17.354Z" fill="#E8E6E8"/>
<path d="M97.0342 28.4517L96.8919 28.3094C96.7496 28.1672 96.6073 28.1672 96.465 28.1672C96.1805 28.1672 95.8959 28.1672 95.6114 28.3094C95.1845 28.4517 94.9 28.594 94.6154 28.8786C94.4731 29.0208 94.4731 29.0209 94.4731 29.1631C94.4731 29.3054 94.4731 29.3054 94.6154 29.4477C94.6154 29.5899 94.9 29.5899 95.0423 29.5899C95.4691 29.5899 95.7536 29.4477 96.1805 29.3054C96.3228 29.3054 97.461 28.8786 97.0342 28.4517Z" fill="#E8E6E8"/>
<path d="M90.347 47.0903C90.0624 46.948 89.4933 47.0903 89.2087 47.2325C88.9242 47.3748 88.4974 47.5171 88.2128 47.8017C87.9282 48.2285 87.5014 48.7976 87.6437 49.509C87.9282 50.2204 88.7819 50.2204 89.4933 50.0781C89.9201 50.0781 90.2047 49.9359 90.6315 49.7936C91.2006 49.509 91.7698 49.0822 91.912 48.5131C92.1966 47.6594 90.9161 47.2326 90.347 47.0903Z" fill="#E8E6E8"/>
<path d="M24.8989 26.033C24.472 25.8907 24.0452 25.8907 23.6184 25.8907C23.3338 25.8907 22.907 26.033 22.6224 26.1753C22.3379 26.3175 22.0533 26.4598 22.0533 26.7444C21.911 26.8866 21.911 27.1712 21.7687 27.3135C21.7687 27.4558 21.7687 27.5981 21.911 27.5981C22.0533 27.7403 22.3379 28.0249 22.6224 28.0249C22.907 28.1671 23.3338 28.0249 23.7606 28.0249C24.6143 28.0249 25.3257 27.598 25.6103 26.7444V26.6021C25.3257 26.4598 25.0412 26.033 24.8989 26.033Z" fill="#E8E6E8"/>
<path d="M94.9 21.1955C94.0463 22.476 92.7658 23.3297 91.343 24.0411C90.4893 24.4679 89.778 24.8947 88.9243 25.1793C87.2169 25.6061 85.3673 25.3216 83.9445 24.1834C84.7982 24.7525 85.7941 25.3216 86.7901 25.6062C87.3592 25.7484 87.9283 25.8907 88.6397 25.8907C89.6357 25.7484 90.4893 25.3216 91.343 24.7525C92.6235 23.7565 93.904 22.476 94.9 21.1955Z" fill="#CCA5B3"/>
<path d="M85.225 17.7808C85.225 18.3499 84.0868 18.7768 83.6599 19.0613C83.0908 19.3459 82.664 19.4882 82.0949 19.6304C81.5257 19.7727 80.9566 19.6305 80.3875 19.3459C80.6721 19.7727 80.9566 20.1995 81.5257 20.3418C81.668 20.4841 81.9526 20.4841 82.0949 20.4841C82.2371 20.4841 82.5217 20.3418 82.664 20.3418C83.8022 19.7727 85.0827 19.2036 85.225 17.7808Z" fill="#CCA5B3"/>
<path d="M87.6437 49.2245C87.9282 49.9358 88.2128 49.9358 88.9242 50.0781C90.2047 50.2204 92.3389 49.2245 91.7698 47.8017C92.0543 48.2285 91.912 48.9399 91.6275 49.509C91.3429 49.9358 90.9161 50.3627 90.347 50.6472C90.0624 50.7895 89.7779 50.9318 89.4933 50.9318C89.0665 50.9318 88.4974 50.6472 88.2128 50.3627C87.9282 49.9358 87.786 49.509 87.6437 49.2245Z" fill="#CCA5B3"/>
<defs>
<linearGradient id="paint0_linear_9_8833" x1="58.0038" y1="-16.2063" x2="56.3657" y2="75.5254" gradientUnits="userSpaceOnUse">
<stop stop-color="#2F2959"/>
<stop offset="1" stop-color="#965485"/>
</linearGradient>
<linearGradient id="paint1_linear_9_8833" x1="57.3046" y1="9.59734" x2="57.3046" y2="155.572" gradientUnits="userSpaceOnUse">
<stop stop-color="#A66F94"/>
<stop offset="1" stop-color="#362C54"/>
</linearGradient>
<radialGradient id="paint2_radial_9_8833" cx="0" cy="0" r="1" gradientUnits="userSpaceOnUse" gradientTransform="translate(55.4608 -10.9962) scale(123.485 301.377)">
<stop stop-color="#FFFBFB"/>
<stop offset="1" stop-color="#6C6778"/>
</radialGradient>
</defs>
</svg>
