<svg width="59" height="36" viewBox="0 0 59 36" fill="none" xmlns="http://www.w3.org/2000/svg">
<path d="M58.3 6.5C56.4 4.2 54.3 2.39999 51.9 0.899994C51.4 0.599994 50.9 0.5 50.4 0.5C42.5 0.7 34.5 1.00001 26.6 1.20001C24.5 1.30001 22.4 1.29999 20.3 1.39999C19.3 1.39999 18.5 1.40002 17.6 1.80002C17 2.10002 16.9 2.30001 16.3 2.20001C15 2.00001 14.3 1.60001 13 1.60001C11.8 1.60001 10.5 1.70001 9.29999 1.70001C8.29999 1.70001 7.19995 1.80002 6.19995 1.80002C5.69995 1.80002 5.19999 2.00001 4.79999 2.20001C3.19999 3.30001 1.79998 4.60001 0.599976 6.10001C0.199976 6.60001 0 7.3 0 8C0.4 14.8 0.699951 21.7 1.19995 28.9C1.19995 29.6 1.59998 30.3 2.09998 30.8C3.89998 32.5 5.99999 33.9 8.29999 35C8.69999 35.2 9.09998 35.3 9.59998 35.3C12.5 35.3 15.4 35.3 18.3 35.3C21.1 35.3 24 35.3 26.8 35.3C29.5 35.3 32.4 35.6 35 34.8C35.7 34.6 36.4 34.4 37.1 34.2C37.2 34.2 37.4 34.1 37.5 34.2C37.6 34.2 37.7 34.3 37.8 34.4C39.2 35.5 40.1 35.3 41.9 35.3C43.2 35.3 44.6 35.3 45.9 35.3C47.1 35.3 48.3 35.3 49.5 35.3C49.8 35.3 50.1 35.2 50.4 35.1C52.9 34.1 55.1 32.6 57 30.4C57.4 29.9 57.7 29.3 57.7 28.7C57.9 25.5 58.5 22.1 58.2 19C57.5 18.9 56.8 18.8 56.1 18.9C56.9 18 58 18.5 58.4 17.1C58.7 15.9 58.6 14.4 58.7 13.1C58.7999 11.5 58.9 9.99999 59 8.39999C59 7.69999 58.8 7 58.3 6.5Z" fill="#2E82A6"/>
<path d="M58.3 6C56.4 3.7 54.3 1.89999 51.9 0.399994C51.4 0.0999939 50.9 0 50.4 0C42.5 0.2 34.5 0.500012 26.6 0.700012C24.5 0.800012 22.4 0.799994 20.3 0.899994C19.3 0.899994 18.5 0.900018 17.6 1.30002C17 1.60002 16.9 1.80001 16.3 1.70001C15 1.50001 14.3 1.10001 13 1.10001C11.8 1.10001 10.5 1.20001 9.29999 1.20001C8.29999 1.20001 7.19995 1.30002 6.19995 1.30002C5.69995 1.30002 5.19999 1.50001 4.79999 1.70001C3.19999 2.80001 1.79998 4.10001 0.599976 5.60001C0.199976 6.10001 0 6.8 0 7.5C0.4 14.3 0.699951 21.2 1.19995 28.4C1.19995 29.1 1.59998 29.8 2.09998 30.3C3.89998 32 5.99999 33.4 8.29999 34.5C8.69999 34.7 9.09998 34.8 9.59998 34.8C12.5 34.8 15.4 34.8 18.3 34.8C21.1 34.8 24 34.8 26.8 34.8C29.5 34.8 32.4 35.1 35 34.3C35.7 34.1 36.4 33.9 37.1 33.7C37.2 33.7 37.4 33.6 37.5 33.7C37.6 33.7 37.7 33.8 37.8 33.9C39.2 35 40.1 34.8 41.9 34.8C43.2 34.8 44.6 34.8 45.9 34.8C47.1 34.8 48.3 34.8 49.5 34.8C49.8 34.8 50.1 34.7 50.4 34.6C52.9 33.6 55.1 32.1 57 29.9C57.4 29.4 57.7 28.8 57.7 28.2C57.9 25 58.5 21.6 58.2 18.5C57.5 18.4 56.8 18.3 56.1 18.4C56.9 17.5 58 18 58.4 16.6C58.7 15.4 58.6 13.9 58.7 12.6C58.7999 11 58.9 9.49999 59 7.89999C59 7.19999 58.8 6.5 58.3 6Z" fill="url(#paint0_linear_9_6820)"/>
<path d="M2.69995 7.30005L2.79999 10.3C2.89999 11.8 3 13.3 3 14.8C3 15.3 3.09998 15.8 3.09998 16.3C3.19998 18 3.29996 19.7 3.39996 21.4L3.5 23.2C3.5 24 3.59998 24.9 3.59998 25.8C3.59998 26.6 3.69995 27.5 3.69995 28.3C4.59995 29.1 5.59998 29.9 6.59998 30.6C7.39998 31.2 8.29995 31.7 9.19995 32.1H9.59998C11.6 32.1 13.6 32.1 15.7 32.1H20.8C21.1 32.1 21.4 32.1 21.7 32.1C24.4 32.1 27.1 32.1 29.9 32.1C31.4 32.1 32.9 32.1 34.5 32.1C35.9 32.1 37.1 31.8 38.4 32C38.6 32 38.9 32.1 39.1 32.1C39.6 32.1 40.1 32.1 40.7 32.1C41.7 32.1 42.8 32.1 43.8 32.1C44.3 32.1 44.7 32.1 45.2 32.1C46.2999 32.1 48.2 32.5 49.3 32.1C51.4 31.3 53.2 30 54.8 28.2C55.2 27.7 55 25.5 55 24.8C55 24.8 55 24.8 55 24.7C55 24.5 55 24.3 55 24C55 23.8 55 23.5 55 23.3C55 22.5 55.1 21.8 55.1 21C55.1 20.6 55.4 18.6 55 18.2H54.9C54.6 18.2 54.3 18.2 54 18.2C53.9 18.2 53.7999 18.2 53.7 18.2C53.9 18 54.2 17.8 54.4 17.7C55.4 16.7 55.6 15.5 55.7 14.1C55.7 13.6 55.7 13.2 55.7 12.7C55.7 12.4 55.7 12 55.7 11.7C55.7 11.1 56.3 8.30005 55.9 7.80005C54.3 5.90005 52.5 4.20002 50.4 2.90002C50.3 2.90002 50.2999 2.80005 50.2 2.80005C49.1 2.80005 48 2.90002 46.8 2.90002C39.8 3.10002 32.8 3.30004 25.9 3.60004C24.2 3.70004 22.4 3.70005 20.7 3.80005C19.9 3.80005 19 3.70002 18.2 3.90002C17.5 4.10002 17 5.00004 16.2 4.70004C13.8 3.80004 11.6 4.10004 9.09998 4.20004C8.49998 4.20004 6.49996 3.90005 5.89996 4.30005C4.89996 5.00005 3.69995 6.10005 2.69995 7.30005Z" fill="url(#paint1_radial_9_6820)"/>
<path d="M2.69995 7.30005L2.79999 10.3C2.89999 11.8 3 13.3 3 14.8C3 15.3 3.09998 15.8 3.09998 16.3C3.19998 18 3.29996 19.7 3.39996 21.4L3.5 23.2C3.5 24 3.59998 24.9 3.59998 25.8C3.59998 26.6 3.69995 27.5 3.69995 28.3C4.59995 29.1 5.59998 29.9 6.59998 30.6C7.39998 31.2 8.29995 31.7 9.19995 32.1H9.59998C11.6 32.1 13.6 32.1 15.7 32.1H20.8C21.1 32.1 21.4 32.1 21.7 32.1C24.4 32.1 27.1 32.1 29.9 32.1C31.4 32.1 32.9 32.1 34.5 32.1C35.9 32.1 37.1 31.8 38.4 32C38.6 32 38.9 32.1 39.1 32.1C39.6 32.1 40.1 32.1 40.7 32.1C41.7 32.1 42.8 32.1 43.8 32.1C44.3 32.1 44.7 32.1 45.2 32.1C46.2999 32.1 48.2 32.5 49.3 32.1C51.4 31.3 53.2 30 54.8 28.2C55.2 27.7 55 25.5 55 24.8C55 24.8 55 24.8 55 24.7C55 24.5 55 24.3 55 24C55 23.8 55 23.5 55 23.3C55 22.5 55.1 21.8 55.1 21C55.1 20.6 55.4 18.6 55 18.2H54.9C54.6 18.2 54.3 18.2 54 18.2C53.9 18.2 53.7999 18.2 53.7 18.2C53.9 18 54.2 17.8 54.4 17.7C55.4 16.7 55.6 15.5 55.7 14.1C55.7 13.6 55.7 13.2 55.7 12.7C55.7 12.4 55.7 12 55.7 11.7C55.7 11.1 56.3 8.30005 55.9 7.80005C54.3 5.90005 52.5 4.20002 50.4 2.90002C50.3 2.90002 50.2999 2.80005 50.2 2.80005C49.1 2.80005 48 2.90002 46.8 2.90002C39.8 3.10002 32.8 3.30004 25.9 3.60004C24.2 3.70004 22.4 3.70005 20.7 3.80005C19.9 3.80005 19 3.70002 18.2 3.90002C17.5 4.10002 17 5.00004 16.2 4.70004C13.8 3.80004 11.6 4.10004 9.09998 4.20004C8.49998 4.20004 6.49996 3.90005 5.89996 4.30005C4.89996 5.00005 3.69995 6.10005 2.69995 7.30005Z" fill="url(#paint2_radial_9_6820)"/>
<path d="M54.2 18.1C54 18.3 53.8 18.5 53.5 18.6C53.7 19 54.5 18.7 54.8 19.1C54.9 19.2 54.9 19.4 54.9 19.6C55 20.8 54.7 22.7 55.1 23.8C55.2 22.8 55.2 21.8 55.3 20.9C55.3 20.5 55.6 18.5 55.2 18.1H55.1C54.8 18.1 54.5 18.1 54.2 18.1Z" fill="#E6C9C3"/>
<path d="M2.69995 7.30005L2.79999 10.3C3.09999 15.3 3.29998 20.5 3.59998 25.7C3.59998 25.9 3.59995 26.1 3.69995 26.2C3.49995 21.9 3.39995 17.5 3.19995 13.2C3.09995 11.7 3.09996 10.1 3.39996 8.60004C3.69996 7.40004 4.29999 6.10005 5.29999 5.30005C6.29999 4.50005 7.3 4.60004 8.5 4.60004C10.2 4.60004 12.1 4.30003 13.8 4.50003C14.4 4.60003 15 4.60002 15.5 4.90002C15.8 5.00002 16.1 5.20005 16.4 5.30005C17.2 5.40005 17.9 4.70002 18.7 4.40002C19.1 4.30002 19.5 4.30004 19.9 4.20004C27.8 3.90004 35.7 3.60005 43.6 3.30005C45.5 3.20005 48.5 2.70002 50.1 3.90002C50.8 4.40002 51.5 4.90003 52.1 5.50003C52.9 6.30003 53.8 7.10002 54.6 7.90002C54.8 8.00002 54.9 8.20002 55 8.40002C55.1 8.70002 55.1 9.00005 55 9.30005C54.6 11.3 54.7 13.2 54.7 15.2C54.7 15.9 54.7 16.9 54.3 17.7C55.8 16.1 55.6 13.9 55.7 11.7C55.7 11.1 56.3 8.30005 55.9 7.80005C54.3 5.80005 52.2999 4.10005 50.2 2.80005C42.1 3.00005 34 3.30004 25.9 3.60004C24.2 3.70004 22.4 3.70005 20.7 3.80005C19.9 3.80005 19 3.70002 18.2 3.90002C17.5 4.10002 17 5.00004 16.2 4.70004C13.8 3.80004 11.6 4.10004 9.09998 4.20004C8.49998 4.20004 6.49996 3.90005 5.89996 4.30005C4.89996 5.00005 3.69995 6.10005 2.69995 7.30005Z" fill="#E6C9C3"/>
<path d="M4.29999 8.80001C4.29999 8.70001 4.29996 8.7 4.39996 8.6C4.59996 8 5.29999 7.9 5.79999 7.6C6.49999 7.2 7.39998 6.40001 8.09998 6.30001C8.59998 6.20001 9.19995 6.30001 9.69995 6.30001C16.4 6.20001 23.1 6.10001 29.8 5.80001C33.3 5.60001 36.7 5.40001 40.2 5.20001C43.2999 5.00001 46.4 4.70001 49.6 4.80001C49.7 4.80001 49.7 4.80001 49.8 4.80001C49.9 4.80001 50 4.9 50 5C50.7 5.8 51.4 6.50001 52.1 7.30001C52.8 8.10001 53.8 8.99999 54.3 9.89999C54.3 9.99999 54.3 10 54.3 10C53.5 10.4 52.8 10.8 51.9 11.1C51.5 11.2 51.1 11.4 50.7 11.5C50.4 11.6 50 11.9 49.7 11.7C49.6 11.7 49.5 11.6 49.3 11.5C48.2 10.5 47.2 9.20001 46.6 7.70001V7.6C46.6 7.2 47.9 7.39999 48.2 7.39999C48.7999 7.39999 49.4 7.5 49.9 7.6H50C50.2 7.7 50.1 8.20001 49.9 8.30001C49.8 8.40001 49.4 8.30001 49.3 8.20001C48.8 8.10001 48.3 8.1 47.8 8C48.4 8.9 49 9.7 49.7 10.5C49.7999 10.6 49.8 10.6 49.9 10.7C50 10.7 50.1 10.7 50.2 10.7C51.2 10.4 52.1 10 53 9.5C51.8 8.2 50.6 6.8 49.4 5.5C46.2 5.1 42.7 5.8 39.5 6C36 6.2 32.6 6.4 29.1 6.5C25.7 6.6 22.4 6.80001 19 6.80001C15.7 6.90001 12.4 7.09999 9.09998 6.89999C8.89998 6.89999 8.79998 6.89999 8.59998 6.89999C7.99998 6.79999 7.29999 7.30001 6.79999 7.70001C6.29999 8.10001 5.79995 8.40001 5.19995 8.80001C5.09995 8.80001 5.1 8.89999 5 8.89999C5 8.99999 5 9.1 5 9.1C5.3 13.1 5.4 17.1 5.5 21.1C5.5 21.5 6.09998 24.6 5.59998 24.7C4.99998 24.8 4.89996 23.9 4.89996 23.5C4.79996 18.7 4.39999 13.9 4.29999 9.20001C4.29999 9.00001 4.29999 8.90001 4.29999 8.80001ZM6.5 28.5C6.9 28.8 7.19998 29 7.59998 29.3C8.39998 29.8 9.09996 30.4 9.89996 30.9C10.5 31.3 11.3 31.1 12 31.1C12.9 31.1 13.8 31.1 14.7 31.1C20.2 31.1 25.8 31 31.3 31C37.3 30.9 43.7999 31.5 49.7 30.2C49.7999 30.2 49.9 30.2 50 30.2C50.1 30.2 50.2 30.1 50.2 30.1C51.1 29.4 52 28.6 52.7 27.8C52.7999 27.6 53 27.5 53.1 27.3C53.2 27 53.1 26.9 53.1 26.6C53.1 26.3 53.1 26 53.1 25.6C53.1 25 53.2 24.3 53.2 23.7C53.2999 22.4 53.3 21.2 53.4 19.9C53.5 18.8 53.4 17.7 53.5 16.5C53.6 15.5 53.6 14.6 53.6 13.6C53.6 13.1 53.7 12.5 53.6 12.1C53.5 11.7 53.2 11.6 53 12.1C52.9 12.3 52.9 12.6 52.9 12.8C53 17.4 52.3 21.9 52.3 26.5C52.3 27.4 51.6 27.8 51 28.3C50.3 28.8 49.7 29.3 49 29.7C48.8 29.8 48.5 29.9 48.3 30C42.2 30.1 36 30.4 29.9 30.5C23.4 30.6 16.9 30.6 10.4 30.7C9.79996 30.2 9.1 29.7 8.5 29.3C7.8 28.8 6.99996 28.4 6.39996 27.8L6.29999 27.7V27.6C6.59999 26.7 7.09996 25.8 7.89996 25.1C8.29996 25.3 8.7 25.5 9 25.8C9.4 26.2 9.79995 26.6 10.2 27C10.3 27.1 10.9 27.6 11 27.8C10.3 27.8 9.49996 27.8 8.89996 28.1C8.59996 28.3 9.8 28.7 10 28.7C10.7 28.6 11.4 28.4 12.1 28.5C12.1 28.5 12.4 28.5 12.4 28.4C12.5 28 12 27.7 11.8 27.4C11.4 27 11 26.6 10.7 26.3C9.89995 25.5 8.89995 24.9 8.19995 24.1L8.09998 24H8C6.8 24.7 6.09995 26.3 5.69995 27.7V27.8C5.69995 28.1 6.3 28.4 6.5 28.5Z" fill="#E6C9C3"/>
<path d="M4.09998 8.30001C4.09998 8.20001 4.09995 8.2 4.19995 8.1C4.39995 7.6 5.09998 7.4 5.59998 7.1C6.29998 6.7 7.19996 5.90001 7.89996 5.80001C8.39996 5.70001 9 5.80001 9.5 5.80001C16.2 5.70001 22.9 5.60001 29.6 5.30001C33.1 5.10001 36.5 4.90001 40 4.70001C43.1 4.50001 46.2 4.20001 49.4 4.30001C49.5 4.30001 49.5 4.30001 49.6 4.30001C49.7 4.30001 49.8 4.4 49.8 4.5C50.5 5.3 51.2 6.00001 51.9 6.80001C52.6 7.60001 53.6 8.49999 54.1 9.39999C54.1 9.49999 54.1 9.5 54.1 9.5C53.3 9.9 52.6 10.3 51.7 10.6C51.2999 10.7 50.9 10.9 50.5 11C50.2 11.1 49.8 11.4 49.5 11.2C49.4 11.2 49.3 11.1 49.1 11C48 10 47 8.70001 46.4 7.20001V7.1C46.4 6.7 47.7 6.89999 48 6.89999C48.6 6.89999 49.2 7 49.7 7.1H49.8C50 7.2 49.9 7.70001 49.7 7.80001C49.6 7.90001 49.2 7.80001 49.1 7.70001C48.6 7.60001 48.1 7.6 47.6 7.5C48.2 8.4 48.8 9.2 49.5 10C49.6 10.1 49.6 10.1 49.7 10.2C49.7999 10.2 49.9 10.2 50 10.2C51 9.90001 51.9 9.5 52.8 9C51.6 7.7 50.4 6.3 49.2 5C46 4.6 42.5 5.3 39.3 5.5C35.8 5.7 32.4 5.9 28.9 6C25.5 6.1 22.2 6.30001 18.8 6.30001C15.5 6.40001 12.2 6.59999 8.89996 6.39999C8.69996 6.39999 8.59996 6.39999 8.39996 6.39999C7.79996 6.29999 7.09998 6.80001 6.59998 7.20001C6.09998 7.60001 5.6 7.90001 5 8.30001C4.9 8.30001 4.89999 8.39999 4.79999 8.39999C4.79999 8.49999 4.79999 8.6 4.79999 8.6C5.09999 12.6 5.19999 16.6 5.29999 20.6C5.29999 21 5.89996 24.1 5.39996 24.2C4.79996 24.3 4.69995 23.4 4.69995 23C4.59995 18.2 4.19998 13.4 4.09998 8.70001C4.09998 8.50001 4.09998 8.40001 4.09998 8.30001ZM6.29999 28C6.69999 28.3 6.99996 28.5 7.39996 28.8C8.19996 29.3 8.89995 29.9 9.69995 30.4C10.3 30.8 11.1 30.6 11.8 30.6C12.7 30.6 13.6 30.6 14.5 30.6C20 30.6 25.6 30.5 31.1 30.5C37.1 30.4 43.6 31 49.5 29.7C49.6 29.7 49.7 29.7 49.8 29.7C49.9 29.7 50 29.6 50 29.6C50.9 28.9 51.8 28.1 52.5 27.3C52.6 27.1 52.8 27 52.9 26.8C53 26.5 52.9 26.4 52.9 26.1C52.9 25.8 52.9 25.5 52.9 25.1C52.9 24.5 53 23.8 53 23.2C53.1 21.9 53.1 20.7 53.2 19.4C53.2999 18.3 53.2 17.2 53.3 16C53.4 15 53.4 14.1 53.4 13.1C53.4 12.6 53.5 12 53.4 11.6C53.3 11.2 53 11.1 52.8 11.6C52.7 11.8 52.7 12.1 52.7 12.3C52.7999 16.9 52.1 21.4 52.1 26C52.1 26.9 51.4 27.3 50.8 27.8C50.1 28.3 49.5 28.8 48.8 29.2C48.6 29.3 48.3 29.4 48.1 29.5C42 29.6 35.8 29.9 29.7 30C23.2 30.1 16.7 30.1 10.2 30.2C9.59995 29.7 8.89999 29.2 8.29999 28.8C7.59999 28.3 6.79995 27.9 6.19995 27.3L6.09998 27.2V27.1C6.39998 26.2 6.89995 25.3 7.69995 24.6C8.09995 24.8 8.49999 25 8.79999 25.3C9.19999 25.7 9.6 26.1 10 26.5C10.1 26.6 10.7 27.1 10.8 27.3C10.1 27.3 9.29995 27.3 8.69995 27.6C8.39995 27.8 9.59999 28.2 9.79999 28.2C10.5 28.1 11.2 27.9 11.9 28C11.9 28 12.2 28 12.2 27.9C12.3 27.5 11.8 27.2 11.6 26.9C11.2 26.5 10.8 26.1 10.5 25.8C9.7 25 8.7 24.4 8 23.6L7.89996 23.5H7.79999C6.59999 24.2 5.9 25.8 5.5 27.2V27.3C5.6 27.6 6.09999 27.9 6.29999 28Z" fill="#6D5873"/>
<path d="M16.8999 21.1C16.4999 20.8 15.8999 20.6 15.3999 20.6C15.1999 20.5 14.8 20.7 14.6 20.8C14.7 20 14.1999 19.3 13.6999 18.7C12.9999 18 12.3 17.5 11.3 17.6C10.5 17.7 9.29998 18.1 8.99998 19C8.69998 19.8 9.29995 20.7 9.59995 21.4C9.79995 21.8 9.99997 22.1 10.3 22.4C10.3 22.4 10.2999 22.5 10.3999 22.5C10.8999 23.3 11.8999 23.1 12.6999 22.9C13.2999 22.7 13.7999 22.4 14.1999 22C14.2999 22.2 14.4 22.5 14.6 22.6C14.8 22.8 15.0999 23 15.3999 23.1C15.7999 23.3 16.4999 23.1 16.6999 22.7C16.8999 22.5 17.0999 22.1 17.1999 21.9C17.1999 21.5 17.0999 21.3 16.8999 21.1Z" fill="#E8E6E8"/>
<path d="M15.6999 25.5C15.5999 25.3 15.2 25.1 15 25C14.7 24.8 14.3 24.8 13.9 24.9C13.7 24.9 13.3999 25 13.1999 25.1C12.9999 25.3 12.9 25.5001 13 25.8001C13.1 26.0001 13.3 26.2001 13.4 26.3001C13.7 26.5001 14.1 26.6 14.5 26.6C14.8 26.6 15.2 26.6 15.4 26.4C15.8 26.1 15.8999 25.7 15.6999 25.5Z" fill="#E8E6E8"/>
<path d="M7.69996 18.1C7.69996 17.9 7.60001 17.8 7.50001 17.6C7.40001 17.5 6.8 17.6 6.8 17.8C6.8 18 6.7 18.1 6.8 18.3C6.8 18.5 6.99999 18.6 7.09999 18.7C7.19999 18.8 7.50001 18.7 7.50001 18.6C7.60001 18.4 7.69996 18.3 7.69996 18.1Z" fill="#E8E6E8"/>
<path d="M19.4 28.6C19.4 28.5 19.4 28.5 19.3 28.4C19.3 28.3 19.2 28.3001 19.1 28.2001C18.9 28.1001 18.7 28 18.5 27.9C18.4 27.8 18.2 27.9 18.1 27.9C18 27.9 17.8 28 17.8 28.1C17.9 28.3 17.9 28.5 18.1 28.6C18.4 28.7 18.6 28.7001 18.9 28.7001C19 28.8001 19.5 28.7 19.4 28.6Z" fill="#E8E6E8"/>
<path d="M16.9 22.5C16.6 22.8 16.3 23 15.9 23C15.8 23 15.6 23 15.5 22.9C14.9 22.7 14.3999 22.3 14.1999 21.7C13.8999 22.1 13.3 22.4 12.8 22.6C12.4 22.8 12 22.9 11.6 22.9C11.3 22.9 10.9999 22.7 10.6999 22.6C10.3999 22.5 10.3 22.2 10.1 22C9.59996 21.1 9.09995 20.2 8.89995 19.2C8.79995 19.7 8.99994 20.3 9.19994 20.8C9.59994 21.6 9.89995 22.4 10.4 23.2C10.8 23.3 11.3 23.4 11.6 23.3C11.8 23.3 12 23.2 12.3 23.1C12.9 22.9 13.5 22.6 14 22.2C13.9 22.3 15.0999 22.9 15.1999 23C16.0999 23.6 16.3 23.2 16.9 22.5Z" fill="#E6C9C3"/>
<path d="M15.8 25.8C15.7 26.1 15.4 26.3 15.1 26.4C14.6 26.5 12.7 26.4 13.1 25.4C12.9 25.8 13 26.2 13.3 26.4C13.7 26.7 14.1999 26.8 14.6999 26.7C15.2999 26.7 15.7 26.3 15.8 25.8Z" fill="#E6C9C3"/>
<path d="M52 14.1C51.8 13.6 51.3 13.4 50.8 13.4C50.1 13.3 49.4 13.5 48.8 13.7C48.8 13.7 48.7999 13.7 48.8999 13.6C48.8999 13.5 48.9999 13.5 48.8999 13.4V13.3L48.8 13.2C48.7 13.1 48.4999 13.1 48.3999 13C48.1999 12.9 48 12.9 47.8 13C47.6 13 47.2999 13.1 47.0999 13.2C46.8999 13.3 46.7 13.4 46.5 13.5C46.4 13.6 46.2 13.7 46.3 13.9L46.3999 14.1C46.3999 14.2 46.4999 14.3 46.6999 14.3C46.7999 14.3 46.7999 14.3 46.8999 14.3C46.9999 14.3 46.9999 14.3 47.0999 14.3C47.1999 14.3 47.4 14.3 47.5 14.2H47.5999C47.4999 14.3 47.3999 14.3 47.3999 14.4C47.0999 14.6 46.6 15.2 46.8 15.6C46.9 15.7 46.9999 15.8 47.0999 15.8C47.0999 15.8 47.0999 15.8 47.0999 15.9C46.9999 16.3 47 16.8 47.3 17C47.5 17.2 47.8999 17.2 48.0999 17.2C48.8999 17.2 49.6 16.9 50.3 16.6C50.9 16.3 51.8 15.8 52 15.1C52.1 14.9 52.1 14.4 52 14.1Z" fill="#E8E6E8"/>
<path d="M51.4 18.8C51.4 18.7 51.3 18.5 51.2 18.5C50.7 18.3 50.1 18.4 49.7 18.8C49.5 19 49.3 19.1 49.3 19.4C49.3 19.5 49.3 19.7 49.4 19.8C49.5 20 49.9 19.9 50.1 19.9C50.5 19.9 50.9 19.7 51.2 19.4C51.3 19.2 51.5 19 51.4 18.8Z" fill="#E8E6E8"/>
<path d="M43.8999 6.70002C43.5999 6.60002 43.2999 6.70002 43.0999 6.70002C42.5999 6.80002 42.0999 6.90002 41.6999 7.10002C41.3999 7.30002 41.0999 7.40002 40.8999 7.70002C40.7999 7.80002 40.5999 8.00002 40.6999 8.20002C40.7999 8.40002 41.1999 8.5 41.3999 8.4C41.6999 8.4 42 8.30003 42.3 8.30003C42.5 8.30003 42.6999 8.20002 42.8999 8.10002C43.1999 8.00002 43.4999 7.90002 43.6999 7.70002C43.8999 7.60002 44.0999 7.40003 44.1999 7.30003C44.2999 7.20003 44.4 7.1 44.3 6.9C44.2 6.8 44.0999 6.70002 43.8999 6.70002Z" fill="#E8E6E8"/>
<path d="M38.6 7.40002C38.4 7.30002 38.3 7.30005 38.3 7.30005C38.2 7.30005 38 7.40002 37.9 7.40002C37.8 7.40002 37.7 7.50004 37.7 7.60004C37.7 7.70004 37.7 7.70004 37.8 7.70004H37.9C38 7.70004 38.2 7.70004 38.3 7.60004C38.4 7.60004 38.5 7.50003 38.6 7.50003C38.6 7.60003 38.7 7.50002 38.6 7.40002Z" fill="#E8E6E8"/>
<path d="M46 26.2V26.1L45.9 26C45.8 25.9 45.6 25.9 45.5 25.9C45.3 25.9 45.1 25.9 44.8 25.9H44.6999C44.3999 25.9 44.1 26 43.9 26.1C43.7 26.2 43.4999 26.3 43.1999 26.4C42.9999 26.5 42.9 26.6 42.8 26.7C42.6 26.9 42.4 27.1 42.5 27.4C42.6 27.5 42.7 27.6 42.9 27.6C43 27.6 43 27.6 43.1 27.7C43.3 27.8 43.6 27.7 43.8 27.7C44 27.7 44.2 27.6 44.5 27.5C44.8 27.4 45 27.3 45.3 27.2C45.5 27.1 45.6 27 45.8 26.9C45.9 26.8 45.9 26.8 46 26.7C45.9 26.6 45.9 26.4 46 26.2Z" fill="#E8E6E8"/>
<path d="M38.9 26.8C38.8 26.8 38.8 26.8 38.8 26.8C38.8 26.8 38.7 26.8 38.7 26.9C38.7 26.9 38.7 26.9 38.8 27C38.8 27 38.8 27 38.9 27H39C38.9 26.9 39 26.9 38.9 26.8Z" fill="#E8E6E8"/>
<path d="M14 9.60005C13.9 9.50005 13.8 9.50004 13.7 9.40004C13.6 9.30004 13.4 9.40004 13.3 9.40004C13.2 9.40004 13.1 9.50004 13.1 9.50004C13.1 9.50004 13 9.60005 12.9 9.60005C12.9 9.70005 12.9 9.80004 12.9 9.90004V10C13 10.1 13.1 10.1 13.2 10.1C13.4 10.1 13.6 10.1 13.8 10C13.9 10 13.9 9.90004 13.9 9.90004C13.9 9.90004 14 9.80005 14 9.70005V9.60005Z" fill="#E8E6E8"/>
<path d="M15.9 9C15.7 9 15.6 9 15.6 9C15.6 9 15.5 9.00001 15.5 9.10001C15.5 9.10001 15.4 9.10001 15.4 9.20001C15.4 9.20001 15.4 9.20002 15.4 9.30002C15.4 9.30002 15.4 9.30002 15.5 9.30002H15.6H15.7C15.7 9.30002 15.8 9.30001 15.8 9.20001C16 9.10001 16 9.1 15.9 9C16 9.1 16 9 15.9 9Z" fill="#E8E6E8"/>
<path d="M44.3 7C44.1 7.5 43.6 7.90001 43.1 8.10001C42.6 8.30001 42 8.39999 41.5 8.39999C41.2 8.39999 40.9 8.40001 40.7 8.20001C41.1 8.50001 41.4 8.60001 41.9 8.60001C42.1 8.60001 42.2 8.60001 42.4 8.60001C42.8 8.60001 43.2 8.30001 43.5 8.10001C43.7 7.80001 44 7.3 44.3 7Z" fill="#E6C9C3"/>
<path d="M47.4 14.4C47.3 14.5 47.1 14.6 47 14.8C47 14.8 46.4 14.3 46.4 14.2C46.6 14.3 47.2 14.6 47.4 14.4Z" fill="#E6C9C3"/>
<path d="M52.1 14.4C52.3 14.9 52 15.5 51.7 16C51.3 16.4 50.8 16.7 50.3 16.9C49.9 17.1 49.5 17.2 49 17.3C48.7 17.4 48.3 17.5 48 17.4C47.7 17.4 47.3 17.2 47.1 16.9C47.2 17.3 47.8 17.7 48.2 17.7C48.7 17.7 49.1 17.6 49.6 17.4C50.3 17.2 51 16.9 51.5 16.3C52 15.8 52.3 15.1 52.1 14.4Z" fill="#E6C9C3"/>
<path d="M50.3 19.7C50.5 19.7 50.6 19.6 50.7 19.6C51.1 19.5 51.4 19.2 51.5 18.8C51.3 19.1 51.2 19.4 50.9 19.7C50.8 19.8 50.7 19.9 50.6 19.9C50.5 20 50.4 20 50.2 20C49.9 20 49.2 20 49.2 19.6C49.3 19.9 50.2 19.8 50.3 19.7Z" fill="#E6C9C3"/>
<path d="M43.9 27.6C44.3 27.5 44.8 27.4 45.2 27.2C45.3 27.1 45.5 27.1 45.6 27C45.9 26.8 46 26.5 46.1 26.1C46 26.5 45.7 26.9 45.4 27.2C45.3 27.4 45.1 27.5 45 27.6C44.8 27.7 44.5 27.7 44.2 27.7C43.9 27.7 43.1 27.7 42.9 27.5C43.2 27.6 43.5 27.7 43.9 27.6Z" fill="#E6C9C3"/>
<defs>
<linearGradient id="paint0_linear_9_6820" x1="29.1483" y1="-8.5407" x2="29.9928" y2="38.7506" gradientUnits="userSpaceOnUse">
<stop stop-color="#BFA0A2"/>
<stop offset="0.2596" stop-color="#8B7588"/>
<stop offset="0.5642" stop-color="#493E66"/>
<stop offset="0.8176" stop-color="#224569"/>
<stop offset="1" stop-color="#0A4A6B"/>
</linearGradient>
<radialGradient id="paint1_radial_9_6820" cx="0" cy="0" r="1" gradientUnits="userSpaceOnUse" gradientTransform="translate(30.8055 -5.15735) rotate(180) scale(166.469 166.468)">
<stop stop-color="#CCAAAC"/>
<stop offset="1" stop-color="#6C6778"/>
</radialGradient>
<radialGradient id="paint2_radial_9_6820" cx="0" cy="0" r="1" gradientUnits="userSpaceOnUse" gradientTransform="translate(28.4503 -5.57357) scale(63.3089 155.238)">
<stop stop-color="#FFFBFB"/>
<stop offset="1" stop-color="#6C6778"/>
</radialGradient>
</defs>
</svg>
