<svg width="245" height="67" viewBox="0 0 245 67" fill="none" xmlns="http://www.w3.org/2000/svg">
<path d="M243.73 19.5763C243.129 19.176 242.395 19.1093 241.728 19.1093C237.591 18.8424 233.454 18.9091 229.384 19.2427C227.316 19.4429 225.247 19.643 223.112 19.9767C222.912 20.0434 222.645 20.0434 222.445 20.1101C222.178 20.1768 221.844 20.1768 221.577 20.2436C221.511 20.2436 221.444 20.2436 221.377 20.3103C221.177 20.3103 221.044 20.377 220.843 20.377C220.777 20.377 220.643 20.4437 220.576 20.4437C220.376 20.5104 220.243 20.5104 220.043 20.5772C219.976 20.5772 219.909 20.5772 219.842 20.6439C219.842 20.6439 219.842 20.6439 219.776 20.6439C219.042 20.8441 218.375 21.111 217.841 21.4446C217.707 21.5113 217.641 21.578 217.574 21.7115C217.374 21.8449 217.174 22.0451 216.973 22.2453C216.573 22.6456 216.239 23.0459 215.906 23.513C215.572 23.9134 215.305 24.247 215.505 24.7808C216.106 26.5156 217.107 28.1169 217.841 29.785C218.308 30.9193 218.641 32.1871 218.842 33.3881C218.708 33.3881 218.575 33.4548 218.508 33.4548C218.241 33.5216 217.974 33.5216 217.774 33.5216C217.507 33.5216 217.307 33.5883 217.04 33.5883C216.973 33.5883 216.973 33.5883 216.907 33.5883C216.306 33.5883 215.639 33.5883 215.038 33.5216C214.905 33.5216 214.838 33.5216 214.705 33.5216C214.505 33.5216 214.304 33.4548 214.104 33.4548C213.971 33.4548 213.837 33.3881 213.704 33.3881C213.57 33.3881 213.37 33.3214 213.237 33.3214C213.103 33.3214 212.97 33.2547 212.836 33.2547C212.703 33.2547 212.503 33.1879 212.369 33.1879C212.236 33.1879 212.103 33.1212 211.969 33.1212C211.702 33.0545 211.369 32.9878 211.102 32.9211C208.967 32.3873 206.898 31.3864 205.43 29.7183C205.297 29.5849 205.163 29.3847 205.03 29.2512C204.963 29.1845 204.963 29.1178 204.896 29.0511C204.83 28.9176 204.763 28.7842 204.629 28.6507C204.629 28.584 204.563 28.5173 204.563 28.4506C204.496 28.3171 204.429 28.1837 204.363 28.0502C204.363 27.9835 204.296 27.9168 204.296 27.8501C204.229 27.7166 204.229 27.5832 204.162 27.5164C204.096 27.383 204.096 27.2495 204.029 27.1161C204.029 27.0494 203.962 26.9159 203.962 26.8492C203.962 26.7157 203.896 26.5823 203.896 26.3821C203.896 26.3154 203.896 26.182 203.829 26.1152C203.829 25.9151 203.762 25.7816 203.762 25.5814C203.762 25.5147 203.762 25.448 203.762 25.448C203.762 25.1811 203.762 24.9809 203.762 24.714C203.762 24.5139 203.829 24.3804 203.829 24.1803C203.829 24.1135 203.829 24.0468 203.829 24.0468C205.23 23.3796 207.098 23.513 208.766 23.9134C208.967 23.9801 209.167 24.0468 209.367 23.9134C209.567 23.8466 209.767 23.513 209.967 23.3796C210.168 23.1794 210.368 22.9125 210.568 22.7123C210.902 22.312 211.168 21.9116 211.502 21.5113C211.569 21.4446 211.635 21.3111 211.702 21.2444C211.836 21.0442 211.902 20.8441 212.036 20.5772C212.503 19.7765 212.903 18.9758 213.237 18.1751C213.237 18.1751 213.237 18.1084 213.304 18.1084C213.304 18.0417 213.37 17.9749 213.37 17.9082C213.504 17.6413 213.57 17.4412 213.704 17.1743C213.704 17.1075 213.704 17.1075 213.771 17.0408C213.771 16.9741 213.837 16.9074 213.837 16.8406C213.971 16.5738 214.038 16.3069 214.104 16.04C214.104 15.9732 214.171 15.9065 214.171 15.7731C214.304 15.4394 214.371 15.1058 214.505 14.7722C214.505 14.7055 214.505 14.6388 214.571 14.6388C214.771 13.9048 214.905 13.1708 215.038 12.3702V12.3034C215.105 11.9031 215.172 11.436 215.172 11.0357C215.172 10.6353 215.239 10.235 215.172 9.83466C215.172 9.36759 215.172 8.90053 215.105 8.50019C215.038 7.9664 214.972 7.49933 214.571 7.09899C214.238 6.83209 213.837 6.76537 213.504 6.63192C212.369 6.36503 211.235 6.16486 210.101 5.96468C208.766 5.69779 207.432 5.49762 206.097 5.29745C205.23 5.164 204.363 5.03055 203.495 4.89711C203.228 4.83038 202.961 4.83038 202.695 4.76366C202.161 4.69694 201.627 4.63021 201.093 4.56349C200.826 4.49676 200.559 4.49677 200.292 4.49677C199.892 4.43004 199.492 4.43004 199.025 4.36332C198.291 4.29659 197.624 4.22987 196.89 4.09642C196.423 4.0297 195.955 4.0297 195.488 3.96297C194.821 3.89625 194.221 3.82953 193.553 3.7628C193.02 3.69608 192.419 3.69608 191.885 3.62936C191.352 3.56263 190.818 3.56263 190.284 3.49591C189.617 3.42919 188.949 3.42919 188.215 3.36246C188.015 3.36246 187.748 3.36246 187.548 3.29574C187.014 3.29574 186.481 3.22901 185.947 3.22901C183.945 3.16229 181.943 3.02884 179.942 2.8954C178.14 2.82867 176.339 2.76195 174.537 2.6285C174.27 2.6285 174.003 2.6285 173.736 2.56178C170.067 2.42833 166.397 2.22816 162.727 2.09471C161.726 2.02799 160.725 2.02799 159.791 1.96126C157.456 1.89454 155.054 1.76109 152.718 1.69437C151.117 1.62765 149.516 1.56092 147.914 1.56092C147.381 1.56092 146.914 1.4942 146.38 1.4942C143.911 1.42748 141.375 1.36075 138.907 1.29403C138.706 1.29403 138.506 1.29403 138.306 1.29403C136.171 1.2273 134.103 1.22731 131.967 1.16058C131.367 1.16058 130.766 1.16058 130.233 1.16058C128.498 1.16058 126.763 1.16058 125.028 1.09386C124.628 1.09386 124.161 1.09386 123.76 1.09386C121.759 1.09386 119.757 1.09386 117.689 1.09386C116.955 1.09386 116.221 1.09386 115.487 1.09386C114.085 1.09386 112.684 1.09386 111.283 1.16058C110.749 1.16058 110.282 1.16058 109.748 1.16058C109.415 1.16058 109.081 1.16058 108.748 1.16058C108.547 1.16058 108.347 1.16058 108.08 1.16058C107.947 1.16058 107.813 1.16058 107.68 1.16058C107.613 1.16058 107.613 1.16058 107.547 1.16058C103.943 1.22731 100.34 1.29403 96.7373 1.42748C96.5371 1.42748 96.4037 1.42748 96.2035 1.42748C83.8596 1.82782 71.5158 2.36161 59.1719 3.02884C57.9041 3.09557 56.6364 3.16229 55.3686 3.22901C55.3019 3.22901 55.2352 3.22901 55.1685 3.22901C53.9674 3.29574 52.8331 3.42919 51.6321 3.49591C51.4987 3.49591 51.3652 3.49591 51.165 3.56263C50.0975 3.62936 49.0299 3.7628 47.9623 3.89625C47.6954 3.89625 47.4285 3.96297 47.1616 3.96297C46.2275 4.0297 45.3601 4.16315 44.426 4.29659C44.2258 4.29659 44.0923 4.36332 43.8922 4.36332H43.8254C43.3584 4.43004 42.958 4.49676 42.491 4.56349C42.1573 4.63021 41.8237 4.63021 41.4234 4.69694C40.6894 4.83038 40.0222 4.89711 39.2882 5.03055C38.8212 5.09728 38.4208 5.164 37.9538 5.23073C37.42 5.29745 36.8195 5.4309 36.2857 5.49762C35.7519 5.56434 35.2181 5.69779 34.6843 5.76451C33.6167 5.96468 32.6159 6.16486 31.5483 6.36503C31.1479 6.43175 30.7476 6.5652 30.4807 6.83209C30.3473 6.96554 30.2805 7.03227 30.2138 7.16571C29.4798 8.09984 29.68 9.63449 29.8802 11.0357C29.8802 11.2359 29.9469 11.5028 29.9469 11.7029C29.9469 11.7029 29.9469 11.7029 29.9469 11.7696C29.9469 11.8364 29.9469 11.8364 29.9469 11.9031C29.9469 11.9698 29.9469 11.9698 29.9469 12.0365C30.1471 13.7046 30.6142 15.3727 31.2814 16.9074C31.5483 17.6413 31.8819 18.3086 32.2155 19.0425V19.1093C32.349 19.3761 32.4824 19.7098 32.6826 19.9767C32.6826 20.0434 32.7493 20.1101 32.7493 20.1768C32.9495 20.5104 33.0829 20.7773 33.2831 21.111C33.3498 21.1777 33.4166 21.3111 33.4166 21.3779C33.9503 22.1785 34.6176 22.8458 35.2181 23.513C35.485 23.8466 35.7519 23.9134 36.1522 23.8466C37.7536 23.4463 39.6886 23.3128 41.0898 23.9801V24.0468C41.1565 24.247 41.1565 24.4471 41.1565 24.714C41.1565 24.9809 41.1565 25.1811 41.1565 25.448C41.1565 25.5147 41.1565 25.6482 41.1565 25.7149C41.1565 25.9151 41.1565 26.0485 41.0898 26.2487C41.0898 26.3154 41.0898 26.3154 41.0898 26.3821C41.0898 26.5823 41.023 26.8492 40.9563 27.0494C40.9563 27.1161 40.8896 27.1828 40.8896 27.2495C40.8229 27.5164 40.7562 27.7166 40.6227 27.9835C40.4893 28.2504 40.3558 28.5173 40.2224 28.7842C40.2224 28.7842 40.2224 28.7842 40.2224 28.8509C40.0889 29.1178 39.8888 29.318 39.7553 29.5181C39.6886 29.5849 39.6218 29.6516 39.5551 29.7183C39.355 29.9185 39.1548 30.1854 38.8879 30.3855C38.8212 30.4523 38.7545 30.4523 38.7545 30.519C38.5543 30.6524 38.4208 30.8526 38.2206 30.9861C38.1539 31.0528 38.0872 31.0528 38.0205 31.1195C37.8203 31.253 37.6201 31.3864 37.42 31.5199C37.3533 31.5866 37.2865 31.5866 37.2198 31.6533C36.9529 31.7867 36.686 31.9202 36.4191 32.0536C36.0188 32.2538 35.6852 32.3873 35.2848 32.5207C35.2181 32.5207 35.1514 32.5874 35.0179 32.5874C34.6176 32.7209 34.284 32.8543 33.8836 32.9211C33.55 32.9878 33.1496 33.1212 32.816 33.1879C32.7493 33.1879 32.7493 33.1879 32.6826 33.1879C32.349 33.2547 32.0154 33.3214 31.6817 33.3881C31.0812 33.5216 30.414 33.5883 29.8135 33.655C29.5466 33.655 29.2797 33.7217 29.0128 33.7217C28.9461 33.7217 28.8793 33.7217 28.8126 33.7217C28.5457 33.7217 28.2788 33.7217 28.0787 33.7217C28.0119 33.7217 27.9452 33.7217 27.8785 33.7217C27.6116 33.7217 27.4114 33.7217 27.1445 33.655C27.0778 33.655 27.0111 33.655 26.8776 33.655C26.6107 33.655 26.4106 33.5883 26.2104 33.5216C26.1437 33.5216 26.077 33.5216 26.077 33.5216C26.2771 32.2538 26.6107 31.0528 27.0778 29.9185C27.8118 28.1837 28.8126 26.649 29.4131 24.9142C29.5466 24.4471 29.4131 24.247 29.1462 23.8466C28.8126 23.3796 28.479 22.9792 28.0787 22.5789C27.8118 22.312 27.6116 21.9784 27.278 21.7782C27.2112 21.7115 27.1445 21.6447 27.0778 21.578C25.6099 20.6439 23.4747 20.4437 21.8066 20.1768C19.7382 19.8432 17.6698 19.5763 15.5346 19.4429C11.3977 19.1093 7.32759 19.0425 3.19072 19.3094C2.45676 19.3761 1.78952 19.4429 1.18901 19.7765C1.05556 19.8432 0.922111 19.9767 0.788664 20.1101C0.72194 20.1768 0.721957 20.1768 0.721957 20.2436C0.655233 20.3103 0.588497 20.4437 0.521773 20.5104C0.521773 20.5772 0.455046 20.6439 0.455046 20.7106C0.388322 20.7773 0.388338 20.9108 0.388338 20.9775C0.388338 21.0442 0.321611 21.111 0.321611 21.1777C0.321611 21.2444 0.254883 21.3779 0.254883 21.4446C0.254883 21.5113 0.254883 21.578 0.254883 21.7115C0.254883 21.7782 0.254883 21.8449 0.254883 21.9784C0.254883 22.0451 0.254883 22.1785 0.254883 22.2453C0.254883 22.312 0.254883 22.4454 0.254883 22.5122C0.254883 22.5789 0.254883 22.6456 0.254883 22.7123C0.254883 22.9125 0.254883 23.1127 0.254883 23.3128C0.254883 23.3796 0.254883 23.4463 0.254883 23.513V23.5797C0.254883 23.6465 0.254883 23.7132 0.254883 23.7799C0.254883 24.1135 0.254887 24.4471 0.321611 24.7808C0.321611 25.1144 0.388338 25.448 0.388338 25.7816C0.388338 25.9151 0.388338 25.9818 0.388338 26.1152C0.455062 26.649 0.521778 27.1828 0.588501 27.7166C0.588501 27.85 0.588505 27.9835 0.655229 28.1169C0.655229 28.2504 0.655233 28.3171 0.721957 28.4506C0.721957 28.584 0.788664 28.7842 0.788664 28.9176V28.9844C0.855388 29.318 0.855396 29.6516 0.92212 29.9852C0.92212 30.0519 0.92212 30.0519 0.92212 30.1187C0.988843 30.8526 1.1223 31.5866 1.38919 32.2538C1.45592 32.3873 1.4559 32.5207 1.52263 32.5874C1.52263 32.5874 1.52263 32.5874 1.52263 32.6542C1.7228 33.1212 1.92297 33.5216 2.25659 33.7885C2.72366 34.2555 3.124 34.7226 3.65779 35.1229C4.12486 35.5233 4.65864 36.0571 5.19243 36.324C5.72622 36.5909 6.32674 36.5909 6.92725 36.5909C7.19415 36.5909 7.52776 36.5909 7.79465 36.5909C6.39345 42.5293 4.92554 48.4009 3.25745 54.2726C2.92383 55.3402 3.32417 56.3411 3.52434 57.4086C3.79123 58.4762 4.05813 59.6105 4.59192 60.5447C5.85967 62.6131 7.66122 64.4813 9.72965 65.8158C11.2643 66.8167 12.3986 66.7499 14.2669 66.7499C33.2164 66.8167 52.1659 66.75 71.1154 66.6832C79.8562 66.6832 88.5303 66.6165 97.2711 66.6165C105.745 66.6165 114.553 67.3505 123.026 66.2162C123.026 65.6824 122.826 65.2153 122.426 64.8817C125.829 66.2829 128.831 66.1494 132.368 66.3496C138.64 66.6832 145.045 66.6165 151.317 66.6832C177.94 66.75 204.496 66.8834 231.119 66.7499C232.92 66.7499 234.121 66.8167 235.589 65.8158C237.658 64.4146 239.459 62.6131 240.727 60.5447C241.728 58.8766 242.662 56.2076 242.128 54.2726C240.46 48.4009 238.992 42.5293 237.591 36.5909C237.791 36.5909 237.991 36.5909 238.258 36.5909C238.725 36.5909 239.192 36.5909 239.659 36.4574C240.06 36.324 240.46 35.9903 240.794 35.7234C241.661 35.0562 242.729 34.1888 243.329 33.1879C243.396 33.0545 243.463 32.9878 243.529 32.8543C243.529 32.8543 243.529 32.8543 243.529 32.7876C243.529 32.7209 243.529 32.7209 243.596 32.6542C243.663 32.5207 243.73 32.3205 243.796 32.1871C244.063 31.4531 244.13 30.7192 244.263 29.9852C244.33 29.7183 244.33 29.3847 244.33 29.1178C244.33 28.8509 244.397 28.584 244.397 28.3171C244.53 27.6499 244.597 26.9826 244.664 26.3154C244.664 26.2487 244.664 26.182 244.664 26.182C244.664 26.0485 244.664 25.9151 244.73 25.7816C244.797 25.3146 244.797 24.7808 244.864 24.3137C244.864 24.0468 244.864 23.8466 244.864 23.5797C244.664 22.0451 244.931 20.3103 243.73 19.5763ZM223.979 40.5943C223.979 40.5275 223.979 40.5275 223.979 40.5275V40.5943ZM223.979 40.661C223.979 40.7277 223.979 40.7944 223.913 40.8612C223.913 40.7944 223.979 40.7277 223.979 40.661ZM20.8725 40.7277V40.7944C20.8725 40.7944 20.8725 40.7944 20.8725 40.7277ZM21.5397 38.5926C21.473 38.726 21.473 38.7927 21.4063 38.9262C21.3396 39.1264 21.2061 39.3265 21.1394 39.5267C21.1394 39.5267 21.1394 39.5267 21.1394 39.5934C21.2728 39.2598 21.4063 38.9262 21.5397 38.726C21.5397 38.6593 21.5397 38.6593 21.5397 38.5926ZM223.446 39.0596C223.379 38.9262 223.379 38.8595 223.312 38.726C223.312 38.7927 223.379 38.8595 223.379 38.9262C223.446 39.0596 223.446 39.1264 223.446 39.0596C223.446 39.1264 223.446 39.1264 223.446 39.0596Z" fill="#2E82A6"/>
<path d="M241.928 53.2051C240.06 46.5327 238.325 39.8603 236.857 33.1212C234.655 33.0545 232.52 33.0545 230.318 32.9878C229.518 32.9878 225.381 32.7209 225.047 33.5216C224.847 34.0554 224.98 34.5891 225.18 35.1229C225.381 35.7902 225.581 36.5241 225.848 37.1914C224.98 37.2581 224.246 37.3915 224.113 37.7252C223.913 38.2589 224.046 38.7927 224.246 39.3265C224.38 39.8603 224.58 40.4608 224.78 40.9946C222.111 41.6619 219.242 41.3282 216.573 40.7277C211.903 39.7269 207.299 37.992 203.295 35.3898C200.026 33.1879 196.489 29.8518 195.222 25.9818C197.157 24.247 199.292 22.6456 201.627 21.4446C203.295 20.5772 199.358 20.2436 199.025 20.1768C198.624 20.1101 198.291 20.1101 197.891 20.0434C199.292 18.9758 200.826 17.9749 202.361 17.1075C204.029 16.2401 200.092 15.9065 199.692 15.8398C187.015 14.5053 174.337 13.2376 161.593 12.6371C135.437 11.436 109.281 11.436 83.1258 12.6371C70.3816 13.2376 57.7708 14.5053 45.0266 15.8398C44.6263 15.9065 40.6896 16.1734 42.3576 17.1075C43.959 17.9749 45.4269 18.9758 46.8281 20.0434C46.4945 20.1101 46.0942 20.1101 45.7606 20.1768C45.3602 20.2436 41.4902 20.5104 43.1583 21.4446C45.4936 22.7123 47.6288 24.247 49.5638 25.9818C48.296 29.8518 44.7597 33.1879 41.4902 35.3898C37.4868 37.992 32.8829 39.7269 28.2122 40.7277C25.5433 41.3282 22.6742 41.6619 20.0052 40.9946C20.2054 40.4608 20.3388 39.8603 20.539 39.3265C20.6724 38.7927 20.8059 38.2589 20.6725 37.7252C20.539 37.3915 19.805 37.2581 18.9376 37.1914C19.1378 36.5241 19.4047 35.7902 19.6049 35.1229C19.7383 34.5891 19.8718 34.0554 19.7383 33.5216C19.4714 32.7209 15.2678 32.9211 14.4671 32.9878C12.3987 33.0545 10.2636 33.1212 8.19512 33.1212C6.66047 39.8603 4.99238 46.5327 3.12411 53.2051C2.7905 54.2726 3.19085 55.2735 3.39103 56.3411C3.65792 57.4086 3.9248 58.5429 4.45859 59.4771C5.72634 61.5455 7.52788 63.4138 9.59632 64.7482C11.131 65.7491 12.2653 65.6824 14.1335 65.6824C33.083 65.7491 52.0326 65.6824 70.9821 65.6157C79.7229 65.6157 88.397 65.5489 97.1378 65.5489C105.612 65.5489 114.419 66.2829 122.893 65.1486C122.893 64.6148 122.693 64.1477 122.293 63.8141C125.696 65.2153 128.698 65.0819 132.234 65.282C138.506 65.6157 144.912 65.5489 151.184 65.6157C177.807 65.6824 204.363 65.8158 230.985 65.6824C232.787 65.6824 233.988 65.7491 235.456 64.7482C237.524 63.347 239.326 61.5455 240.594 59.4771C241.595 57.809 242.462 55.14 241.928 53.2051Z" fill="url(#paint0_linear_9_9958)"/>
<path d="M238.859 54.4728C238.792 54.8064 238.659 55.0733 238.459 55.3402C237.191 57.4754 235.456 59.2769 233.454 60.6781C231.986 61.679 230.852 61.6122 229.051 61.6122C212.503 61.679 196.022 61.6122 179.542 61.6122C176.472 61.6122 173.403 61.6122 170.267 61.6122C163.728 61.6122 157.189 61.5455 150.65 61.5455C147.514 61.5455 144.378 61.5455 141.242 61.5455C137.105 61.5455 132.902 61.5455 128.765 61.5455C109.815 61.5455 90.7991 61.5455 71.8495 61.6122H71.3825C68.1797 61.6122 64.977 61.6122 61.7743 61.6122C46.4945 61.679 31.2148 61.679 15.9351 61.6122C14.1336 61.6122 12.9992 61.679 11.5313 60.6781C9.46289 59.2769 7.7948 57.4754 6.52705 55.3402C6.3936 55.0733 6.19343 54.8064 6.1267 54.4728C6.05998 54.0725 6.19344 53.6721 6.26016 53.2718C7.12757 50.2025 7.92826 47.1332 8.66222 43.9972C8.79566 43.4634 8.92912 42.8629 9.06256 42.2624C9.46291 40.7944 9.79651 39.2598 10.1301 37.7252C10.4637 36.1905 10.7974 34.6559 11.131 33.1212C13.1327 33.0545 15.2011 32.9878 17.2696 32.9878C18.0035 32.9878 22.0737 32.7209 22.3406 33.5216C22.5407 34.0554 22.4073 34.5891 22.2071 35.1229C21.9402 36.0571 21.6733 36.9245 21.4064 37.8586C21.4064 37.8586 21.4064 37.9253 21.3397 37.992C21.1395 38.5258 20.539 39.6601 20.7392 40.1272C20.8727 40.3941 21.2063 40.5275 21.4732 40.661C21.6733 40.7277 21.8735 40.7944 22.007 40.8612C24.7426 41.7286 27.7452 41.395 30.6143 40.7277C34.551 39.8603 38.3542 38.4591 41.8239 36.4574C42.4244 36.1238 42.9582 35.7902 43.492 35.3898C43.6254 35.3231 43.7589 35.1897 43.8923 35.1229C47.4954 32.5874 51.2987 28.584 51.7657 24.0468C51.8324 23.5797 51.8324 23.1127 51.6323 22.7123C51.4988 22.5122 51.3654 22.3787 51.2319 22.1785C49.1635 20.1768 46.8949 18.5087 44.4261 17.1075C42.8247 16.2401 46.628 15.9065 47.0283 15.8398C47.7623 15.7731 48.563 15.7063 49.2969 15.5729C50.8316 15.4394 52.2995 15.2393 53.8341 15.1058C63.9094 14.0383 73.918 13.1041 84.06 12.6371C86.6622 12.5036 89.1977 12.4369 91.7999 12.3034C92.7341 12.2367 93.6682 12.2367 94.6023 12.17C105.612 11.7696 116.554 11.6362 127.564 11.7029C128.765 11.7029 129.966 11.7029 131.167 11.7029C140.909 11.8364 150.65 12.1033 160.392 12.5703C161.326 12.6371 162.26 12.6371 163.261 12.7038C165.196 12.8372 167.064 12.9039 168.932 13.0374C171.668 13.2376 174.404 13.4377 177.073 13.7046C178.674 13.8381 180.209 13.9715 181.81 14.105C187.015 14.572 192.219 15.1058 197.424 15.7063C197.757 15.7731 201.627 16.04 200.026 16.9741C198.024 18.1084 196.156 19.3761 194.421 20.9108C194.021 21.2444 193.62 21.6447 193.22 22.0451C193.086 22.1785 192.886 22.3787 192.753 22.5789C192.553 22.9792 192.553 23.4463 192.619 23.9134C192.953 26.9826 194.821 29.785 197.09 32.1204C197.757 32.8543 198.491 33.4548 199.292 34.0554C199.826 34.4557 200.359 34.9228 200.893 35.2564C204.763 37.8586 209.234 39.5934 213.838 40.5943C213.904 40.5943 213.971 40.661 214.038 40.661C216.707 41.2615 219.576 41.5284 222.178 40.7944C222.445 40.7277 222.712 40.661 222.979 40.5276C223.246 40.3941 223.579 40.2607 223.713 39.9938C223.913 39.6601 223.579 38.9262 223.312 38.3924C223.246 38.3257 223.246 38.2589 223.246 38.1922C223.179 38.0588 223.112 37.9253 223.112 37.7919C222.845 36.9245 222.512 35.9903 222.311 35.0562C222.178 34.5224 222.045 33.9886 222.178 33.4548C222.445 32.6542 226.515 32.8543 227.249 32.9211C229.384 32.9878 231.453 33.0545 233.588 33.0545C233.788 33.8552 233.921 34.7226 234.122 35.5233C234.255 36.1905 234.388 36.8577 234.589 37.4583C234.655 37.6584 234.722 37.9253 234.722 38.1255C234.989 39.1264 235.189 40.1939 235.456 41.1948C236.057 43.6636 236.657 46.1323 237.324 48.6011C237.725 50.069 238.125 51.6037 238.525 53.0716C238.792 53.6054 238.926 54.0725 238.859 54.4728Z" fill="url(#paint1_radial_9_9958)"/>
<path d="M238.859 54.4728C238.792 54.8064 238.659 55.0733 238.459 55.3402C237.191 57.4754 235.456 59.2769 233.454 60.6781C231.986 61.679 230.852 61.6122 229.051 61.6122C212.503 61.679 196.022 61.6122 179.542 61.6122C176.472 61.6122 173.403 61.6122 170.267 61.6122C163.728 61.6122 157.189 61.5455 150.65 61.5455C147.514 61.5455 144.378 61.5455 141.242 61.5455C137.105 61.5455 132.902 61.5455 128.765 61.5455C109.815 61.5455 90.7991 61.5455 71.8495 61.6122H71.3825C68.1797 61.6122 64.977 61.6122 61.7743 61.6122C46.4945 61.679 31.2148 61.679 15.9351 61.6122C14.1336 61.6122 12.9992 61.679 11.5313 60.6781C9.46289 59.2769 7.7948 57.4754 6.52705 55.3402C6.3936 55.0733 6.19343 54.8064 6.1267 54.4728C6.05998 54.0725 6.19344 53.6721 6.26016 53.2718C7.12757 50.2025 7.92826 47.1332 8.66222 43.9972C8.79566 43.4634 8.92912 42.8629 9.06256 42.2624C9.46291 40.7944 9.79651 39.2598 10.1301 37.7252C10.4637 36.1905 10.7974 34.6559 11.131 33.1212C13.1327 33.0545 15.2011 32.9878 17.2696 32.9878C18.0035 32.9878 22.0737 32.7209 22.3406 33.5216C22.5407 34.0554 22.4073 34.5891 22.2071 35.1229C21.9402 36.0571 21.6733 36.9245 21.4064 37.8586C21.4064 37.8586 21.4064 37.9253 21.3397 37.992C21.1395 38.5258 20.539 39.6601 20.7392 40.1272C20.8727 40.3941 21.2063 40.5275 21.4732 40.661C21.6733 40.7277 21.8735 40.7944 22.007 40.8612C24.7426 41.7286 27.7452 41.395 30.6143 40.7277C34.551 39.8603 38.3542 38.4591 41.8239 36.4574C42.4244 36.1238 42.9582 35.7902 43.492 35.3898C43.6254 35.3231 43.7589 35.1897 43.8923 35.1229C47.4954 32.5874 51.2987 28.584 51.7657 24.0468C51.8324 23.5797 51.8324 23.1127 51.6323 22.7123C51.4988 22.5122 51.3654 22.3787 51.2319 22.1785C49.1635 20.1768 46.8949 18.5087 44.4261 17.1075C42.8247 16.2401 46.628 15.9065 47.0283 15.8398C47.7623 15.7731 48.563 15.7063 49.2969 15.5729C50.8316 15.4394 52.2995 15.2393 53.8341 15.1058C63.9094 14.0383 73.918 13.1041 84.06 12.6371C86.6622 12.5036 89.1977 12.4369 91.7999 12.3034C92.7341 12.2367 93.6682 12.2367 94.6023 12.17C105.612 11.7696 116.554 11.6362 127.564 11.7029C128.765 11.7029 129.966 11.7029 131.167 11.7029C140.909 11.8364 150.65 12.1033 160.392 12.5703C161.326 12.6371 162.26 12.6371 163.261 12.7038C165.196 12.8372 167.064 12.9039 168.932 13.0374C171.668 13.2376 174.404 13.4377 177.073 13.7046C178.674 13.8381 180.209 13.9715 181.81 14.105C187.015 14.572 192.219 15.1058 197.424 15.7063C197.757 15.7731 201.627 16.04 200.026 16.9741C198.024 18.1084 196.156 19.3761 194.421 20.9108C194.021 21.2444 193.62 21.6447 193.22 22.0451C193.086 22.1785 192.886 22.3787 192.753 22.5789C192.553 22.9792 192.553 23.4463 192.619 23.9134C192.953 26.9826 194.821 29.785 197.09 32.1204C197.757 32.8543 198.491 33.4548 199.292 34.0554C199.826 34.4557 200.359 34.9228 200.893 35.2564C204.763 37.8586 209.234 39.5934 213.838 40.5943C213.904 40.5943 213.971 40.661 214.038 40.661C216.707 41.2615 219.576 41.5284 222.178 40.7944C222.445 40.7277 222.712 40.661 222.979 40.5276C223.246 40.3941 223.579 40.2607 223.713 39.9938C223.913 39.6601 223.579 38.9262 223.312 38.3924C223.246 38.3257 223.246 38.2589 223.246 38.1922C223.179 38.0588 223.112 37.9253 223.112 37.7919C222.845 36.9245 222.512 35.9903 222.311 35.0562C222.178 34.5224 222.045 33.9886 222.178 33.4548C222.445 32.6542 226.515 32.8543 227.249 32.9211C229.384 32.9878 231.453 33.0545 233.588 33.0545C233.788 33.8552 233.921 34.7226 234.122 35.5233C234.255 36.1905 234.388 36.8577 234.589 37.4583C234.655 37.6584 234.722 37.9253 234.722 38.1255C234.989 39.1264 235.189 40.1939 235.456 41.1948C236.057 43.6636 236.657 46.1323 237.324 48.6011C237.725 50.069 238.125 51.6037 238.525 53.0716C238.792 53.6054 238.926 54.0725 238.859 54.4728Z" fill="#F8FD00"/>
<path d="M113.285 57.4086C118.89 59.1435 124.695 60.3445 130.366 61.9459C129.499 61.679 128.431 61.7457 127.497 61.7457C126.429 61.679 125.362 61.679 124.361 61.679C122.226 61.679 120.091 61.679 117.889 61.7457C119.09 61.6122 120.291 61.3453 121.492 60.8783C118.556 59.744 115.62 58.5429 112.751 57.2085C112.885 57.2752 113.085 57.3419 113.285 57.4086Z" fill="url(#paint2_linear_9_9958)"/>
<path d="M20.539 46.7996C18.0035 45.9989 15.4013 45.1982 12.8658 44.3975C11.5981 43.9972 10.2636 43.797 9.06258 43.2632C8.72896 44.5977 8.32861 45.9989 7.995 47.3334C8.19517 46.5994 8.92913 46.0656 9.72981 45.9322C11.3312 45.5318 13.5998 45.9322 15.2011 45.9989C16.936 45.9989 18.8042 46.1991 20.539 46.7996Z" fill="url(#paint3_linear_9_9958)"/>
<path d="M237.524 48.7346C237.524 48.8013 237.524 48.868 237.524 48.868C236.991 47.4001 236.457 45.8654 235.923 44.3975C235.856 44.1306 235.723 43.8637 235.456 43.7303C235.189 43.5968 234.855 43.6636 234.589 43.797C232.587 44.5977 230.652 45.4651 228.784 46.466C230.585 45.4651 232.32 44.531 234.121 43.5301C235.122 42.9963 235.723 42.3958 235.723 41.2615C236.257 43.797 236.857 46.2658 237.524 48.7346Z" fill="url(#paint4_linear_9_9958)"/>
<path d="M12.1986 45.1982C11.4646 45.0648 10.7307 44.998 9.99669 45.1982C9.06256 45.3984 8.72895 45.9322 8.39533 46.7329C7.59465 48.4677 6.92741 50.2692 6.39362 52.0707C6.26017 52.6045 6.12671 53.1383 6.12671 53.6721C6.19343 56.0074 8.52877 58.0092 10.2636 59.2102C8.52877 58.0092 7.32775 56.0074 6.99413 53.8723C6.79396 52.4044 7.06085 50.8697 7.66137 49.5352C8.19516 48.4009 8.66221 47.0665 9.79651 46.466C10.7306 45.9989 11.7982 45.9989 12.7991 46.0656C15.8684 46.1991 19.0044 46.5327 22.007 46.9997C18.7375 46.466 15.468 45.7987 12.1986 45.1982Z" fill="#E6C9C3"/>
<path d="M235.856 44.998C236.457 45.732 236.79 46.9997 236.991 47.7337C237.391 49.2016 237.858 50.6696 238.258 52.1375C238.459 52.738 238.592 53.3385 238.525 53.939C238.459 54.8064 237.858 55.6071 237.391 56.2743C235.723 58.4762 233.988 60.8116 231.386 61.679C232.72 61.0784 234.122 60.4112 235.323 59.5438C236.524 58.6764 237.591 57.5421 238.125 56.1409C238.992 53.8723 238.325 51.3368 237.658 49.0015C237.258 47.4668 236.79 45.9322 236.39 44.3975C236.323 44.1306 236.19 43.797 235.923 43.6636C235.389 43.3299 233.855 43.9972 233.254 44.2641C232.187 44.7311 231.319 45.3317 230.185 45.6653C231.252 45.3317 232.32 45.0648 233.388 44.7311C233.988 44.5977 234.589 44.3975 235.122 44.531C235.389 44.5977 235.656 44.7979 235.856 44.998Z" fill="#E6C9C3"/>
<path d="M73.184 61.2786C88.4637 61.679 103.81 61.4121 119.023 60.5447C118.423 60.211 117.755 59.8774 117.155 59.5438C118.823 59.6772 120.358 60.3445 121.559 61.3453C103.81 62.88 85.9949 62.146 68.1797 61.3453C70.8486 60.945 73.651 60.945 76.32 61.3453L73.184 61.2786Z" fill="#E6C9C3"/>
<path d="M226.782 61.4788C224.513 61.2786 222.245 61.4121 219.976 61.4121C216.64 61.4121 213.37 61.4788 210.034 61.4788C200.559 61.5455 191.151 61.5455 181.677 61.4788C167.064 61.3453 152.252 60.4112 137.639 61.5455C137.639 61.5455 137.439 61.6122 137.506 61.6122C144.111 62.2795 150.917 61.8791 157.589 61.8791C165.263 61.8791 173.003 61.7457 180.676 61.679C187.682 61.6122 194.754 61.6122 201.76 61.6122C206.498 61.6122 211.169 61.6122 215.906 61.679C218.241 61.679 220.643 61.679 222.979 61.679C225.047 61.679 227.249 61.3453 229.317 61.7457C228.517 61.6122 227.649 61.5455 226.782 61.4788Z" fill="#E6C9C3"/>
<path d="M54.0343 61.6122C50.2311 61.7457 46.4278 61.8124 42.5578 61.8124C40.2225 61.8124 37.8204 61.8124 35.4851 61.7457C34.4175 61.7457 33.2832 61.5455 32.2157 61.679C31.0814 61.8124 29.947 61.8124 28.8127 61.8124C27.6117 61.7457 26.344 61.6122 25.1429 61.6122C27.2114 61.0784 29.4133 61.2119 31.4817 61.2786C32.5493 61.3453 33.6169 61.3453 34.7512 61.2786C35.752 61.2119 36.6862 61.0117 37.687 60.945C38.0206 60.8783 38.3542 60.7448 38.6879 60.6781C39.0215 60.6114 39.4218 60.6781 39.6887 60.8783C39.8222 61.0117 39.9556 61.1452 40.0891 61.2119C40.2892 61.3453 40.4894 61.2786 40.6896 61.2786C42.8915 61.2119 45.0266 61.2119 47.2285 61.2786C49.5638 61.4121 51.7657 61.4788 54.0343 61.6122Z" fill="#E6C9C3"/>
<path d="M21.4731 37.9921C17.7365 37.3248 13.9333 37.2581 10.1968 37.7252C10.5304 36.1905 10.864 34.6559 11.1976 33.1212C13.1993 33.0545 15.2678 32.9878 17.3362 32.9878C18.0702 32.9878 22.1403 32.7209 22.4072 33.5216C22.6074 34.0554 22.4739 34.5892 22.2738 35.1229C22.0069 36.0571 21.74 36.9245 21.4731 37.8586C21.5398 37.9253 21.5398 37.9253 21.4731 37.9921Z" fill="#CDBFDE"/>
<path d="M194.621 21.111C187.682 19.9767 180.676 19.5763 173.67 19.1093C133.169 16.6405 92.2669 14.2384 52.2994 21.4446C55.4354 21.9784 57.1703 25.8483 56.4363 28.9176C55.7023 32.0536 53.3003 34.4557 50.8315 36.5241C42.5578 43.4634 30.8144 48.3342 21.0728 43.6636C21.3396 42.6627 21.74 41.7953 22.207 40.8612C24.9427 41.7286 27.9453 41.395 30.8144 40.7277C34.7511 39.8603 38.5544 38.4591 42.024 36.4574C42.6245 36.1238 43.1583 35.7902 43.6921 35.3898C43.8255 35.3231 43.959 35.1897 44.0924 35.1229C47.6955 32.5874 51.4987 28.584 51.9658 24.0468C52.0325 23.5797 52.0325 23.1127 51.8324 22.7123C51.6989 22.5122 51.5655 22.3787 51.432 22.1785C49.3636 20.1768 47.095 18.5087 44.6262 17.1075C43.0248 16.2401 46.8281 15.9065 47.2284 15.8398C47.9624 15.7731 48.7631 15.7063 49.497 15.5729C51.0317 15.4394 52.4996 15.2393 54.0342 15.1058C64.1095 14.0383 74.1181 13.1041 84.2601 12.6371C86.8623 12.5036 89.3978 12.4369 92 12.3034C92.9342 12.2367 93.8683 12.2367 94.8024 12.17C105.812 11.7696 116.754 11.6362 127.764 11.7029C128.965 11.7029 130.166 11.7029 131.367 11.7029C141.109 11.8364 150.85 12.1033 160.592 12.5703C161.526 12.6371 162.46 12.6371 163.461 12.7038C165.396 12.8372 167.264 12.9039 169.133 13.0374C171.868 13.2376 174.604 13.4377 177.273 13.7046C178.874 13.8381 180.409 13.9715 182.01 14.105C187.215 14.572 192.419 15.1058 197.624 15.7063C197.957 15.7731 201.827 16.04 200.226 16.9741C198.224 18.2418 196.289 19.5763 194.621 21.111Z" fill="#CDBFDE"/>
<path d="M222.912 42.1289C223.045 42.4625 223.179 42.8629 223.179 43.1965C223.179 47.4668 215.038 46.3992 212.703 45.8654C206.965 44.5977 201.56 42.0622 196.89 38.4591C193.887 36.1905 191.151 33.1879 190.551 29.5181C190.151 27.0494 191.151 24.3137 192.953 22.7123C192.753 23.1127 192.753 23.5797 192.819 24.0468C193.153 27.1161 195.021 29.9185 197.29 32.2538C197.957 32.9878 198.691 33.5883 199.492 34.1888C200.026 34.5891 200.559 35.0562 201.093 35.3898C204.963 37.992 209.434 39.7269 214.038 40.7277C214.104 40.7277 214.171 40.7944 214.238 40.7944C216.907 41.395 219.776 41.6619 222.378 40.9279C222.578 41.3282 222.712 41.7286 222.912 42.1289Z" fill="#CDBFDE"/>
<path d="M234.922 38.2589C231.119 37.992 227.249 37.992 223.446 38.2589C223.379 38.1255 223.312 37.992 223.312 37.8586C223.045 36.9912 222.712 36.0571 222.512 35.1229C222.378 34.5891 222.245 34.0554 222.378 33.5216C222.645 32.7209 226.715 32.921 227.449 32.9878C229.584 33.0545 231.653 33.1212 233.788 33.1212C233.988 33.9219 234.122 34.7893 234.322 35.59C234.455 36.2572 234.589 36.9245 234.789 37.525C234.789 37.7919 234.855 38.0588 234.922 38.2589Z" fill="#CDBFDE"/>
<path d="M243.73 18.8424C243.129 18.442 242.395 18.3753 241.728 18.3753C237.591 18.1084 233.454 18.1751 229.384 18.5087C227.316 18.7089 225.247 18.9091 223.112 19.2427C221.978 19.4429 220.91 19.5763 219.776 19.8432C218.642 20.1101 217.707 20.5772 216.907 21.4446C216.506 21.8449 216.173 22.2453 215.839 22.7123C215.506 23.1127 215.239 23.4463 215.439 23.9801C216.039 25.7149 217.04 27.3163 217.774 28.9844C218.241 30.1187 218.575 31.3864 218.775 32.6542C216.173 33.1212 213.437 32.7876 210.902 32.1204C208.766 31.5866 206.698 30.5857 205.23 28.9176C204.029 27.5832 203.495 25.6482 203.629 23.9134C203.629 23.6465 203.695 23.4463 203.695 23.2461C205.097 22.5789 207.032 22.7123 208.633 23.1127C208.833 23.1794 209.033 23.2461 209.234 23.1127C209.434 23.046 209.634 22.7123 209.834 22.5789C210.034 22.3787 210.234 22.1118 210.435 21.9116C211.769 20.3103 212.77 18.3753 213.504 16.3736C214.305 14.4386 214.838 12.3702 214.972 10.235C215.038 9.3676 215.039 8.50019 214.905 7.63278C214.838 7.09899 214.772 6.63193 214.371 6.23158C214.104 5.96469 213.637 5.89796 213.304 5.76452C204.229 3.82953 195.021 2.82868 185.747 2.36161C169.867 1.56093 153.92 0.960413 138.039 0.560071C111.684 -0.107166 85.2609 1.09386 58.9051 2.36161C49.6305 2.82868 40.4894 3.82953 31.3482 5.76452C30.9479 5.83124 30.5475 5.96469 30.2806 6.23158C29.8803 6.5652 29.8136 7.09899 29.7469 7.63278C29.2131 12.1033 30.9479 16.6405 33.1497 20.4437C33.6835 21.3111 34.4175 22.0451 35.0847 22.8458C35.3516 23.1794 35.6185 23.2461 36.0189 23.1794C37.6202 22.7791 39.5552 22.6456 40.9564 23.3128C41.0231 23.513 41.0232 23.7799 41.0232 23.9801C41.1566 25.7816 40.6228 27.6499 39.4218 28.9844C37.9539 30.6524 35.8854 31.6533 33.7503 32.1871C31.2148 32.8543 28.4791 33.1879 25.8769 32.7209C26.077 31.4531 26.4107 30.2521 26.8777 29.1178C27.6117 27.383 28.6125 25.8483 29.2131 24.1135C29.3465 23.6465 29.2131 23.4463 28.9462 23.0459C28.6125 22.5789 28.2789 22.1785 27.8786 21.7782C27.545 21.4446 27.2781 21.0442 26.8777 20.7773C25.4098 19.8432 23.2746 19.643 21.6066 19.3761C19.5381 19.0425 17.4697 18.7756 15.3345 18.6422C11.1977 18.3086 7.12752 18.2418 2.99065 18.5087C2.32342 18.5755 1.58946 18.6422 0.988944 18.9758C-0.212082 19.7765 -0.0119069 21.4446 0.0548168 22.7123C0.12154 24.3137 0.254972 25.9151 0.455143 27.5164C0.722037 29.318 0.655326 31.5199 1.9898 32.9211C2.45687 33.3881 2.85721 33.8552 3.391 34.2555C3.85807 34.6559 4.39185 35.1897 4.92564 35.4566C5.45943 35.7234 6.05994 35.7234 6.66046 35.7234C8.92906 35.7234 11.2644 35.6567 13.533 35.6567C15.5347 35.59 17.5364 35.59 19.5381 35.5233C19.9385 35.5233 21.1395 35.4566 22.2738 35.4566C22.0069 36.324 21.74 37.1914 21.4731 38.0588C21.3397 38.3924 21.2062 38.726 21.0728 39.0596C20.9393 39.3932 20.7391 39.7936 20.8059 40.1272C20.8726 40.5276 21.2729 41.0613 21.5398 41.3282C22.2071 42.1289 23.1412 42.8629 24.142 43.2632C25.2096 43.6636 26.3439 43.797 27.4782 43.8637C29.2798 43.9305 31.0813 43.6636 32.8161 43.2632C37.2866 42.2624 41.6904 40.5276 45.4269 37.9253C49.0967 35.3898 53.0334 31.253 53.5672 26.5823C53.6339 25.7816 53.4338 25.1144 53.0334 24.4471C52.5663 23.7132 52.0326 23.046 51.432 22.4454C50.0309 21.0442 48.4962 19.8432 46.8281 18.7089C47.6288 18.5087 48.6296 18.442 48.8298 18.3753C60.9068 17.0408 72.9171 15.7731 85.0608 15.1726C109.949 13.9715 134.903 13.9715 159.725 15.1726C171.868 15.7731 183.879 17.0408 195.956 18.3753C196.156 18.3753 197.157 18.5087 197.957 18.7089C196.289 19.7765 194.755 21.0442 193.353 22.4454C193.02 22.7791 192.82 23.1794 192.553 23.513C192.286 23.9134 192.019 24.3137 191.752 24.714C191.552 24.9809 191.352 25.2478 191.285 25.6482C191.218 25.9818 191.218 26.3154 191.285 26.5823C191.819 31.253 195.755 35.3898 199.425 37.9253C203.228 40.5276 207.632 42.2624 212.036 43.2632C214.972 43.9305 218.175 44.3308 220.977 43.1965C221.978 42.7962 222.845 41.862 223.512 41.0613C223.713 40.7944 223.979 40.3941 223.979 40.0605C223.979 39.3932 223.446 38.7927 223.246 38.1922C222.979 37.3248 222.712 36.4574 222.445 35.59C223.579 35.5233 224.78 35.59 225.18 35.6567C227.249 35.7234 229.317 35.7902 231.386 35.7902C233.588 35.8569 235.79 35.8569 238.058 35.8569C238.525 35.8569 238.992 35.8569 239.459 35.7234C239.86 35.59 240.26 35.2564 240.594 34.9895C241.595 34.2555 242.796 33.2547 243.329 32.0536C243.796 30.9861 243.93 29.785 244.063 28.6507C244.13 28.3171 244.13 27.9168 244.197 27.5832C244.464 25.9818 244.597 24.3804 244.664 22.7791C244.664 21.3111 244.931 19.5763 243.73 18.8424Z" fill="url(#paint5_linear_9_9958)"/>
<path d="M244.664 22.5122C244.664 22.7791 244.664 22.9792 244.664 23.2461C244.664 23.9134 244.597 24.5806 244.53 25.2478C244.464 25.9151 244.397 26.5823 244.263 27.3163C244.263 27.5164 244.197 27.7166 244.197 27.9168C244.13 28.4506 244.063 29.1178 243.997 29.7183C243.997 29.8518 243.93 29.9185 243.93 30.0519C243.663 31.3197 243.263 32.5207 242.395 32.9878C241.861 33.2547 241.261 33.2547 240.66 33.2547C238.392 33.2547 236.123 33.188 233.855 33.188C232.587 33.188 231.386 33.1212 230.118 33.1212C229.784 33.1212 229.451 33.1212 229.117 33.1212C228.583 33.1212 228.05 33.1212 227.449 33.0545C226.715 33.0545 222.645 32.7876 222.378 33.5883C222.178 34.1221 222.311 34.6559 222.511 35.1897C222.778 36.1238 223.045 36.9912 223.312 37.9253C223.446 38.3924 224.246 39.7269 223.979 40.1939C223.846 40.4608 223.512 40.5943 223.245 40.7277C222.111 41.1948 220.91 41.395 219.642 41.4617C218.508 41.5284 217.374 41.395 216.173 41.2615C215.439 41.1281 214.772 40.9946 214.038 40.8612C213.904 40.8612 213.837 40.7944 213.704 40.7944C213.103 40.661 212.503 40.5276 211.969 40.3274C211.902 40.3274 211.836 40.2607 211.702 40.2607C210.101 39.7936 208.566 39.2598 207.032 38.6593C204.963 37.7919 202.961 36.791 201.093 35.5233C198.825 33.9886 196.423 31.7868 194.754 29.318C194.621 29.1845 194.554 29.0511 194.488 28.8509C193.754 27.6499 193.22 26.3154 192.953 24.9809C192.886 24.714 192.886 24.4471 192.819 24.1803V24.1135C192.753 23.7132 192.753 23.2461 192.953 22.8458C193.086 22.6456 193.22 22.5122 193.353 22.312C195.355 20.3103 197.69 18.6422 200.159 17.241C201.76 16.3736 197.957 16.04 197.624 15.9732C195.422 15.7063 193.153 15.5062 190.951 15.2393C190.951 15.2393 190.951 15.2393 190.884 15.2393C182.878 14.3719 174.871 13.6379 166.864 13.1041H166.664C164.662 12.9707 162.66 12.8372 160.659 12.7705C155.654 12.5036 150.65 12.3702 145.646 12.17C139.974 12.0365 134.303 11.9031 128.698 11.8364C118.89 11.7696 109.081 11.8364 99.2729 12.17C95.5363 12.3034 91.7998 12.4369 88.0633 12.5703C86.8623 12.6371 85.5945 12.7038 84.3935 12.7038C71.9829 13.3043 59.7057 14.572 47.3619 15.9065C47.0282 15.9732 43.1583 16.2401 44.8263 17.1743C47.2951 18.5755 49.5637 20.2436 51.6322 22.2453C51.7656 22.3787 51.9658 22.5789 52.0325 22.7791C52.2327 23.1794 52.2327 23.6465 52.166 24.1135C52.0325 25.6482 51.432 27.1161 50.698 28.4506C50.0975 29.5181 49.2968 30.519 48.4962 31.5199C47.095 33.0545 45.4936 34.389 43.8922 35.4566C42.9581 36.0571 42.024 36.6576 41.0898 37.1246C39.6886 37.8586 38.2207 38.5258 36.7528 39.0596C34.8845 39.7936 32.9495 40.3274 31.0146 40.7944C28.012 41.4617 24.7425 41.862 21.8734 40.7277C21.6065 40.5943 21.2729 40.4608 21.1394 40.1939C20.8725 39.7269 21.6065 38.4591 21.8067 37.9253C22.0736 37.0579 22.3405 36.1238 22.6074 35.1897C22.7408 34.6559 22.8743 34.1221 22.7408 33.5883C22.4739 32.7876 18.4038 32.9878 17.6698 33.0545C15.6014 33.1212 13.5997 33.188 11.5312 33.188C9.19591 33.2547 6.86058 33.2547 4.52525 33.2547C3.92474 33.2547 3.32422 33.2547 2.79043 32.9878C1.8563 32.5207 1.45596 31.1195 1.18907 29.785C1.12234 29.4514 1.12236 29.1845 1.05563 28.8509C0.988909 28.5173 0.988901 28.117 0.922177 27.8501C0.922177 27.7833 0.922177 27.7166 0.922177 27.5832C0.922177 27.4497 0.922173 27.383 0.855449 27.3163C0.855449 27.1828 0.788721 27.1161 0.788721 26.9826C0.788721 26.8492 0.788738 26.7158 0.722014 26.5823C0.588567 25.6482 0.521827 24.6473 0.455103 23.6465C0.455103 23.3128 0.388396 22.9792 0.388396 22.6456C0.388396 22.5789 0.388396 22.5122 0.388396 22.4454V22.3787C0.388396 22.312 0.388396 22.2453 0.388396 22.1785C0.321672 20.9775 0.188221 19.4429 1.32252 18.7089C1.92304 18.3086 2.657 18.2418 3.32423 18.2418C7.4611 17.975 11.598 18.0417 15.6681 18.3753C17.7365 18.5755 19.805 18.8424 21.9401 19.1093C23.6082 19.3762 25.7434 19.5763 27.2113 20.5105C27.3447 20.5772 27.5449 20.7106 27.6116 20.9108C27.6784 21.111 27.6116 21.3111 27.5449 21.5113C27.4115 21.8449 27.278 22.1785 27.1446 22.5122C26.811 23.3128 26.3439 24.1135 25.9436 24.9142C25.8768 24.9809 25.8768 25.0477 25.8101 25.1144C25.7434 25.2478 25.6767 25.3813 25.6099 25.5147C25.5432 25.7149 25.4098 25.9151 25.343 26.1152C25.2763 26.2487 25.2096 26.3154 25.2096 26.4489C24.876 27.1828 24.6758 27.8501 24.4756 28.6507C24.2755 29.318 24.142 30.0519 24.0753 30.7192V30.7859C24.0753 30.9861 24.0753 31.1862 24.142 31.3864C24.2755 31.7867 24.7425 31.9869 25.2096 32.1204C27.4115 32.7876 29.7468 32.7209 32.0154 32.3205C32.7494 32.1871 33.4833 32.0536 34.2173 31.8535C35.0847 31.6533 35.9521 31.3197 36.7528 30.9193C37.9538 30.3856 39.0214 29.5849 39.8888 28.6507C39.9555 28.584 40.0223 28.5173 40.089 28.4506C40.8229 27.5164 41.29 26.3821 41.4235 25.2478C41.4902 24.714 41.4902 24.1803 41.4902 23.6465C41.4234 22.8458 41.2233 22.1785 40.8897 21.7115C39.6219 19.9099 36.8195 19.9767 34.6176 20.5105C34.4175 20.5772 34.2173 20.6439 34.0171 20.5105C33.817 20.4437 33.7502 20.2436 33.6168 20.1101C32.0821 17.5079 30.8144 14.5053 30.3473 11.5028C30.3473 11.3693 30.2806 11.1691 30.2806 10.969C30.2806 10.9022 30.2806 10.9022 30.2806 10.8355C30.2139 10.5686 30.2139 10.3017 30.2139 10.0348C30.1471 9.1007 30.1471 8.23329 30.2806 7.29916C30.3473 6.76537 30.414 6.29831 30.8144 5.89796C31.0813 5.63107 31.5483 5.56435 31.882 5.4309C35.9521 4.56349 40.0223 3.89625 44.0924 3.36247H44.1591C49.2301 2.69523 54.3011 2.29489 59.4389 2.02799C60.7066 1.96127 61.9076 1.89454 63.1754 1.82782C78.1215 1.09386 93.0676 0.426624 108.014 0.159729C108.681 0.159729 109.348 0.159728 110.015 0.093004C119.49 -0.0404434 129.032 -0.0404419 138.506 0.159729C138.707 0.159729 138.907 0.159729 139.107 0.159729C141.576 0.226453 144.111 0.293176 146.58 0.3599C157.79 0.693518 168.932 1.16058 180.142 1.62765C182.144 1.7611 184.145 1.82782 186.147 1.96127C186.681 1.96127 187.215 2.02799 187.748 2.02799C192.286 2.29489 196.756 2.69523 201.227 3.22902C203.095 3.49591 205.03 3.76281 206.898 4.0297C209.167 4.36332 211.435 4.83038 213.637 5.29745C214.038 5.36417 214.438 5.49762 214.772 5.76452C215.105 6.09814 215.239 6.63193 215.305 7.16572C215.372 8.03312 215.439 8.96725 215.372 9.90139C215.372 9.96811 215.372 10.0348 215.372 10.1016C215.305 10.8355 215.239 11.5695 215.038 12.2367C214.705 13.7714 214.171 15.3727 213.504 16.7739C213.037 17.8415 212.503 18.9091 211.902 19.9099C211.836 20.0434 211.702 20.2436 211.502 20.3103C211.302 20.377 211.102 20.3103 210.902 20.3103C208.633 19.7765 205.764 19.7098 204.563 21.5113C204.296 21.9116 204.096 22.4454 204.029 23.0459C204.029 23.1794 204.029 23.2461 203.962 23.3796C203.896 24.3804 204.029 25.3813 204.363 26.3154C204.63 27.1161 205.03 27.7833 205.564 28.3838C207.032 29.9852 209.1 31.0528 211.235 31.5866H211.302C213.37 32.1204 215.572 32.454 217.774 32.2538C218.575 32.1871 219.442 32.0536 220.243 31.7868C220.643 31.6533 221.11 31.4531 221.31 31.0528C221.377 30.8526 221.377 30.6525 221.31 30.4523C221.244 30.0519 221.177 29.6516 221.177 29.318C220.977 28.2504 220.643 27.2495 220.243 26.2487V26.182C219.909 25.3813 219.509 24.5806 219.042 23.8466C219.042 23.7799 218.975 23.7132 218.975 23.6465C218.575 22.8458 218.174 22.0451 217.841 21.1777C217.774 20.9775 217.707 20.7773 217.774 20.5772C217.841 20.377 217.974 20.3103 218.174 20.1768C219.642 19.2427 221.778 19.0425 223.446 18.7756C225.514 18.442 227.583 18.1751 229.651 18.0417C233.788 17.7081 237.858 17.6413 241.995 17.9082C242.662 17.975 243.396 18.0417 243.997 18.3753C244.931 19.5763 244.664 21.3111 244.664 22.5122Z" fill="url(#paint6_linear_9_9958)"/>
<path d="M78.5885 10.7688C83.059 11.1691 87.5295 11.6362 91.7998 12.9707C90.6655 12.6371 89.0641 12.8372 87.9298 12.8372C86.929 12.8372 85.5278 13.1709 84.5936 12.7705C84.5936 12.7038 84.6604 12.7038 84.6604 12.7038C82.7254 11.9698 80.6569 11.3693 78.5885 10.7688Z" fill="url(#paint7_linear_9_9958)"/>
<path d="M213.704 40.661C213.103 40.5276 212.503 40.3941 211.969 40.1939C211.902 40.1939 211.836 40.1272 211.702 40.1272C211.836 39.9938 211.836 39.7269 211.902 39.5267C212.036 38.5926 211.969 37.6584 211.836 36.7243C212.369 38.0588 212.97 39.3933 213.704 40.661Z" fill="url(#paint8_linear_9_9958)"/>
<path d="M27.3448 21.6448C27.2113 21.9784 27.0779 22.312 26.9444 22.6456C26.6108 23.4463 26.1437 24.247 25.7434 25.0477C25.9436 24.1135 26.1437 23.1127 26.2772 22.1118C24.6758 20.7106 22.4072 20.3103 20.272 20.0434C16.2686 19.5096 12.2652 19.2427 8.26178 19.5763C6.19335 19.7098 4.0582 20.1101 2.05649 20.5772C1.5227 20.7106 0.922177 20.9108 0.588559 21.3779C0.321664 21.8449 0.321672 22.3787 0.388396 22.9125C0.521843 24.1803 0.788738 25.5815 0.722014 26.8492C0.722014 27.0494 0.655282 27.3163 0.588559 27.5164C0.588559 27.383 0.588555 27.3163 0.521831 27.2495C0.521831 27.1161 0.521827 27.0494 0.455103 26.9159C0.455103 26.7825 0.45512 26.649 0.388396 26.5156C0.254949 25.5815 0.188209 24.5806 0.121485 23.5797C0.121485 23.2461 0.0547775 22.9125 0.0547775 22.5789C0.0547775 22.5122 0.0547775 22.4454 0.0547775 22.3787V22.312C0.0547775 22.2453 0.0547775 22.1785 0.0547775 22.1118C-0.0119462 20.9108 -0.145398 19.3761 0.988905 18.6422C1.58942 18.2418 2.32338 18.1751 2.99062 18.1751C7.12748 17.9082 11.2644 17.975 15.3345 18.3086C17.4029 18.5087 19.4714 18.7089 21.6065 19.0425C23.2746 19.3094 25.4098 19.5096 26.8777 20.4437C27.0111 20.5105 27.2113 20.6439 27.278 20.8441C27.4782 21.2444 27.4115 21.4446 27.3448 21.6448Z" fill="url(#paint9_linear_9_9958)"/>
<path d="M37.5535 32.5874C34.8178 34.3222 31.4817 34.856 28.2122 34.856C26.9445 34.856 25.61 34.7893 24.6759 33.9886C23.8084 33.3214 23.3414 31.9869 23.8084 30.9193V30.9861C23.8084 31.1862 23.7417 31.3864 23.8084 31.5866C23.9419 31.9869 24.409 32.1871 24.876 32.3205C27.0779 32.9878 29.4132 32.9211 31.6818 32.5207C32.4158 32.3873 33.1498 32.2538 33.8837 32.0536C34.7511 31.8535 35.6185 31.5199 36.4192 31.1195C37.6203 30.5857 38.6878 29.785 39.5552 28.8509C39.622 28.7842 39.6887 28.7175 39.7554 28.6507C40.4894 27.7166 40.9564 26.5823 41.1566 25.448C41.2233 24.9142 41.2233 24.3804 41.2233 23.8466C41.1566 23.0459 40.9564 22.3787 40.6228 21.9116C41.3568 22.4454 41.7571 23.4463 41.8906 24.3804C42.2909 27.5832 40.2892 30.7859 37.5535 32.5874Z" fill="url(#paint10_linear_9_9958)"/>
<path d="M215.039 10.235C215.039 10.3017 215.039 10.3685 215.039 10.4352C214.972 11.1691 214.905 11.9031 214.705 12.5703C214.371 14.1717 213.837 15.7064 213.17 17.1743C213.17 15.9065 213.637 14.6388 213.837 13.371C214.104 11.8364 214.038 10.0348 212.837 9.03399C212.303 8.56692 211.569 8.36675 210.835 8.16658C204.763 6.56521 198.624 5.36419 192.286 5.16401C188.816 5.03057 185.28 4.5635 181.743 4.36333C177.807 4.16316 173.87 3.96299 169.933 3.82954C162.127 3.49592 154.32 3.1623 146.513 2.89541C138.64 2.62851 130.767 2.36162 122.826 2.16145C115.754 1.96128 108.681 2.42834 101.675 2.69524C81.2575 3.49592 60.9068 4.5635 40.5561 5.89797C38.0873 6.03142 35.5518 6.23159 33.2832 7.43262C31.0146 8.56692 30.4141 9.76795 30.0805 12.2367C29.8136 10.235 28.3457 6.29832 31.3482 5.63108C35.4184 4.76367 39.4885 4.09643 43.5587 3.56264H43.6254C48.6964 2.89541 53.7674 2.49507 58.8384 2.22817C60.1061 2.16145 61.3072 2.09472 62.5749 2.028C77.521 1.29404 92.4671 0.626804 107.413 0.359909C108.08 0.359909 108.748 0.359908 109.482 0.293184C118.956 0.159737 128.498 0.159738 137.973 0.359909C138.173 0.359909 138.373 0.359909 138.573 0.359909C141.042 0.426633 143.577 0.493356 146.046 0.56008C157.256 0.893698 168.399 1.36076 179.608 1.89455C181.61 1.96128 183.612 2.09472 185.613 2.22817C186.147 2.22817 186.681 2.29489 187.215 2.29489C191.752 2.56179 196.222 2.96213 200.693 3.49592C202.561 3.76282 204.496 4.02971 206.364 4.2966C208.633 4.69695 210.902 5.09729 213.104 5.56436C213.504 5.63108 213.904 5.76453 214.171 6.03142C214.571 6.36504 214.638 6.89883 214.705 7.43262C215.039 8.43347 215.105 9.36761 215.039 10.235Z" fill="url(#paint11_linear_9_9958)"/>
<path d="M221.044 32.8543C220.51 33.9219 219.309 34.3223 218.174 34.5892C212.636 35.7235 206.565 33.7217 202.761 29.5849C201.961 28.6507 201.16 27.5832 201.16 26.3821C201.16 25.3813 201.627 24.3804 202.361 23.5797C202.895 22.9792 203.629 22.4454 204.296 21.9784C204.029 22.3787 203.829 22.9125 203.762 23.513C203.762 23.6465 203.762 23.7132 203.695 23.8466C203.629 24.8475 203.762 25.8484 204.096 26.7825C204.363 27.5832 204.763 28.2504 205.297 28.8509C206.765 30.519 208.833 31.5199 210.968 32.0537H211.035C213.103 32.5874 215.305 32.9211 217.507 32.7209C218.308 32.6542 219.175 32.5207 219.976 32.2538C220.376 32.1204 220.843 31.9202 221.044 31.5199C221.11 31.3197 221.11 31.1195 221.044 30.9194C220.977 30.519 220.91 30.1187 220.91 29.7851C221.244 30.8526 221.511 31.9202 221.044 32.8543Z" fill="url(#paint12_linear_9_9958)"/>
<path d="M244.664 22.5122C244.664 22.7791 244.664 22.9792 244.664 23.2461C244.597 23.9134 244.597 24.5806 244.53 25.2478C244.464 25.9151 244.397 26.5823 244.263 27.3163C244.263 27.5164 244.197 27.7166 244.197 27.9168C244.13 28.4506 244.063 29.1178 243.997 29.7183C243.997 29.8518 243.93 29.9185 243.93 30.0519C243.396 28.8509 243.596 27.4497 243.663 26.1152C243.73 25.0477 243.796 23.8466 243.596 22.7791C243.463 22.0451 243.196 21.3111 242.662 20.8441C242.128 20.3103 241.328 20.1101 240.594 19.9767C237.524 19.3761 234.388 19.643 231.252 19.9099C227.449 20.2436 223.713 20.5104 219.909 20.9775C219.442 21.0442 218.908 21.111 218.441 21.3779C218.041 21.6448 217.707 22.1785 217.841 22.6456C217.707 22.2453 217.24 21.3779 217.441 20.9775C217.507 20.7773 217.641 20.7106 217.841 20.5772C219.309 19.643 221.444 19.4429 223.112 19.176C225.18 18.8424 227.249 18.5755 229.384 18.442C233.454 18.1084 237.591 18.0417 241.728 18.3086C242.462 18.3753 243.129 18.442 243.73 18.7756C244.931 19.5763 244.664 21.3111 244.664 22.5122Z" fill="url(#paint13_linear_9_9958)"/>
<path d="M59.9059 8.83381C59.3721 8.43347 58.7049 8.16657 58.1044 7.9664C57.0368 7.56606 55.4354 7.16572 54.5013 8.09985C53.5005 9.1007 54.6348 10.1016 55.5689 10.5686C56.7699 11.1691 58.1044 11.0357 59.3722 10.9022C59.7058 10.9022 60.4397 10.6353 60.4397 10.235C60.373 9.56777 60.4397 9.23415 59.9059 8.83381Z" fill="#E8E6E8"/>
<path d="M64.8434 9.10069C64.71 8.96724 64.4431 8.8338 64.2429 8.8338C63.976 8.76707 63.5757 8.76707 63.242 8.8338C62.8417 8.90052 62.5748 9.03396 62.3079 9.30086C62.1077 9.43431 61.9743 9.83465 62.1745 10.0348C62.3079 10.1683 62.5081 10.3017 62.7083 10.3684C63.0419 10.4352 63.3755 10.4352 63.7091 10.3684C64.1095 10.3017 64.5098 10.235 64.7767 9.90137C64.9101 9.63448 65.0436 9.30086 64.8434 9.10069Z" fill="#E8E6E8"/>
<path d="M16.6023 26.8492C15.2678 25.448 12.799 25.9151 11.3978 26.9826C11.1977 26.9159 10.9975 26.9159 10.7973 26.9159C10.4637 26.8492 9.86318 27.0494 9.66301 27.3163C9.46283 27.5831 8.99577 27.9835 9.0625 28.3838C9.19594 28.7842 9.59628 28.8509 9.99662 28.8509C10.3302 28.9176 10.6639 28.9176 10.9975 28.7842C11.0642 28.7842 11.0642 28.7174 11.1309 28.7174L11.1976 28.7842C11.3311 28.9176 11.5313 29.0511 11.6647 29.1178C11.7314 29.3847 11.7982 29.5849 11.9983 29.8518C12.7323 30.7192 13.6664 30.9193 14.734 30.6524C15.8016 30.3855 17.2695 29.8518 17.2695 28.584C17.3362 27.85 17.0693 27.3163 16.6023 26.8492Z" fill="#E8E6E8"/>
<path d="M14.6005 22.1118C14.0667 21.8449 13.266 21.9784 12.6655 22.0451C12.3986 22.0451 11.1976 22.4454 11.5312 22.8458C11.5312 22.8458 11.5979 23.0459 11.5979 23.1127C11.7314 23.3128 11.8648 23.3796 12.065 23.513C12.5988 23.7799 13.266 23.7132 13.7998 23.7132C14.0667 23.7132 14.5338 23.5797 14.6672 23.3128C15.0009 22.8458 15.201 22.3787 14.6005 22.1118Z" fill="#E8E6E8"/>
<path d="M176.739 7.16571C176.138 7.03227 175.405 7.03226 174.737 7.09899C174.404 7.16571 173.87 7.23244 173.67 7.56605C173.069 8.50019 174.337 9.56776 175.138 9.76794C176.072 10.0348 177.74 10.3684 178.34 9.23415C178.874 8.09984 177.673 7.43261 176.739 7.16571Z" fill="#E8E6E8"/>
<path d="M182.411 8.96725C182.344 8.90052 182.077 8.8338 182.01 8.8338C181.81 8.8338 181.61 8.8338 181.41 8.8338C181.276 8.8338 180.943 8.96725 180.876 9.10069C180.876 9.16742 180.809 9.30087 180.809 9.36759C180.809 9.50104 180.876 9.56776 180.943 9.63448C181.276 9.83465 181.677 9.83466 182.01 9.70121C182.211 9.63448 182.411 9.43431 182.477 9.23414C182.544 9.16742 182.477 9.03397 182.411 8.96725Z" fill="#E8E6E8"/>
<path d="M190.618 10.7021C190.151 10.3685 189.417 10.235 188.883 10.1016C187.815 9.90139 186.08 9.96811 185.347 10.969C184.546 12.17 187.415 12.7705 188.015 12.7705C188.95 12.7705 190.351 12.7038 190.818 11.7697C191.018 11.436 191.018 11.0357 190.618 10.7021Z" fill="#E8E6E8"/>
<path d="M226.782 27.383C226.115 27.2495 225.381 27.2495 224.713 27.383C224.447 27.4497 224.046 27.5164 223.846 27.7833C223.713 27.9835 223.512 28.4506 223.646 28.7175C223.713 28.7842 223.846 28.9176 223.913 28.9844C224.18 29.2512 224.447 29.3847 224.713 29.5181C225.447 29.9185 226.315 30.0519 227.115 30.1854C227.516 30.2521 228.316 30.0519 228.45 29.6516C228.917 28.3838 227.916 27.6499 226.782 27.383Z" fill="#E8E6E8"/>
<path d="M232.92 26.9826C232.854 26.8492 232.72 26.7825 232.654 26.649C232.587 26.5823 232.453 26.649 232.453 26.649C232.387 26.649 232.253 26.7157 232.187 26.7157C232.12 26.7157 231.786 26.9159 231.853 26.9826C231.92 27.1161 231.986 27.1828 232.12 27.3163C232.187 27.383 232.187 27.4497 232.253 27.4497C232.32 27.4497 232.453 27.5164 232.52 27.5164C232.587 27.5164 232.72 27.5164 232.787 27.4497C232.854 27.4497 232.92 27.383 232.987 27.3163C232.987 27.2495 233.054 27.1828 233.054 27.1161C232.987 27.1161 232.987 27.0494 232.92 26.9826Z" fill="#E8E6E8"/>
<path d="M200.626 28.0502C200.493 27.9168 200.426 27.7833 200.226 27.6499C200.026 27.5164 199.759 27.4497 199.559 27.3163C199.358 27.2495 198.691 27.383 198.625 27.6499C198.558 28.0502 198.558 28.3171 198.691 28.7175C198.891 29.1845 199.225 29.318 199.692 29.4514C199.959 29.5182 200.626 29.3847 200.693 29.0511C200.826 28.7175 200.893 28.3838 200.626 28.0502Z" fill="#E8E6E8"/>
<path d="M137.772 10.235C137.572 9.83467 137.172 9.43433 136.772 9.43433C135.571 9.50105 136.571 10.7021 137.239 10.9022C137.906 11.1024 137.973 10.7021 137.772 10.235Z" fill="#E8E6E8"/>
<path d="M100.541 2.16144C92.6673 2.22816 84.9274 2.8954 77.1207 3.49591C71.5159 3.96298 65.9111 4.09642 60.3063 4.36332C54.7683 4.63021 49.2302 5.03055 43.6921 5.56434C41.8239 5.69779 40.0223 5.89796 38.1541 6.03141C37.2867 6.09813 36.486 6.16486 35.6853 6.36503C34.9513 6.5652 34.2841 6.83209 33.6836 7.16571C34.1507 6.89882 34.7512 6.76537 35.285 6.69865C37.9539 6.16486 40.6896 5.96469 43.4253 5.83124C46.1609 5.69779 48.8966 5.36417 51.6323 5.164C57.237 4.69694 62.8418 4.83038 68.4466 4.69694C71.4492 4.63021 74.5185 4.43004 77.521 4.16315C92.9342 2.82867 108.281 2.22816 123.761 2.09471H123.827C116.087 2.36161 108.347 2.09471 100.541 2.16144Z" fill="#CCA5B3"/>
<path d="M209.5 7.96639C207.032 7.29915 204.496 6.83209 201.961 6.49847C192.953 4.8971 183.612 4.29659 174.537 3.82952C166.731 3.42918 158.991 3.16228 151.184 2.96211C151.184 2.96211 151.184 2.89539 151.117 2.89539C145.112 2.29488 138.84 2.49505 132.768 2.3616C126.229 2.22815 119.69 2.16143 113.218 2.29488C113.151 2.29488 113.018 2.3616 113.085 2.3616C119.357 2.42833 125.562 2.42833 131.834 2.56177C138.039 2.69522 144.378 3.22901 150.583 3.22901C150.583 3.22901 150.65 3.22901 150.717 3.16229C158.056 3.56263 165.329 3.89625 172.669 4.22986C182.744 4.69693 192.619 5.83123 202.628 6.76536C202.628 6.76536 202.695 6.76537 202.761 6.69864C206.698 7.29915 210.968 8.30001 213.37 11.1691C213.37 11.2359 213.571 11.1691 213.571 11.1024C213.837 8.90052 211.302 8.43346 209.5 7.96639Z" fill="#CCA5B3"/>
<path d="M213.637 11.3693C213.571 11.3693 213.571 11.436 213.637 11.3693C213.637 11.5028 213.637 11.5695 213.704 11.7029H213.771C213.704 11.5695 213.637 11.5028 213.637 11.3693Z" fill="#CCA5B3"/>
<path d="M234.122 19.5096C229.251 19.4429 224.447 20.0434 219.709 21.2444C221.511 20.9108 223.312 20.7106 225.181 20.6439C226.982 20.5104 229.051 20.8441 230.852 20.5104C234.255 19.9099 237.057 19.3761 240.46 20.6439C241.328 20.9775 242.128 21.3779 242.796 22.0451C243.396 22.7123 243.73 23.7132 243.463 24.5806C243.53 23.7799 243.596 23.0459 243.53 22.2453C243.396 21.5113 243.062 20.7106 242.462 20.2435C241.328 19.4429 239.926 19.8432 238.659 19.7765C237.124 19.7098 235.656 19.5763 234.122 19.5096Z" fill="#CCA5B3"/>
<path d="M220.777 33.1879C219.642 34.1888 216.573 34.856 214.972 34.9228C212.837 34.9895 210.768 34.4557 208.833 33.5883C207.432 32.9878 206.031 32.3205 204.83 31.3864C202.961 29.9185 201.56 27.7833 201.16 25.3813C200.893 30.1187 206.498 33.5883 210.568 34.6559C213.971 35.59 218.441 35.6567 221.177 33.1212C221.31 32.9878 220.843 33.1212 220.777 33.1879Z" fill="#CCA5B3"/>
<path d="M41.4903 27.7833C38.421 33.5216 32.8829 34.3223 26.8778 34.6559C26.8778 34.6559 26.7443 34.7226 26.811 34.7226C29.6802 35.4566 33.0164 34.7226 35.6853 33.655C37.0865 33.0545 38.8213 32.3205 39.8889 31.253C40.9565 30.2521 41.0899 29.0511 41.6904 27.7833C41.6904 27.7166 41.4903 27.7166 41.4903 27.7833Z" fill="#CCA5B3"/>
<path d="M41.7572 26.3821C41.7572 26.5156 41.6904 26.649 41.6904 26.7825H41.7572C41.7572 26.649 41.8239 26.5156 41.8239 26.3821C41.8239 26.3154 41.7572 26.3154 41.7572 26.3821Z" fill="#CCA5B3"/>
<path d="M15.468 19.8432C10.7973 19.7765 5.32601 19.1093 0.922253 21.111C0.722082 21.1777 0.788809 21.3111 0.98898 21.2444C5.2593 20.2436 10.2636 19.9099 14.6006 19.9767C17.403 19.9767 25.4766 19.643 25.5433 23.6465C25.5433 23.7132 25.9436 23.5797 25.9436 23.513C27.3448 19.0425 17.9368 19.9099 15.468 19.8432Z" fill="#CCA5B3"/>
<path d="M11.7981 29.3847C11.8648 29.5181 11.9315 29.6516 11.9982 29.7183C12.065 29.8518 12.1984 29.9185 12.3319 29.9852C13.1326 30.3856 14.2001 30.7859 15.0675 30.4523C14.6672 30.5857 14.2668 30.7192 13.7998 30.7192C13.1325 30.7192 12.4653 30.3188 11.8648 29.9185C11.6646 29.785 11.4645 29.6516 11.331 29.4514C11.1976 29.2513 11.1308 29.0511 11.1976 28.7842C10.9974 28.9844 10.3969 29.0511 10.0633 28.9844C9.72965 28.9176 9.46274 28.3838 9.26257 28.3171C9.92981 28.4506 10.1967 28.3838 10.7972 28.3838C11.5979 28.3838 11.5312 28.8509 11.7981 29.3847Z" fill="#CCA5B3"/>
<path d="M60.0394 10.4352C59.5056 10.6353 58.9718 10.9022 58.4381 10.9022C57.971 10.969 57.4372 10.9022 56.9701 10.8355C55.8358 10.7688 54.7015 10.1683 54.1677 9.23415C54.835 9.96811 55.5022 10.7688 56.4363 11.1024C57.5706 11.5695 58.9718 11.1691 60.0394 10.4352Z" fill="#CCA5B3"/>
<path d="M64.7101 9.76794C64.5099 10.1016 64.243 10.4352 63.8427 10.5019C63.6425 10.5686 63.4423 10.5019 63.2421 10.4352C62.8418 10.3685 62.4415 10.235 62.1746 9.96811C62.3747 10.0348 62.7084 10.1016 62.9085 10.1016C63.2421 10.1683 63.5758 10.235 63.9094 10.1683C64.1096 10.1016 64.5099 10.0348 64.7101 9.76794Z" fill="#CCA5B3"/>
<path d="M190.951 11.436C190.818 11.9698 190.417 12.3702 189.95 12.5703C188.416 13.3043 186.281 12.8372 185.146 11.5028C185.613 12.0365 186.014 12.5703 186.614 12.9707C186.948 13.2376 187.348 13.4377 187.815 13.4377C188.282 13.5045 188.749 13.371 189.216 13.1709C190.017 12.904 190.684 12.3034 190.951 11.436Z" fill="#CCA5B3"/>
<path d="M178.34 8.8338C178.274 9.1007 178.14 9.36759 177.94 9.56776C177.673 9.83466 177.273 9.83466 176.873 9.83466C176.272 9.83466 175.605 9.83465 175.004 9.63448C174.404 9.43431 173.87 9.1007 173.536 8.50018C173.803 8.96725 174.27 9.43431 174.737 9.63448C175.271 9.90138 175.805 10.0348 176.339 10.1015C176.806 10.1683 177.273 10.235 177.673 9.9681C178.207 9.76793 178.34 9.36759 178.34 8.8338Z" fill="#CCA5B3"/>
<path d="M228.517 28.7842C228.45 29.0511 228.45 29.3847 228.316 29.6516C228.316 29.7183 228.25 29.785 228.183 29.8518C228.116 29.9185 228.05 29.9185 227.983 29.9185C226.515 30.2521 224.98 29.9185 223.779 29.0511C224.98 30.0519 226.448 30.5857 227.983 30.4523C228.116 30.4523 228.183 30.4523 228.25 30.3188C228.317 30.2521 228.316 30.1854 228.316 30.1187C228.45 29.785 228.583 29.1178 228.517 28.7842Z" fill="#CCA5B3"/>
<path opacity="0.1" d="M66.2447 45.8654C64.1763 43.3967 60.373 42.8629 57.971 45.4651C56.7032 46.7996 57.9043 48.868 58.6382 50.2025C58.8384 50.5361 58.9718 50.8697 59.172 51.1366C58.5048 51.0699 57.8375 51.2033 57.3705 51.6704C57.0369 52.004 56.8367 52.4044 56.9034 52.8714C56.9701 53.2718 57.1036 53.4719 57.4372 53.8056C58.0377 54.4728 59.3055 54.5395 60.1729 54.5395C60.5065 54.5395 61.2405 54.3394 61.3739 54.0057C61.4406 53.7388 61.5074 53.4719 61.4406 53.1383C61.5741 53.2051 61.6408 53.2718 61.7743 53.3385C62.7751 54.3394 63.7092 54.5395 65.3106 54.0725C66.9787 53.5387 68.1797 52.6045 68.2464 50.7363C68.2464 48.9347 67.379 47.1999 66.2447 45.8654Z" fill="#E8E6E8"/>
<path opacity="0.1" d="M34.9514 52.738C34.8179 52.4711 34.4176 52.1375 34.1507 52.004C33.6836 51.8039 33.2165 51.6704 32.7495 51.6704C32.4159 51.6704 31.8821 51.7371 31.6152 51.9373C31.0814 52.3376 30.5476 53.0716 31.1481 53.6721C31.8153 54.2726 32.6827 54.2726 33.4834 54.2059C33.8838 54.2059 34.551 54.0057 34.7512 53.6054C34.8846 53.4052 35.0848 53.0716 34.9514 52.738Z" fill="#E8E6E8"/>
<path opacity="0.1" d="M171.668 27.7833C170.267 26.649 167.998 25.9151 166.464 27.1161C165.329 27.9835 165.062 28.8509 165.596 30.0519C165.93 30.8526 166.464 31.6533 166.997 32.3205C168.199 33.8552 169.933 34.5891 171.802 35.0562C172.402 35.1897 173.603 34.7893 173.87 34.1888C174.871 31.5866 173.737 29.5181 171.668 27.7833Z" fill="#E8E6E8"/>
<path opacity="0.1" d="M181.276 32.454C181.143 32.1871 180.876 31.9869 180.609 31.7868C180.476 31.72 180.342 31.5866 180.209 31.5199C179.942 31.3864 179.675 31.3864 179.475 31.253C179.141 31.0528 178.274 31.3864 178.14 31.72C178.073 31.9202 177.94 32.1204 177.807 32.3205C177.74 32.5207 177.74 32.6542 177.74 32.8543C177.74 33.1879 177.873 33.3881 178.007 33.5883C178.474 34.1888 179.675 34.2555 180.342 34.0554C180.742 33.9219 181.076 33.7217 181.21 33.3214C181.41 33.1212 181.41 32.7209 181.276 32.454Z" fill="#E8E6E8"/>
<path opacity="0.1" d="M161.993 25.7149C161.793 25.5147 161.593 25.5147 161.326 25.3146C160.992 25.1144 160.192 25.448 160.058 25.7816C159.991 26.0485 159.791 26.182 159.791 26.4489C159.791 26.7158 159.858 26.8492 159.991 27.0494C160.325 27.4497 160.859 27.5164 161.326 27.383C161.793 27.2495 162.193 26.8492 162.193 26.3154C162.193 26.1152 162.127 25.9151 161.993 25.7149Z" fill="#E8E6E8"/>
<path opacity="0.1" d="M217.44 52.8047C217.374 52.0708 216.373 51.7371 215.772 51.537C214.638 51.1366 213.304 51.4035 212.303 52.0707C211.969 52.4044 211.702 52.738 211.369 53.0716C211.369 53.1383 211.369 53.2051 211.369 53.2718C211.369 53.4052 211.369 53.5387 211.369 53.6054C211.435 53.8723 211.636 54.1392 211.769 54.3394C212.303 54.8731 213.103 54.9399 213.837 54.8731C214.638 54.9399 215.572 54.8731 216.373 54.5395C216.64 54.4061 216.773 54.3394 216.907 54.0725C216.907 54.0057 216.907 54.0057 216.84 53.939C216.973 53.8056 217.107 53.6054 217.24 53.4719C217.374 53.3385 217.44 53.0716 217.44 52.8047Z" fill="#E8E6E8"/>
<path opacity="0.1" d="M91.066 28.1169C90.9992 28.0502 90.9325 27.9835 90.8658 27.9168C90.7323 27.85 90.5989 27.7833 90.4655 27.7166C90.2653 27.5832 89.9984 27.5832 89.7982 27.6499C89.7982 27.6499 89.7982 27.6499 89.7315 27.6499C89.5313 27.6499 89.1977 27.7166 89.0643 27.9168C88.9975 28.0502 88.7974 28.1169 88.7974 28.3171C88.7974 28.3838 88.8641 28.5173 88.8641 28.584C88.9308 28.7842 89.131 28.9176 89.3311 29.0511C89.7982 29.318 90.3987 29.3847 90.9325 29.1845C91.1994 29.0511 91.3329 28.9176 91.3329 28.6507C91.3996 28.3838 91.1994 28.3171 91.066 28.1169Z" fill="#E8E6E8"/>
<path opacity="0.1" d="M180.142 52.004C180.142 51.8706 180.075 51.8039 180.009 51.7371C179.942 51.6704 179.875 51.6037 179.742 51.537C179.608 51.4702 179.475 51.4035 179.275 51.3368C179.141 51.2701 178.941 51.3368 178.808 51.4035C178.741 51.4702 178.541 51.537 178.541 51.6704C178.541 51.8039 178.541 51.8706 178.607 52.004C178.607 52.1375 178.741 52.2042 178.808 52.2709C179.008 52.4711 179.275 52.6045 179.542 52.6045C179.742 52.6045 180.009 52.5378 180.142 52.3376C180.209 52.2042 180.209 52.0707 180.142 52.004Z" fill="#E8E6E8"/>
<path opacity="0.1" d="M29.8803 51.0699C29.8136 51.0032 29.7469 50.8697 29.6134 50.803C29.48 50.7363 29.2798 50.7363 29.0797 50.6695C29.0129 50.6695 28.8795 50.6695 28.746 50.7363C28.6793 50.7363 28.5459 50.803 28.5459 50.8697C28.5459 51.0032 28.4791 51.0699 28.4791 51.2033C28.4791 51.2701 28.4791 51.3368 28.5459 51.3368C28.6126 51.4035 28.6126 51.4035 28.6793 51.4702C28.9462 51.6704 29.2798 51.6704 29.5467 51.6037C29.6802 51.537 29.8136 51.4702 29.8803 51.3368C29.9471 51.2033 29.9471 51.1366 29.8803 51.0699Z" fill="#E8E6E8"/>
<path opacity="0.1" d="M64.1096 41.0613C63.7759 40.7944 63.3756 40.7277 62.9752 40.661C62.7751 40.5943 62.4414 40.7277 62.1746 40.7944C62.0411 40.8612 61.7075 40.9946 61.7742 41.1948C61.841 41.3282 61.8409 41.4617 61.9077 41.5951C61.9744 41.7953 62.0411 41.862 62.2413 41.9955C62.6416 42.2624 62.9085 42.3958 63.3756 42.3958C63.7092 42.3958 64.3764 42.1956 64.5099 41.862C64.5766 41.4617 64.3097 41.2615 64.1096 41.0613Z" fill="#E8E6E8"/>
<path opacity="0.1" d="M105.945 48.2675C104.678 47.667 101.542 48.5344 102.009 50.3359C102.142 50.8697 102.476 51.0699 102.943 51.2033C103.476 51.8706 104.477 51.9373 105.278 51.7371C106.212 51.4702 107.213 50.9364 107.146 49.8689C107.013 49.2016 106.546 48.5344 105.945 48.2675Z" fill="#E8E6E8"/>
<path opacity="0.1" d="M100.808 47.7337C100.607 47.6003 100.407 47.6003 100.14 47.6003C99.6732 47.6003 99.2062 47.8004 98.8058 48.0673C98.6057 48.2008 98.4055 48.3342 98.3387 48.6011C98.272 48.7346 98.2053 48.9347 98.272 49.0682C98.272 49.1349 98.4055 49.2684 98.4055 49.2684C98.5389 49.3351 98.8058 49.3351 98.9393 49.3351C99.2729 49.3351 99.6065 49.2684 99.9401 49.1349C100.207 49.0015 100.541 48.868 100.808 48.6678C100.941 48.5344 101.141 48.4677 101.141 48.2675C101.141 48.2008 101.141 48.0673 101.141 48.0006C101.141 47.9339 100.941 47.8004 100.808 47.7337Z" fill="#E8E6E8"/>
<path opacity="0.1" d="M117.889 50.2692C117.889 50.2025 117.822 50.1358 117.755 50.1358C117.689 50.069 117.622 50.069 117.555 50.0023C117.422 49.9356 117.288 50.0023 117.222 50.069C117.155 50.069 116.955 50.2025 117.021 50.2692C117.021 50.3359 117.088 50.4027 117.088 50.4694C117.155 50.5361 117.155 50.5361 117.222 50.6028C117.355 50.6696 117.489 50.7363 117.622 50.803C117.755 50.803 118.022 50.7363 118.022 50.6028C118.022 50.4694 117.956 50.3359 117.889 50.2692Z" fill="#E8E6E8"/>
<path opacity="0.1" d="M34.7512 53.5387C34.7512 53.8056 34.551 54.0057 34.3508 54.0725C34.1506 54.2059 33.8838 54.2059 33.6836 54.2726C33.0831 54.3394 32.4825 54.2726 31.882 54.1392C31.6151 54.0725 31.3482 54.0057 31.1481 53.8056C30.9479 53.6721 30.8145 53.4052 30.8145 53.1383C30.9479 53.7388 31.415 54.2726 31.9488 54.6062C32.3491 54.8731 32.7494 55.14 33.2165 55.0066C33.5501 54.9399 33.7503 54.673 34.0172 54.4728C34.2841 54.1392 34.551 53.7388 34.7512 53.5387Z" fill="#E6C9C3"/>
<path opacity="0.1" d="M61.4406 53.6054C61.4406 53.8723 61.3071 54.1392 61.0402 54.2726C60.84 54.4061 60.5064 54.4728 60.2395 54.4728C59.4388 54.5395 58.5714 54.3393 57.8375 54.0057C57.3704 53.8056 56.9033 53.4052 56.7699 52.8714C56.9701 53.5387 57.5038 54.2059 58.1711 54.5395C58.8383 54.8731 59.639 54.9399 60.3062 54.7397C60.5731 54.673 60.7733 54.5395 60.9735 54.4061C61.3071 54.1392 61.3738 53.8723 61.4406 53.6054Z" fill="#E6C9C3"/>
<path opacity="0.1" d="M57.4371 47.1332C57.4371 47.8004 57.704 48.3342 57.9709 49.0015C58.3045 49.7354 58.6382 50.4694 58.9718 51.2033C59.1052 51.2033 59.2387 51.2701 59.3721 51.2701C59.0385 50.6028 58.6382 49.8689 58.3045 49.2683C57.9709 48.6011 57.6373 47.8672 57.4371 47.1332Z" fill="#E6C9C3"/>
<path opacity="0.1" d="M68.113 51.6037C67.9128 52.5378 66.9787 53.3385 66.1113 53.7388C65.0437 54.2059 63.776 54.4728 62.7084 54.0725C62.2413 53.939 61.9077 53.6054 61.5073 53.2718C61.5741 53.4719 61.5073 53.6721 61.3739 53.8723C62.1079 54.2059 62.9753 54.6062 63.776 54.6062C64.1096 54.6062 64.4432 54.5395 64.7768 54.4728C65.1772 54.3394 65.6442 54.2059 66.0446 54.0725C66.3115 53.939 66.5783 53.8056 66.8452 53.6054C67.0454 53.4052 67.1789 53.2051 67.3123 53.0049C67.6459 52.5378 68.113 52.0707 68.113 51.6037Z" fill="#E6C9C3"/>
<path opacity="0.1" d="M107.08 50.4027C106.613 50.8697 106.079 51.3368 105.411 51.537C104.744 51.7371 104.01 51.8039 103.41 51.537C102.743 51.2701 102.209 50.6696 101.875 49.9356C102.275 50.6028 102.743 51.3368 103.276 51.8039C103.543 52.0708 103.944 52.3376 104.344 52.2709C104.477 52.2709 104.611 52.2042 104.744 52.1375C105.612 51.8039 106.546 51.2033 107.08 50.4027Z" fill="#E6C9C3"/>
<path opacity="0.1" d="M173.937 33.3214C174.003 33.9219 173.536 34.4557 173.003 34.6559C172.469 34.856 171.868 34.856 171.268 34.7226C170.4 34.5891 169.533 34.389 168.799 33.9219C166.997 32.8543 166.063 30.8526 165.263 28.9176C165.663 31.3864 167.064 33.655 169.133 34.9228C170.2 35.59 171.601 35.9903 172.736 35.3231C173.403 34.9895 173.736 34.0554 173.937 33.3214Z" fill="#E6C9C3"/>
<path opacity="0.1" d="M181.343 33.1879C181.009 33.655 180.542 33.9886 179.942 34.0554C179.408 34.1221 178.808 33.9886 178.407 33.5883C178.074 33.3214 177.807 32.8543 177.94 32.3873C178.007 32.8543 178.007 33.3214 178.274 33.7217C178.541 34.1221 178.941 34.4557 179.408 34.5891C179.875 34.7226 180.342 34.5891 180.743 34.3222C181.009 34.0554 181.276 33.655 181.343 33.1879Z" fill="#E6C9C3"/>
<path opacity="0.1" d="M217.507 52.5378C217.441 53.1383 217.107 53.7388 216.573 54.0725C216.306 54.2726 215.973 54.3394 215.706 54.4728C214.905 54.7397 214.104 55.0066 213.304 54.9399C212.503 54.8731 211.636 54.3394 211.435 53.5387C211.569 53.8723 211.569 54.1392 211.702 54.4061C211.836 54.7397 212.036 55.0733 212.37 55.2735C212.636 55.4069 212.903 55.4737 213.237 55.4737C214.104 55.4737 214.972 55.3402 215.772 55.0066C215.973 54.9399 216.24 54.8064 216.44 54.673C216.907 54.2726 217.307 53.1383 217.507 52.5378Z" fill="#E6C9C3"/>
<defs>
<linearGradient id="paint0_linear_9_9958" x1="122.537" y1="-5.03732" x2="122.537" y2="84.481" gradientUnits="userSpaceOnUse">
<stop stop-color="#BFA0A2"/>
<stop offset="0.6425" stop-color="#493E66"/>
<stop offset="0.7253" stop-color="#414067"/>
<stop offset="0.8549" stop-color="#2B4468"/>
<stop offset="1" stop-color="#0A4A6B"/>
</linearGradient>
<radialGradient id="paint1_radial_9_9958" cx="0" cy="0" r="1" gradientUnits="userSpaceOnUse" gradientTransform="translate(121.637 5.8229) scale(202.942 202.942)">
<stop stop-color="#CCAAAC"/>
<stop offset="1" stop-color="#6C6778"/>
</radialGradient>
<linearGradient id="paint2_linear_9_9958" x1="112.679" y1="59.5728" x2="130.317" y2="59.5728" gradientUnits="userSpaceOnUse">
<stop stop-color="#BFA0A2"/>
<stop offset="1" stop-color="#493E66"/>
</linearGradient>
<linearGradient id="paint3_linear_9_9958" x1="19.9196" y1="40.4277" x2="10.1622" y2="49.0372" gradientUnits="userSpaceOnUse">
<stop stop-color="#BFA0A2"/>
<stop offset="1" stop-color="#493E66"/>
</linearGradient>
<linearGradient id="paint4_linear_9_9958" x1="228.707" y1="45.1142" x2="237.508" y2="45.1142" gradientUnits="userSpaceOnUse">
<stop stop-color="#BFA0A2"/>
<stop offset="1" stop-color="#493E66"/>
</linearGradient>
<linearGradient id="paint5_linear_9_9958" x1="122.899" y1="99.2875" x2="122.468" y2="31.3632" gradientUnits="userSpaceOnUse">
<stop stop-color="#965485"/>
<stop offset="1" stop-color="#2F2959"/>
</linearGradient>
<linearGradient id="paint6_linear_9_9958" x1="122.614" y1="-7.05831" x2="121.933" y2="83.9131" gradientUnits="userSpaceOnUse">
<stop stop-color="#A66F94"/>
<stop offset="1" stop-color="#362C54"/>
</linearGradient>
<linearGradient id="paint7_linear_9_9958" x1="78.6069" y1="11.8639" x2="91.8325" y2="11.8639" gradientUnits="userSpaceOnUse">
<stop stop-color="#965485"/>
<stop offset="1" stop-color="#2F2959"/>
</linearGradient>
<linearGradient id="paint8_linear_9_9958" x1="216.718" y1="42.8148" x2="210.802" y2="37.6145" gradientUnits="userSpaceOnUse">
<stop stop-color="#965485"/>
<stop offset="1" stop-color="#2F2959"/>
</linearGradient>
<linearGradient id="paint9_linear_9_9958" x1="11.1193" y1="-66.5776" x2="14.3786" y2="41.4981" gradientUnits="userSpaceOnUse">
<stop stop-color="#A66F94"/>
<stop offset="1" stop-color="#362C54"/>
</linearGradient>
<linearGradient id="paint10_linear_9_9958" x1="29.8923" y1="-67.1434" x2="33.1516" y2="40.9318" gradientUnits="userSpaceOnUse">
<stop stop-color="#A66F94"/>
<stop offset="1" stop-color="#362C54"/>
</linearGradient>
<linearGradient id="paint11_linear_9_9958" x1="119.954" y1="-69.8591" x2="123.213" y2="38.2156" gradientUnits="userSpaceOnUse">
<stop stop-color="#A66F94"/>
<stop offset="1" stop-color="#362C54"/>
</linearGradient>
<linearGradient id="paint12_linear_9_9958" x1="208.151" y1="-72.519" x2="211.41" y2="35.5556" gradientUnits="userSpaceOnUse">
<stop stop-color="#A66F94"/>
<stop offset="1" stop-color="#362C54"/>
</linearGradient>
<linearGradient id="paint13_linear_9_9958" x1="228.192" y1="-73.124" x2="231.452" y2="34.9513" gradientUnits="userSpaceOnUse">
<stop stop-color="#A66F94"/>
<stop offset="1" stop-color="#362C54"/>
</linearGradient>
</defs>
</svg>
