<svg width="246" height="296" viewBox="0 0 246 296" fill="none" xmlns="http://www.w3.org/2000/svg">
<path d="M245.19 14.7292C245.063 26.9189 244.937 38.9816 244.81 51.1713C244.556 75.5507 244.175 99.9301 243.286 124.309C243.286 124.563 243.286 124.944 243.032 125.198C242.905 125.325 242.651 125.452 242.397 125.579C241.508 125.96 241.254 127.103 241.508 127.992C241.762 128.881 242.27 129.642 242.778 130.404C243.794 132.436 243.794 134.214 243.54 136.372C243.286 138.785 243.286 141.324 243.286 143.737C243.159 148.943 243.032 154.022 242.905 159.228C242.651 169.513 242.397 179.925 242.143 190.21C241.889 202.527 241.508 214.97 241.254 227.287C241.127 233.509 240.873 239.858 240.746 246.079C240.619 250.397 241.508 255.983 239.604 259.793C239.35 260.301 238.842 260.682 238.334 260.682C239.096 261.824 239.858 262.84 240.238 264.11C241 266.776 240.238 270.332 240.111 272.998C239.984 276.3 239.985 279.728 239.858 283.029C239.858 284.426 239.35 285.823 238.588 286.839C236.556 289.505 233.636 291.918 230.207 294.203C229.065 294.965 227.668 295.346 226.271 295.346C222.335 295.219 218.399 295.219 214.462 295.092C208.241 294.965 201.892 294.838 195.67 294.711C191.48 294.584 185.131 295.473 182.591 291.156C182.337 292.045 182.21 292.806 181.956 293.695C181.829 293.949 181.83 294.203 181.576 294.457C181.322 294.584 181.068 294.711 180.687 294.711C166.719 294.711 152.625 294.33 138.531 294.203C125.833 294.076 113.263 294.076 100.565 294.203C94.2161 294.203 87.8673 294.33 81.5186 294.33C78.3442 294.33 75.1698 294.457 71.9954 294.457C69.9637 294.457 66.5354 294.584 64.7577 293.568C64.3768 293.314 63.9959 292.933 63.488 292.806C62.5991 292.426 61.4563 292.933 60.6945 293.568C58.7898 294.838 57.5201 294.711 55.3615 294.838C43.2988 295.092 31.1091 295.346 19.0464 295.6C17.6497 295.6 16.2529 295.219 15.1102 294.457C11.6818 292.172 8.76132 289.759 6.72971 287.093C5.84088 285.95 5.45998 284.68 5.333 283.283C4.8251 266.142 4.31715 249 3.93622 231.858C3.80925 229.065 3.55534 226.144 3.42837 223.351C3.30139 221.319 3.68232 219.16 5.96788 218.399C5.71393 217.383 4.19022 217.764 3.42837 217.002C3.17441 216.621 3.04745 216.24 3.04745 215.732C2.92048 214.462 2.79344 213.193 2.66646 211.923C2.53949 210.526 2.41251 209.129 3.30134 208.114C4.44413 206.844 4.95205 206.082 4.19019 204.304C3.68229 203.161 2.66646 202.654 2.66646 201.257C2.92042 197.701 3.04741 194.4 2.92043 190.845C2.79345 185.004 2.66649 179.036 2.53952 173.195C2.28557 163.672 2.15859 154.149 1.90464 144.626C1.77766 135.356 1.01581 126.341 2.53952 117.072C2.66649 116.056 2.92045 115.04 2.53952 114.151C2.41254 113.77 2.15856 113.389 2.03158 112.882C1.77763 112.247 1.77765 111.739 1.65067 111.104C0.507888 103.231 1.01582 95.2319 0.888847 87.3594C0.761871 78.979 0.634911 70.5986 0.507935 62.2182C0.253983 46.4732 0.126976 30.7282 0 14.9832C0 13.4594 0.507873 11.9357 1.3967 10.793C3.93622 7.49158 6.72971 4.44416 9.90411 2.15859C11.0469 1.26976 12.5706 0.761856 13.9674 0.761856H231.096C232.62 0.761856 234.017 1.26976 235.159 2.15859C238.334 4.57113 241.127 7.49158 243.667 10.793C244.81 11.8088 245.19 13.2055 245.19 14.7292Z" fill="#2E82A6"/>
<path d="M245.19 13.9674C245.063 26.157 244.937 38.2198 244.81 50.4094C244.556 74.7888 244.175 99.1682 243.286 123.548C243.286 123.802 243.286 124.182 243.032 124.436C242.905 124.563 242.651 124.69 242.397 124.817C241.508 125.198 241.254 126.341 241.508 127.23C241.762 128.119 242.27 128.881 242.778 129.642C243.794 131.674 243.794 133.452 243.54 135.61C243.286 138.023 243.286 140.562 243.286 142.975C243.159 148.181 243.032 153.26 242.905 158.466C242.651 168.751 242.397 179.163 242.143 189.448C241.889 201.765 241.508 214.208 241.254 226.525C241.127 232.747 240.873 239.096 240.746 245.317C240.619 249.635 241.508 255.222 239.604 259.031C239.35 259.539 238.842 259.92 238.334 259.92C239.096 261.062 239.858 262.078 240.238 263.348C241 266.015 240.238 269.57 240.111 272.236C239.984 275.538 239.985 278.966 239.858 282.267C239.858 283.664 239.35 285.061 238.588 286.077C236.556 288.743 233.636 291.156 230.207 293.441C229.065 294.203 227.668 294.584 226.271 294.584C222.335 294.457 218.399 294.457 214.462 294.33C208.241 294.203 201.892 294.076 195.67 293.949C191.48 293.822 185.131 294.711 182.591 290.394C182.337 291.283 182.21 292.045 181.956 292.933C181.829 293.187 181.83 293.441 181.576 293.695C181.322 293.822 181.068 293.949 180.687 293.949C166.719 293.949 152.625 293.568 138.531 293.441C125.833 293.314 113.263 293.314 100.565 293.441C94.2161 293.441 87.8673 293.568 81.5186 293.568C78.3442 293.568 75.1698 293.695 71.9954 293.695C69.9637 293.695 66.5354 293.822 64.7577 292.806C64.3768 292.553 63.9959 292.172 63.488 292.045C62.5991 291.664 61.4563 292.172 60.6945 292.806C58.7898 294.076 57.5201 293.949 55.3615 294.076C43.2988 294.33 31.1091 294.584 19.0464 294.838C17.6497 294.838 16.2529 294.457 15.1102 293.695C11.6818 291.41 8.76132 288.997 6.72971 286.331C5.84088 285.188 5.45998 283.918 5.333 282.521C4.8251 265.38 4.31715 248.238 3.93622 231.096C3.80925 228.303 3.55534 225.382 3.42837 222.589C3.30139 220.557 3.68232 218.399 5.96788 217.637C5.71393 216.621 4.19022 217.002 3.42837 216.24C3.17441 215.859 3.04745 215.478 3.04745 214.97C2.92048 213.701 2.79344 212.431 2.66646 211.161C2.53949 209.764 2.41251 208.368 3.30134 207.352C4.44413 206.082 4.95205 205.32 4.19019 203.542C3.68229 202.4 2.66646 201.892 2.66646 200.495C2.92042 196.94 3.04741 193.638 2.92043 190.083C2.79345 184.242 2.66649 178.274 2.53952 172.433C2.28557 162.91 2.15859 153.387 1.90464 143.864C1.77766 134.594 1.01581 125.579 2.53952 116.31C2.66649 115.294 2.92045 114.278 2.53952 113.389C2.41254 113.009 2.15856 112.628 2.03158 112.12C1.77763 111.485 1.77765 110.977 1.65067 110.342C0.507888 102.47 1.01582 94.4701 0.888847 86.5976C0.761871 78.2172 0.634911 69.8368 0.507935 61.4563C0.253983 45.7113 0.126976 29.9663 0 14.2213C0 12.6976 0.507873 11.1739 1.3967 10.0311C3.93622 6.72973 6.72971 3.6823 9.90411 1.39673C11.0469 0.507902 12.5706 0 13.9674 0H231.096C232.62 0 234.017 0.507902 235.159 1.39673C238.334 3.80928 241.127 6.72973 243.667 10.0311C244.81 10.9199 245.19 12.4436 245.19 13.9674Z" fill="url(#paint0_linear_9_9693)"/>
<path d="M240.112 13.3325C240.112 14.7292 240.112 16.1259 240.112 17.5227C240.112 18.0306 240.112 18.6655 240.112 19.1734C240.112 25.2682 239.985 31.3631 239.985 37.7119C239.985 38.2198 239.985 38.8546 239.985 39.3625C239.985 45.5843 239.858 51.8062 239.731 58.282C239.731 58.7899 239.731 59.1708 239.731 59.6787C239.604 69.2019 239.477 78.979 239.35 89.0101C239.35 89.645 239.35 90.2799 239.35 90.9148C239.35 93.9622 239.223 97.0096 239.223 100.057C239.223 100.311 239.223 100.692 239.223 100.946C239.223 104.247 239.096 107.676 239.096 111.104C239.096 111.739 239.096 112.374 239.096 113.009C239.096 115.421 238.969 117.961 238.969 120.373C238.969 121.262 239.223 122.659 238.969 123.548C238.588 124.436 237.572 124.817 237.064 125.579C236.048 126.849 236.556 128.627 237.318 130.023C239.096 133.579 238.715 137.007 238.715 140.816C238.715 141.832 238.715 142.848 238.715 143.864C238.588 148.435 238.461 153.133 238.461 157.831C238.461 158.466 238.461 159.101 238.461 159.863C238.461 161.894 238.334 163.926 238.334 166.085C238.334 167.227 238.334 168.37 238.207 169.513C238.08 175.735 237.953 182.083 237.826 188.432C237.572 198.336 237.318 208.494 237.064 218.78C237.064 220.43 236.937 222.081 236.937 223.605C236.683 229.319 236.683 235.032 236.556 240.746C236.429 246.079 237.064 252.174 235.794 257.38C230.715 255.73 225.89 253.571 221.319 251.031C225.763 254.714 230.588 257.888 235.794 260.555C236.048 260.682 236.302 260.809 236.429 261.062C236.556 261.316 236.556 261.697 236.429 262.078C235.16 268.3 235.667 275.157 235.54 281.633C235.54 282.141 235.413 282.521 235.16 282.775C233.509 284.807 231.096 286.966 227.795 289.124C227.414 289.378 226.906 289.505 226.525 289.505C196.051 288.87 155.927 288.108 115.929 288.108C94.4702 288.108 74.789 288.362 55.4886 288.743L19.1735 289.505C18.6656 289.505 18.2847 289.378 17.7768 289.124C14.4754 286.966 12.0629 284.807 10.4122 282.775C10.1582 282.521 10.0313 282.014 10.0313 281.633C9.90428 277.061 9.77724 272.617 9.65026 268.173C9.65026 266.776 9.52332 265.38 9.52332 263.983C9.39634 257.761 9.14236 251.539 9.01539 245.444C9.01539 244.937 9.01539 244.556 9.01539 244.048C8.76143 239.096 8.76145 234.144 8.63447 229.192C8.5075 226.779 8.76143 224.113 8.38051 221.7C8.12655 220.049 7.23778 218.78 8.7615 217.383C9.52335 216.621 10.4122 216.24 11.428 215.859C15.2372 214.208 19.0465 212.685 22.8558 211.034C24.3795 210.399 26.0302 209.764 27.6809 209.383C21.2051 211.034 14.7293 212.812 8.25356 214.843C7.74566 211.923 8.12657 208.875 7.99959 206.082C7.87262 203.161 7.74563 200.241 7.74563 197.321C7.74563 197.067 7.74563 196.686 7.74563 196.432C7.74563 194.781 7.61868 193.13 7.61868 191.48C7.49171 187.29 7.36471 182.972 7.36471 178.909C7.36471 178.401 7.36471 178.02 7.36471 177.512C7.11076 169.132 6.98383 161.005 6.85686 153.006C6.85686 152.498 6.85686 151.863 6.85686 151.355C6.72988 143.483 6.4759 135.61 6.34892 127.992C6.34892 127.23 6.34892 126.468 6.34892 125.706C6.22195 120.5 6.09495 115.421 6.09495 110.342C6.09495 109.58 6.09495 108.691 6.09495 107.93C5.841 95.105 5.71403 82.6613 5.46007 70.7256C5.46007 70.2177 5.46007 69.8368 5.46007 69.3288C5.3331 63.107 5.33308 57.1392 5.20611 51.1713C5.20611 50.4094 5.20611 49.7746 5.20611 49.0127C5.07913 42.156 5.07919 35.5533 4.95222 28.9505C4.95222 28.5696 4.95222 28.1887 4.95222 27.8077C4.95222 22.9826 4.8252 18.2845 4.8252 13.5864C4.8252 13.0785 4.9522 12.5706 5.33313 12.1897C7.87265 8.88831 10.4122 6.34879 12.9517 4.44415C13.3326 4.1902 13.8405 3.93625 14.3484 3.93625H231.477C231.985 3.93625 232.493 4.06323 232.874 4.44415C235.54 6.34879 238.08 8.88831 240.493 12.1897C239.985 12.3167 240.112 12.8246 240.112 13.3325Z" fill="url(#paint1_radial_9_9693)"/>
<path d="M240.111 13.3325C240.111 35.2993 239.731 57.2661 239.35 79.233C239.223 87.2325 239.096 95.3589 238.969 103.358C238.842 107.422 238.842 111.485 238.715 115.675C238.715 117.834 238.588 119.992 238.588 122.024C238.588 124.309 238.08 124.436 236.937 126.214C236.302 127.103 236.81 128.373 237.318 129.261C239.477 132.817 238.334 138.15 238.207 142.213C238.08 147.292 237.953 152.244 237.826 157.323C237.572 167.608 237.318 177.893 237.064 188.178C236.175 176.877 235.921 165.577 235.921 154.276C235.921 148.562 236.048 142.975 236.175 137.261C236.175 135.991 236.175 134.721 236.429 133.452C236.556 132.817 237.064 132.182 236.937 131.547C236.937 130.658 233.89 126.722 234.778 125.96C235.286 125.452 235.921 124.944 236.302 124.309C237.064 122.659 236.556 119.484 236.556 117.707C236.683 115.167 236.683 112.628 236.81 110.215C236.937 105.136 237.191 100.184 237.318 95.105C237.699 86.9785 236.556 78.8521 237.318 70.5986C237.572 67.5512 237.953 64.3768 237.953 61.2024C237.953 57.901 237.572 54.5997 237.318 51.2983C236.683 44.3146 236.683 37.204 237.064 30.0933C237.318 25.1412 239.857 17.7766 237.445 13.0785C235.667 9.52319 231.35 5.58694 227.287 4.57113C223.097 3.55532 218.526 4.31718 214.335 4.44416C205.828 4.82509 197.321 4.95206 188.813 4.69811C181.195 4.57113 173.703 3.55532 166.211 4.69811C163.545 5.07903 161.005 5.71392 158.339 5.84089C155.546 6.09484 152.752 5.96787 149.959 5.84089C126.087 4.69811 102.47 4.31718 78.4711 4.69811C66.4084 4.82508 54.4727 5.07903 42.41 5.33299C36.4421 5.45996 30.4742 5.58694 24.3794 5.71392C19.4273 5.84089 14.3482 4.69811 10.285 7.8725C8.50734 9.14226 5.33294 11.5548 4.57108 13.5864C4.31713 14.2213 4.31719 14.8562 4.31719 15.618C4.69812 35.2993 5.45993 54.9806 6.09481 74.7888C6.47574 86.7246 6.85669 98.6603 6.60274 110.723C6.60274 113.516 6.09484 116.564 6.60274 119.23C6.85669 121.008 7.49159 122.659 7.49159 124.563C7.61857 130.277 7.49156 135.991 7.61853 141.578C7.74551 157.45 7.23758 173.449 6.47572 189.321C6.47572 189.956 6.47575 190.591 6.34878 191.226C4.69809 122.532 3.6823 63.8689 3.42834 13.2055C3.42834 12.6976 3.55527 12.1897 3.9362 11.8088C6.47572 8.50738 9.01524 5.96787 11.5548 4.06323C11.9357 3.80927 12.4436 3.55532 12.9515 3.55532H230.08C230.588 3.55532 231.096 3.6823 231.477 4.06323C234.144 5.96787 236.683 8.50738 239.096 11.8088C239.984 12.3167 240.111 12.8246 240.111 13.3325Z" fill="#E6C9C3"/>
<path d="M232.747 17.0148C231.477 15.4911 230.08 13.8404 228.557 12.4436C224.494 9.01529 218.78 9.26924 213.574 9.14226C207.098 9.01529 200.622 8.88832 194.273 8.76134C185.131 8.50739 176.116 8.50739 166.973 8.50739C158.085 8.50739 111.866 8.63437 102.978 8.88832C94.0892 8.63437 85.2009 8.50739 76.3126 8.50739C67.1703 8.50739 58.155 8.63437 49.0128 8.76134C42.537 8.88832 36.0613 9.01529 29.7125 9.14226C24.5065 9.26924 18.9195 9.01529 14.7293 12.4436C13.0786 13.8404 11.8088 15.3641 10.5391 17.0148C9.52326 18.1576 7.74563 19.1734 8.50748 20.6971C9.90422 23.8715 13.4596 26.284 16.38 28.1887C18.0307 29.3314 20.1893 25.9031 20.9511 24.8873C22.2209 23.2366 23.3637 21.332 24.7604 19.6813C25.6492 18.6655 26.538 18.4115 25.5222 17.3957C24.6334 16.5069 23.7445 15.745 22.9827 14.7292C22.4748 14.0943 20.9511 14.9832 20.5702 15.3641C18.7925 17.0148 17.2688 18.7924 15.4912 20.4431C14.4754 21.332 17.2688 20.8241 17.7767 20.3161C18.7925 19.0464 20.0623 17.9036 21.459 16.8878C22.3479 16.2529 22.0939 16.3799 22.7288 17.0148C23.2367 17.3957 23.7446 18.0306 23.7446 18.6655C23.7446 18.9194 23.6176 19.1734 23.4906 19.4273C22.0939 21.9668 19.5543 23.7445 17.9037 26.157C17.5227 26.6649 12.4438 21.9668 11.9358 21.4589C10.6661 20.3162 10.666 19.4273 11.8088 18.1576C13.5865 16.2529 15.4911 13.8404 17.7767 12.4436C21.2051 10.412 25.1413 11.0469 28.9506 11.0469C35.2994 10.9199 41.7752 10.9199 48.124 10.666C57.7742 10.412 67.0434 10.0311 76.6936 10.0311C81.3917 10.0311 86.2167 10.1581 90.9148 10.2851C103.612 10.666 153.641 10.0311 166.339 10.0311C175.989 10.0311 185.258 10.539 194.908 10.666C201.257 10.793 207.733 10.9199 214.081 11.0469C217.891 11.0469 221.954 10.539 225.255 12.4436C227.541 13.8404 229.446 16.1259 231.223 18.1576C232.366 19.4273 232.366 20.1892 231.096 21.4589C230.588 21.9668 225.509 26.6649 225.128 26.157C223.478 23.7445 220.938 21.9668 219.541 19.4273C219.415 19.1734 219.288 18.9194 219.288 18.6655C219.288 18.0306 219.795 17.3957 220.303 17.0148C220.938 16.3799 220.684 16.2529 221.573 16.8878C222.843 17.9036 224.113 19.0464 225.255 20.3161C225.763 20.951 228.684 21.4589 227.541 20.4431C225.763 18.9194 224.113 17.0148 222.462 15.3641C222.081 14.9832 220.557 14.2213 220.049 14.7292C219.287 15.618 218.399 16.5069 217.51 17.3957C216.367 18.5385 217.256 18.6655 218.272 19.6813C219.668 21.332 220.938 23.2366 222.081 24.8873C222.843 25.9031 225.001 29.2045 226.652 28.1887C229.573 26.284 233.128 23.8715 234.525 20.6971C235.413 19.1734 233.763 18.2845 232.747 17.0148Z" fill="#E6C9C3"/>
<path d="M232.493 16.3799C231.223 14.8562 229.826 13.2055 228.303 11.8088C224.239 8.38041 218.526 8.63436 213.32 8.50738C206.844 8.38041 200.368 8.25344 194.019 8.12646C184.877 7.87251 175.862 7.87251 166.719 7.87251C157.831 7.87251 111.612 7.99948 102.724 8.25344C93.8353 7.99948 84.9469 7.87251 76.0586 7.87251C66.9164 7.87251 57.9011 7.99949 48.7588 8.12646C42.283 8.25344 35.8072 8.38041 29.4585 8.50738C24.2524 8.63436 18.6655 8.38041 14.4753 11.8088C12.8246 13.2055 11.5548 14.7292 10.285 16.3799C9.26923 17.5227 7.4916 18.5385 8.25345 20.0622C9.65019 23.2366 13.2055 25.6491 16.126 27.5538C17.7767 28.6966 19.9352 25.2682 20.6971 24.2524C21.9668 22.6017 23.1096 20.6971 24.5064 19.0464C25.3952 18.0306 26.2841 17.7766 25.2683 16.7608C24.3794 15.872 23.4906 15.1101 22.7287 14.0943C22.2208 13.4594 20.6971 14.3483 20.3162 14.7292C18.5385 16.3799 17.0148 18.1576 15.2371 19.8082C14.2213 20.6971 17.0148 20.1892 17.5227 19.6813C18.5385 18.4115 19.8083 17.2687 21.205 16.2529C22.0938 15.618 21.8399 15.745 22.4748 16.3799C22.9827 16.7608 23.4906 17.3957 23.4906 18.0306C23.4906 18.2845 23.3636 18.5385 23.2366 18.7924C21.8399 21.332 19.3004 23.1096 17.6497 25.5222C17.2688 26.0301 12.1897 21.332 11.6818 20.8241C10.4121 19.6813 10.412 18.7924 11.5548 17.5227C13.3325 15.618 15.2371 13.2055 17.5227 11.8088C20.951 9.77714 24.8873 10.412 28.6965 10.412C35.0453 10.285 41.5212 10.2851 47.87 10.0311C57.5201 9.77715 66.7894 9.39622 76.4395 9.39622C81.1376 9.39622 85.9628 9.52319 90.6609 9.65017C103.358 10.0311 153.387 9.39622 166.085 9.39622C175.735 9.39622 185.004 9.90413 194.654 10.0311C201.003 10.1581 207.479 10.285 213.828 10.412C217.637 10.412 221.7 9.90412 225.001 11.8088C227.287 13.2055 229.192 15.4911 230.969 17.5227C232.112 18.7924 232.112 19.5543 230.842 20.8241C230.334 21.332 225.255 26.0301 224.874 25.5222C223.224 23.1096 220.684 21.332 219.287 18.7924C219.16 18.5385 219.033 18.2845 219.033 18.0306C219.033 17.3957 219.541 16.7608 220.049 16.3799C220.684 15.745 220.43 15.618 221.319 16.2529C222.589 17.2687 223.859 18.4115 225.001 19.6813C225.509 20.3161 228.43 20.8241 227.287 19.8082C225.509 18.2845 223.859 16.3799 222.208 14.7292C221.827 14.3483 220.303 13.5864 219.795 14.0943C219.033 14.9832 218.145 15.872 217.256 16.7608C216.113 17.9036 217.002 18.0306 218.018 19.0464C219.414 20.6971 220.684 22.6017 221.827 24.2524C222.589 25.2682 224.747 28.5696 226.398 27.5538C229.319 25.6491 232.874 23.2366 234.271 20.0622C235.286 18.4115 233.509 17.5227 232.493 16.3799Z" fill="#6D5873"/>
<path d="M231.096 278.585C229.826 280.109 228.557 281.633 227.033 283.029C223.097 286.331 217.51 286.077 212.558 286.204C206.336 286.331 199.987 286.458 193.765 286.585C184.877 286.839 176.116 286.839 167.227 286.839C158.593 286.839 113.644 286.712 105.009 286.458C96.3748 286.712 87.7404 286.839 79.106 286.839C70.2177 286.839 61.4564 286.712 52.5681 286.585C46.3463 286.458 39.9974 286.331 33.7756 286.204C28.8236 286.077 23.2367 286.331 19.3004 283.029C17.7767 281.76 16.5069 280.109 15.2372 278.585C14.2214 277.442 12.5707 276.554 13.2056 274.903C14.4753 271.855 18.0307 269.443 20.8241 267.665C22.4748 266.649 24.6334 269.824 25.2683 270.84C26.4111 272.49 27.6808 274.395 29.0776 275.919C29.9664 276.935 30.8552 277.061 29.7125 278.204C28.8236 279.093 27.9348 279.855 27.1729 280.744C26.665 281.379 25.1413 280.49 24.7604 280.109C23.1097 278.458 21.5859 276.681 19.8083 275.157C18.7925 274.268 21.586 274.776 22.0939 275.284C23.1097 276.427 24.3794 277.696 25.6492 278.585C26.538 279.22 26.2841 279.093 26.919 278.458C27.4269 278.077 27.9348 277.442 27.9348 276.808C27.9348 276.554 27.8078 276.3 27.6808 276.046C26.2841 273.633 23.8715 271.855 22.2208 269.443C21.8399 268.935 16.8879 273.506 16.38 274.014C15.2372 275.157 15.1102 275.919 16.253 277.188C18.0306 279.093 19.8083 281.379 22.0939 282.648C25.3953 284.553 29.3315 284.045 33.0138 284.045C39.2356 284.172 45.5844 284.172 51.6793 284.426C61.0755 284.68 70.0907 285.061 79.487 285.061C84.0581 285.061 88.7562 284.934 93.3274 284.807C105.644 284.426 154.403 285.061 166.719 285.061C176.116 285.061 185.131 284.68 194.527 284.426C200.749 284.299 206.971 284.172 213.193 284.045C216.875 284.045 220.811 284.553 224.113 282.648C226.398 281.252 228.176 279.093 229.953 277.188C231.096 275.919 231.096 275.157 229.826 274.014C229.319 273.506 224.367 268.935 223.986 269.443C222.335 271.728 219.922 273.633 218.526 276.046C218.399 276.3 218.272 276.554 218.272 276.808C218.272 277.442 218.78 278.077 219.287 278.458C219.922 279.093 219.668 279.22 220.557 278.585C221.827 277.696 223.097 276.427 224.113 275.284C224.62 274.649 227.414 274.268 226.398 275.157C224.62 276.681 223.097 278.458 221.446 280.109C221.065 280.49 219.541 281.252 219.034 280.744C218.272 279.855 217.383 279.093 216.494 278.204C215.351 277.061 216.24 276.935 217.129 275.919C218.526 274.395 219.668 272.49 220.938 270.84C221.573 269.824 223.732 266.649 225.382 267.665C228.176 269.443 231.731 271.855 233.001 274.903C233.763 276.427 232.112 277.442 231.096 278.585Z" fill="#E6C9C3"/>
<path d="M230.969 277.696C229.7 279.22 228.43 280.744 226.906 282.141C222.97 285.442 217.383 285.188 212.431 285.315C206.209 285.442 199.86 285.569 193.638 285.696C184.75 285.95 175.989 285.95 167.1 285.95C158.466 285.95 113.517 285.823 104.882 285.569C96.2478 285.823 87.6135 285.95 78.9792 285.95C70.0908 285.95 61.3295 285.823 52.4412 285.696C46.2193 285.569 39.8706 285.442 33.6487 285.315C28.6967 285.188 23.1097 285.442 19.1734 282.141C17.6497 280.871 16.38 279.22 15.1103 277.696C14.0945 276.554 12.4437 275.665 13.0786 274.014C14.4754 270.967 17.9037 268.554 20.6972 266.776C22.3479 265.761 24.5065 268.935 25.1413 269.951C26.2841 271.601 27.5539 273.506 28.9506 275.03C29.8394 276.046 30.7283 276.173 29.5855 277.315C28.6967 278.204 27.8078 278.966 27.046 279.855C26.5381 280.49 25.0144 279.601 24.6335 279.22C22.9828 277.569 21.459 275.792 19.6814 274.268C18.6656 273.379 21.459 273.887 21.9669 274.395C22.9827 275.538 24.2525 276.808 25.5222 277.696C26.4111 278.331 26.1571 278.204 26.792 277.569C27.2999 277.188 27.8079 276.554 27.8079 275.919C27.8079 275.665 27.6809 275.411 27.5539 275.157C26.1572 272.744 23.7446 270.967 22.094 268.554C21.713 268.046 16.7609 272.617 16.253 273.125C15.1102 274.268 14.9833 275.03 16.1261 276.3C17.9037 278.204 19.6814 280.49 21.9669 281.76C25.2683 283.664 29.2046 283.156 32.8869 283.156C39.1087 283.283 45.4575 283.283 51.5523 283.537C60.9485 283.791 69.9638 284.172 79.3601 284.172C83.9312 284.172 88.6293 284.045 93.2005 283.918C105.517 283.537 154.276 284.172 166.593 284.172C175.989 284.172 185.004 283.791 194.4 283.537C200.622 283.41 206.971 283.283 213.066 283.156C216.748 283.156 220.684 283.664 223.986 281.76C226.271 280.363 228.049 278.204 229.827 276.3C230.969 275.03 230.969 274.268 229.7 273.125C229.192 272.617 224.24 268.046 223.859 268.554C222.208 270.84 219.795 272.744 218.399 275.157C218.272 275.411 218.145 275.665 218.145 275.919C218.145 276.554 218.653 277.188 219.161 277.569C219.795 278.204 219.541 278.331 220.43 277.696C221.7 276.808 222.97 275.538 223.986 274.395C224.494 273.76 227.287 273.379 226.271 274.268C224.494 275.792 222.97 277.569 221.319 279.22C220.938 279.601 219.415 280.363 218.907 279.855C218.145 278.966 217.256 278.204 216.367 277.315C215.224 276.173 216.113 276.046 217.002 275.03C218.399 273.506 219.542 271.601 220.811 269.951C221.446 268.935 223.605 265.761 225.255 266.776C228.049 268.554 231.604 270.967 232.874 274.014C233.636 275.665 231.985 276.554 230.969 277.696Z" fill="#6D5873"/>
<g opacity="0.1">
<path d="M45.3303 255.222C44.1875 254.46 42.5368 254.333 41.1401 254.587C40.5052 254.46 39.6164 254.968 39.2355 255.349C38.9815 253.19 37.5847 251.539 35.934 250.143C33.7754 248.492 31.7439 247.476 29.0774 248.365C26.9188 249 23.9983 250.524 23.4904 252.936C22.9825 255.222 24.8871 257.253 26.1569 259.031C26.9187 260.047 27.5536 260.809 28.3155 261.316C28.3155 261.443 28.4425 261.443 28.4425 261.57C30.0932 263.475 32.8867 262.459 34.7913 261.57C36.188 260.936 37.5847 259.92 38.4736 258.523C38.8545 259.158 39.1084 259.666 39.7433 260.047C40.3782 260.428 41.394 260.809 42.1559 261.063C43.1717 261.316 44.9494 260.555 45.5843 259.539C45.9652 258.904 46.473 257.888 46.473 257.126C46.473 256.237 46.0921 255.603 45.3303 255.222Z" fill="#E8E6E8"/>
<path d="M44.0607 267.284C43.5528 266.649 42.6639 266.522 42.0291 266.269C41.0133 266.015 39.9975 266.142 38.9817 266.396C38.3468 266.522 37.5849 266.776 37.204 267.284C36.8231 267.919 36.5691 268.427 36.95 269.189C37.204 269.697 37.8389 270.078 38.3468 270.332C39.2356 270.713 40.3784 270.713 41.2672 270.586C42.0291 270.459 43.0449 270.205 43.5528 269.57C44.5686 269.062 44.6956 268.046 44.0607 267.284Z" fill="#E8E6E8"/>
<path d="M19.5543 251.031C19.4273 250.524 19.0463 250.27 18.7924 249.889C18.5384 249.508 17.0148 250.143 17.0148 250.65C17.0148 251.031 17.0147 251.539 17.1417 252.047C17.2687 252.555 17.7766 252.809 18.1575 252.936C18.4115 253.063 19.0463 252.809 19.1733 252.428C19.4273 251.92 19.6813 251.412 19.5543 251.031Z" fill="#E8E6E8"/>
<path d="M55.2344 274.268C55.1074 274.141 55.1074 273.887 54.9804 273.76C54.8535 273.506 54.5995 273.506 54.3456 273.379C53.8377 273.125 53.2028 273.125 52.5679 272.871C52.187 272.744 51.8061 272.998 51.4251 273.125C51.2982 273.252 50.6633 273.633 50.7903 273.887C51.0442 274.395 51.2981 274.776 51.806 275.03C52.5679 275.284 53.3297 275.157 54.0916 275.03C54.3456 275.03 55.4884 274.522 55.2344 274.268Z" fill="#E8E6E8"/>
<path d="M45.9652 259.031C45.3304 259.793 44.5685 260.682 43.5527 260.936C43.1717 261.062 42.7909 261.062 42.4099 260.936C40.7592 260.809 39.2355 259.793 38.4736 258.396C37.7118 259.793 36.442 260.555 35.1723 261.316C34.2834 261.824 33.2676 262.459 32.1248 262.586C31.236 262.713 30.4741 262.459 29.5853 262.332C28.8235 262.205 28.1886 261.57 27.8077 260.936C26.157 258.777 24.3793 256.491 23.4905 253.825C23.4905 255.349 24.2523 256.745 25.0142 258.015C26.284 260.047 27.6807 262.078 29.2044 263.983C30.2202 264.11 31.617 264.11 32.6328 263.856C33.2676 263.729 33.7755 263.348 34.2834 262.967C35.8071 262.078 37.2039 261.189 38.3467 259.793C37.9657 260.174 41.648 261.316 41.902 261.443C44.3145 262.205 44.6955 260.936 45.9652 259.031Z" fill="#E6C9C3"/>
<path d="M44.4414 268.3C44.3144 269.189 43.5526 269.951 42.7908 270.205C41.394 270.713 36.4419 271.094 37.2038 268.427C36.9498 269.443 37.2038 270.586 38.2196 270.967C39.4893 271.475 40.7591 271.728 42.1559 271.221C43.4256 270.84 44.4414 269.697 44.4414 268.3Z" fill="#E6C9C3"/>
</g>
<path opacity="0.1" d="M226.017 168.751C225.128 166.719 222.589 167.1 220.811 167.481C219.668 167.735 218.398 168.37 217.129 169.259C216.748 169.386 216.24 169.513 215.986 169.767C214.081 171.418 213.573 173.449 213.319 175.862C213.192 177.512 213.319 179.036 215.224 179.29C219.287 180.052 224.239 177.131 225.636 173.322C226.271 172.052 226.525 170.148 226.017 168.751Z" fill="#E8E6E8"/>
<path opacity="0.1" d="M221.192 181.449C220.938 181.068 220.176 181.195 219.795 181.322C219.033 181.449 218.399 181.83 217.764 182.21C217.51 182.464 217.129 182.591 216.875 182.845C216.494 183.226 216.367 183.48 216.113 183.861C215.859 184.496 216.113 184.877 216.621 185.131C217.256 185.385 218.018 185.258 218.78 184.877C218.653 184.877 218.78 184.877 218.907 184.75C219.161 184.623 219.414 184.496 219.541 184.242C219.541 184.242 219.414 184.242 219.414 184.369C219.541 184.242 219.668 184.242 219.795 184.115C220.176 183.734 220.557 183.48 220.811 183.099C220.938 182.845 221.065 182.464 221.192 182.21C221.573 181.83 221.446 181.703 221.192 181.449Z" fill="#E8E6E8"/>
<path opacity="0.1" d="M221.446 159.736C221.065 159.609 220.557 159.736 220.176 159.863C219.795 159.99 219.16 160.244 218.78 160.625C218.272 161.386 217.764 162.275 218.272 163.037C218.78 164.053 220.303 164.053 221.192 163.799C222.208 163.545 223.097 162.783 223.097 161.64C223.097 160.625 222.335 159.99 221.446 159.736Z" fill="#E8E6E8"/>
<path opacity="0.1" d="M217.891 258.777C217.891 258.142 217.51 257.634 217.002 257.126C215.605 255.603 212.685 256.491 211.161 257.253C210.145 257.888 208.875 258.777 209.002 260.174C209.129 261.189 209.51 261.951 210.399 262.332C212.431 263.221 215.224 262.713 216.621 260.936C217.383 260.428 217.891 259.793 217.891 258.777Z" fill="#E8E6E8"/>
<g opacity="0.1">
<path d="M210.018 264.999C210.145 264.999 210.145 264.872 210.272 264.872C209.891 264.999 209.891 265.126 210.018 264.999Z" fill="#E8E6E8"/>
<path d="M210.653 263.856C210.526 263.729 210.399 263.729 210.272 263.729C210.018 263.602 209.51 263.856 209.256 263.983C209.002 264.237 208.494 264.364 208.367 264.745C208.367 264.872 208.24 264.999 208.24 265.126C208.24 265.253 208.367 265.253 208.367 265.38C208.494 265.634 209.002 265.507 209.256 265.507C209.637 265.38 210.018 265.253 210.272 264.999C210.399 264.999 210.399 264.872 210.526 264.745C210.653 264.618 210.78 264.491 210.78 264.237C210.78 263.983 210.78 263.983 210.653 263.856Z" fill="#E8E6E8"/>
</g>
<path opacity="0.1" d="M197.321 269.57C197.321 269.57 196.94 269.697 197.067 269.824L197.194 270.205C197.194 270.205 197.321 270.205 197.448 270.205C197.448 270.205 197.575 270.205 197.702 270.078C197.702 269.951 197.829 269.824 197.829 269.697C197.702 269.443 197.448 269.57 197.321 269.57Z" fill="#E8E6E8"/>
<path opacity="0.1" d="M227.414 233.001C227.16 232.62 226.652 232.62 226.271 232.62C225.509 232.62 224.747 232.874 224.112 233.128C223.731 233.255 223.224 233.509 223.097 233.89C223.097 234.017 222.97 234.017 222.97 234.144C222.97 234.271 222.97 234.398 223.097 234.525C222.843 234.271 222.716 234.271 222.843 234.652C222.843 234.652 222.843 234.651 222.843 234.778C222.97 235.032 223.224 235.032 223.478 235.159C223.858 235.286 224.366 235.159 224.747 235.159C224.874 235.159 225.001 235.159 225.128 235.159C225.636 235.032 226.144 234.905 226.652 234.652C226.906 234.525 227.414 234.271 227.541 233.89C227.541 233.382 227.541 233.255 227.414 233.001Z" fill="#E8E6E8"/>
<path opacity="0.1" d="M180.941 247.476C180.941 247.349 180.814 247.222 180.814 247.222C180.687 247.095 180.56 247.095 180.433 247.095C180.052 246.968 179.29 247.349 178.909 247.603C178.655 247.857 178.401 247.984 178.401 248.365C178.274 248.619 178.274 248.873 178.274 249.127C178.274 249.254 178.528 249.508 178.655 249.635C178.909 249.762 179.417 249.762 179.798 249.635C180.179 249.508 180.56 249.381 180.814 249C180.941 248.873 181.195 248.492 181.195 248.238C181.068 247.857 181.068 247.603 180.941 247.476Z" fill="#E8E6E8"/>
<path opacity="0.1" d="M35.0453 181.068C34.9184 180.687 34.5375 180.433 34.1566 180.179C33.6487 179.925 33.1408 179.798 32.6329 179.671C32.2519 179.671 31.871 179.544 31.3631 179.544C30.4743 179.163 29.3315 179.544 28.5696 179.798C28.0617 179.925 27.6808 180.179 27.1729 180.433C26.919 180.56 26.157 181.068 26.157 181.449V181.576C25.7761 181.956 25.5222 182.464 25.2683 182.972C25.0143 183.861 25.7761 184.496 26.411 184.877C27.0459 185.131 27.8078 185.131 28.5696 185.004C29.0775 185.004 29.2045 185.004 28.8236 185.004C28.3157 185.131 28.5696 185.004 29.4585 185.004C30.0933 184.877 30.8552 184.75 31.49 184.496C32.2519 184.242 33.1407 183.861 33.7756 183.353C34.0295 183.099 34.4105 182.718 34.4105 182.464C34.4105 182.337 34.4105 182.21 34.2835 182.21C34.0296 181.956 34.1565 181.956 34.9184 182.083C34.7914 182.21 34.7914 182.464 34.6644 182.591C34.7914 182.21 35.2993 181.703 35.0453 181.068Z" fill="#E8E6E8"/>
<path opacity="0.1" d="M77.4553 200.876C77.0744 201.003 76.5664 201.13 76.3125 201.511C75.8046 202.019 75.2967 202.527 74.9158 203.161C74.6618 203.669 74.5349 203.923 74.7888 204.431C74.9158 204.812 75.8046 204.304 75.9316 204.177C76.5664 203.669 77.2014 203.288 77.7093 202.527C78.0902 202.019 78.0902 201.638 78.3441 201.003C78.3441 200.749 77.5823 200.876 77.4553 200.876Z" fill="#E8E6E8"/>
<path opacity="0.1" d="M41.0132 92.0575C40.2514 91.4227 39.2356 91.1687 38.4737 90.6608C38.3467 90.6608 37.7119 90.7878 37.8388 90.9148C38.2198 91.5496 38.4738 92.3115 38.9817 92.8194C39.6165 93.4543 40.5053 93.8352 41.2672 94.2161C41.3942 94.3431 42.283 94.0892 42.1561 93.8352C41.9021 93.2003 41.6481 92.5654 41.0132 92.0575Z" fill="#E8E6E8"/>
<path opacity="0.1" d="M191.353 83.1692C191.48 83.0422 191.48 82.9153 191.48 82.6613C191.48 81.8995 189.956 82.5343 189.575 82.6613C188.432 83.1692 187.417 83.8041 186.401 84.439C185.893 84.8199 185.258 85.3278 184.877 85.8357C184.496 86.2166 184.496 86.5976 184.496 87.1055C184.496 87.6134 185.766 87.4864 185.893 87.3594C186.147 87.3594 186.528 87.2325 186.782 87.1055C186.782 87.1055 186.782 87.1055 186.909 87.1055C187.417 86.9785 187.924 86.7245 188.305 86.4706C188.305 86.4706 188.305 86.4706 188.178 86.4706C188.432 86.3436 188.559 86.2166 188.813 86.0897C189.448 85.7087 190.083 85.2008 190.591 84.566L190.718 84.439C190.845 84.312 190.972 84.0581 190.972 83.9311C191.099 83.8041 191.226 83.5502 191.099 83.4232C191.226 83.2962 191.353 83.1692 191.353 83.1692Z" fill="#E8E6E8"/>
<g opacity="0.1">
<path d="M202.273 103.485C201.511 103.358 200.876 103.485 200.114 103.739C199.606 103.866 199.098 104.12 198.59 104.501C198.336 104.628 197.956 104.882 197.956 105.136C197.956 105.39 198.336 105.39 198.463 105.39C198.59 105.39 198.844 105.263 198.971 105.263C199.352 105.136 199.606 105.009 199.987 104.882C200.622 104.628 201.13 104.247 201.765 103.993C202.019 103.993 202.781 103.612 202.273 103.485Z" fill="#E8E6E8"/>
</g>
<path opacity="0.1" d="M194.146 204.685C193.892 204.431 193.511 204.304 193.13 204.05C192.876 203.923 191.734 204.304 191.988 204.558C192.241 204.812 192.495 205.066 192.876 205.193C193.257 205.32 193.511 205.574 194.019 205.701C194.146 205.701 194.908 205.574 194.908 205.32C194.781 205.066 194.4 204.812 194.146 204.685Z" fill="#E8E6E8"/>
<path opacity="0.1" d="M39.8704 33.3947C38.9816 32.1249 37.3309 31.617 35.8072 31.3631C35.1723 31.2361 34.1565 31.617 33.7755 32.1249C32.2518 35.0454 35.4263 37.3309 38.0927 37.8388C38.7276 37.9658 40.2514 37.5849 40.5053 36.823C41.0132 35.8072 40.6323 34.2835 39.8704 33.3947Z" fill="#E8E6E8"/>
<path opacity="0.1" d="M32.5058 38.2197C32.3788 38.0928 32.3789 37.9658 32.1249 37.8388C31.9979 37.7118 31.744 37.7118 31.617 37.5849C31.3631 37.4579 31.2361 37.5849 30.9822 37.5849C30.8552 37.5849 30.4742 37.7118 30.4742 37.9658C30.4742 38.0928 30.3473 38.4737 30.3473 38.6007C30.3473 38.7276 30.4742 38.7276 30.4742 38.8546C30.6012 38.9816 30.7282 38.9816 30.8551 38.9816C30.9821 38.9816 31.1091 39.1086 31.2361 39.1086C31.363 39.2355 31.744 39.1086 31.8709 39.1086C31.9979 39.1086 32.1249 38.9816 32.1249 38.9816C32.1249 38.9816 32.3789 38.8546 32.3789 38.7276C32.3789 38.6007 32.3789 38.4737 32.3789 38.3467C32.5058 38.3467 32.5058 38.3467 32.5058 38.2197Z" fill="#E8E6E8"/>
<g opacity="0.1">
<path d="M208.875 26.9189C206.971 26.284 204.685 26.538 202.4 27.1729C202.654 26.9189 202.653 26.538 202.653 26.157C202.653 26.157 202.653 26.157 202.653 26.0301C202.019 24.7603 199.352 25.3952 198.336 25.6491H198.209H198.082C197.955 25.6491 197.828 25.7761 197.701 25.7761C197.828 25.7761 197.828 25.7761 197.955 25.6491C197.955 25.6491 197.955 25.6491 198.082 25.6491C197.701 25.7761 197.32 25.9031 196.94 26.0301C196.813 26.157 196.559 26.1571 196.432 26.284C196.305 26.284 196.178 26.411 195.924 26.411C195.416 26.538 192.876 27.5538 195.289 26.6649C194.146 27.0459 193.13 27.5538 192.114 28.3156C191.607 28.6966 190.718 29.3314 190.591 29.9663C190.21 31.617 193.003 31.2361 193.892 31.2361C194.4 31.2361 195.035 31.1091 195.543 30.9821C195.035 31.49 194.4 32.1249 194.019 32.8868C193.892 33.0137 193.765 33.2677 193.638 33.3947C192.749 34.9184 192.114 36.3151 192.114 38.2198C192.114 42.7909 196.94 42.6639 200.241 41.7751C204.558 40.6323 208.875 37.9658 211.161 33.9026C212.304 31.49 211.923 27.9347 208.875 26.9189Z" fill="#E8E6E8"/>
</g>
<path opacity="0.1" d="M218.018 40.6323C217.637 39.9974 216.367 40.2514 215.859 40.5053C215.478 40.6323 215.097 40.7593 214.716 40.8862C214.843 40.8862 214.843 40.7593 214.97 40.7593C214.843 40.8862 214.589 40.8862 214.462 41.0132C214.335 41.0132 214.208 41.1402 214.208 41.2672C213.955 41.3941 213.701 41.5211 213.447 41.7751C213.32 41.7751 213.32 41.902 213.193 41.902L213.066 42.029C212.812 42.283 212.558 42.5369 212.431 42.9178C212.177 43.2988 212.05 43.8067 212.304 44.1876C212.558 44.5685 213.32 44.6955 213.701 44.6955C214.843 44.8225 215.859 43.9337 216.748 43.2988C217.637 42.6639 218.526 41.5211 218.018 40.6323Z" fill="#E8E6E8"/>
<path opacity="0.1" d="M188.94 21.4589C188.305 21.332 187.543 21.4589 187.036 21.5859C185.639 21.9668 183.988 22.4747 182.972 23.7445C182.718 23.9984 182.718 24.1254 182.718 24.5064C183.099 25.1412 183.988 24.8873 184.496 24.8873C185.639 24.7603 187.036 24.2524 188.051 23.6175C188.432 23.3636 188.94 23.1096 189.194 22.7287C189.321 22.6017 189.448 22.3478 189.448 22.2208C189.829 21.8399 189.321 21.5859 188.94 21.4589Z" fill="#E8E6E8"/>
<g opacity="0.1">
<path d="M165.704 22.2208C165.958 22.0938 165.958 22.0938 165.704 22.2208V22.2208Z" fill="#E8E6E8"/>
<path d="M167.862 22.8557C167.862 22.4747 167.735 22.3478 167.481 22.0938C167.227 21.8399 166.846 21.9668 166.593 21.9668C166.339 21.9668 166.085 22.0938 165.831 22.2208C165.831 22.2208 165.831 22.2208 165.704 22.2208C165.323 22.4747 165.069 22.7287 164.688 22.9826C164.434 23.3636 164.18 23.6175 164.434 23.9985C164.561 24.2524 164.942 24.2524 165.069 24.2524C165.577 24.2524 165.958 24.2524 166.466 24.1254C166.719 23.9984 166.973 23.8715 167.227 23.6175C167.481 23.4905 167.735 23.2366 167.862 22.8557Z" fill="#E8E6E8"/>
<path d="M165.704 22.2208C165.45 22.3478 165.323 22.4747 165.196 22.6017C165.45 22.4747 165.577 22.3478 165.704 22.2208Z" fill="#E8E6E8"/>
</g>
<path opacity="0.1" d="M224.493 78.852C223.985 78.2172 222.843 78.4711 222.208 78.4711C221.192 78.5981 220.303 78.7251 219.414 79.233C218.906 79.4869 217.891 79.9948 217.764 80.6297C217.764 80.8837 217.637 81.1376 217.637 81.3916C217.637 81.5185 217.891 81.7725 218.145 81.8995C218.652 82.2804 219.541 82.1534 220.176 82.0264C220.684 81.8995 221.192 81.7725 221.7 81.6455C222.462 81.3916 223.351 81.0106 223.986 80.5027C224.239 80.1218 224.874 79.3599 224.493 78.852Z" fill="#E8E6E8"/>
<path opacity="0.1" d="M20.4431 84.0581C20.4431 83.9311 20.3161 83.9311 20.3161 83.9311C20.1892 83.8041 20.0622 83.6771 20.0622 83.5501C19.9352 83.4232 19.6813 83.5501 19.5543 83.5501C19.4273 83.5501 19.1734 83.8041 19.3004 83.9311C19.4273 84.0581 19.5543 84.185 19.6813 84.312C19.8082 84.312 19.8083 84.439 19.9352 84.439C20.0622 84.439 20.1892 84.566 20.1892 84.566C20.3162 84.566 20.5701 84.439 20.5701 84.312C20.5701 84.312 20.5701 84.185 20.4431 84.0581Z" fill="#E8E6E8"/>
<path opacity="0.1" d="M26.284 57.2661C26.03 57.0122 25.776 56.8852 25.5221 56.7582C25.3951 56.7582 24.8873 56.8852 25.0142 57.0122C25.1412 57.2661 25.2682 57.3931 25.3951 57.6471C25.5221 57.901 25.903 58.028 26.03 58.155C26.157 58.2819 26.6649 58.028 26.6649 57.901C26.5379 57.6471 26.411 57.5201 26.284 57.2661Z" fill="#E8E6E8"/>
<g opacity="0.1">
<path d="M152.117 20.4431C151.736 20.4431 151.228 20.6971 150.974 20.951C150.847 21.078 150.72 21.332 150.593 21.4589C150.466 21.5859 150.466 21.8398 150.466 21.9668C150.466 22.0938 150.847 22.0938 150.974 21.9668C151.228 21.9668 151.355 21.8399 151.609 21.7129C151.609 21.7129 151.736 21.7129 151.736 21.5859C151.863 21.4589 151.99 21.3319 152.117 21.205C152.244 21.078 152.371 20.824 152.498 20.5701C152.752 20.3161 152.371 20.3161 152.117 20.4431Z" fill="#E8E6E8"/>
</g>
<path opacity="0.1" d="M141.959 261.951C141.578 261.697 140.562 262.205 140.308 262.586C140.054 262.967 139.927 263.475 140.054 263.856C140.181 264.364 140.562 264.491 140.943 264.745C141.197 264.872 141.832 264.618 142.086 264.364C142.467 263.856 142.594 263.602 142.594 262.967C142.594 262.586 142.34 262.205 141.959 261.951Z" fill="#E8E6E8"/>
<path opacity="0.1" d="M91.2956 266.903C91.2956 266.776 91.1686 266.649 91.1686 266.522C91.1686 266.395 90.7877 266.522 90.7877 266.522C90.7877 266.522 90.4067 266.649 90.4067 266.776C90.5337 266.903 90.5337 267.03 90.6607 267.157C90.7877 267.284 90.7876 267.411 90.9146 267.411C91.0416 267.411 91.2956 267.411 91.4225 267.284C91.4225 267.157 91.2956 267.03 91.2956 266.903Z" fill="#E8E6E8"/>
<path opacity="0.1" d="M106.533 272.617C106.406 272.617 106.025 272.871 106.279 272.871C106.406 272.871 106.787 272.617 106.533 272.617Z" fill="#E8E6E8"/>
<path opacity="0.1" d="M165.958 269.824C165.958 269.697 165.831 269.57 165.704 269.443C165.577 269.189 165.45 269.062 165.196 268.808C164.942 268.427 164.307 268.808 163.926 268.935C163.799 268.935 162.91 269.443 163.291 269.697C163.545 269.824 163.799 270.078 163.926 270.205C164.053 270.332 164.18 270.332 164.18 270.459C164.307 270.586 164.561 270.586 164.688 270.586C164.815 270.586 165.069 270.586 165.323 270.459C165.45 270.459 165.704 270.332 165.704 270.205C165.958 270.078 165.958 269.824 165.958 269.824Z" fill="#E8E6E8"/>
<path opacity="0.1" d="M35.2992 181.322C34.7913 182.083 34.1565 182.718 33.5216 183.353C31.9979 184.877 29.5854 185.004 27.5537 185.004C26.5379 185.004 26.157 184.242 25.2682 184.115C25.5221 184.75 26.157 185.131 26.7918 185.385C27.9346 185.766 29.0775 186.02 30.3472 185.766C31.363 185.512 32.3788 184.877 33.1406 184.115C33.7755 183.353 34.6644 182.21 35.2992 181.322Z" fill="#E6C9C3"/>
<path opacity="0.1" d="M34.4104 35.6802C35.2992 36.823 36.823 37.5849 38.2197 37.7119C39.7434 37.8388 40.1243 37.2039 40.7592 35.9342C41.0132 36.1881 41.0132 36.4421 40.7592 36.696C40.1243 37.5849 39.2355 38.3467 38.3467 38.8546C38.2197 38.9816 38.0928 38.9816 37.9658 38.9816C37.8388 38.9816 37.7118 38.9816 37.5848 38.8546C36.1881 38.2198 35.0453 37.2039 34.2835 35.9342C33.6486 34.9184 33.3946 33.5216 33.7755 32.3789C33.5216 33.5216 33.7755 34.9184 34.4104 35.6802Z" fill="#E6C9C3"/>
<path opacity="0.1" d="M192.242 39.3625C192.369 40.7593 193.384 41.3942 194.527 41.7751C197.955 42.9179 201.765 41.6481 204.939 39.7435C208.621 37.7118 211.796 33.9026 211.542 29.4584C212.05 33.0137 210.526 36.95 207.733 39.2356C206.082 40.6323 204.05 41.3941 202.019 42.029C199.606 42.9179 196.94 43.6797 194.527 42.7909C192.876 42.5369 191.861 41.1402 192.242 39.3625Z" fill="#E6C9C3"/>
<path opacity="0.1" d="M218.145 40.7593C218.272 41.3941 217.891 42.156 217.383 42.5369C216.875 43.0448 216.24 43.2988 215.732 43.6797C215.097 43.9337 214.589 44.3146 213.828 44.3146C213.066 44.3146 212.431 44.0607 212.177 43.4258C212.558 44.6955 213.7 45.3304 214.97 44.9495C215.478 44.8225 215.859 44.5686 216.24 44.3146C216.748 43.9337 217.383 43.4258 217.764 42.9179C218.018 42.283 218.272 41.3941 218.145 40.7593Z" fill="#E6C9C3"/>
<path opacity="0.1" d="M224.747 78.8521C224.493 79.4869 224.112 79.9948 223.605 80.5027C223.224 80.7567 222.716 81.0106 222.335 81.1376C221.7 81.3916 221.065 81.6455 220.43 81.7725C220.049 81.8995 219.668 82.0264 219.287 82.0264C218.653 82.0264 218.018 81.8995 217.637 81.3916C218.272 81.7725 218.652 82.5344 219.414 82.6613C219.795 82.7883 220.303 82.6613 220.684 82.5343C221.446 82.2804 222.208 82.1534 222.843 81.6455C223.605 81.0106 224.239 79.7409 224.747 78.8521Z" fill="#E6C9C3"/>
<path opacity="0.1" d="M190.972 83.0423C190.337 84.6929 189.448 86.2166 187.924 86.9785C187.036 87.3594 186.147 87.3594 185.258 87.3594C186.147 87.7404 187.543 87.8673 188.559 87.4864C189.321 87.1055 189.829 86.4706 190.21 85.8357C190.591 85.0739 190.845 83.9311 190.972 83.0423Z" fill="#E6C9C3"/>
<path opacity="0.1" d="M223.097 161.132C223.224 161.767 222.97 162.529 222.335 163.037C221.827 163.545 221.065 163.672 220.43 163.799C219.922 163.799 219.287 163.799 218.906 163.418C218.399 163.164 218.145 162.529 218.272 162.021C218.399 162.783 218.399 163.926 219.16 164.307C219.414 164.434 219.795 164.434 220.049 164.434C220.811 164.434 221.7 164.307 222.208 163.799C222.97 163.037 222.97 162.148 223.097 161.132Z" fill="#E6C9C3"/>
<path opacity="0.1" d="M226.271 169.767C226.779 172.306 226.017 174.973 224.24 176.877C222.589 178.782 220.176 179.925 217.637 180.179C216.748 180.306 215.859 180.179 215.097 179.798C214.335 179.417 213.701 178.655 213.701 177.766C213.955 178.655 215.097 179.163 215.859 179.417C216.748 179.671 217.637 179.544 218.399 179.29C222.589 178.147 225.89 174.084 226.271 169.767Z" fill="#E6C9C3"/>
<path opacity="0.1" d="M221.319 182.083C220.938 183.353 219.922 184.369 218.653 185.004C218.018 185.258 217.002 185.512 216.494 184.877C217.383 185.385 218.399 185.766 219.287 185.258C219.668 185.004 220.049 184.623 220.43 184.369C220.938 183.734 221.446 182.845 221.319 182.083Z" fill="#E6C9C3"/>
<path opacity="0.1" d="M217.891 258.015C218.271 259.158 217.764 260.428 216.875 261.19C215.986 261.951 214.716 262.332 213.573 262.459C212.685 262.586 211.796 262.713 211.034 262.459C210.145 262.205 209.383 261.697 209.129 260.809C209.637 261.443 210.272 262.332 210.907 262.713C211.542 263.094 212.304 263.475 213.065 263.348C213.446 263.348 213.827 263.221 214.335 263.094C215.351 262.713 216.367 262.205 217.129 261.316C217.637 260.682 218.145 259.158 217.891 258.015Z" fill="#E6C9C3"/>
<defs>
<linearGradient id="paint0_linear_9_9693" x1="122.603" y1="-66.0929" x2="122.603" y2="325.592" gradientUnits="userSpaceOnUse">
<stop stop-color="#BFA0A2"/>
<stop offset="0.2596" stop-color="#8B7588"/>
<stop offset="0.5642" stop-color="#493E66"/>
<stop offset="0.8176" stop-color="#224569"/>
<stop offset="1" stop-color="#0A4A6B"/>
</linearGradient>
<radialGradient id="paint1_radial_9_9693" cx="0" cy="0" r="1" gradientUnits="userSpaceOnUse" gradientTransform="translate(129.93 -3.3882) scale(551.514 551.514)">
<stop stop-color="#CCAAAC"/>
<stop offset="1" stop-color="#6C6778"/>
</radialGradient>
</defs>
</svg>
