<svg width="66" height="55" viewBox="0 0 66 55" fill="none" xmlns="http://www.w3.org/2000/svg">
<path d="M64.1193 32.9518C63.6831 32.7026 63.3092 32.5156 62.873 32.2664C63.4339 32.2041 64.057 32.0794 64.4309 31.6433C65.2409 30.7709 64.9294 28.403 64.8047 27.3437C64.6801 25.6613 64.4309 23.9789 64.1193 22.2964C63.4339 18.9939 62.4369 15.7536 61.066 12.638C60.5052 11.3918 59.8821 10.2078 59.0097 9.21085C57.078 6.9053 54.4609 5.28517 51.7192 4.10124C50.286 3.47812 48.7905 2.97962 47.2327 2.54344C46.4849 2.29419 45.6749 1.98264 44.8648 1.85802C44.1794 1.7957 43.7432 2.3565 43.1824 2.29419C42.8085 2.23188 42.8085 1.48413 42.5593 1.29719C42.1854 0.98563 41.1884 0.985641 40.7522 0.861017C38.2597 0.237894 35.3933 0.300199 32.9632 1.04795C29.2244 2.23188 25.735 3.91432 22.6193 6.21987C20.4384 7.77768 18.2575 9.58473 16.5751 11.7033C16.4504 11.5164 16.3258 11.2672 16.0766 11.1425C16.0142 11.0802 16.0142 11.0802 15.9519 11.0802C15.7027 10.8933 15.3288 10.8933 15.0173 10.831C13.5841 10.644 12.1509 10.5194 10.7177 10.5194C10.6554 10.5194 10.5931 10.5194 10.5308 10.5194C10.4061 10.5194 10.2192 10.5194 10.0946 10.5194C9.96996 10.5194 9.78302 10.5194 9.6584 10.5194C9.59608 10.5194 9.53377 10.5194 9.47146 10.5194C9.22221 10.5194 9.03528 10.5194 8.78603 10.5817H8.72371C8.53678 10.5817 8.34984 10.644 8.16291 10.644C8.10059 10.644 8.03828 10.644 7.97597 10.644C7.85134 10.644 7.66441 10.7063 7.53978 10.7063C7.47747 10.7063 7.35284 10.7687 7.29053 10.7687C7.16591 10.7687 7.04129 10.831 6.91666 10.831C6.85435 10.831 6.85434 10.831 6.79203 10.831C6.72972 10.831 6.72972 10.831 6.66741 10.831C6.23122 10.9556 5.79504 11.0802 5.42116 11.2049C4.79804 11.3918 4.17492 11.5164 3.67642 11.8903C3.42717 12.0149 3.24023 12.2018 3.0533 12.3888C2.86636 12.5757 2.61712 12.825 2.36787 13.0742C2.18093 13.2612 1.994 13.4481 1.93168 13.4481C3.17793 13.1365 4.61111 13.3235 5.67042 14.0089C6.85435 14.7566 7.16591 16.0029 7.85135 17.1245C8.03828 17.4984 8.28753 17.8723 8.47447 18.2461C7.6021 18.3084 6.72972 18.4954 5.85735 18.8069C5.42116 18.9316 4.92267 19.1185 4.5488 19.3677C4.36186 19.4924 4.17492 19.5547 3.98798 19.7416C3.30254 20.2401 2.80405 20.9256 2.30555 21.611C1.30856 23.1688 0.498498 24.8512 0 26.596C1.62012 25.6613 3.73873 25.7236 5.42116 26.2844C6.54278 26.6583 7.6644 27.2191 8.84834 27.2191C9.03527 27.2191 9.1599 27.2191 9.34684 27.2191C9.47146 27.2191 9.59608 27.2191 9.6584 27.1568C9.09759 28.7769 9.22221 30.7086 10.4061 31.9548C11.2162 32.8272 12.2755 33.4503 13.4594 33.8865C13.4594 33.9488 13.5218 34.0734 13.5218 34.1357C13.5218 34.5096 13.5841 34.8835 13.8333 35.1327C14.3941 36.6906 15.2042 38.186 16.2012 39.4946C19.2545 43.4826 23.3048 46.7851 27.9159 48.9038C31.4677 50.5239 36.0165 51.6455 40.1914 51.5832C40.1914 51.9571 40.1291 52.3932 39.9422 52.9541C39.4437 52.8294 39.0698 52.2686 38.8828 51.8324C38.8828 51.7701 38.8205 51.7078 38.8205 51.7078C38.7582 51.6455 38.6336 51.5832 38.509 51.5832C38.0105 51.5209 37.5743 51.5209 37.0758 51.4585C36.8888 51.4585 36.7019 51.3962 36.515 51.3962C36.4527 51.3962 36.4527 51.3962 36.4527 51.4585C36.515 51.8324 37.0758 52.3932 37.325 52.7048C37.6989 53.0787 38.1974 53.3902 38.6336 53.6395C39.5683 54.0757 40.6899 54.3249 41.6869 54.138C41.8738 54.138 42.0608 54.0757 42.1854 53.951C42.31 53.7641 42.31 53.5772 42.31 53.3902C42.31 52.7671 42.2477 52.144 42.1231 51.5832C42.6839 51.5209 43.2447 51.4586 43.7432 51.3339C44.6779 51.147 45.5502 50.7108 46.4226 50.3992C46.9834 50.2123 47.1081 49.4646 47.1704 48.9038C47.6065 49.0907 48.0427 49.2153 48.4789 49.4022C48.6035 49.4646 48.7905 49.5269 48.9151 49.4646C49.0397 49.4646 49.1644 49.4022 49.289 49.3399C50.4729 48.7168 51.6568 48.2183 52.8408 47.5952C53.4016 47.2836 54.0247 46.9721 54.5855 46.5982C54.8971 46.4113 55.8941 45.4143 56.268 45.4143C60.1936 42.2987 63.3092 38.4976 64.4932 33.5749C64.5555 33.4503 64.5555 33.2634 64.4932 33.1387C64.3685 33.0764 64.2439 33.0141 64.1193 32.9518ZM11.5901 29.7116C11.4655 29.5246 11.4654 29.2754 11.4654 29.0885C11.4654 28.7769 11.5278 28.5276 11.5901 28.2161C11.6524 27.8422 11.8393 27.4683 12.0263 27.0945C12.1509 26.8452 12.4001 26.596 12.5248 26.2844C12.5248 27.593 12.5248 28.9638 12.7117 30.2724C12.5248 30.2101 12.3378 30.1478 12.1509 30.0855C11.964 30.0231 11.7147 29.9608 11.5901 29.7116Z" fill="#2E82A6"/>
<path d="M2.30555 21.3617C1.30856 22.9195 0.498498 24.6019 0 26.3467C1.62012 25.412 3.73873 25.4743 5.42116 26.0351C6.54278 26.409 7.6644 26.9698 8.84834 26.9698C9.03527 26.9698 9.1599 26.9698 9.34684 26.9698C10.1569 26.9075 10.9046 26.5336 11.5901 26.1597C13.2102 25.1628 15.5781 23.418 16.4504 21.6733C16.5751 21.3617 16.6997 21.0501 16.5751 20.7386C16.1389 19.1808 13.2102 18.4953 11.9016 18.1838C9.90765 17.8099 7.85134 17.8722 5.91966 18.5576C5.48348 18.6823 4.98498 18.8692 4.6111 19.1185C4.42417 19.2431 4.23723 19.3054 4.0503 19.4923C3.30255 19.9908 2.80405 20.6763 2.30555 21.3617Z" fill="url(#paint0_linear_9_6725)"/>
<path d="M1.93164 13.1988C3.17789 12.8872 4.61107 13.0742 5.67037 13.7596C6.85431 14.5074 7.16587 15.7536 7.8513 16.8752C8.22518 17.4983 8.59905 18.1838 8.91061 18.8692C9.22217 19.4923 9.47142 20.1155 9.78298 20.8009C9.9076 21.1125 10.0322 21.424 10.2815 21.611C10.5307 21.7979 10.8423 21.7979 11.0915 21.7979C13.0855 21.9225 15.1418 21.7979 17.1358 21.4863C17.9459 19.4923 17.8213 17.9345 17.8213 15.7536C17.8213 14.2581 17.4474 12.7626 16.6996 11.4541C16.575 11.2048 16.3881 10.8933 16.1388 10.7686C16.0765 10.7063 16.0765 10.7063 16.0142 10.7063C15.765 10.5194 15.3911 10.5194 15.0795 10.4571C11.7147 10.0832 8.47442 9.77163 5.23418 11.0802C4.54875 11.3294 3.86332 11.641 3.17789 12.0772C2.99095 12.2018 2.67939 12.5757 2.36782 12.8872C2.18089 13.0119 1.99395 13.1988 1.93164 13.1988Z" fill="url(#paint1_linear_9_6725)"/>
<path d="M2.30554 13.0742C2.6171 13.0119 2.92867 13.0119 3.30254 13.0119C4.1126 13.0742 4.92266 13.0119 5.67041 13.4481C6.54278 13.9466 7.10359 14.8189 7.6644 15.6913C8.22521 16.5637 8.78602 17.4361 9.34683 18.3084C9.53376 18.5577 9.65838 18.8069 9.90763 18.9939C10.6554 19.4301 12.1509 17.8722 12.774 17.4984C13.0232 17.3114 13.2725 17.1245 13.3971 16.8129C13.4594 16.5637 13.3348 16.2521 13.2102 16.0029C12.5871 14.9436 11.9016 13.8843 11.0293 13.0119C12.2755 13.5727 13.5841 14.1958 14.8303 14.7566C15.0796 14.8812 15.3911 15.0059 15.6404 14.9436C16.0766 14.8189 16.2635 14.3204 16.3258 13.9466C16.5127 12.8873 16.3258 11.828 16.2012 10.7686C16.1389 10.7063 16.1389 10.7063 16.0766 10.7063C15.8273 10.5194 15.4534 10.5194 15.1419 10.4571C13.3348 10.2701 11.4654 10.0832 9.59607 10.1455C8.66139 10.2078 7.78902 10.3325 6.85434 10.5194C6.41815 10.644 5.98196 10.7686 5.54578 10.9556C4.92265 11.1425 4.29954 11.3295 3.73873 11.641C3.1156 12.0149 2.67942 12.5134 2.30554 13.0742Z" fill="url(#paint2_linear_9_6725)"/>
<path d="M2.30555 21.3617C1.30856 22.9195 0.498498 24.6019 0 26.3467C1.62012 25.412 3.73873 25.4743 5.42116 26.0351C6.54278 26.409 7.6644 26.9698 8.84834 26.9698C9.65839 26.4713 10.4061 25.8482 10.7177 25.1004C11.2162 23.9165 10.5308 23.2311 9.53377 22.8572C8.34984 22.3587 6.6051 22.2964 5.79504 22.2964C6.72972 22.1718 7.6644 21.9848 8.6614 21.8602C8.84833 20.3647 7.22822 19.0562 5.73272 19.0562C5.35885 19.0562 4.98498 19.1185 4.6111 19.1808C4.42417 19.3054 4.23723 19.3677 4.0503 19.5547C3.30255 19.9908 2.80405 20.6763 2.30555 21.3617Z" fill="url(#paint3_linear_9_6725)"/>
<path d="M61.1283 12.2018C60.5675 10.9556 59.9443 9.77162 59.072 8.77463C57.1403 6.46907 54.5232 4.84897 51.7814 3.66503C50.3483 3.04191 48.8528 2.54341 47.295 2.10723C46.5472 1.85798 45.7372 1.54641 44.9271 1.42179C44.2417 1.35948 43.8055 1.9203 43.2447 1.85798C42.8708 1.79567 42.8708 1.04792 42.6215 0.860983C42.2477 0.549422 41.2507 0.549415 40.8145 0.42479C38.322 -0.198332 35.4556 -0.136009 33.0255 0.611738C29.2867 1.79567 25.7972 3.47809 22.6816 5.78365C19.3791 8.21382 16.0765 11.0802 14.4564 15.0059C14.3941 15.1305 14.3318 15.3174 14.3318 15.5044C14.3318 15.6913 14.4564 15.8782 14.5187 16.0652C14.7057 16.5637 14.8303 17.1245 14.8303 17.6853C13.9579 18.6823 13.3971 18.7446 13.1479 20.1155C12.1509 26.4713 12.1509 33.9488 16.2635 39.3076C19.3168 43.2956 23.3671 46.5982 27.9782 48.7168C32.5893 50.8354 38.7582 52.0816 43.8055 51.0223C44.7402 50.8354 45.6125 50.3992 46.4849 50.0877C47.0457 49.9007 47.1703 49.153 47.2326 48.5922C47.6688 48.7791 48.105 48.9037 48.5412 49.0907C48.6658 49.153 48.8528 49.2153 48.9774 49.153C49.102 49.153 49.2266 49.0906 49.3513 49.0283C50.5352 48.4052 51.7191 47.9067 52.9031 47.2836C53.4639 46.972 54.087 46.6605 54.6478 46.2866C54.9594 46.0997 55.9564 45.1027 56.3302 45.1027C60.2559 41.9871 63.3715 38.186 64.5554 33.2633C64.6178 33.1387 64.6178 32.9518 64.5554 32.8272C64.4931 32.7025 64.3685 32.6402 64.2439 32.5156C63.8077 32.2663 63.4338 32.0794 62.9976 31.8302C63.5585 31.7678 64.1816 31.6432 64.5554 31.207C65.3655 30.3347 65.0539 27.9668 64.9293 26.9075C64.8047 25.2251 64.5554 23.5426 64.2439 21.8602C63.4338 18.5576 62.4368 15.3174 61.1283 12.2018Z" fill="url(#paint4_linear_9_6725)"/>
<path d="M62.1875 31.4563C61.9383 31.4563 61.689 31.394 61.5021 31.394C60.8789 31.3317 60.3181 31.2694 59.695 31.1448C60.6297 31.8925 61.9382 32.3287 61.6267 33.6996C61.3774 34.7589 60.7543 35.8805 60.1312 36.8152C60.1312 36.8152 60.1312 36.8775 60.0689 36.8775C59.6327 37.5629 59.1342 38.2484 58.5734 38.9338C57.3895 40.367 56.0186 41.6132 54.5231 42.7971C54.3985 42.9218 54.2738 42.9841 54.1492 43.1087C53.6507 43.4826 53.0899 43.9188 52.4668 44.2926C50.5974 45.5389 48.3542 46.5359 46.3602 46.2243C46.2356 46.2243 46.1109 46.162 46.0486 46.2243C45.9863 46.2866 45.924 46.349 45.8617 46.4113C45.3009 47.6575 44.5531 47.9068 43.1823 48.156C42.123 48.3429 41.0013 48.4676 39.8174 48.4676C39.7551 48.4676 39.7551 48.4676 39.6928 48.4676C38.6335 48.4676 37.5119 48.4053 36.3902 48.2183C33.8354 47.8444 31.2806 47.0967 28.9751 46.0374C28.0404 45.6012 27.1057 45.1027 26.2333 44.6042C25.4856 44.168 24.8002 43.7318 24.1147 43.171C21.9338 41.5509 19.9398 39.6192 18.2574 37.4383C16.5126 35.1327 15.5779 32.3287 15.2664 29.4623C15.2664 29.2754 15.2041 29.0885 15.2041 28.9015C15.0794 27.2814 15.0795 25.7236 15.1418 24.1035C15.2041 23.605 15.2041 23.1065 15.2664 22.5457C15.3287 21.9849 15.391 21.424 15.5779 20.9255C15.7649 20.2401 16.1388 19.617 16.7619 19.1808C16.9488 19.0562 17.1358 18.9316 17.2604 18.7446C17.385 18.5577 17.385 18.3707 17.385 18.1838C17.4473 16.9999 17.3227 15.8783 17.5096 14.6943C17.6966 13.635 18.4443 12.825 19.1921 12.0149C19.6906 11.4541 20.1891 10.8933 20.7499 10.3948C21.2484 9.89628 21.8092 9.46011 22.37 9.02392C22.9931 8.52542 23.6162 8.08923 24.2393 7.59073C25.0494 7.02992 25.8595 6.46911 26.6695 5.97061C26.8565 5.84598 27.1057 5.72137 27.2926 5.59675C29.2866 4.47513 31.4676 3.54045 33.7731 2.7927C34.8324 2.48114 36.0787 2.29419 37.3249 2.29419C38.3219 2.29419 39.3812 2.41882 40.3159 2.66807C40.5028 2.73038 40.7521 2.79269 40.939 2.91731C41.3129 3.10425 41.6245 3.35351 41.936 3.41582C42.123 3.41582 42.3099 3.41582 42.4968 3.35351C42.5591 3.35351 42.6838 3.35351 42.7461 3.35351C43.6808 3.29119 44.7401 3.66507 45.6748 3.97663C45.924 4.03894 46.1733 4.16356 46.3602 4.22587C46.6094 4.28818 46.7964 4.35049 47.0456 4.4128C48.1672 4.78668 49.3512 5.16056 50.4105 5.59675C52.5291 6.46912 54.5854 7.59073 56.2055 9.21085C56.3925 9.39779 56.5794 9.58472 56.704 9.77166C56.8287 9.89628 56.891 10.0209 57.0156 10.1455C57.6387 10.9556 58.1995 11.8903 58.698 13.0119C61.1282 18.5577 63.1222 25.412 62.1875 31.4563Z" fill="url(#paint5_radial_9_6725)"/>
<path d="M62.1875 31.4563C61.9383 31.4563 61.689 31.394 61.5021 31.394C60.8789 31.3317 60.3181 31.2694 59.695 31.1448C60.6297 31.8925 61.9382 32.3287 61.6267 33.6996C61.3774 34.7589 60.7543 35.8805 60.1312 36.8152C60.1312 36.8152 60.1312 36.8775 60.0689 36.8775C59.6327 37.5629 59.1342 38.2484 58.5734 38.9338C57.3895 40.367 56.0186 41.6132 54.5231 42.7971C54.3985 42.9218 54.2738 42.9841 54.1492 43.1087C53.6507 43.4826 53.0899 43.9188 52.4668 44.2926C50.5974 45.5389 48.3542 46.5359 46.3602 46.2243C46.2356 46.2243 46.1109 46.162 46.0486 46.2243C45.9863 46.2866 45.924 46.349 45.8617 46.4113C45.3009 47.6575 44.5531 47.9068 43.1823 48.156C42.123 48.3429 41.0013 48.4676 39.8174 48.4676C39.7551 48.4676 39.7551 48.4676 39.6928 48.4676C38.6335 48.4676 37.5119 48.4053 36.3902 48.2183C33.8354 47.8444 31.2806 47.0967 28.9751 46.0374C28.0404 45.6012 27.1057 45.1027 26.2333 44.6042C25.4856 44.168 24.8002 43.7318 24.1147 43.171C21.9338 41.5509 19.9398 39.6192 18.2574 37.4383C16.5126 35.1327 15.5779 32.3287 15.2664 29.4623C15.2664 29.2754 15.2041 29.0885 15.2041 28.9015C15.0794 27.2814 15.0795 25.7236 15.1418 24.1035C15.2041 23.605 15.2041 23.1065 15.2664 22.5457C15.3287 21.9849 15.391 21.424 15.5779 20.9255C15.7649 20.2401 16.1388 19.617 16.7619 19.1808C16.9488 19.0562 17.1358 18.9316 17.2604 18.7446C17.385 18.5577 17.385 18.3707 17.385 18.1838C17.4473 16.9999 17.3227 15.8783 17.5096 14.6943C17.6966 13.635 18.4443 12.825 19.1921 12.0149C19.6906 11.4541 20.1891 10.8933 20.7499 10.3948C21.2484 9.89628 21.8092 9.46011 22.37 9.02392C22.9931 8.52542 23.6162 8.08923 24.2393 7.59073C25.0494 7.02992 25.8595 6.46911 26.6695 5.97061C26.8565 5.84598 27.1057 5.72137 27.2926 5.59675C29.2866 4.47513 31.4676 3.54045 33.7731 2.7927C34.8324 2.48114 36.0787 2.29419 37.3249 2.29419C38.3219 2.29419 39.3812 2.41882 40.3159 2.66807C40.5028 2.73038 40.7521 2.79269 40.939 2.91731C41.3129 3.10425 41.6245 3.35351 41.936 3.41582C42.123 3.41582 42.3099 3.41582 42.4968 3.35351C42.5591 3.35351 42.6838 3.35351 42.7461 3.35351C43.6808 3.29119 44.7401 3.66507 45.6748 3.97663C45.924 4.03894 46.1733 4.16356 46.3602 4.22587C46.6094 4.28818 46.7964 4.35049 47.0456 4.4128C48.1672 4.78668 49.3512 5.16056 50.4105 5.59675C52.5291 6.46912 54.5854 7.59073 56.2055 9.21085C56.3925 9.39779 56.5794 9.58472 56.704 9.77166C56.8287 9.89628 56.891 10.0209 57.0156 10.1455C57.6387 10.9556 58.1995 11.8903 58.698 13.0119C61.1282 18.5577 63.1222 25.412 62.1875 31.4563Z" fill="url(#paint6_radial_9_6725)"/>
<path d="M47.1 23.22C45.29 23.22 44.55 21.94 45.45 20.37C45.97 19.46 45.66 18.3 44.75 17.78L43.02 16.79C42.23 16.32 41.21 16.6 40.74 17.39L40.63 17.58C39.73 19.15 38.25 19.15 37.34 17.58L37.23 17.39C36.78 16.6 35.76 16.32 34.97 16.79L33.24 17.78C32.33 18.3 32.02 19.47 32.54 20.38C33.45 21.94 32.71 23.22 30.9 23.22C29.86 23.22 29 24.07 29 25.12V26.88C29 27.92 29.85 28.78 30.9 28.78C32.71 28.78 33.45 30.06 32.54 31.63C32.02 32.54 32.33 33.7 33.24 34.22L34.97 35.21C35.76 35.68 36.78 35.4 37.25 34.61L37.36 34.42C38.26 32.85 39.74 32.85 40.65 34.42L40.76 34.61C41.23 35.4 42.25 35.68 43.04 35.21L44.77 34.22C45.68 33.7 45.99 32.53 45.47 31.63C44.56 30.06 45.3 28.78 47.11 28.78C48.15 28.78 49.01 27.93 49.01 26.88V25.12C49 24.08 48.15 23.22 47.1 23.22ZM39 29.25C37.21 29.25 35.75 27.79 35.75 26C35.75 24.21 37.21 22.75 39 22.75C40.79 22.75 42.25 24.21 42.25 26C42.25 27.79 40.79 29.25 39 29.25Z" fill="#282844"/>
<path d="M62.1875 31.4563C61.9383 31.5186 61.689 31.5186 61.5021 31.394C62.1252 30.6463 62.1252 29.587 62.1252 28.6523C61.8136 24.0412 60.692 19.6793 59.1342 15.3174C57.888 11.828 56.2055 9.27317 52.903 7.4038C50.0366 5.78368 46.7341 4.97363 43.6185 4.03894C42.6215 3.72738 41.936 4.03893 41.0636 3.852C40.8144 3.78968 40.5652 3.66505 40.3159 3.47812C37.5742 2.04494 33.8354 2.97962 31.2183 4.10124C28.9751 5.09824 26.9188 6.53143 24.9248 8.02692C23.4293 9.14854 21.9338 10.2702 20.4383 11.3918C19.7529 11.9526 19.0051 12.5134 18.5689 13.2611C17.6966 14.7566 18.0081 16.6883 18.0704 18.4331C18.0704 18.7446 18.0704 18.9939 17.8835 19.2431C17.6966 19.4924 17.4473 19.5547 17.1358 19.6793C15.7649 20.3647 15.4533 22.0472 15.3287 23.5427C15.2041 25.2251 15.1418 26.9698 15.2041 28.6523C15.2041 28.7146 15.2041 28.8392 15.2041 28.9015C15.0794 27.2814 15.0795 25.7236 15.1418 24.1035C15.2664 22.421 15.2041 20.3024 16.6996 19.1808C16.8865 19.0562 17.0734 18.9316 17.1981 18.7446C17.3227 18.5577 17.3227 18.3707 17.3227 18.1838C17.385 16.9999 17.2604 15.8783 17.4473 14.6943C17.6342 13.635 18.382 12.825 19.1297 12.0149C20.6252 10.3325 22.3077 8.89929 24.1147 7.59073C26.9811 5.53443 30.159 3.91432 33.6485 2.7927C34.7078 2.48114 35.954 2.29419 37.2003 2.29419C38.1973 2.29419 39.2566 2.41882 40.1913 2.66807C40.8144 2.79269 41.3129 3.35351 41.8114 3.41582C41.9983 3.41582 42.1853 3.41582 42.3722 3.35351C43.5561 3.16657 45.1139 3.852 46.2356 4.22587C47.6064 4.59975 48.9773 5.09824 50.3482 5.65905C52.8407 6.65604 55.2708 8.08923 57.0156 10.1455C57.6387 10.9556 58.1995 11.8903 58.698 13.0119C61.1282 18.5577 63.1222 25.412 62.1875 31.4563Z" fill="#E6C9C3"/>
<path d="M41.7492 6.90526C40.4406 5.72133 39.0074 4.91128 37.2004 5.16053C35.0818 5.5344 33.0255 6.21984 31.0938 7.02989C28.4144 8.15151 24.4887 9.21081 22.8686 11.8902C20.3761 14.0089 19.3168 17.8722 18.756 20.9878C17.9459 25.2251 18.1952 29.7739 19.0675 34.0111H19.1298C18.756 29.6492 18.2575 25.2874 19.1298 20.9255C19.5037 19.1808 20.0022 17.3737 20.9369 15.8159C21.7469 14.3827 22.9932 13.1365 23.6786 11.7033C25.6726 9.64701 28.2897 8.58771 30.9068 7.46609C32.34 6.90528 33.7732 6.34445 35.2687 5.97058C36.5149 5.65902 37.6989 5.40977 38.9451 6.03289C39.5682 6.34446 40.0667 6.84296 40.5652 7.34146C37.6366 8.96157 34.3963 9.70932 31.0938 9.52238C32.527 8.65001 34.0848 8.08921 35.7049 7.71533C36.4526 7.59071 37.6989 6.46909 36.2034 6.84297C33.8355 7.40378 31.5923 8.40076 29.536 9.70931C29.4737 9.77163 29.0375 10.0832 29.4113 10.1455C33.7109 10.4571 37.8858 9.52238 41.5622 7.27914C41.6245 7.15451 41.8738 6.96757 41.7492 6.90526Z" fill="#E6C9C3"/>
<path d="M41.3753 45.8504C39.319 45.6012 37.325 45.2896 35.331 44.9158C33.0877 44.5419 31.1561 43.6695 29.1621 42.6102C25.7972 40.8032 22.6193 38.7469 20.3137 35.6312C20.2514 35.5689 20.0022 35.6936 20.0645 35.7559C22.1831 38.9961 25.4233 41.0524 28.7259 42.8595C30.2837 43.7318 31.8415 44.8535 33.5862 45.352C35.8918 46.0374 38.3843 46.0997 40.6898 46.2866C40.8768 46.2866 41.6868 45.8504 41.3753 45.8504Z" fill="#E6C9C3"/>
<path d="M59.0719 32.204C57.0779 36.3789 54.0869 39.993 49.9743 42.6725C48.915 43.3579 47.7934 43.981 46.6094 44.5418C45.9863 44.7911 43.8677 46.0373 43.3692 45.1026C43.2446 44.9157 44.117 43.7318 44.2416 43.4825C44.5531 42.984 44.8647 42.4232 45.1763 41.9247C45.924 40.8031 46.9833 40.4915 48.3542 40.3669C48.6657 40.3046 49.0396 40.3046 49.3512 40.3046C50.0989 40.3669 50.2236 40.5538 49.7251 40.9277C49.2889 41.7378 47.7311 42.2986 46.921 42.5478C46.7964 42.6101 46.5471 42.7971 46.8587 42.7348C48.6657 42.4232 50.1612 41.5508 51.1582 40.1177C51.2206 40.0554 51.2205 39.993 51.0959 39.993C49.3512 39.8061 47.1079 39.8061 45.5501 40.6785C43.8054 41.6132 42.933 44.2303 42.1853 45.7881C42.123 45.9127 42.3099 45.9127 42.3722 45.9127C46.2356 45.9127 50.0989 43.4825 52.903 41.2393C56.0809 38.7468 58.5734 35.5689 60.0689 32.0171C60.1312 31.8301 59.1965 31.9548 59.0719 32.204Z" fill="#E6C9C3"/>
<path d="M59.7574 25.0381C59.5081 22.7949 59.3835 20.5517 58.885 18.3707C58.0749 14.632 56.4548 11.0179 52.8407 9.39777C52.6538 9.33545 52.1553 9.64703 52.2799 9.64703C55.7694 11.3295 57.701 14.8189 58.5111 18.4954C58.9473 20.427 59.1342 22.3587 59.3212 24.3527C59.5081 26.409 59.9443 28.5899 59.695 30.6462C59.695 30.6462 59.7574 30.6462 59.8197 30.6462C60.3805 28.8392 59.9443 26.8452 59.7574 25.0381Z" fill="#E6C9C3"/>
<path d="M50.4105 8.40075C50.0366 8.02688 49.3512 7.96457 48.7904 7.77763C48.0426 7.52838 47.3572 7.15451 46.6094 6.84295C45.4255 6.34445 44.2416 5.90826 42.933 5.84595C42.8707 5.84595 42.4968 6.03288 42.6214 6.03288C43.9923 6.656 45.4255 7.09219 46.7964 7.71531C47.8557 8.21381 48.915 8.64999 50.0989 8.52537C50.2235 8.58768 50.5351 8.52538 50.4105 8.40075Z" fill="#E6C9C3"/>
<path d="M41.4999 6.65606C40.1914 5.47212 38.7582 4.66207 36.9511 4.91132C34.8325 5.28519 32.7762 5.97063 30.8445 6.78069C28.1651 7.90231 24.2394 8.96161 22.6193 11.641C20.1268 13.7597 19.0675 17.623 18.5067 20.7386C17.6966 24.9759 17.9459 29.5246 18.8183 33.7619H18.8806C18.5067 29.4 18.0082 25.0382 18.8806 20.6763C19.2544 18.9316 19.7529 17.1245 20.6876 15.5667C21.4977 14.1335 22.7439 12.8873 23.4294 11.4541C25.4234 9.3978 28.0405 8.33848 30.6576 7.21686C32.0908 6.65605 33.5239 6.09525 35.0194 5.72137C36.2657 5.40981 37.4496 5.16057 38.6959 5.78369C39.319 6.09525 39.8175 6.59375 40.316 7.09225C37.3873 8.71237 34.1471 9.46011 30.8445 9.27318C32.2777 8.40081 33.8355 7.84 35.4556 7.46613C36.2034 7.3415 37.4496 6.21987 35.9541 6.59374C33.5863 7.15455 31.343 8.15155 29.2867 9.46011C29.2244 9.52242 28.7882 9.83399 29.1621 9.8963C33.4616 10.2079 37.6366 9.27317 41.313 7.02993C41.4376 6.90531 41.6245 6.78068 41.4999 6.65606Z" fill="#6D5873"/>
<path d="M41.1884 45.6635C39.1321 45.4142 37.1381 45.1027 35.1441 44.7288C32.9009 44.3549 30.9692 43.4826 28.9752 42.4233C25.6103 40.6162 22.4324 38.5599 20.1268 35.4443C20.0645 35.382 19.8153 35.5066 19.8776 35.5689C21.9962 38.8091 25.2365 40.8655 28.539 42.6725C30.0968 43.5449 31.6546 44.6665 33.3994 45.165C35.7049 45.8504 38.1974 45.9128 40.5029 46.0997C40.6899 46.0997 41.4376 45.6635 41.1884 45.6635Z" fill="#6D5873"/>
<path d="M58.885 32.0172C56.891 36.1921 53.9 39.8062 49.7874 42.4856C48.7281 43.1711 47.6065 43.7942 46.4226 44.355C45.7994 44.6042 43.6808 45.8505 43.1823 44.9158C43.0577 44.7289 43.9301 43.5449 44.0547 43.2957C44.3662 42.7972 44.6778 42.2364 44.9894 41.7379C45.7371 40.6163 46.7964 40.3047 48.1673 40.1801C48.4789 40.1178 48.8527 40.1178 49.1643 40.1178C49.912 40.1801 50.0367 40.367 49.5382 40.7409C49.102 41.5509 47.5442 42.1118 46.7341 42.361C46.6095 42.4233 46.3602 42.6102 46.6718 42.5479C48.4789 42.2364 49.9744 41.364 50.9713 39.9308C51.0337 39.8685 51.0337 39.8062 50.909 39.8062C49.1643 39.6193 46.9211 39.6193 45.3632 40.4916C43.6185 41.4263 42.7461 44.0434 41.9984 45.6012C41.9361 45.7259 42.123 45.7259 42.1853 45.7259C46.0487 45.7259 49.912 43.2957 52.7161 41.0524C55.894 38.56 58.3865 35.382 59.882 31.8302C59.9443 31.581 59.0096 31.7679 58.885 32.0172Z" fill="#6D5873"/>
<path d="M59.5081 24.8512C59.2588 22.608 59.1342 20.3647 58.6357 18.1838C57.8257 14.445 56.2055 10.8309 52.5914 9.21082C52.4045 9.1485 51.906 9.46006 52.0306 9.46006C55.5201 11.1425 57.4518 14.632 58.2618 18.3084C58.698 20.2401 58.885 22.1718 59.0719 24.1658C59.2588 26.2221 59.695 28.403 59.4458 30.4593C59.4458 30.4593 59.5081 30.4593 59.5704 30.4593C60.1312 28.6522 59.695 26.6582 59.5081 24.8512Z" fill="#6D5873"/>
<path d="M50.2236 8.21386C49.8497 7.83999 49.1643 7.77768 48.6035 7.59074C47.8557 7.34149 47.1703 6.96762 46.4225 6.65606C45.2386 6.15756 44.0547 5.72137 42.7461 5.65906C42.6838 5.65906 42.3099 5.84601 42.4346 5.84601C43.8054 6.46913 45.2386 6.9053 46.6095 7.52842C47.6688 8.02692 48.7281 8.46312 49.912 8.3385C50.0367 8.40081 50.2859 8.27618 50.2236 8.21386Z" fill="#6D5873"/>
<path d="M54.4608 17.1868C54.3362 16.1898 53.4638 15.3797 52.8407 14.6943C52.0307 13.8219 51.096 13.1988 49.912 13.3234C48.8527 13.3857 47.7311 13.8219 46.9211 14.445C46.0487 15.0682 45.9241 15.9405 46.3602 16.8752C46.921 18.2461 47.9804 19.3054 49.2266 19.6793C49.6628 19.9908 50.0367 20.1778 50.4729 20.2401C52.2176 20.4893 54.7101 19.1185 54.4608 17.1868Z" fill="#E8E6E8"/>
<path d="M50.099 11.2671C49.4135 10.9556 48.7904 10.831 48.105 10.8933C47.9803 10.8933 47.7311 10.9556 47.6688 11.0802C47.3572 12.2018 49.8497 12.5757 50.5351 12.5757C50.6598 12.5757 51.2206 12.4511 51.1583 12.2018C51.096 11.8279 50.4728 11.4541 50.099 11.2671Z" fill="#E8E6E8"/>
<path d="M54.9594 21.7356C54.9594 21.6733 54.9594 21.6733 54.8971 21.6733C54.8348 21.611 54.7725 21.611 54.7102 21.611C54.5855 21.611 54.3986 21.6733 54.3363 21.7979C54.274 21.8602 54.2117 21.9225 54.274 21.9848C54.274 22.0472 54.3363 22.0472 54.3363 22.1095C54.3986 22.1718 54.5232 22.1718 54.5855 22.1095C54.6479 22.1095 54.7725 22.0472 54.8348 21.9848C54.8971 21.9225 54.9594 21.8602 54.9594 21.7979V21.7356Z" fill="#E8E6E8"/>
<path d="M24.4264 17.9969C24.3017 17.7476 24.1148 17.5607 23.8032 17.4984C23.6163 17.4984 23.3671 17.5607 23.1801 17.6853C22.8686 17.9345 22.6193 18.1838 22.4947 18.5577C22.4324 18.8069 22.3701 19.1808 22.557 19.43C22.8686 19.8039 23.6163 19.9285 24.0525 19.5547C24.6133 19.1808 24.7379 18.4954 24.4264 17.9969Z" fill="#E8E6E8"/>
<path d="M25.2987 15.3797C25.2363 15.3174 25.2363 15.3797 25.2987 15.3797C25.174 15.2551 25.0494 15.3174 24.9871 15.2551C24.8625 15.2551 24.8002 15.2551 24.6755 15.3174C24.5509 15.3797 24.4263 15.3797 24.3017 15.5044C24.2394 15.5667 24.1147 15.629 24.0524 15.6913C23.9901 15.7536 23.9901 15.7536 23.9278 15.8159C23.8655 15.8782 23.8655 15.9406 23.8655 16.0029C23.8655 16.0652 23.9278 16.0652 23.9901 16.0652C24.0524 16.1275 24.177 16.1275 24.2393 16.1275C24.364 16.1275 24.4886 16.1275 24.5509 16.0652C24.6132 16.0652 24.6755 16.0029 24.7378 16.0029C24.8002 16.0029 24.8002 15.9405 24.8625 15.9405C24.9248 15.8782 25.0494 15.8159 25.1117 15.7536C25.174 15.6913 25.2363 15.629 25.2987 15.5044C25.361 15.4421 25.2987 15.3797 25.2987 15.3797Z" fill="#E8E6E8"/>
<path d="M54.4609 16.7506C54.3985 17.3737 54.5232 17.8722 54.2116 18.433C53.9001 18.9315 53.4639 19.3677 53.0277 19.6793C52.3422 20.1778 51.4699 20.1155 50.6598 20.2401C50.4729 20.2401 50.3483 20.3024 50.1613 20.2401C49.9744 20.2401 49.9744 20.2401 49.8498 20.1155C49.6005 20.1155 49.5382 19.8039 49.3513 19.617C49.2266 19.4924 49.0397 19.4924 48.8528 19.43C48.105 19.2431 47.4819 18.7446 46.9834 18.1215C46.5472 17.4984 46.2356 16.7506 46.0487 16.0029C46.3603 17.4984 46.9834 18.8692 48.1673 19.8662C48.8528 20.427 49.7874 20.427 50.6598 20.4894C51.5322 20.5517 52.4669 20.427 53.1523 19.9286C53.5885 19.6793 53.7754 19.2431 54.0247 18.8692C54.1493 18.6823 54.2116 18.4954 54.2739 18.3084C54.5855 17.8099 54.5232 17.1868 54.4609 16.7506Z" fill="#E6C9C3"/>
<path d="M51.0959 12.0772C51.0959 12.2018 51.0336 12.3264 50.909 12.451C50.1613 12.5134 49.4135 12.3887 48.7281 12.2018C48.2919 12.0772 47.8557 11.8279 47.7311 11.3917C47.9803 12.0148 48.2919 12.5133 48.9773 12.7003C49.5381 12.8872 50.0989 12.8872 50.7221 12.8872C50.7844 12.8872 50.909 12.8872 50.9713 12.8249C51.1583 12.7003 51.1582 12.3264 51.0959 12.0772Z" fill="#E6C9C3"/>
<path d="M34.4587 33.7618C33.9602 33.4503 33.337 33.388 32.7762 33.4503C32.527 33.388 32.1531 33.6372 31.9662 33.7618C31.9039 32.8272 31.2807 32.204 30.5953 31.6432C29.7229 30.9578 28.8505 30.5216 27.7289 30.8955C26.8566 31.1447 25.6726 31.8302 25.4234 32.7648C25.1741 33.6995 26.0465 34.5719 26.545 35.2573C26.8566 35.6312 27.1058 36.0051 27.4797 36.192C27.4797 36.2543 27.542 36.2543 27.542 36.3166C28.2274 37.1267 29.349 36.6905 30.1591 36.3166C30.7199 36.0051 31.343 35.6312 31.6546 35.0704C31.7792 35.3197 31.9039 35.5689 32.1531 35.6935C32.4024 35.8805 32.8385 36.0051 33.1501 36.0674C33.5863 36.192 34.334 35.8182 34.521 35.4443C34.7079 35.195 34.8948 34.7588 34.8948 34.4473C34.8948 34.198 34.7079 33.9488 34.4587 33.7618Z" fill="#E8E6E8"/>
<path d="M33.8979 38.7469C33.711 38.4976 33.3371 38.4353 33.0879 38.373C32.6517 38.2484 32.2778 38.3107 31.8416 38.373C31.5924 38.4353 31.2808 38.5599 31.1562 38.7469C31.0316 38.9961 30.9069 39.2454 31.0939 39.4946C31.2185 39.6815 31.4677 39.8685 31.6547 39.9931C32.0285 40.1177 32.527 40.1177 32.9009 40.1177C33.2125 40.0554 33.5864 39.9308 33.8356 39.7439C34.0849 39.4946 34.1472 39.0584 33.8979 38.7469Z" fill="#E8E6E8"/>
<path d="M23.8032 32.0171C23.7409 31.8302 23.6163 31.7055 23.4917 31.5186C23.3671 31.394 22.7439 31.6432 22.8062 31.8302C22.8062 32.0171 22.8062 32.204 22.8686 32.391C22.9309 32.5779 23.1178 32.7025 23.3047 32.7648C23.4294 32.8271 23.6786 32.7025 23.7409 32.5779C23.8032 32.4533 23.8655 32.2663 23.8032 32.0171Z" fill="#E8E6E8"/>
<path d="M38.5089 41.6133C38.4466 41.5509 38.4466 41.4886 38.3842 41.4263C38.3219 41.364 38.2596 41.3017 38.135 41.3017C37.8857 41.1771 37.6365 41.1771 37.3872 41.1148C37.2626 41.0524 37.0757 41.1771 36.9511 41.2394C36.8888 41.3017 36.6395 41.4263 36.7018 41.5509C36.8264 41.7379 36.9511 41.9248 37.138 41.9871C37.4496 42.1118 37.7611 42.0494 38.0727 41.9871C38.0727 41.9248 38.5712 41.7379 38.5089 41.6133Z" fill="#E8E6E8"/>
<path d="M34.7079 35.3197C34.3964 35.6312 34.0848 36.0051 33.7109 36.0674C33.5863 36.1297 33.3994 36.1297 33.2747 36.0674C32.6516 36.0051 31.9662 35.5689 31.6546 35.0081C31.3431 35.5689 30.7823 35.8805 30.2838 36.192C29.9099 36.4413 29.4737 36.6282 29.0375 36.7529C28.6636 36.8152 28.3521 36.6905 27.9782 36.6282C27.6666 36.5659 27.4174 36.3167 27.2305 36.0674C26.545 35.1327 25.7973 34.2604 25.4857 33.1387C25.4857 33.7619 25.7973 34.3227 26.1088 34.8835C26.6697 35.7559 27.1681 36.5659 27.8536 37.3137C28.2898 37.376 28.8506 37.376 29.2245 37.2513C29.4737 37.189 29.6606 37.0644 29.9099 36.9398C30.533 36.5659 31.0938 36.192 31.5923 35.6312C31.4677 35.8182 32.9632 36.2543 33.0878 36.3167C34.0225 36.6282 34.1471 36.1297 34.7079 35.3197Z" fill="#E6C9C3"/>
<path d="M34.0848 39.1207C34.0225 39.4946 33.7109 39.8062 33.3993 39.9308C32.8385 40.1177 30.7822 40.3047 31.0938 39.2454C30.9692 39.6815 31.0938 40.1177 31.53 40.3047C32.0285 40.5539 32.5893 40.6162 33.1501 40.4293C33.6486 40.2424 34.0225 39.7438 34.0848 39.1207Z" fill="#E6C9C3"/>
<path d="M24.6132 18.8069C24.4263 19.1808 24.3017 19.617 23.8032 19.7416C23.4916 19.8662 23.0554 19.8039 22.7439 19.4924C22.4946 19.2431 22.5569 18.8069 22.6193 18.433C22.4946 18.8069 22.3077 19.3054 22.5569 19.617C22.6816 19.8039 22.8685 19.9285 23.0554 19.9909C23.367 20.1155 23.6786 20.1155 23.9278 19.9286C24.0524 19.8039 24.1771 19.6793 24.2394 19.4924C24.364 19.3054 24.4886 19.0562 24.6132 18.8069Z" fill="#E6C9C3"/>
<path d="M16.2635 35.3197C16.8243 35.4443 17.4474 35.5689 18.0082 35.6936C21.0615 36.379 24.0525 37.3137 26.9189 38.4976C28.2274 38.9961 29.536 39.6192 30.7199 40.4293C30.9692 40.6162 31.2807 40.7409 31.5923 40.9278C31.7169 41.0524 32.0908 41.6132 32.1531 41.6132C30.9692 41.3017 29.6606 41.2394 28.4144 41.4263C28.1028 41.4886 27.7289 41.5509 27.4797 41.7379C27.4174 41.8002 27.355 41.8002 27.355 41.9248C27.355 41.9871 27.4174 42.0494 27.4174 42.1117C27.7289 42.4233 28.1028 42.6102 28.539 42.7972C29.4737 43.2333 30.4083 43.5449 31.4053 43.7318C31.9038 43.8565 32.4023 43.9188 32.9008 43.9188C33.2747 43.9188 33.9601 43.7942 34.2717 43.9811C34.5833 44.1057 34.8325 44.6042 35.0195 44.8535C35.331 45.2897 35.6426 45.6635 35.9541 46.0997C36.5149 46.9098 37.1381 47.7198 37.6989 48.5299C38.2597 49.2776 38.3843 50.2746 38.5089 51.147C39.1944 51.2093 39.8798 51.2093 40.5653 51.2716C40.6276 51.2716 39.6306 48.2183 39.5059 47.9691C38.8828 46.7228 38.0728 45.5389 37.325 44.355C36.6396 43.2957 35.9541 42.2364 35.2687 41.2394C34.5833 40.18 33.8355 39.0584 32.9008 38.1861C31.7792 37.1268 30.4707 36.379 29.0375 35.7559C26.4827 34.572 23.6163 33.8865 20.8746 33.2634C19.2545 32.8895 17.572 32.5156 15.8896 32.4533C15.3288 32.4533 14.7057 32.391 14.2072 32.578C13.3348 32.8895 13.0856 34.5096 13.8956 35.0704C14.2072 35.2574 15.2665 35.1328 15.578 35.1951C15.8896 35.2574 16.0765 35.2574 16.2635 35.3197Z" fill="#CDBFDE"/>
<path d="M42.2477 53.7017C42.1231 53.8263 41.9361 53.8887 41.7492 53.8887C40.6899 54.0756 39.6306 53.8263 38.6959 53.3902C38.1974 53.1409 37.7612 52.8293 37.3873 52.4555C37.0758 52.1439 36.5773 51.6454 36.515 51.2092C36.515 51.1469 36.5773 51.1469 36.5773 51.1469C36.7642 51.1469 36.9511 51.2092 37.1381 51.2092C37.6366 51.2715 38.0728 51.2715 38.5712 51.3339C38.6959 51.3339 38.8205 51.3338 38.8828 51.4585C38.9451 51.5208 38.9451 51.5208 38.9451 51.5831C39.1944 52.0193 39.5059 52.5801 40.0044 52.7047C40.5029 51.3338 40.2537 50.6484 39.5059 49.4022C38.8205 48.2806 38.1351 47.2212 37.3873 46.1619C35.8918 44.1056 34.2094 42.1116 32.34 40.3046C31.6546 39.6191 30.9068 38.9337 30.0968 38.3106C27.1681 36.2543 23.554 35.7558 20.0645 35.1327C17.0112 34.6342 12.7117 34.011 10.4684 31.5809C9.2845 30.3346 9.15987 28.3406 9.783 26.7205C10.4061 25.1004 11.5901 23.7918 12.8986 22.6079C12.587 23.4803 12.587 24.2903 12.7117 25.225C12.774 25.7858 12.3378 26.0974 12.0885 26.5336C11.9016 26.9074 11.777 27.2813 11.6524 27.6552C11.5901 27.9045 11.5277 28.216 11.5277 28.5276C11.5277 28.7145 11.5277 28.9638 11.6524 29.1507C11.777 29.3376 12.0262 29.4623 12.2132 29.5246C17.4474 31.7055 23.3048 32.0794 28.6013 34.0734C29.7852 34.5095 31.0315 35.008 31.9662 35.8804C34.0848 37.8744 35.8295 40.1176 37.5119 42.4855C38.6336 44.1056 39.9421 45.6634 40.8768 47.4082C41.3753 48.2805 41.7492 49.2152 41.9984 50.0876C42.2477 51.0223 42.3723 51.957 42.4346 53.0163C42.3723 53.3278 42.3723 53.5148 42.2477 53.7017Z" fill="url(#paint7_linear_9_6725)"/>
<path d="M41.9361 50.15C41.9361 50.3993 41.8738 50.7108 41.6245 50.8978C41.2506 51.147 40.7521 50.7108 40.5029 50.2746C37.6365 45.4766 34.9571 40.2424 30.2214 37.3137C25.4233 34.3227 19.4414 34.3227 14.0825 32.578C12.9609 32.2041 11.7769 31.7679 11.1538 30.7709C10.5307 29.8362 10.593 28.3407 11.59 27.7799C11.5277 28.0292 11.4654 28.3407 11.4654 28.6523C11.4654 28.8392 11.4654 29.0885 11.59 29.2754C11.7146 29.4624 11.9639 29.587 12.1508 29.6493C17.385 31.8302 23.2424 32.2041 28.5389 34.1981C29.7229 34.6343 30.9691 35.1328 31.9038 36.0051C34.0224 37.9991 35.7672 40.2424 37.4496 42.6102C38.5712 44.2304 39.8798 45.7882 40.8145 47.5329C41.3753 48.343 41.6868 49.2153 41.9361 50.15Z" fill="url(#paint8_linear_9_6725)"/>
<path d="M20.4384 32.4533C19.1921 31.6432 17.1981 31.5186 15.7027 31.4563C15.6403 31.4563 15.4534 31.5186 15.5157 31.5809C16.8866 32.3287 18.5067 32.6402 20.0645 32.7025C20.1268 32.7025 20.563 32.5156 20.4384 32.4533Z" fill="#DBCF5E"/>
<path d="M23.9901 33.5126C23.6786 32.8272 22.4946 32.8895 21.8715 32.8895C21.8715 32.8895 21.6222 32.9518 21.6846 33.0141C22.3077 33.4503 22.8685 33.6995 23.6162 33.6995C23.6785 33.6372 24.0524 33.5749 23.9901 33.5126Z" fill="#DBCF5E"/>
<path d="M30.0968 41.3017C30.5953 41.9248 31.1561 42.4856 31.8415 42.8595C32.34 43.171 32.9631 43.4826 33.5239 43.5449C34.2717 43.5449 35.0194 43.4826 35.7049 43.4203C35.3933 43.2956 35.0817 42.7348 34.8325 42.4856C34.3963 42.1117 33.9601 41.8001 33.5239 41.5509C32.5892 40.9901 31.6546 40.6162 30.6576 40.2423C30.2837 40.1177 29.8475 39.9931 29.4736 40.1177C29.5983 40.5539 29.8475 40.9278 30.0968 41.3017Z" fill="url(#paint9_linear_9_6725)"/>
<defs>
<linearGradient id="paint0_linear_9_6725" x1="-2.85993" y1="28.5139" x2="15.1458" y2="18.8624" gradientUnits="userSpaceOnUse">
<stop stop-color="#B39B19"/>
<stop offset="0.3744" stop-color="#7C852D"/>
<stop offset="1" stop-color="#195C52"/>
</linearGradient>
<linearGradient id="paint1_linear_9_6725" x1="6.46733" y1="-1.40771" x2="11.3759" y2="20.818" gradientUnits="userSpaceOnUse">
<stop stop-color="#B39B19"/>
<stop offset="0.3744" stop-color="#7C852D"/>
<stop offset="1" stop-color="#195C52"/>
</linearGradient>
<linearGradient id="paint2_linear_9_6725" x1="7.57923" y1="9.14264" x2="16.4505" y2="24.2553" gradientUnits="userSpaceOnUse">
<stop stop-color="#B39B19"/>
<stop offset="0.3744" stop-color="#7C852D"/>
<stop offset="1" stop-color="#195C52"/>
</linearGradient>
<linearGradient id="paint3_linear_9_6725" x1="-0.857694" y1="29.6807" x2="20.8014" y2="10.7374" gradientUnits="userSpaceOnUse">
<stop stop-color="#B39B19"/>
<stop offset="0.3744" stop-color="#7C852D"/>
<stop offset="1" stop-color="#195C52"/>
</linearGradient>
<linearGradient id="paint4_linear_9_6725" x1="37.7051" y1="-11.419" x2="39.7355" y2="65.7366" gradientUnits="userSpaceOnUse">
<stop stop-color="#BFA0A2"/>
<stop offset="0.2596" stop-color="#8B7588"/>
<stop offset="0.5642" stop-color="#493E66"/>
<stop offset="0.8176" stop-color="#224569"/>
<stop offset="1" stop-color="#0A4A6B"/>
</linearGradient>
<radialGradient id="paint5_radial_9_6725" cx="0" cy="0" r="1" gradientUnits="userSpaceOnUse" gradientTransform="translate(36.8933 -0.701849) scale(88.1332 88.1332)">
<stop stop-color="#CCAAAC"/>
<stop offset="1" stop-color="#6C6778"/>
</radialGradient>
<radialGradient id="paint6_radial_9_6725" cx="0" cy="0" r="1" gradientUnits="userSpaceOnUse" gradientTransform="translate(37.9469 -10.8221) scale(56.1685 243.162)">
<stop stop-color="#FFFBFB"/>
<stop offset="1" stop-color="#6C6778"/>
</radialGradient>
<linearGradient id="paint7_linear_9_6725" x1="45.1087" y1="16.3222" x2="22.3639" y2="44.425" gradientUnits="userSpaceOnUse">
<stop stop-color="#B39B19"/>
<stop offset="0.3744" stop-color="#7C852D"/>
<stop offset="1" stop-color="#195C52"/>
</linearGradient>
<linearGradient id="paint8_linear_9_6725" x1="29.3993" y1="34.1671" x2="23.1138" y2="45.4613" gradientUnits="userSpaceOnUse">
<stop stop-color="#B39B19"/>
<stop offset="0.3744" stop-color="#7C852D"/>
<stop offset="1" stop-color="#195C52"/>
</linearGradient>
<linearGradient id="paint9_linear_9_6725" x1="28.7793" y1="38.6974" x2="38.2825" y2="47.2003" gradientUnits="userSpaceOnUse">
<stop stop-color="#B39B19"/>
<stop offset="0.3744" stop-color="#7C852D"/>
<stop offset="1" stop-color="#195C52"/>
</linearGradient>
</defs>
</svg>
