<svg width="362" height="132" viewBox="0 0 362 132" fill="none" xmlns="http://www.w3.org/2000/svg">
<path d="M357.67 115.93C357.67 117.078 357.287 118.035 356.714 118.991C353.844 123.774 349.444 127.6 344.087 130.852C342.94 131.617 341.409 132 340.07 132C335.096 132 330.122 132 325.148 132C307.166 131.809 288.992 132.191 271.009 131.617C270.818 131.617 270.818 131.617 270.627 131.617C270.435 131.617 270.435 131.426 270.435 131.235C270.053 130.47 269.287 130.087 268.905 129.513C268.714 129.13 267.183 126.835 267.374 126.452C266.801 128.174 266.035 129.704 265.27 131.426C265.27 131.617 265.079 131.617 265.079 131.617H264.887C261.635 132 258.574 131.617 255.322 131.617C252.07 131.617 248.818 131.617 245.374 131.617C238.679 131.617 231.983 131.426 225.287 131.426C206.922 131.235 188.557 130.852 170.383 130.852C141.114 131.043 112.035 131.235 82.7657 131.426C81.044 131.426 79.3222 131.809 77.6005 131.426C75.3048 131.043 73.3919 129.513 71.0962 129.896C67.2701 130.47 64.5918 131.426 60.3831 131.426C56.1744 131.426 51.7744 131.426 47.5657 131.426C38.957 131.426 30.3483 131.617 21.7396 131.617C20.4005 131.617 19.0614 131.235 17.7223 130.47C12.1744 127.217 7.96578 123.391 5.09622 118.609C4.5223 117.652 4.13969 116.696 4.13969 115.548C3.37448 105.791 2.80056 95.8435 2.22665 86.087C1.65274 76.9044 2.03525 67.3391 0.696123 58.1565C0.504818 57.0087 0.313607 56.0521 0.313607 54.9043C0.504912 52.0347 2.03525 49.3565 4.52221 48.0174C3.37438 48.5913 2.22663 48.7826 0.887497 48.5913C-0.451633 48.4 0.122233 24.4869 0.122233 22.3826C0.122233 20.6608 0.696193 19.1304 1.84402 17.7913C6.24402 12.4348 11.4092 7.46087 17.1484 2.86957C18.4875 1.72174 20.2092 1.3391 21.931 1.3391C44.8875 1.5304 67.844 1.91306 90.9918 2.10436C96.7309 2.10436 102.661 2.48696 108.401 2.86957C108.783 2.86957 109.357 2.86958 109.74 3.06089C111.27 3.8261 111.844 6.50436 113.183 7.84349C112.801 6.12176 112.418 4.39999 112.418 2.67825C116.818 1.53043 122.557 2.48695 127.148 2.67825C132.505 2.67825 137.861 2.86957 143.218 2.86957C160.053 3.06087 176.888 3.06089 193.531 3.06089C202.14 3.06089 210.748 2.86957 219.357 2.86957C223.566 2.86957 227.966 2.86956 232.174 2.67825C236.192 2.67825 238.679 3.25216 242.505 4.39998C242.696 4.39998 242.887 4.59129 243.079 4.39998C243.27 4.39998 243.461 4.20871 243.653 4.01741C246.331 1.33915 250.922 2.48693 254.557 2.29562C258.957 2.29562 263.548 2.10436 267.948 2.10436C292.053 1.72176 315.966 1.72176 340.07 1.14784C341.792 1.14784 343.514 1.72173 344.853 2.67825C350.592 7.26956 355.757 12.2434 360.157 17.6C361.305 18.9391 361.879 20.4696 361.879 22.1913C361.879 28.5044 361.496 34.6261 360.922 40.9391C360.922 41.3217 360.922 41.513 360.731 41.8956C360.54 42.2783 359.966 42.4696 359.583 42.8522C357.096 44.7652 361.687 48.4 361.305 50.887C361.113 51.6522 360.731 52.2261 360.54 52.8C359.774 54.9044 360.922 57.0087 361.114 59.113C361.305 61.7913 360.922 64.4696 360.731 67.1478C360.54 72.5044 360.157 77.8609 359.966 83.2174C359.009 94.5043 358.435 105.217 357.67 115.93Z" fill="#2E82A6"/>
<path d="M357.67 114.783C357.67 115.93 357.287 116.887 356.714 117.843C353.844 122.626 349.444 126.452 344.087 129.704C342.94 130.47 341.409 130.852 340.07 130.852C335.096 130.852 330.122 130.852 325.148 130.852C307.166 130.661 288.992 131.043 271.009 130.47C270.818 130.47 270.818 130.47 270.627 130.47C270.435 130.47 270.435 130.278 270.435 130.087C270.053 129.322 269.287 128.939 268.905 128.365C268.714 127.983 267.183 125.687 267.374 125.304C266.801 127.026 266.035 128.557 265.27 130.278C265.27 130.47 265.079 130.47 265.079 130.47H264.887C261.635 130.852 258.574 130.47 255.322 130.47C252.07 130.47 248.818 130.47 245.374 130.47C238.679 130.47 231.983 130.278 225.287 130.278C206.922 130.087 188.557 129.704 170.383 129.704C141.114 129.896 112.035 130.087 82.7657 130.278C81.044 130.278 79.3222 130.661 77.6005 130.278C75.3048 129.896 73.3919 128.365 71.0962 128.748C67.2701 129.322 64.5918 130.278 60.3831 130.278C56.1744 130.278 51.7744 130.278 47.5657 130.278C38.957 130.278 30.3483 130.47 21.7396 130.47C20.4005 130.47 19.0614 130.087 17.7223 129.322C12.1744 126.07 7.96578 122.243 5.09622 117.461C4.5223 116.504 4.13969 115.548 4.13969 114.4C3.37448 104.643 2.80056 94.6956 2.22665 84.9391C1.65274 75.7565 2.03525 66.1913 0.696123 57.0087C0.504818 55.8608 0.313607 54.9044 0.313607 53.7565C0.504912 50.887 2.03525 48.2087 4.52221 46.8696C3.37438 47.4435 2.22663 47.6348 0.887497 47.4435C-0.451633 47.2522 0.122233 23.3391 0.122233 21.2348C0.122233 19.5131 0.696193 17.9826 1.84402 16.6434C6.24402 11.2869 11.4092 6.31304 17.1484 1.72173C18.4875 0.573905 20.2092 0.19132 21.931 0.19132C44.8875 0.382624 67.844 0.765221 90.9918 0.956526C96.7309 0.956526 102.661 1.33912 108.401 1.72173C108.783 1.72173 109.357 1.72174 109.74 1.91305C111.27 2.67826 111.844 5.35653 113.183 6.69566C112.801 4.97392 112.418 3.25215 112.418 1.53042C116.818 0.382589 122.557 1.33911 127.148 1.53042C132.505 1.53042 137.861 1.72173 143.218 1.72173C160.053 1.91304 176.888 1.91305 193.531 1.91305C202.14 1.91305 210.748 1.72173 219.357 1.72173C223.566 1.72173 227.966 1.72172 232.174 1.53042C236.192 1.53042 238.679 2.10432 242.505 3.25214C242.696 3.25214 242.887 3.44345 243.079 3.25214C243.27 3.25214 243.461 3.06087 243.653 2.86957C246.331 0.191308 250.922 1.33915 254.557 1.14784C258.957 1.14784 263.548 0.956526 267.948 0.956526C292.053 0.573917 315.966 0.573917 340.07 3.8147e-06C341.792 3.8147e-06 343.514 0.573893 344.853 1.53042C350.592 6.12172 355.757 11.0957 360.157 16.4522C361.305 17.7913 361.879 19.3217 361.879 21.0435C361.879 27.3565 361.496 33.4782 360.922 39.7913C360.922 40.1739 360.922 40.3652 360.731 40.7478C360.54 41.1304 359.966 41.3217 359.583 41.7043C357.096 43.6174 361.687 47.2522 361.305 49.7391C361.113 50.5043 360.731 51.0783 360.54 51.6522C359.774 53.7565 360.922 55.8608 361.114 57.9652C361.305 60.4522 360.922 63.3217 360.731 66C360.54 71.3565 360.157 76.713 359.966 82.0696C359.009 93.3565 358.435 104.07 357.67 114.783Z" fill="url(#paint0_linear_9_9657)"/>
<path d="M354.035 27.1652C354.035 27.3565 354.035 27.7391 354.035 27.9304C354.035 29.2696 354.035 30.8 354.035 32.1391C354.035 32.713 354.035 33.2869 354.035 33.8608C354.035 36.7304 353.461 38.8348 352.505 41.1304C352.122 42.087 351.548 43.2347 351.166 44.3826C351.166 44.5739 350.974 44.7652 350.974 44.7652C350.783 45.1478 350.592 45.5304 350.592 45.913C350.592 46.2957 350.783 46.487 350.974 46.8696C352.122 49.3565 353.461 51.6522 353.653 54.3304C353.844 57.0087 353.461 59.687 353.27 62.3652C353.079 67.7218 352.887 73.0783 352.505 78.4348C352.505 78.6261 352.505 78.8174 352.505 79.0087C352.505 80.1565 352.314 81.3044 352.314 82.4522C352.122 85.1304 351.931 88 351.931 90.6782C351.931 92.0174 351.74 93.5478 351.74 94.887C351.74 95.2696 351.74 95.8435 351.74 96.2261C351.74 96.6087 351.74 96.9913 351.74 97.3739C351.548 99.8609 351.357 102.539 351.166 105.026C350.974 107.13 351.548 111.913 350.592 113.635C348.487 117.078 345.235 120.139 340.644 122.817H340.453L310.992 122.626L284.974 122.435H279.427C275.983 122.435 272.157 122.817 268.714 122.435C268.522 121.096 268.522 119.756 268.714 118.226C268.905 117.27 269.096 116.122 269.287 115.356C269.096 115.93 268.714 117.078 268.14 118.226C267.374 119.948 266.227 121.861 265.461 122.243C265.27 122.435 264.887 122.435 264.505 122.435C239.253 122.052 213.809 121.861 188.557 121.861C182.627 121.861 176.505 121.861 170.574 121.861C165.983 121.861 161.392 121.861 156.801 121.861C143.027 121.861 129.444 122.052 115.67 122.052C107.444 122.052 99.2179 122.243 90.9918 122.243C85.6353 122.243 80.2788 122.435 74.9223 121.67C74.5397 121.67 74.157 121.478 73.7744 121.478C72.4353 121.096 70.9048 120.522 69.5657 120.33C68.8005 120.139 68.0354 120.139 67.2701 120.139C65.5484 120.33 63.8266 121.67 62.6788 122.435C61.3397 123.391 57.131 122.626 55.4092 122.626C52.731 122.626 50.0527 122.626 47.3744 122.626C42.9744 122.626 38.3831 122.626 33.9831 122.626C29.9657 122.626 25.9484 122.626 21.931 122.626C21.931 122.626 21.9309 122.626 21.7396 122.626C17.1483 119.948 13.8962 116.887 11.7919 113.443C10.8354 111.722 11.2179 106.939 11.2179 104.835C11.2179 103.687 11.0266 102.539 11.0266 101.2C11.0266 100.435 10.8354 99.4783 10.8354 98.7131C10.8354 97.7565 10.644 96.6087 10.644 95.6522C10.644 94.887 10.4527 93.9304 10.4527 93.1652C10.0701 87.8087 9.87881 82.4522 9.4962 77.2869C9.3049 75.1826 9.30488 72.887 9.11357 70.7826C9.11357 69.8261 9.11362 68.8696 8.92231 67.913C8.73101 64.8522 8.73099 61.9826 8.53968 58.9217C8.53968 56.2435 7.58314 52.4174 8.15705 49.9304C8.53966 48.7826 9.30488 47.6348 10.0701 46.4869C10.4527 45.913 10.8353 45.5304 11.2179 44.9565C11.6005 44.5739 11.7918 44.1913 12.1744 43.8087C12.3657 43.4261 12.7484 43.0435 12.9397 42.8522C12.557 43.2348 11.9831 43.4261 11.6005 43.6174C11.2179 43.8087 10.8353 44 10.4527 44.3826C9.68751 44.7652 8.73094 45.1478 7.77442 45.5304C8.15703 45.3391 8.15705 44 8.15705 42.2783C8.15705 39.2174 7.77442 35.2 7.77442 34.6261C7.77442 30.2261 7.58316 25.8261 7.58316 21.2348C11.4092 16.6435 16.1918 12.0522 21.7396 7.46086L48.331 7.84349H53.3048L90.6092 8.41738L109.74 8.6087C110.696 9.94783 112.227 11.0956 113.374 12.0522C113.566 12.2435 113.948 12.4348 114.14 12.6261C114.14 12.4348 114.14 12.4348 113.948 12.2435C113.566 11.0956 113.374 9.75653 112.992 8.6087L142.835 8.99127C148.766 8.99127 154.887 9.18259 161.201 9.18259C166.174 9.18259 171.148 9.18259 176.505 9.18259H176.696C187.409 9.18259 198.314 9.18258 209.027 8.99127C213.618 8.99127 218.4 8.99132 222.992 8.80001C223.948 8.80001 224.714 8.80001 225.67 8.80001C227.392 8.80001 229.687 8.41739 231.6 8.6087C232.366 8.6087 232.94 8.60871 233.705 8.80001C235.618 9.18262 237.531 11.0956 239.635 9.94779C244.992 7.26953 252.261 8.41738 258.383 8.41738L267.948 8.22607C275.983 8.22607 284.018 8.03475 292.053 8.03475C307.74 7.84345 324.001 7.65217 340.07 7.46086C345.427 11.8609 350.209 16.4522 354.035 21.0435C354.609 22.3826 354.035 26.2087 354.035 27.1652Z" fill="url(#paint1_radial_9_9657)"/>
<path d="M12.9396 45.1478C9.49613 49.7391 9.49611 56.0522 9.68741 61.9826C9.87872 70.7826 10.07 79.5826 10.2613 88.3826C10.2613 90.2956 10.2613 92.2087 10.07 93.9304C9.68743 88.5739 9.49613 83.2174 9.11352 78.0521C8.73091 71.9304 8.53956 65.8087 8.34826 59.6869C8.34826 57.0087 7.39183 53.1826 7.96574 50.6957C8.34835 48.9739 9.87869 47.2522 11.2178 45.7217C11.7917 45.913 12.3657 45.9131 12.9396 45.1478Z" fill="#E6C9C3"/>
<path d="M113.566 12.6261C106.296 10.5218 98.4527 10.3304 90.8005 10.1391C74.1571 9.94781 57.5136 9.56521 41.0614 9.37391C36.2788 9.37391 31.4962 9.37388 26.7136 8.99127C24.9919 8.79997 23.27 8.8 21.7396 9.56522C19.6353 10.713 18.6788 13.3913 17.1484 15.113C15.2353 17.0261 12.5571 18.1739 10.8354 20.4695C10.2614 21.2348 9.49613 22.1913 9.30483 23.1478C9.11352 24.1044 9.11357 25.0609 9.11357 26.0174C9.30487 30.2261 9.30483 34.4347 9.30483 38.6434C9.30483 40.1739 9.30492 41.513 9.87883 43.0435C10.0701 43.4261 10.4527 44 10.8354 44.7652C10.0701 45.1478 9.11357 45.5304 8.15705 45.913C8.92226 45.5304 7.96579 35.9652 7.96579 35.0087C7.96579 30.6087 7.77441 26.2087 7.77441 21.6174C11.6005 17.0261 16.3832 12.4348 21.931 7.84349L90.8005 8.80002L109.931 8.99127C110.887 10.5217 112.227 11.6696 113.566 12.6261Z" fill="#E6C9C3"/>
<path d="M354.035 27.1652C354.035 29.4608 354.035 31.5652 353.844 33.8608C353.844 38.2608 352.314 40.9391 350.592 44.7652C350.401 45.1478 350.209 45.5304 350.209 45.913C350.209 46.2957 350.401 46.487 350.592 46.8696C351.74 49.3565 353.079 51.6522 353.27 54.3304C353.461 57.0087 353.079 59.687 352.887 62.3652C352.696 67.9131 352.314 73.4608 352.122 79.0087C351.931 84.3652 351.548 89.5304 351.166 94.887C350.974 84.3652 350.974 73.6522 351.357 63.1304C351.548 58.3478 352.122 51.0783 347.531 47.8261C347.722 44.1913 351.357 41.513 352.314 37.8782C352.696 36.5391 352.696 35.0087 352.696 33.4783C352.696 30.4174 352.314 27.3565 351.931 24.2956C351.74 23.3391 351.74 22.3826 351.357 21.6174C350.783 20.6608 350.018 19.8957 349.061 19.1304C347.34 17.6 345.618 16.0696 343.896 14.5391C342.174 13.0087 340.261 11.4783 338.157 10.7131C336.627 10.3304 335.096 10.3304 333.374 10.3304C304.679 10.3304 275.792 10.1391 246.905 10.5217C244.992 10.5217 243.27 11.0956 241.74 12.2435C240.974 12.8174 240.209 13.3913 239.444 13.5826C237.914 13.9652 236.574 13.0087 235.235 12.4348C234.279 12.0522 233.514 12.0522 232.557 12.0522C231.792 12.0522 231.218 11.8608 230.453 11.8608C212.279 10.1391 193.531 11.0956 175.166 10.9043L116.818 9.94779C116.053 9.94779 115.096 9.94783 114.522 10.5217C113.948 11.0957 113.948 12.2435 114.714 12.4348C114.522 12.4348 114.331 12.4348 114.331 12.2435C113.948 11.0956 113.757 9.75652 113.374 8.6087L143.218 8.99127C153.931 9.18258 164.835 9.18259 176.696 9.18259C187.6 9.18259 198.505 9.18258 209.218 8.99127C214.766 8.99127 220.314 8.80001 225.861 8.80001C228.348 8.80001 231.409 8.2261 233.896 8.80001C235.809 9.18262 237.722 11.0956 239.827 9.94779C245.183 7.26953 252.453 8.41738 258.574 8.41738L268.14 8.22607C276.174 8.22607 284.209 8.03475 292.244 8.03475C307.931 7.84345 324.192 7.65217 340.261 7.46086C345.618 11.8609 350.401 16.4522 354.227 21.0435C354.609 22.3826 354.035 26.2087 354.035 27.1652Z" fill="#E6C9C3"/>
<path d="M345.235 102.539C344.661 101.965 344.087 101.583 343.514 101.009C341.218 99.2869 338.54 97.9478 335.67 97.3739C335.479 97.1826 335.288 97.1826 335.096 97.1826C334.522 97.1826 333.948 97.5652 333.374 97.7565C331.079 99.6696 328.974 102.156 327.635 104.835C327.253 105.409 327.061 105.983 327.444 106.748C327.827 107.322 328.592 107.704 329.166 108.087C330.505 108.852 332.035 109.617 333.566 110.191C334.14 110.383 335.096 110.191 335.67 109.809C337.009 109.235 338.157 107.513 339.114 106.174C339.114 105.983 339.305 105.983 339.305 105.791C339.305 105.6 339.114 105.409 339.114 105.409C338.922 105.217 338.54 104.835 338.348 104.643L338.157 104.452C337.966 104.452 337.966 104.452 337.774 104.643C336.627 105.791 335.479 106.748 334.522 107.896C333.948 107.513 333.374 107.13 332.801 106.748C332.227 106.365 331.653 106.174 331.079 105.6C330.887 105.409 330.696 105.026 330.696 104.643C330.696 104.261 331.079 104.07 331.27 103.687C332.035 102.539 332.609 101.391 333.566 100.435C334.14 99.6696 334.714 98.9043 335.479 98.3304C337.774 98.9043 340.07 99.8609 341.983 101.391C341.983 101.583 342.748 101.965 342.94 102.156C343.322 102.348 343.514 102.73 343.896 103.113C344.279 103.496 344.661 103.687 344.853 104.07C345.044 104.261 345.427 104.835 345.427 105.026C345.427 105.409 344.853 106.174 344.661 106.365C344.279 106.939 343.705 107.513 343.322 107.896C342.366 108.852 341.409 110 340.261 110.957C339.879 111.339 339.496 111.722 339.114 112.104C338.157 113.061 337.392 114.017 336.435 114.783C335.287 115.548 334.331 115.739 332.992 115.93C331.461 115.93 330.122 115.93 328.592 115.93C322.853 115.93 316.922 115.93 311.183 115.93C305.444 115.93 299.514 115.93 293.774 115.93C288.035 115.93 282.105 115.93 276.366 115.93C256.088 115.93 235.618 115.93 215.34 116.122C174.974 116.122 134.418 116.313 94.0528 116.313C89.8441 116.313 85.4441 116.313 81.2354 116.313C71.0962 116.313 60.9571 116.313 50.8179 116.313C45.844 116.313 40.6789 116.313 35.705 116.504C34.3658 116.504 33.218 116.504 31.8789 116.504C30.9224 116.504 29.5832 116.696 28.6267 116.696C27.6702 116.696 26.7136 115.93 25.9484 115.356C24.9919 114.783 24.2267 114.209 23.4614 113.443C22.8875 112.87 22.3136 112.296 21.931 111.722C21.7397 111.53 21.7397 111.339 21.5484 111.148C20.9745 110.574 21.1658 107.896 21.1658 107.13C20.9745 104.643 20.7832 102.348 20.5919 99.8608C20.2093 93.3565 19.8266 86.8522 19.2527 80.3478C18.6788 72.5043 18.4876 64.8521 18.1049 57.0087C17.9136 52.9913 17.7224 49.1652 17.5311 45.1478C17.3398 42.8522 18.105 37.4957 16.5745 35.5826C16.1919 35.0087 15.0441 35.0087 14.8528 35.5826C15.2354 49.5478 16.0005 63.7043 16.9571 77.6696C17.531 86.6609 17.531 95.8434 18.6788 104.835C18.8701 106.748 19.2528 108.661 19.4441 110.574C19.6354 112.104 20.5919 113.061 21.5484 114.209C22.6962 115.356 23.8441 116.122 25.1832 116.887C26.1398 117.652 27.0962 117.461 28.2441 117.461C29.5832 117.461 30.731 117.461 32.0701 117.461C34.5571 117.461 37.0441 117.461 39.7223 117.461C44.6962 117.461 49.8615 117.461 54.8354 117.461C64.9745 117.461 74.9223 117.27 85.0615 117.27C105.34 117.27 125.809 117.27 146.087 117.27C186.453 117.27 227.009 117.078 267.374 117.078C290.331 117.078 313.288 116.696 336.244 116.696C337.201 116.696 338.157 115.739 338.922 115.165C339.688 114.591 340.644 113.826 341.409 113.061C342.557 111.913 343.514 110.765 344.661 109.426C345.618 108.278 346.574 107.13 347.722 105.983C347.914 105.791 347.722 105.791 347.722 105.791C348.105 105.409 348.296 104.835 348.296 104.261C346.383 103.496 345.618 102.922 345.235 102.539Z" fill="#E6C9C3"/>
<path d="M344.661 19.8956C343.896 18.7478 342.748 17.9826 341.792 17.2174C341.027 16.4522 340.07 16.6434 338.922 16.6434C337.583 16.6434 336.435 16.6434 335.096 16.6434C332.609 16.6434 330.122 16.6434 327.444 16.6434C322.47 16.6434 317.305 16.6434 312.331 16.6434C302.192 16.6434 285.548 16.8348 275.409 16.8348C255.131 16.8348 234.661 16.8348 214.383 16.8348C174.018 16.8348 133.461 17.0261 93.0962 17.0261C70.1397 17.0261 47.1832 17.4087 24.2267 17.4087C23.2702 17.4087 22.3136 18.3652 21.5484 18.9391C20.7831 19.513 19.8267 20.2783 19.0614 21.0435C17.9136 22.1913 16.9571 23.3391 15.8092 24.6782C14.8527 25.8261 13.8962 26.9739 12.7484 28.1217C12.5571 28.313 12.7484 28.313 12.7484 28.313C12.3658 28.6956 12.1744 29.2696 12.1744 29.8435C12.3657 30.6087 12.9396 31.1826 13.5136 31.5652C14.0875 32.1391 14.6614 32.5217 15.2353 33.0956C17.531 34.8174 20.2092 36.1565 23.0788 36.7304C23.2701 36.9217 23.4614 36.9217 23.6527 36.9217C24.2266 36.9217 24.8005 36.5391 25.3745 36.3478C27.6701 34.4348 29.7745 31.9478 31.1136 29.2695C31.4962 28.6956 31.6875 28.1217 31.3048 27.3565C30.9222 26.7826 30.1571 26.4 29.5832 26.0174C28.244 25.2522 26.7136 24.487 25.1832 23.913C24.6093 23.7217 23.6527 23.913 23.0788 24.2956C21.7396 24.8695 20.5918 26.5913 19.6353 27.9304C19.6353 28.1217 19.4441 28.1217 19.4441 28.313C19.4441 28.5043 19.6353 28.6956 19.6353 28.6956C19.8266 28.887 20.2093 29.2696 20.4006 29.4609L20.5918 29.6522C20.7831 29.6522 20.7832 29.6522 20.9745 29.4609C22.1223 28.313 23.2702 27.3565 24.2267 26.2087C24.8006 26.5913 25.3744 26.9739 25.9483 27.3565C26.5223 27.7391 27.0962 27.9304 27.6701 28.5043C27.8614 28.6956 28.0528 29.0782 28.0528 29.4609C28.0528 29.8435 27.6701 30.0348 27.4788 30.4174C26.7135 31.5652 26.1397 32.7131 25.1832 33.6696C24.6093 34.4348 24.0354 35.2 23.2702 35.7739C20.9745 35.2 18.6788 34.2435 16.7658 32.7131C16.7658 32.5217 16.0005 32.1391 15.8092 31.9478C15.4266 31.7565 15.2353 31.3739 14.8527 30.9913C14.4701 30.6087 14.0875 30.4174 13.8962 30.0347C13.7049 29.8434 13.3223 29.2695 13.3223 29.0782C13.3223 28.6956 13.8961 27.9304 14.0875 27.7391C14.4701 27.1652 15.044 26.5913 15.4266 26.2087C16.3831 25.2521 17.3397 24.1044 18.4875 23.1478C18.8702 22.7652 19.2527 22.3826 19.6353 22C20.5918 21.0435 21.3571 20.087 22.3136 19.3217C23.4615 18.5565 24.418 18.3652 25.7571 18.1739C27.2875 18.1739 28.6266 18.1739 30.1571 18.1739C35.8962 18.1739 41.8266 18.1739 47.5657 18.1739C53.3048 18.1739 59.2353 18.1739 64.9745 18.1739C70.7136 18.1739 76.644 18.1739 82.3831 18.1739C102.661 18.1739 123.131 18.1739 143.409 17.9826C183.774 17.9826 224.331 17.7913 264.696 17.7913C268.905 17.7913 273.305 17.7913 277.514 17.7913C287.653 17.7913 304.105 17.7913 314.244 17.7913C319.409 17.7913 324.383 17.7913 329.548 17.6C330.887 17.6 332.035 17.6 333.374 17.6C334.331 17.6 335.67 17.4087 336.627 17.4087C337.583 17.4087 338.348 18.1739 339.114 18.7478C339.879 19.3217 340.644 19.8956 341.218 20.6608C341.6 21.2348 342.174 21.8087 342.366 22.3826C342.557 22.5739 342.557 22.7652 342.557 22.9565C342.366 31.5652 342.174 37.687 342.366 45.1478C342.366 49.5478 342.557 53.9478 342.557 58.3478C342.557 62.3652 342.366 66.3826 342.366 70.4C342.366 74.4174 342.366 78.626 342.174 82.6434C341.983 86.2782 341.409 89.913 341.027 93.5478C340.835 95.0782 340.644 96.8 341.027 98.3304C341.027 98.5217 341.983 98.3304 341.983 98.1391C343.322 94.6956 343.514 90.1044 343.705 86.2783C343.896 81.687 343.896 76.9043 343.896 72.313C343.896 71.9304 343.896 71.5478 343.896 71.1652C343.896 63.1304 344.087 55.0957 344.087 47.0609C344.087 39.2174 343.705 31.3739 344.47 23.7217C346.192 22 345.427 21.0435 344.661 19.8956Z" fill="#E6C9C3"/>
<path d="M345.044 101.391C344.47 100.817 343.896 100.435 343.322 99.8608C341.027 98.1391 338.348 96.8 335.479 96.226C335.287 96.0347 335.096 96.0347 334.905 96.0347C334.331 96.0347 333.757 96.4174 333.183 96.6087C330.887 98.5217 328.783 101.009 327.444 103.687C327.061 104.261 326.87 104.835 327.253 105.6C327.635 106.174 328.401 106.556 328.974 106.939C330.314 107.704 331.844 108.47 333.374 109.043C333.948 109.235 334.905 109.043 335.479 108.661C336.818 108.087 337.966 106.365 338.922 105.026C338.922 104.835 339.114 104.835 339.114 104.643C339.114 104.452 338.922 104.261 338.922 104.261C338.731 104.07 338.348 103.687 338.157 103.496L337.966 103.304C337.774 103.304 337.774 103.304 337.583 103.496C336.435 104.643 335.287 105.6 334.331 106.748C333.757 106.365 333.183 105.983 332.609 105.6C332.035 105.217 331.461 105.026 330.887 104.452C330.696 104.261 330.505 103.878 330.505 103.496C330.505 103.113 330.887 102.922 331.079 102.539C331.844 101.391 332.418 100.243 333.374 99.2869C333.948 98.5217 334.522 97.7565 335.287 97.1826C337.583 97.7565 339.879 98.713 341.792 100.243C341.792 100.435 342.557 100.817 342.748 101.009C343.131 101.2 343.322 101.583 343.705 101.965C344.087 102.348 344.47 102.539 344.661 102.922C344.853 103.113 345.235 103.687 345.235 103.878C345.235 104.261 344.661 105.026 344.47 105.217C344.087 105.791 343.513 106.365 343.131 106.748C342.174 107.704 341.218 108.852 340.07 109.809C339.687 110.191 339.305 110.574 338.922 110.957C337.966 111.913 337.2 112.87 336.244 113.635C335.096 114.4 334.14 114.591 332.801 114.783C331.27 114.783 329.931 114.783 328.401 114.783C322.661 114.783 316.731 114.783 310.992 114.783C305.253 114.783 299.322 114.783 293.583 114.783C287.844 114.783 281.913 114.783 276.174 114.783C255.896 114.783 235.427 114.783 215.148 114.974C174.783 114.974 134.227 115.165 93.8614 115.165C89.6527 115.165 85.2526 115.165 81.0439 115.165C70.9048 115.165 60.7658 115.165 50.6266 115.165C45.6527 115.165 40.4875 115.165 35.5135 115.356C34.1744 115.356 33.0266 115.356 31.6875 115.356C30.7309 115.356 29.3918 115.548 28.4353 115.548C27.4787 115.548 26.5223 114.783 25.7571 114.209C24.8005 113.635 24.0353 113.061 23.2701 112.296C22.6962 111.722 22.1222 111.148 21.7396 110.574C21.5483 110.383 21.5484 110.191 21.3571 110C20.7832 109.426 20.9745 106.748 20.9745 105.983C20.7832 103.496 20.5919 101.2 20.4006 98.713C20.018 92.2087 19.6353 85.7043 19.0614 79.2C18.4875 71.3565 18.2961 63.7043 17.9135 55.8608C17.7222 51.8434 17.5309 48.0174 17.3396 44C17.1483 41.7043 17.9135 36.3478 16.3831 34.4348C16.0005 33.8609 14.8527 33.8609 14.6614 34.4348C15.044 48.4 15.8092 62.5565 16.7657 76.5217C17.3397 85.513 17.3397 94.6956 18.4875 103.687C18.6788 105.6 19.0614 107.513 19.2527 109.426C19.444 110.956 20.4006 111.913 21.3571 113.061C22.5049 114.209 23.6527 114.974 24.9918 115.739C25.9483 116.504 26.9049 116.313 28.0527 116.313C29.3919 116.313 30.5397 116.313 31.8788 116.313C34.3658 116.313 36.8527 116.313 39.531 116.313C44.5049 116.313 49.6701 116.313 54.644 116.313C64.7831 116.313 74.7309 116.122 84.87 116.122C105.148 116.122 125.618 116.122 145.896 116.122C186.261 116.122 226.818 115.93 267.183 115.93C290.14 115.93 313.096 115.548 336.053 115.548C337.009 115.548 337.966 114.591 338.731 114.017C339.496 113.443 340.453 112.678 341.218 111.913C342.366 110.765 343.322 109.617 344.47 108.278C345.427 107.13 346.383 105.983 347.531 104.835C347.722 104.643 347.531 104.643 347.531 104.643C347.914 104.261 348.105 103.687 348.105 103.113C346.001 102.539 345.427 101.965 345.044 101.391Z" fill="#6D5873"/>
<path d="M344.47 18.9391C343.705 17.7913 342.557 17.0261 341.6 16.2609C340.835 15.4956 339.879 15.6869 338.731 15.6869C337.392 15.6869 336.244 15.6869 334.905 15.6869C332.418 15.6869 329.931 15.6869 327.253 15.6869C322.279 15.6869 317.114 15.6869 312.14 15.6869C302.001 15.6869 285.357 15.8782 275.218 15.8782C254.94 15.8782 234.47 15.8782 214.192 15.8782C173.827 15.8782 133.27 16.0696 92.9049 16.0696C69.9483 16.0696 46.9918 16.4522 24.0353 16.4522C23.0788 16.4522 22.1223 17.4087 21.3571 17.9826C20.5919 18.5565 19.6353 19.3217 18.8701 20.087C17.7222 21.2348 16.7658 22.3826 15.618 23.7217C14.6615 24.8696 13.7049 26.0174 12.557 27.1652C12.3657 27.3565 12.557 27.3565 12.557 27.3565C12.1744 27.7391 11.9832 28.3131 11.9832 28.887C12.1745 29.6522 12.7484 30.2261 13.3223 30.6087C13.8962 31.1826 14.4701 31.5652 15.044 32.1391C17.3396 33.8608 20.018 35.2 22.8875 35.7739C23.0788 35.9652 23.2701 35.9652 23.4614 35.9652C24.0353 35.9652 24.6093 35.5826 25.1832 35.3913C27.4789 33.4783 29.5832 30.9913 30.9223 28.313C31.3049 27.7391 31.4962 27.1652 31.1136 26.4C30.731 25.8261 29.9657 25.4435 29.3918 25.0609C28.0527 24.2957 26.5223 23.5304 24.9918 22.9565C24.4179 22.7652 23.4614 22.9565 22.8875 23.3391C21.5484 23.913 20.4006 25.6348 19.4441 26.9739C19.4441 27.1652 19.2527 27.1652 19.2527 27.3565C19.2527 27.5478 19.4441 27.7391 19.4441 27.7391C19.6354 27.9304 20.0179 28.313 20.2092 28.5043L20.4006 28.6957C20.5919 28.6957 20.5918 28.6956 20.7831 28.5043C21.9309 27.3565 23.0788 26.4 24.0353 25.2521C24.6092 25.6347 25.1832 26.0174 25.7571 26.4C26.331 26.7826 26.9048 26.9739 27.4788 27.5478C27.6701 27.7391 27.8614 28.1217 27.8614 28.5043C27.8614 28.8869 27.4788 29.0782 27.2875 29.4609C26.5223 30.6087 25.9483 31.7565 24.9918 32.7131C24.4179 33.4783 23.844 34.2434 23.0788 34.8174C20.7831 34.2434 18.4875 33.287 16.5745 31.7565C16.5745 31.5652 15.8093 31.1826 15.618 30.9913C15.2354 30.8 15.0441 30.4174 14.6615 30.0347C14.2789 29.6521 13.8962 29.4608 13.7049 29.0782C13.5136 28.8869 13.1309 28.313 13.1309 28.1217C13.1309 27.7391 13.7049 26.9739 13.8962 26.7826C14.2788 26.2087 14.8527 25.6347 15.2354 25.2521C16.1919 24.2956 17.1483 23.1478 18.2962 22.1913C18.6788 21.8087 19.0615 21.4261 19.4441 21.0435C20.4006 20.087 21.1657 19.1304 22.1223 18.3652C23.2701 17.6 24.2266 17.4087 25.5657 17.2174C27.0962 17.2174 28.4354 17.2174 29.9658 17.2174C35.7049 17.2174 41.6353 17.2174 47.3745 17.2174C53.1136 17.2174 59.044 17.2174 64.7831 17.2174C70.5222 17.2174 76.4527 17.2174 82.1919 17.2174C102.47 17.2174 122.94 17.2174 143.218 17.0261C183.583 17.0261 224.14 16.8348 264.505 16.8348C268.714 16.8348 273.114 16.8348 277.322 16.8348C287.461 16.8348 303.914 16.8348 314.053 16.8348C319.218 16.8348 324.192 16.8347 329.357 16.6434C330.696 16.6434 331.844 16.6434 333.183 16.6434C334.14 16.6434 335.479 16.4522 336.435 16.4522C337.392 16.4522 338.157 17.2174 338.922 17.7913C339.688 18.3652 340.453 18.9391 341.027 19.7043C341.409 20.2782 341.983 20.8521 342.174 21.426C342.366 21.6174 342.366 21.8087 342.366 22C342.174 30.6087 341.983 36.7304 342.174 44.1913C342.174 48.5913 342.366 52.9913 342.366 57.3913C342.366 61.4087 342.174 65.4261 342.174 69.4435C342.174 73.4608 342.174 77.6695 341.983 81.6869C341.792 85.3217 341.218 88.9565 340.835 92.5913C340.644 94.1217 340.453 95.8435 340.835 97.3739C340.835 97.5652 341.792 97.3739 341.792 97.1826C343.131 93.7391 343.322 89.1478 343.514 85.3217C343.705 80.7304 343.705 75.9478 343.705 71.3565C343.705 70.9739 343.705 70.5913 343.705 70.2087C343.705 62.1739 343.896 54.1391 343.896 46.1044C343.896 38.2609 343.514 30.4174 344.279 22.7652C346.001 21.0435 345.235 19.8956 344.47 18.9391Z" fill="#6D5873"/>
<path opacity="0.15" d="M57.3223 70.0174C52.5397 70.2087 46.2267 72.6957 43.931 77.287C41.6354 81.8783 44.1223 87.4261 46.9918 91.0609C48.331 92.7826 50.0528 93.9304 51.9658 94.313C52.1571 94.5043 52.3484 94.5044 52.731 94.6957C57.3223 96.8 64.2093 93.9305 67.8441 90.8696C76.2614 83.7913 66.8875 69.8261 57.3223 70.0174Z" fill="#E8E6E8"/>
<path opacity="0.15" d="M82.3831 80.7304C81.8092 80.1565 81.2353 79.9652 80.4701 79.7739C79.3222 79.3913 78.1744 79.5826 77.0266 79.3913C76.2614 79.2 74.9223 79.7739 74.5397 80.3478C74.1571 81.113 73.3918 81.4956 73.2005 82.2609C73.0092 82.8348 73.0092 83.4087 73.2005 83.7913C73.7744 85.1304 75.3048 85.7043 76.644 85.8956C78.7483 86.2782 82.7657 86.6608 82.957 83.5999C83.5309 82.8347 83.3396 81.6869 82.3831 80.7304Z" fill="#E8E6E8"/>
<path opacity="0.15" d="M37.4266 58.3478C37.044 57.9652 36.6614 57.7739 36.2788 57.5826C35.8962 57.3913 34.9396 57.7739 34.557 58.1565C34.3657 58.5391 34.1744 58.9217 33.9831 59.4956C33.7918 59.8783 33.9831 60.2608 34.1744 60.6434C34.557 61.4086 35.7048 61.4087 36.4701 61.2174C37.2353 61.0261 38.0005 60.2609 38.0005 59.4956C37.8092 58.9217 37.8092 58.7304 37.4266 58.3478Z" fill="#E8E6E8"/>
<path opacity="0.15" d="M308.696 80.7304C305.827 77.2869 300.088 77.6696 297.027 80.9217C291.479 86.8522 303.914 94.887 308.888 89.7217C311.566 87.0435 310.992 83.4087 308.696 80.7304Z" fill="#E8E6E8"/>
<path opacity="0.15" d="M291.288 85.8957C290.905 84.9391 289.948 84.5565 288.992 84.1739C288.609 83.9826 287.27 84.3652 287.27 84.9391C287.27 85.8957 287.079 86.6609 287.844 87.4261C288.609 88.1913 289.374 88.3826 290.331 88C291.096 87.4261 291.67 86.6609 291.288 85.8957Z" fill="#E8E6E8"/>
<path opacity="0.15" d="M325.914 29.6522C321.705 26.0174 315.009 27.5478 311.183 30.9913C308.505 33.4782 311.566 36.9217 313.479 38.4522C315.774 40.3652 319.409 40.3652 322.087 41.3217C323.044 41.7044 325.148 40.7478 325.531 39.7913C326.488 38.0695 328.018 35.9652 328.209 33.8608C328.4 32.1391 327.253 30.8 325.914 29.6522Z" fill="#E8E6E8"/>
<path opacity="0.15" d="M308.505 37.8782C308.505 37.6869 308.314 37.3043 308.122 37.3043C307.931 37.113 307.548 37.113 307.357 36.9217C307.166 36.9217 306.783 36.7304 306.592 36.7304C306.209 36.7304 305.827 36.7304 305.444 36.5391C305.061 36.5391 304.296 36.7304 304.105 37.113C303.914 37.3043 303.722 37.6869 303.722 37.8782C303.722 38.0695 303.722 38.4521 303.722 38.6434C303.722 38.8347 303.722 38.8348 303.722 39.0261C303.722 39.2174 303.914 39.2174 304.105 39.4087C304.488 39.6 304.87 39.6 305.253 39.6C305.827 39.6 306.401 39.6 306.974 39.4087C307.548 39.2174 307.74 38.8348 308.122 38.4522C308.314 38.2609 308.696 38.0695 308.505 37.8782Z" fill="#E8E6E8"/>
<path opacity="0.15" d="M333.374 50.5043C332.8 49.3565 331.653 49.1652 330.505 48.7826C329.74 48.5913 328.592 49.1652 328.209 49.7391C327.635 50.6956 326.87 51.6522 327.444 52.8C327.635 53.1826 328.209 53.5652 328.592 53.7565C329.166 54.1391 329.931 54.3304 330.696 54.3304C331.461 54.5217 332.609 54.1391 333.183 53.3739C333.566 52.8 333.948 51.4608 333.374 50.5043Z" fill="#E8E6E8"/>
<path opacity="0.15" d="M104.575 31.7565C101.131 30.2261 96.7311 31.3739 94.0528 33.8608C93.2876 34.6261 92.9049 35.7739 93.4788 36.7304C94.0527 37.4956 94.818 37.8783 95.7745 38.0696C97.6875 38.6435 99.9832 38.4522 102.088 38.4522C103.044 38.4522 104.574 38.0696 104.957 37.113C105.34 36.3478 105.722 35.3913 105.914 34.4348C105.914 32.9044 105.722 32.1391 104.575 31.7565Z" fill="#E8E6E8"/>
<path opacity="0.15" d="M161.009 98.3304C160.818 98.1391 160.627 98.1391 160.435 97.9478C160.244 97.7565 160.053 97.7565 159.861 97.5652C159.479 97.3739 158.905 97.5652 158.714 97.7565C158.522 97.7565 157.948 98.1391 157.948 98.3304C157.948 98.713 157.948 99.0957 158.331 99.287C158.522 99.4783 158.522 99.4783 158.714 99.6696C158.905 99.8609 159.288 99.8608 159.67 99.8608C160.053 99.8608 160.818 99.6696 161.009 99.4783C161.201 99.287 161.392 99.0956 161.392 98.9043C161.201 98.713 161.201 98.3304 161.009 98.3304Z" fill="#E8E6E8"/>
<path opacity="0.15" d="M176.505 103.113C176.505 102.922 176.314 102.922 176.314 102.73C176.122 102.539 175.931 102.348 175.548 102.156C175.357 101.965 174.018 102.539 174.209 102.73C174.401 102.922 174.592 103.113 174.783 103.304C174.783 103.496 174.974 103.496 174.974 103.496C175.166 103.496 175.357 103.687 175.548 103.687C175.74 103.687 175.931 103.687 176.122 103.687C176.314 103.687 176.505 103.496 176.505 103.304C176.696 103.304 176.696 103.304 176.505 103.113Z" fill="#E8E6E8"/>
<path opacity="0.15" d="M237.913 64.8521C237.722 64.2782 237.531 63.7043 237.148 63.3217C236.766 62.7478 236 62.5565 235.427 62.1739C234.853 61.7913 233.896 62.1739 233.513 62.5565C233.322 62.7478 232.174 63.3217 232.748 63.513C233.322 63.8956 233.896 64.4695 234.47 64.6608C235.235 65.0434 236 65.2347 236.766 65.426C236.957 65.426 238.105 65.0434 237.913 64.8521Z" fill="#E8E6E8"/>
<path opacity="0.15" d="M133.27 56.8174C133.079 56.6261 132.887 56.4348 132.696 56.0522C132.505 55.8608 131.74 55.8608 131.357 55.8608C130.783 55.8608 130.4 56.0522 129.827 56.2435C129.444 56.4348 128.87 56.6261 128.488 57.0087C128.296 57.2 127.722 57.5826 128.105 57.7739C128.296 57.9652 128.487 58.3478 128.679 58.5391C128.87 58.9218 129.061 59.113 129.444 59.3043C130.401 59.687 131.548 59.8783 132.505 59.4957C132.887 59.3044 133.27 59.113 133.461 58.7304C133.653 58.5391 133.653 58.5391 133.653 58.1565C133.653 57.9652 133.844 57.7739 133.653 57.5826C133.653 57.2 133.461 57.0087 133.27 56.8174Z" fill="#E8E6E8"/>
<path opacity="0.15" d="M67.844 91.0609C66.5049 92.5913 64.2092 93.5478 62.2962 94.5043C57.1309 97.1826 50.244 94.5043 46.9918 90.2956C44.8875 87.8087 43.7396 83.9826 43.1657 80.9217C42.7831 85.3217 45.0788 89.1478 47.9483 92.4C51.0092 96.0348 54.2614 98.5217 59.044 97.5652C63.2527 96.8 67.0788 94.1217 69.1832 90.4869C69.9484 89.1478 70.7136 87.6174 71.0962 86.087C71.4788 84.7478 71.0962 83.6 71.2875 82.2609C70.7136 85.513 70.1397 88.1913 67.844 91.0609Z" fill="#E6C9C3"/>
<path opacity="0.15" d="M73.9658 81.8782C73.3919 82.0695 73.0093 82.8348 73.2006 83.4087C73.3919 83.9826 73.9657 84.3652 74.3484 84.7478C75.4962 85.3217 76.8354 85.7043 77.9832 85.8956C78.7484 86.0869 79.7049 86.2783 80.4701 86.087C82.7658 85.8957 82.9571 83.6 82.5745 81.6869C83.1484 82.6434 82.957 83.7913 82.957 84.7478C82.957 85.1304 82.9571 85.7043 82.5745 86.087C82.1919 86.4696 81.6179 86.6609 81.044 86.8522C78.557 87.2348 75.8788 87.0435 73.3918 86.087C73.2005 86.087 73.0092 85.8956 72.8179 85.7043C72.4353 85.3217 72.4354 84.5565 72.6267 83.9826C73.0093 83.2174 73.5832 82.6435 73.9658 81.8782Z" fill="#E6C9C3"/>
<path opacity="0.15" d="M94.6267 33.4783C94.0527 34.0522 93.2875 34.8174 93.4788 35.7739C93.6701 36.5391 94.4354 36.7304 95.0093 37.113C95.9658 37.4956 96.9223 37.8783 97.8789 38.0696C99.218 38.2609 100.557 38.2609 101.896 38.0696C102.47 38.0696 103.235 37.8783 103.809 37.4957C104.192 37.3044 104.383 37.113 104.575 36.7304C105.34 35.5826 105.722 34.2435 105.531 33.0956C105.531 34.0522 105.722 35.5826 105.531 36.5391C105.531 37.1131 105.34 37.8783 104.766 38.0696C104.383 38.2609 104.001 38.4522 103.618 38.4522C100.748 38.8348 97.4962 39.6 95.0093 38.2609C92.1397 36.9217 92.5223 35.5826 94.6267 33.4783Z" fill="#E6C9C3"/>
<path opacity="0.15" d="M133.844 57.7739C133.653 58.3478 133.27 58.7304 132.887 58.9217C132.505 59.113 132.122 59.3044 131.74 59.4957C130.592 59.8783 129.253 59.4957 128.679 58.5391C129.253 59.3044 129.827 60.0696 130.783 60.4522C130.974 60.4522 130.974 60.6434 131.166 60.6434C131.357 60.6434 131.357 60.6435 131.548 60.4522C132.505 59.8783 133.461 58.7304 133.844 57.7739Z" fill="#E6C9C3"/>
<path opacity="0.15" d="M309.653 82.6434C310.227 83.7913 310.992 85.1304 310.801 86.2783C310.609 86.8522 310.418 87.4261 310.035 87.8087C309.27 88.9565 308.505 90.2957 307.166 90.8696C306.592 91.0609 306.018 91.2521 305.444 91.2521C303.148 91.4434 300.661 90.8695 298.94 89.3391C297.027 88 295.879 85.7044 295.496 83.4087C296.07 87.8087 299.322 91.6348 303.722 92.7826C304.487 92.9739 305.253 92.9739 306.018 92.7826C306.783 92.5913 307.548 92.0174 308.314 91.4435C309.079 90.8695 309.653 90.2956 310.227 89.5304C311.757 87.4261 311.374 84.3652 309.653 82.6434Z" fill="#E6C9C3"/>
<path opacity="0.15" d="M310.609 31.9478C310.035 32.9043 310.418 33.8608 310.801 34.8174C311.183 35.5826 311.566 36.3478 312.14 37.113C314.053 39.0261 316.731 40.1739 319.218 40.7478C321.705 41.3217 324.383 41.7043 325.722 39.2174C326.679 37.4957 327.635 35.5826 328.018 33.6696C328.209 35.2 327.635 36.9217 327.253 38.2609C326.679 39.7913 326.105 41.3217 324.575 42.087C323.618 42.4696 322.47 42.4696 321.514 42.2783C317.879 41.7044 314.435 40.3652 311.948 37.4957C310.801 35.9652 309.27 34.0521 310.609 31.9478Z" fill="#E6C9C3"/>
<path opacity="0.15" d="M333.757 51.0782C333.374 51.8434 333.183 52.4174 332.801 53.1826C332.609 53.3739 332.609 53.5652 332.418 53.7565C332.035 54.1391 331.27 54.1391 330.505 54.1391C329.931 54.1391 329.166 53.9478 328.592 53.7565C328.018 53.5652 327.444 52.9913 327.253 52.4174C327.444 53.3739 328.209 54.1391 329.166 54.5217C330.122 54.9043 331.079 54.9043 332.035 54.9043C332.227 54.9043 332.418 54.9043 332.609 54.9043C332.8 54.713 332.992 54.5217 332.992 54.3304C333.566 53.3739 333.757 52.4174 333.757 51.0782Z" fill="#E6C9C3"/>
<defs>
<linearGradient id="paint0_linear_9_9657" x1="179.749" y1="-62.7599" x2="182.434" y2="175.719" gradientUnits="userSpaceOnUse">
<stop stop-color="#BFA0A2"/>
<stop offset="0.2853" stop-color="#8B7588"/>
<stop offset="0.6201" stop-color="#493E66"/>
<stop offset="0.841" stop-color="#224569"/>
<stop offset="1" stop-color="#0A4A6B"/>
</linearGradient>
<radialGradient id="paint1_radial_9_9657" cx="0" cy="0" r="1" gradientUnits="userSpaceOnUse" gradientTransform="translate(183.295 -39.6433) scale(563.303 563.303)">
<stop stop-color="#CCAAAC"/>
<stop offset="1" stop-color="#6C6778"/>
</radialGradient>
</defs>
</svg>
