<svg width="299" height="189" viewBox="0 0 299 189" fill="none" xmlns="http://www.w3.org/2000/svg">
<path d="M86.0066 86.4206C78.068 90.4213 71.6482 97.4218 67.948 105.546C65.5537 110.802 59.5471 134.378 70.0026 134.986C80.7885 135.629 84.9839 116.536 86.2672 109.158C87.2203 101.745 87.3652 94.079 86.0066 86.4206Z" fill="url(#paint0_linear_10_10080)"/>
<path d="M205.144 96.7166C202.081 100.399 199.644 104.483 196.582 108.166C192.572 112.917 195.539 119.577 199.525 124.508C203.51 129.439 208.93 135.023 215.162 134.515C220.221 134.05 224.872 132.706 229.445 130.52C231.019 129.852 232.297 128.818 233.393 127.933C235.255 126.126 236.638 124.102 238.274 121.27C243.148 113.104 246.11 104.066 246.613 94.6017C246.78 91.4467 246.8 88.1092 245.247 85.4397C240.778 86.6357 235.614 88.0919 230.843 87.419C228.531 87.1738 226.22 86.9286 223.725 86.8311C221.231 86.7335 218.666 87.2965 216.432 87.8945C211.746 89.5684 208.206 93.0337 205.144 96.7166Z" fill="url(#paint1_linear_10_10080)"/>
<path d="M119.592 62.5967L119.74 62.7793C122.614 65.5889 122.369 67.9007 122.609 71.9338C122.85 75.9669 123.09 80.0001 123 83.9981C123.003 91.8467 122.492 99.8077 121.322 107.699C120.789 111.149 120.404 114.782 122.618 117.521C127.046 123.001 134.76 117.974 139.516 115.64C146.211 112.342 151.978 106.775 155.355 100.12C156.844 97.1051 158.185 93.9077 157.874 90.5351C157.824 87.858 156.931 85.2585 155.673 82.9542C154.302 80.1371 152.6 77.2849 150.498 75.0582L150.351 74.8756C147.511 71.7358 144.123 69.0387 140.483 67.1498C139.858 66.7495 139.38 66.5319 138.572 66.2792C134.271 64.3203 129.9 63.0218 125.241 62.8618C123.442 62.504 121.609 62.4766 119.592 62.5967Z" fill="url(#paint2_linear_10_10080)"/>
<path d="M119.592 62.5967L119.74 62.7793C120.218 62.997 120.513 63.3623 120.991 63.58C120.991 63.58 120.991 63.5799 121.138 63.7626C122.537 64.7458 123.9 66.0593 124.751 67.4854C125.897 69.2768 126.312 71.6586 126.91 73.8928C128.149 79.5347 129.57 85.0289 130.661 90.488C135.833 90.5355 140.476 87.6882 144.642 84.6233C145.555 83.8852 146.433 83.4773 147.199 82.5566C148.877 80.8978 149.888 77.6653 150.351 74.8756L150.203 74.6931C147.364 71.5532 143.976 68.8561 140.336 66.9672C139.71 66.567 139.232 66.3493 138.424 66.0966C134.123 64.1377 129.752 62.8392 125.094 62.6792C123.443 62.5041 121.609 62.4766 119.592 62.5967Z" fill="url(#paint3_linear_10_10080)"/>
<path d="M223.725 86.8311C223.69 87.1613 223.507 87.309 223.472 87.6392C221.128 95.5729 219.852 104.455 223.228 111.993C223.34 112.506 223.636 112.871 224.296 112.941C224.626 112.976 224.809 112.829 225.174 112.533C231.026 109.313 235.88 104.485 239.152 98.8201C235.775 105.475 230.964 111.477 225.119 116.201C226.898 119.897 229.007 123.627 231.664 126.914C231.96 127.28 232.403 127.828 233.063 127.898C233.063 127.898 233.063 127.898 233.393 127.933C235.255 126.126 236.638 124.102 238.274 121.27C243.148 113.104 246.11 104.066 246.613 94.6017C246.78 91.4467 246.8 88.1092 245.247 85.4397C240.778 86.6357 235.614 88.0919 230.843 87.419C228.531 87.1738 226.22 86.9286 223.725 86.8311Z" fill="url(#paint4_linear_10_10080)"/>
<path d="M161.049 65.3232C157.664 70.4747 155.052 76.2091 153.101 82.0136C149.268 92.9621 147.825 104.999 148.763 116.62C155.876 123.553 164.393 125.124 174.265 126.505C184.173 127.556 194.578 125.486 202.987 120.2C203.865 119.792 204.623 117.367 204.068 116.307C207.55 108.661 208.791 100.109 208.676 91.7477C208.611 86.0633 208.068 80.1612 207.16 74.5544C204.963 60.6287 201.445 46.563 202.108 32.4396C185.45 38.3545 170.656 50.3115 161.049 65.3232Z" fill="url(#paint5_linear_10_10080)"/>
<path d="M161.049 65.3231C157.664 70.4746 155.052 76.209 153.101 82.0135C152.533 85.794 152.625 89.6445 153.379 93.565C161.705 93.78 170.024 92.4914 177.97 89.9943C180.96 79.1234 183.471 68.0348 185.8 57.0938L182.781 83.9921C182.423 85.791 182.213 87.7725 183.211 89.3812C184.027 91.1375 185.756 92.1559 187.52 92.8439C192.411 95.5334 197.885 97.4497 203.38 96.0285C205.944 95.4655 207.623 93.8067 209.189 91.635C209.124 85.9506 208.581 80.0486 207.673 74.4418C205.476 60.5162 201.958 46.4504 202.62 32.327C185.45 38.3545 170.656 50.3114 161.049 65.3231Z" fill="url(#paint6_linear_10_10080)"/>
<path d="M-38.9278 200.08C-44.9548 204.951 -50.574 210.701 -54.9422 217.251C-47.2489 215.562 -38.9075 218.784 -32.6876 223.118C-28.4918 226.067 -24.8789 229.79 -20.2128 231.454C-19.5873 231.854 -18.9268 231.924 -18.1187 232.177C-14.8512 232.857 -11.2959 232.4 -8.03594 231.576C-0.15991 229.74 11.7767 225.829 17.5786 219.932C18.5268 218.864 19.475 217.795 19.2848 216.439C19.5074 209.616 8.6915 202.959 3.65257 200.087C-3.92333 195.944 -12.5175 193.53 -21.0265 193.462C-23.0431 193.582 -25.0596 193.703 -27.2588 193.97C-28.102 194.048 -28.9802 194.456 -30.0059 194.681C-32.9707 195.869 -36.0406 198.048 -38.9278 200.08Z" fill="url(#paint7_linear_10_10080)"/>
<path d="M-29.7061 166.659C-24.2394 167.072 -18.8352 169.649 -15.2924 174.032C-11.602 178.598 -11.8671 184.248 -10.5935 189.559C-9.91794 192.637 -9.42498 195.861 -9.07966 198.904C-8.73435 201.946 -8.53673 204.806 -8.19141 207.848C-8.00124 209.204 -7.99373 210.708 -7.25565 211.621C-6.51756 212.534 -5.4142 213.152 -4.12821 213.622C3.88302 216.81 12.3296 219.041 20.6986 220.43C26.6055 213.542 28.2967 207.042 31.2238 198.335C33.2102 192.2 33.728 185.743 32.5595 179.441C32.3693 178.085 31.9965 176.876 31.1108 175.78C30.9632 175.598 30.8156 175.415 30.668 175.232C29.7823 174.137 28.3487 173.484 27.0627 173.013C14.0125 166.954 1.22253 161.59 -13.5538 162.361C-16.7438 162.523 -19.9687 163.016 -23.0461 163.692C-23.7416 163.952 -25.8632 165.063 -27.4369 165.731C-28.3151 166.139 -29.3759 166.694 -29.7061 166.659Z" fill="url(#paint8_linear_10_10080)"/>
<path d="M-27.8372 166.357C-28.0199 166.504 -28.0199 166.504 -27.8372 166.357C-26.5162 166.497 -25.2302 166.967 -23.9442 167.437C-20.7467 168.778 -17.3316 169.641 -14.7871 172.416C-11.9473 175.556 -10.7513 180.024 -9.85057 184.127C-8.80218 188.413 -7.75374 192.699 -6.70536 196.985C-6.33255 198.193 -6.14242 199.549 -5.25672 200.645C-2.89485 203.567 5.2614 199.089 8.33876 198.413C9.54718 198.04 10.9382 197.52 11.5561 196.416C12.1741 195.313 12.1316 194.14 11.7587 192.931C10.8154 187.655 9.17661 182.638 6.84224 177.882C11.2632 181.858 15.5015 185.981 19.9225 189.956C20.8432 190.722 21.9115 191.67 22.9023 191.775C24.7362 191.803 26.2324 190.292 27.068 188.71C29.1745 184.592 29.8125 180.151 30.7806 175.745C30.633 175.563 30.4853 175.38 30.3377 175.197C29.452 174.101 28.0185 173.449 26.7325 172.978C19.5644 169.713 12.3963 166.448 4.75789 164.47C1.01249 163.571 -2.91553 162.821 -6.87859 162.401C-8.86012 162.191 -10.8767 162.311 -12.7106 162.283C-15.3877 162.333 -18.1773 161.87 -20.9244 162.581C-23.3413 163.327 -25.6806 164.915 -27.8372 166.357Z" fill="url(#paint9_linear_10_10080)"/>
<path d="M-38.9278 200.08C-44.9548 204.951 -50.574 210.701 -54.9423 217.251C-47.2489 215.562 -38.9075 218.784 -32.6876 223.118C-28.4918 226.067 -24.8789 229.79 -20.2128 231.454C-16.2573 230.371 -12.4494 229.105 -10.1526 226.342C-6.72507 222.364 -8.50403 218.669 -12.1869 215.607C-16.4953 212.144 -23.2205 209.427 -26.453 208.416C-22.3423 209.019 -18.4143 209.77 -14.3037 210.373C-11.5091 204.491 -16.423 197.29 -22.3752 195.156C-23.9914 194.651 -25.46 194.328 -27.1113 194.153C-27.9544 194.23 -28.8326 194.638 -29.8584 194.863C-32.9708 195.869 -36.0406 198.048 -38.9278 200.08Z" fill="url(#paint10_linear_10_10080)"/>
<path d="M39.7122 157.656C28.2711 172.64 20.2177 190.322 13.3728 207.63C11.7791 211.636 11.1137 217.911 7.7912 220.898L24.4037 205.961C27.5436 203.121 29.7402 195.005 32.142 191.252C40.2955 178.925 50.5707 165.487 61.3388 155.274C69.1497 147.753 78.149 143.197 89.0749 142.519C96.1154 142.263 102.46 142.268 108.883 143.116C110.534 143.291 112.003 143.614 113.801 143.972C135.831 148.813 157.215 156.591 179.14 162.423C191.809 165.77 204.95 167.831 218.23 168.572C228.025 169.109 244.553 173.868 249.594 162.546C250.429 160.965 250.787 159.166 251.145 157.367C251.538 155.238 252.078 153.292 252.471 151.163C252.576 150.172 253.011 149.216 252.456 148.155C252.048 147.277 251.275 146.694 250.684 145.964C245.603 141.918 240.304 138.35 234.97 135.113C232.763 133.877 230.556 132.641 228.497 131.588C231.997 134.798 235.653 139.694 238.205 143.972C244.047 153.442 229.748 154.431 222.743 154.356C221.57 154.398 220.579 154.293 219.918 154.223C207.699 152.927 195.845 151.336 183.695 149.38C160.24 145.39 136.629 139.713 114.001 132.638C113.193 132.386 112.385 132.133 111.577 131.88C103.018 129.136 94.9367 126.609 85.7671 126.471C67.7932 125.901 49.8047 144.366 39.7122 157.656Z" fill="url(#paint11_linear_10_10080)"/>
<path d="M114.465 151.891C114.612 152.073 114.943 152.108 115.273 152.143C135.223 159.269 155.321 166.576 175.742 172.415C196.163 178.255 218.27 183.939 239.617 184.198C241.12 184.191 242.807 184.036 244.31 184.028C244.641 184.063 244.823 183.916 244.971 184.098C250.508 183.85 256.079 183.272 261.278 181.486C266.295 179.847 266.229 174.163 267.233 169.427C267.338 168.436 267.773 167.48 267.218 166.419C266.585 164.515 263.682 163.54 261.736 162.999C260.45 162.529 258.729 163.014 258.111 164.118C257.893 164.596 257.823 165.256 257.753 165.917C257.29 168.706 255.942 170.4 253.342 171.293C249.316 173.037 245.206 172.434 241.095 171.831C237.315 171.264 233.907 171.904 229.944 171.484C219.376 170.363 208.843 168.912 198.345 167.131C183.258 164.529 168.241 161.267 153.442 157.527C146.465 155.618 139.739 152.901 132.909 151.175C127.547 149.771 120.127 147.315 114.632 148.736C113.937 148.996 113.241 149.256 113.024 149.734C113.066 150.907 113.839 151.49 114.465 151.891Z" fill="url(#paint12_linear_10_10080)"/>
<path d="M256.68 171.313C257.888 170.94 258.696 171.193 259.687 171.298C260.347 171.368 260.207 172.689 259.99 173.167C259.224 174.088 258.606 175.191 257.215 175.712C256.007 176.084 255.051 175.649 254.278 175.066C253.8 174.848 253.757 173.675 254.158 173.05C254.888 172.459 255.654 171.538 256.68 171.313Z" fill="#DBCF5E"/>
<path d="M238.033 175.514C239.058 175.289 240.415 175.099 241.44 174.874C242.466 174.648 243.675 174.276 244.848 174.233C245.361 174.121 246.056 173.86 246.717 173.93C247.377 174 248.038 174.07 248.663 174.471C249.141 174.688 249.366 175.714 249.149 176.192C248.678 177.478 247.175 177.486 246.001 177.528C244.828 177.571 243.655 177.613 242.333 177.473C241.16 177.516 239.839 177.376 238.701 177.088C237.38 176.948 236.094 176.477 234.773 176.337C234.773 176.337 234.477 175.972 234.66 175.824C235.981 175.965 237.007 175.739 238.033 175.514Z" fill="#DBCF5E"/>
<path d="M96.9773 219.168C92.3537 218.677 82.5436 215.132 81.2926 214.332C75.0378 210.329 67.7221 206.881 64.6421 199.708C64.3819 199.013 64.2693 198.5 64.1567 197.987C64.0716 195.64 67.1839 194.634 69.5307 194.549C74.7372 194.266 80.3516 194.862 85.3129 196.891C90.6045 198.955 93.2692 203.746 96.2991 208.242C98.2957 211.459 100.075 215.154 99.5067 218.935C99.289 219.413 98.4459 219.49 96.9773 219.168Z" fill="#CDBFDE"/>
<path d="M91.3799 185.344C92.6309 186.145 93.7342 186.763 94.9852 187.563C102.343 192.184 109.146 195.744 112.747 204.308C112.634 203.796 91.1126 205.187 88.5831 205.42C78.0225 205.803 67.9872 201.232 59.2654 195.297C47.4511 187.031 62.345 180.428 70.2286 180.096C78.1121 179.763 85.055 182.002 91.3799 185.344Z" fill="url(#paint13_linear_10_10080)"/>
<defs>
<linearGradient id="paint0_linear_10_10080" x1="92.0885" y1="59.3545" x2="66.0441" y2="144.135" gradientUnits="userSpaceOnUse">
<stop stop-color="#B39B19"/>
<stop offset="0.3744" stop-color="#7C852D"/>
<stop offset="1" stop-color="#195C52"/>
</linearGradient>
<linearGradient id="paint1_linear_10_10080" x1="276.752" y1="54.3762" x2="211.065" y2="120.238" gradientUnits="userSpaceOnUse">
<stop stop-color="#B39B19"/>
<stop offset="0.3744" stop-color="#7C852D"/>
<stop offset="1" stop-color="#195C52"/>
</linearGradient>
<linearGradient id="paint2_linear_10_10080" x1="144.116" y1="35.3527" x2="136.437" y2="95.3076" gradientUnits="userSpaceOnUse">
<stop stop-color="#B39B19"/>
<stop offset="0.3744" stop-color="#7C852D"/>
<stop offset="1" stop-color="#195C52"/>
</linearGradient>
<linearGradient id="paint3_linear_10_10080" x1="144.732" y1="37.6273" x2="117.648" y2="126.573" gradientUnits="userSpaceOnUse">
<stop stop-color="#B39B19"/>
<stop offset="0.3744" stop-color="#7C852D"/>
<stop offset="1" stop-color="#195C52"/>
</linearGradient>
<linearGradient id="paint4_linear_10_10080" x1="252.295" y1="36.8594" x2="206.155" y2="188.386" gradientUnits="userSpaceOnUse">
<stop stop-color="#B39B19"/>
<stop offset="0.3744" stop-color="#7C852D"/>
<stop offset="1" stop-color="#195C52"/>
</linearGradient>
<linearGradient id="paint5_linear_10_10080" x1="235.703" y1="4.74081" x2="167.286" y2="117.187" gradientUnits="userSpaceOnUse">
<stop stop-color="#B39B19"/>
<stop offset="0.3744" stop-color="#7C852D"/>
<stop offset="1" stop-color="#195C52"/>
</linearGradient>
<linearGradient id="paint6_linear_10_10080" x1="213.059" y1="20.2072" x2="133.272" y2="183.99" gradientUnits="userSpaceOnUse">
<stop stop-color="#B39B19"/>
<stop offset="0.3744" stop-color="#7C852D"/>
<stop offset="1" stop-color="#195C52"/>
</linearGradient>
<linearGradient id="paint7_linear_10_10080" x1="-69.2512" y1="222.029" x2="16.1997" y2="206.93" gradientUnits="userSpaceOnUse">
<stop stop-color="#B39B19"/>
<stop offset="0.3744" stop-color="#7C852D"/>
<stop offset="1" stop-color="#195C52"/>
</linearGradient>
<linearGradient id="paint8_linear_10_10080" x1="8.02543" y1="113.632" x2="-1.60679" y2="209.827" gradientUnits="userSpaceOnUse">
<stop stop-color="#B39B19"/>
<stop offset="0.3744" stop-color="#7C852D"/>
<stop offset="1" stop-color="#195C52"/>
</linearGradient>
<linearGradient id="paint9_linear_10_10080" x1="-1.4629" y1="157.682" x2="14.3188" y2="230.422" gradientUnits="userSpaceOnUse">
<stop stop-color="#B39B19"/>
<stop offset="0.3744" stop-color="#7C852D"/>
<stop offset="1" stop-color="#195C52"/>
</linearGradient>
<linearGradient id="paint10_linear_10_10080" x1="-62.7166" y1="229.39" x2="49.7861" y2="181.633" gradientUnits="userSpaceOnUse">
<stop stop-color="#B39B19"/>
<stop offset="0.3744" stop-color="#7C852D"/>
<stop offset="1" stop-color="#195C52"/>
</linearGradient>
<linearGradient id="paint11_linear_10_10080" x1="298.995" y1="56.396" x2="50.2588" y2="218.89" gradientUnits="userSpaceOnUse">
<stop stop-color="#B39B19"/>
<stop offset="0.3744" stop-color="#7C852D"/>
<stop offset="1" stop-color="#195C52"/>
</linearGradient>
<linearGradient id="paint12_linear_10_10080" x1="263.797" y1="135.915" x2="-30.1357" y2="250.081" gradientUnits="userSpaceOnUse">
<stop stop-color="#B39B19"/>
<stop offset="0.3744" stop-color="#7C852D"/>
<stop offset="1" stop-color="#195C52"/>
</linearGradient>
<linearGradient id="paint13_linear_10_10080" x1="142.272" y1="190.876" x2="60.4438" y2="193.283" gradientUnits="userSpaceOnUse">
<stop stop-color="#B39B19"/>
<stop offset="0.3744" stop-color="#7C852D"/>
<stop offset="1" stop-color="#195C52"/>
</linearGradient>
</defs>
</svg>
