<svg width="269" height="123" viewBox="0 0 269 123" fill="none" xmlns="http://www.w3.org/2000/svg">
<path d="M268.9 61.8V61.7C268.9 59.1 268.8 56.6 268.7 54C268.7 53.5 268.5 45.6 267.2 46.5C269.1 45.2 268 41.1 267.9 39.3C267.6 36.5 267.2 33.7 266.6 30.9C266.2 29.1 265.4 27.2 263.4 26.6C261.1 25.9 257.9 26.4 255.5 26.5C252.3 26.6 249 26 245.9 26.8C245.7 25 244.4 24.4 243.5 23.1C242.7 21.9 242.3 20.4 242 18.9C241.4 15.9 241.6 12.9 241.5 9.9C241.5 8.6 241.7 6.70001 240.6 5.80001C238.9 4.30001 235.6 4.10001 233.4 3.80001C230.9 3.50001 228.4 3.4 225.9 3.2C220.6 2.9 215.3 2.8 210 2.7C200.7 2.4 191.4 2.2 182 2C178.2 1.9 134.8 1.3 134.8 1.5C134.8 1.5 124.8 1.4 124.2 1.6C123.5 1.9 122.9 2.8 122.3 3C121.5 3.1 119.6 2.00001 118.7 1.80001C116.3 1.40001 113.8 1.7 111.4 1.7C107.9 1.7 104.3 1.80001 100.8 1.80001C96.3999 1.90001 91.9999 1.9 87.5999 2C78.2999 2.2 68.9998 2.4 59.5998 2.7C54.2999 2.9 48.9998 2.9 43.6998 3.2C41.2998 3.4 38.6998 3.50001 36.1998 3.80001C33.9998 4.10001 30.6999 4.30001 28.9999 5.80001C27.8999 6.70001 28.0998 8.6 28.0998 9.9C27.9998 15.2 28.7999 24 22.1999 26.1C19.5999 26.9 16.8999 26.6 14.1999 26.5C11.7999 26.4 8.59985 25.9 6.29985 26.6C4.39985 27.2 3.59985 29.1 3.09985 30.9C1.79985 36 1.59985 41.4 1.19985 46.7C1.09985 48.5 0.999851 50.3 0.999851 52C0.899851 54.4 0.199851 57.7 1.29985 60C1.99985 61.5 0.899851 63 0.799851 64.5C0.699851 66.1 0.899851 67.8 0.999851 69.5C1.09985 72.5 0.699853 76 1.89985 78.7C2.29985 79.5 1.59985 80.3 1.49985 81.1C1.39985 82.4 1.69985 83.9 1.79985 85.2C2.09985 87.8 2.39985 90.3 3.09985 92.8C3.49985 94.6 4.29985 96.5 6.29985 97.1C8.59985 97.8 11.7999 97.3 14.1999 97.2C16.7999 97.1 19.5999 96.8 22.1999 97.6C28.7999 99.7 27.9998 108.4 28.0998 113.8C28.0998 115.1 27.8999 117 28.9999 117.9C30.6999 119.4 33.9998 119.6 36.1998 119.9C38.6998 120.2 41.1998 120.3 43.6998 120.5C48.9998 120.8 54.2999 120.9 59.5998 121C68.8998 121.3 78.1999 121.5 87.5999 121.7C91.3999 121.8 134.8 122.4 134.8 122.2C134.8 122 153.1 122 154.3 122C156 122 158.3 122.6 159.4 121.1C159.5 121 159.6 120.9 159.7 120.9C159.8 120.9 159.8 120.9 159.9 120.9C160.6 121.2 161.3 121.8 162 122C162.7 122.1 163.5 121.9 164.2 121.9C166 121.9 167.8 121.9 169.7 121.9C171.8 121.9 173.8 121.9 175.9 121.8C178 121.8 180 121.7 182.1 121.7C191.4 121.5 200.7 121.3 210.1 121C215.4 120.8 220.7 120.8 226 120.5C228.4 120.3 231 120.2 233.5 119.9C235.7 119.6 239 119.4 240.7 117.9C241.8 117 241.6 115.1 241.6 113.8C241.7 108.5 240.9 99.7 247.5 97.6C250.1 96.8 252.8 97.1 255.5 97.2C257.9 97.3 261.1 97.8 263.4 97.1C265.3 96.5 266.1 94.6 266.6 92.8C267.2 90.5 267.9 88 267.2 85.7C268.6 85.7 268.4 78.2 268.5 77C268.6 75.9 269 65 269 62C268.9 61.8 268.9 61.8 268.9 61.8Z" fill="#2E82A6"/>
<path d="M268.9 61V60.9C268.9 58.3 268.8 55.8 268.7 53.2C268.7 52.7 268.5 44.8 267.2 45.7C269.1 44.4 268 40.3 267.9 38.5C267.6 35.7 267.2 32.9 266.6 30.1C266.2 28.3 265.4 26.4 263.4 25.8C261.1 25.1 257.9 25.6 255.5 25.7C252.3 25.8 249 25.2 245.9 26C245.7 24.2 244.4 23.6 243.5 22.3C242.7 21.1 242.3 19.6 242 18.1C241.4 15.1 241.6 12.1 241.5 9.10002C241.5 7.80002 241.7 5.90002 240.6 5.00002C238.9 3.50002 235.6 3.30002 233.4 3.00002C230.9 2.70002 228.4 2.60002 225.9 2.40002C220.6 2.10002 215.3 2.00002 210 1.90002C200.7 1.60002 191.4 1.40001 182 1.20001C178.2 1.10001 134.8 0.500015 134.8 0.700015C134.8 0.700015 124.8 0.600021 124.2 0.800021C123.5 1.10002 122.9 2.00001 122.3 2.20001C121.5 2.30001 119.6 1.20002 118.7 1.00002C116.3 0.600018 113.8 0.900019 111.4 0.900019C107.9 0.900019 104.3 1.00002 100.8 1.00002C96.3999 1.10002 91.9999 1.10001 87.5999 1.20001C78.2999 1.40001 68.9998 1.60002 59.5998 1.90002C54.2999 2.10002 48.9998 2.10002 43.6998 2.40002C41.2998 2.60002 38.6998 2.70002 36.1998 3.00002C33.9998 3.30002 30.6999 3.50002 28.9999 5.00002C27.8999 5.90002 28.0998 7.80002 28.0998 9.10002C27.9998 14.4 28.7999 23.2 22.1999 25.3C19.5999 26.1 16.8999 25.8 14.1999 25.7C11.7999 25.6 8.59985 25.1 6.29985 25.8C4.39985 26.4 3.59985 28.3 3.09985 30.1C1.79985 35.2 1.59985 40.6 1.19985 45.9C1.09985 47.7 0.999851 49.5 0.999851 51.2C0.899851 53.6 0.199851 56.9 1.29985 59.2C1.99985 60.7 0.899851 62.2 0.799851 63.7C0.699851 65.3 0.899851 67 0.999851 68.7C1.09985 71.7 0.699853 75.2 1.89985 77.9C2.29985 78.7 1.59985 79.5 1.49985 80.3C1.39985 81.6 1.69985 83.1 1.79985 84.4C2.09985 87 2.39985 89.5 3.09985 92C3.49985 93.8 4.29985 95.7 6.29985 96.3C8.59985 97 11.7999 96.5 14.1999 96.4C16.7999 96.3 19.5999 96 22.1999 96.8C28.7999 98.9 27.9998 107.6 28.0998 113C28.0998 114.3 27.8999 116.2 28.9999 117.1C30.6999 118.6 33.9998 118.8 36.1998 119.1C38.6998 119.4 41.1998 119.5 43.6998 119.7C48.9998 120 54.2999 120.1 59.5998 120.2C68.8998 120.5 78.1999 120.7 87.5999 120.9C91.3999 121 134.8 121.6 134.8 121.4C134.8 121.2 153.1 121.2 154.3 121.2C156 121.2 158.3 121.8 159.4 120.3C159.5 120.2 159.6 120.1 159.7 120.1C159.8 120.1 159.8 120.1 159.9 120.1C160.6 120.4 161.3 121 162 121.2C162.7 121.3 163.5 121.1 164.2 121.1C166 121.1 167.8 121.1 169.7 121.1C171.8 121.1 173.8 121.1 175.9 121C178 121 180 120.9 182.1 120.9C191.4 120.7 200.7 120.5 210.1 120.2C215.4 120 220.7 120 226 119.7C228.4 119.5 231 119.4 233.5 119.1C235.7 118.8 239 118.6 240.7 117.1C241.8 116.2 241.6 114.3 241.6 113C241.7 107.7 240.9 98.9 247.5 96.8C250.1 96 252.8 96.3 255.5 96.4C257.9 96.5 261.1 97 263.4 96.3C265.3 95.7 266.1 93.8 266.6 92C267.2 89.7 267.9 87.2 267.2 84.9C268.6 84.9 268.4 77.4 268.5 76.2C268.6 75.1 269 64.2 269 61.2C268.9 61.1 268.9 61.1 268.9 61Z" fill="url(#paint0_linear_9_6129)"/>
<path d="M266.7 60.9V61.1C266.7 64.1 266.3 74.8 266.2 76V76.8C266.1 78.4 266.2 80.3 265.9 81.9C265.8 82.2 265.8 82.4 265.7 82.6C265.5 83.4 265.1 83.9 265.1 84.8C265 85.6 265.3 86.4 265.2 87.3C265 88.7 264.7 90.1 264.4 91.4C263.9 93.6 263.2 94 262.7 94.1C262.1 94.3 261.3 94.4 260.3 94.4C259.4 94.4 258.5 94.3 257.6 94.3C256.9 94.2 256.2 94.2 255.5 94.2C255 94.2 254.5 94.2 254 94.1C253.2 94.1 252.4 94 251.5 94C249.6 94 248.1 94.2 246.8 94.6C239.4 96.9 239.4 105.4 239.4 111C239.4 111.6 239.4 112.2 239.4 112.8C239.4 113 239.4 113.3 239.4 113.5C239.4 114 239.4 115.1 239.2 115.3C238.3 116.1 235.8 116.4 234.1 116.6L233.2 116.7C231.2 117 229.1 117.1 227.1 117.2L225.8 117.3C222 117.6 218.1 117.6 214.3 117.7C212.9 117.7 211.4 117.8 210 117.8C201.8 118 192.1 118.3 182.1 118.5C178.7 118.6 175.4 118.6 172 118.7C169.1 118.7 166.2 118.8 163.3 118.8C161.9 118.8 161.2 118.3 159.9 118C158.7 117.8 158.5 118.4 157.5 118.8C156.6 119.1 155.2 118.9 154.2 118.9C151.8 118.9 149.3 119 146.9 119C143.5 119 140.2 119.1 136.8 119.1C136 119.1 135.5 119.1 135.2 119.1C135.1 119.1 135 119.1 134.9 119.1C134.8 119.1 134.7 119.1 134.6 119.1C134.3 119.1 133.8 119.1 133 119.1C124.6 119.1 90.7998 118.6 87.6998 118.5C83.6998 118.4 79.4998 118 75.5998 118C75.6998 117.1 75.8998 116.2 76.2998 115.4C75.2998 116.4 74.8998 117.8 73.5998 118.1C72.1998 118.5 69.9998 118 68.5998 118C65.6998 117.9 62.6998 117.8 59.7998 117.8C58.3998 117.8 56.8998 117.7 55.4998 117.7C51.6998 117.6 47.7998 117.5 43.9998 117.3L42.6998 117.2C40.6998 117.1 38.5998 116.9 36.5998 116.7L35.6998 116.6C33.9998 116.4 31.5998 116.1 30.5998 115.3C30.4998 115.1 30.4998 114.1 30.4998 113.5V112.8C30.4998 112.2 30.4998 111.6 30.4998 111C30.4998 105.4 30.4998 96.9 23.0998 94.6C21.6998 94.2 20.2998 94 18.3998 94C17.5998 94 16.7998 94 15.8998 94.1C15.3998 94.1 14.8998 94.1 14.3998 94.2C13.7998 94.2 13.0998 94.3 12.2998 94.3C11.3998 94.4 10.3998 94.4 9.59975 94.4C8.59975 94.4 7.79976 94.3 7.19976 94.1C6.69976 94 6.09976 93.5 5.49976 91.4C4.89976 88.9 4.49976 86.3 4.19976 83.6C4.19976 83.3 4.09975 83 4.09975 82.7C3.99975 81.8 3.79976 80.8 3.89976 80C3.99976 79.4 4.49975 78.8 4.59975 78.1C4.59975 78 4.59975 77.8 4.59975 77.7C4.59975 77.4 4.39976 77.2 4.29976 77C4.09976 76.7 3.89976 76.3 3.79976 75.9C3.09976 73.8 3.29976 71 3.19976 68.8C3.09976 67.5 2.99976 66.3 2.99976 65C2.99976 63.8 3.09976 62.7 3.19976 61.6C3.29976 61 3.39975 60.4 3.59975 59.7C3.59975 59.6 3.69976 59.4 3.69976 59.3C3.69976 59.2 3.59975 59.1 3.59975 59C2.69975 56.8 3.29976 53.8 3.39976 51.3C3.49976 49.5 3.49975 47.8 3.59975 46L3.69976 45.2C3.99976 40.3 4.29976 35.3 5.49976 30.6C5.99976 28.5 6.69976 28 7.19976 27.9C7.79976 27.7 8.59975 27.6 9.59975 27.6C10.4998 27.6 11.3998 27.7 12.2998 27.7C12.9998 27.8 13.6998 27.8 14.3998 27.8C14.8998 27.8 15.3998 27.8 15.8998 27.9C16.6998 27.9 17.4998 28 18.3998 28C20.2998 28 21.7998 27.8 23.0998 27.4C30.4998 25.1 30.4998 16.6 30.4998 11C30.4998 10.4 30.4998 9.80002 30.4998 9.20002V8.50002C30.4998 8.00002 30.4998 6.90002 30.6998 6.70002C31.6998 5.90002 34.0998 5.60002 35.7998 5.40002L36.6998 5.30003C38.6998 5.00003 40.7998 4.90003 42.7998 4.80003L44.0998 4.70002C47.8998 4.50002 51.7998 4.40003 55.5998 4.30003C56.9998 4.30003 58.4998 4.20002 59.8998 4.20002C68.0998 4.00002 77.8998 3.70002 87.7998 3.50002C92.5998 3.40002 97.2998 3.40003 102.1 3.30003C105.9 3.20003 109.8 3.20002 113.7 3.10002C115.5 3.10002 117.6 2.80002 119.4 3.00002C120.5 3.20002 121.7 3.60002 122.8 3.40002C124.1 3.20002 124.9 3.00002 126.2 3.00002C128.5 3.00002 130.8 2.90002 133.1 2.90002C133.9 2.90002 134.4 2.90002 134.7 2.90002C134.8 2.90002 134.9 2.90002 135 2.90002C135.1 2.90002 135.2 2.90002 135.3 2.90002C135.6 2.90002 136.1 2.90002 136.9 2.90002C145.3 2.90002 179.1 3.40002 182.2 3.40002C192.2 3.60002 201.9 3.90002 210.1 4.10002C211.5 4.10002 213 4.20002 214.4 4.20002C218.2 4.30002 222.1 4.40002 225.9 4.60002L227.2 4.70002C229.2 4.80002 231.3 5.00002 233.3 5.20002L234.2 5.30003C235.8 5.50003 238.3 5.80002 239.3 6.60002C239.4 6.80002 239.4 7.80002 239.4 8.40002C239.4 8.70002 239.4 8.90002 239.4 9.10002C239.4 9.70002 239.4 10.3 239.4 10.9C239.4 13.8 239.4 16.8 240.1 19.6C240.5 21.1 241 22.5 241.9 23.8C242.9 25.3 244 25.7 244.3 27.5C244.3 27.8 244.5 28.1 244.7 28.1C244.8 28.1 245 28 245.1 28C246.9 26.8 249.4 28 251.6 28C252.4 28 253.2 28 254.1 27.9C254.6 27.9 255.1 27.8 255.6 27.8C256.2 27.8 256.9 27.7 257.7 27.7C258.6 27.6 259.5 27.6 260.4 27.6C261.4 27.6 262.2 27.7 262.8 27.9C263.3 28 263.9 28.5 264.5 30.6C265.4 34.1 265.7 37.7 266 41.2C266.1 41.9 266.2 42.7 266.1 43.4C266.1 43.5 266.1 43.5 266.1 43.6C265.9 44.3 265.5 44.7 265.7 45.5C265.7 45.6 265.8 45.7 265.9 45.9C266.2 46.4 266.6 46.8 266.8 47.4C267 48.6 266.6 50.3 266.7 51.6C266.6 54.7 266.7 57.8 266.7 60.9Z" fill="url(#paint1_linear_9_6129)"/>
<path d="M261.3 70.1C261.5 71.3 260.1 73.3 259.9 74.6C259.7 76 259.7 77.4 259.6 78.8C259.6 79.1 259.5 79.5 259.5 79.9C259.4 81.5 259.3 83.4 258.5 85C257.9 86.1 257.1 86.9 256 87.3C255.3 87.5 254.6 87.6 253.6 87.6C252.9 87.6 252.2 87.5 251.5 87.5C251.2 87.5 251 87.5 250.8 87.4C250.2 87.4 249.7 87.3 249.1 87.3C248.3 87.3 247.4 87.3 246.7 87.4C244.5 87.6 241.4 88.4 239 90.5C237.2 92.2 236 94.6 235.5 98C235.1 100.8 234.7 104 234.5 107.8C234.5 108.1 234.4 109 233.7 109.7C233 110.4 232.2 110.5 231.9 110.5C228.5 110.8 225.1 110.8 221.9 110.9C221 110.9 220 110.9 219.1 110.9C214.9 111 210.7 111 206.4 111.1C203.8 111.1 201.1 110.6 198.8 112.2C198 112.7 197.2 113.3 196.5 113.9C196.4 113.6 196.3 113.4 196.2 113.2C196.3 113.1 196.4 112.9 196.5 112.8C196.7 112.5 196.9 112 196.8 111.6C196.5 110.6 191.5 111.2 190.5 111.2C187.2 111.2 184 111.2 180.7 111.2C175.3 111.2 169.7 111.2 164.1 111.1C154.6 111.1 145 111 135.9 111H134.1C129.3 111 124.4 111 119.6 111C117.1 111 114.7 111.1 112.2 111C110.6 111 108.8 110.9 108 112.7C107.9 112.8 107.9 112.9 107.8 113C107.7 113 107.6 113 107.5 113C106.1 112.4 104.4 111.4 102.9 111.1C101.6 110.8 100 111.1 98.6 111.1C95.5 111.1 92.2999 111.1 89.2 111.1C85.8999 111.1 82.7 111.1 79.5 111.1C74.2 111.1 68.8999 111.1 63.5999 111C59.3999 111 55.2 110.9 51 110.8C50 110.8 49.0999 110.8 48.0999 110.8C44.7999 110.8 41.4999 110.7 38.0999 110.4C37.7999 110.4 37 110.3 36.3 109.6C35.6 108.9 35.5 108 35.5 107.7C35.2999 103.9 34.9 100.7 34.5 97.9C34.2999 96.3 33.7999 94.8 33.0999 93.3C32.4999 92.1 31.3999 91.2 31.1999 89.9C31.1999 89.8 31.1999 89.7 31.0999 89.7C30.9999 89.6 31 89.6 30.9 89.6C30.3 89.4 29.6999 89.4 29.0999 89.1C28.3999 88.7 27.7 88.4 27 88.1C25.7999 87.7 24.5 87.4 23.2 87.2C22.4 87.1 21.5999 87.1 20.7999 87.1C20.1999 87.1 19.6999 87.1 19.0999 87.2C18.8999 87.2 18.7 87.2 18.4 87.3C17.8 87.4 17.0999 87.4 16.2999 87.4C15.2999 87.4 14.5 87.3 13.9 87.1C12.8 86.7 12 85.9 11.4 84.8C10.6 83.1 10.5 81.3 10.4 79.7C10.4 79.3 10.3999 79 10.2999 78.6C10.0999 76.7 9.99995 74.6 9.89995 72.6C9.69995 69.2 9.69995 65.6 9.69995 61.5V60.1C9.69995 56 9.69995 52.3 9.89995 48.9C9.99995 46.8 10.0999 44.8 10.2999 42.9C10.2999 42.6 10.4 42.2 10.4 41.8C10.5 40.2 10.6 38.3 11.4 36.7C12 35.6 12.8 34.8 13.9 34.4C14.5 34.2 15.2999 34.1 16.2999 34.1C16.9999 34.1 17.7 34.2 18.4 34.2C18.7 34.2 18.8999 34.2 19.0999 34.3C19.5999 34.3 20.1999 34.4 20.7999 34.4C21.5999 34.4 22.5 34.4 23.2 34.3C25 34.1 32.3999 32.4 31.5999 29.7C31.0999 28.2 32.6 28.6 33.3 27.8C34.1 26.9 34.3 24.8 34.4 23.7C34.9 20.9 35.2 17.7 35.4 13.9C35.4 13.6 35.4999 12.7 36.1999 12C36.8999 11.3 37.7 11.2 38 11.2C41.4 10.9 44.7999 10.8 48 10.8C49 10.8 49.9 10.8 50.9 10.8C55.1 10.7 59.2999 10.7 63.5 10.6C65.2999 10.6 67 10.7 68.8 10.5C70 10.4 71.5999 10.5 72.5999 9.80003C73 9.50003 73.3999 8.90002 73.8999 8.70002C73.6999 9.10002 73.5 9.50002 73.3 9.90002C73.2 10 73.1999 10.2 73.1999 10.3C73.2999 10.5 73.6 10.6 73.8 10.6C74.8 10.7 75.7999 10.7 76.8999 10.7C80.8999 10.9 85.2 10.5 89.3 10.5C94.7 10.5 100.3 10.6 105.9 10.6C115.4 10.7 125 10.7 134.1 10.7C135.2 10.7 135.8 10.3 136.5 9.60002C136.9 9.20002 137.6 8.80002 138.1 9.10002C138 9.90002 138.9 10.5 139.7 10.6C148.4 11.2 157.4 11.1 166 10C166.2 10 166.4 9.90002 166.5 9.70002C166.5 9.60002 166.5 9.40003 166.5 9.30003C166.2 8.30003 165.8 7.40002 165.5 6.40002C166.2 7.60002 167 8.80002 167.7 10C167.8 10.1 167.9 10.3 168 10.3C168.1 10.4 168.3 10.3 168.4 10.3C172.4 10 176.6 10.3 180.7 10.3C183.9 10.3 187.2 10.3 190.4 10.3C195.7 10.3 201 10.3 206.3 10.4C210.5 10.4 214.7 10.5 219 10.6C220 10.6 220.9 10.6 221.8 10.6C225.1 10.6 228.4 10.7 231.8 11C232.1 11 232.9 11.1 233.6 11.8C234.3 12.5 234.4 13.4 234.4 13.7C234.5 15.5 234.4 16.4 235.6 17.7C236.2 18.4 235 19.6 235 20.2C234.9 21.1 235.3 22.5 235.5 23.5C236 26.9 237.2 29.3 239 31C241.4 33.1 244.5 33.9 246.7 34.1C247.5 34.2 248.3 34.2 249.1 34.2C249.7 34.2 250.2 34.2 250.8 34.1C251 34.1 251.3 34.1 251.5 34C252.1 33.9 252.8 33.9 253.6 33.9C254.6 33.9 255.4 34 256 34.2C257.1 34.6 257.9 35.4 258.5 36.5C259.3 38.2 259.4 40 259.5 41.6C259.5 42 259.5 42.3 259.6 42.7C259.8 44.6 259.9 46.7 260 48.7C260 49.2 260 49.6 260.1 50.1C260.2 53.1 260.3 56.3 260.2 59.8V61.2C260.2 63 260 64.9 260.2 66.7C260.2 68.4 261.2 69.1 261.3 70.1Z" fill="url(#paint2_linear_9_6129)"/>
<path d="M196.4 114.1C196.3 114.2 196.1 114.3 196 114.4C195.7 114.1 195.9 113.7 196.1 113.4C196.2 113.5 196.3 113.8 196.4 114.1Z" fill="url(#paint3_linear_9_6129)"/>
<path d="M258 63.9C258 66.8 257.9 69.8 257.8 72.8C257.7 74.8 257.6 76.8 257.4 78.7C257.2 80.4 257.3 82.5 256.5 84.1C256.2 84.6 255.8 85.1 255.2 85.3C254 85.7 252.1 85.4 250.9 85.4C249.4 85.3 247.9 85.3 246.4 85.5C243.2 85.9 239.9 86.9 237.5 89.2C235 91.5 233.8 94.7 233.3 98C232.8 101.3 232.5 104.7 232.3 108C232.3 108.2 232.3 108.4 232.2 108.5C232.1 108.6 231.9 108.6 231.7 108.6C227.4 109 223.3 108.9 219 109C214.8 109.1 210.6 109.1 206.4 109.2C197.9 109.3 189.3 109.3 180.8 109.2C166 109.2 149.8 109 135.1 109C120.3 109 104.1 109.1 89.3999 109.2C80.8999 109.2 72.3 109.2 63.8 109.2C59.6 109.2 55.3999 109.1 51.1999 109C46.8999 108.9 42.7999 109 38.5 108.6C38.2999 108.6 38.1999 108.6 38.0999 108.5C37.9999 108.4 38 108.2 37.9 108C37.7 104.7 37.4 101.2 36.9 98C36.4 94.7 35.1999 91.5 32.6999 89.2C30.1999 87 26.9999 85.9 23.7999 85.5C22.2999 85.3 20.7999 85.3 19.2999 85.4C18.0999 85.5 16.1 85.8 15 85.3C14.4 85.1 14 84.6 13.7 84.1C12.9 82.5 12.9999 80.5 12.7999 78.7C12.5999 76.7 12.5 74.7 12.4 72.8C12.2 69.1 12.2 65.4 12.2 61.8C12.2 61.6 12.2 61.3 12.2 61.1C12.2 60.9 12.2 60.6 12.2 60.4C12.2 56.7 12.2 53 12.4 49.4C12.5 47.4 12.5999 45.4 12.7999 43.4C12.7999 43.1 12.8 42.9 12.9 42.6C13 41.1 13 39.3 13.7 38C14 37.5 14.4 37 15 36.8C16.2 36.4 18.0999 36.7 19.2999 36.7C20.7999 36.8 22.2999 36.8 23.7999 36.6C27.0999 36.2 30.2999 35.2 32.6999 32.9C35.1999 30.6 36.4 27.4 36.9 24.1C37.4 20.8 37.7 17.4 37.9 14.1C37.9 13.9 37.8999 13.7 38.0999 13.6C38.1999 13.5 38.4 13.5 38.5 13.4C42.7999 13 46.8999 13.1 51.1999 13C55.3999 12.9 59.6 12.9 63.8 12.8C72.3 12.7 80.8999 12.7 89.3999 12.8C104.2 12.8 120.4 13 135.1 13C149.9 13 166.1 12.9 180.8 12.8C189.3 12.8 197.9 12.8 206.4 12.8C210.6 12.8 214.8 12.9 219 13C223.3 13.1 227.4 13 231.7 13.4C231.9 13.4 232 13.4 232.2 13.6C232.3 13.7 232.3 13.9 232.3 14.1C232.5 17.4 232.8 20.9 233.3 24.1C233.8 27.4 235 30.6 237.5 32.9C240 35.1 243.2 36.2 246.4 36.6C247.9 36.8 249.4 36.8 250.9 36.7C252.1 36.6 254.1 36.3 255.2 36.8C255.8 37 256.2 37.5 256.5 38C257.3 39.6 257.2 41.6 257.4 43.4C257.4 43.8 257.5 44.1 257.5 44.5C257.6 46.1 257.7 47.8 257.8 49.4C258 53.1 258 56.8 258 60.4V61.8C258 62.5 258 63.2 258 63.9Z" fill="url(#paint4_radial_9_6129)"/>
<path d="M3.89986 75.9C3.19986 73.8 3.39985 71 3.29985 68.8C3.19985 67.5 3.09985 66.3 3.09985 65C3.29985 66.1 3.49986 67.1 3.49986 68.1C3.59986 70.1 3.69985 72.1 3.79985 74.1C3.89985 74.6 3.89986 75.2 3.89986 75.9Z" fill="#CCA5B3"/>
<path d="M4.89991 78.3C4.89991 79.4 3.99991 80.3 4.19991 81.4C4.29991 81.9 4.19991 82.4 4.19991 82.8C4.09991 81.9 3.89991 80.9 3.99991 80.1C4.09991 79.5 4.59991 78.9 4.69991 78.2C4.79991 78.2 4.79991 78.2 4.89991 78.3Z" fill="#CCA5B3"/>
<path d="M265.5 41.3C265.1 39.6 264.7 37.8 264.4 36C264.1 34.1 264.3 32.4 263.7 30.4C263 28 261.4 28.8 259.6 28.7C257.3 28.6 255.1 28.8 252.7 28.8C251.1 28.8 249.5 28.3 247.9 28.2C246.5 28.1 245.5 28.6 244.2 28.9C243.8 28.2 243.5 27.2 243 26.5C242.5 25.8 241.7 25.5 241.3 24.8C240.4 23.6 240.1 21.6 239.9 20.2C239.3 16.9 238.3 13.7 238.8 10.3C238.9 9.60003 239.5 8.10002 239.2 7.40002C238.7 6.50002 236.4 6.10002 235.5 6.00002C233.6 5.70002 231.7 5.70002 229.8 5.50002C226.8 5.10002 223.8 5.50003 220.7 5.30003C215.1 5.00003 209.4 4.90002 203.8 4.40002C200.3 4.10002 196.8 4.60003 193.3 4.30003C189.3 4.00003 185.2 4.10002 181.2 4.00002C176.9 3.90002 172.6 4.00002 168.2 4.00002C161.2 4.00002 154.1 3.40002 147.1 3.40002C142.4 3.40002 137.8 3.10002 133.1 3.40002C130 3.60002 127.4 3.60002 124.3 3.70002C122.9 3.70002 121.5 4.10002 120.1 4.00002C118.9 3.90002 117.8 3.80002 116.6 3.70002C114.4 3.50002 112.2 3.80003 110.1 3.80003C106.9 3.80003 103.7 3.90002 100.5 3.90002C98.7 3.90002 97 4.30002 95.3 4.40002C90.1 4.60002 84.8 4.40002 79.6 4.40002C75.8 4.40002 71.8 4.30003 68 4.80003C64.4 5.30003 60.6 4.50003 57 4.80003C52.5 5.20003 47.9 5.20002 43.4 5.20002C40.9 5.20002 38 4.90003 35.6 5.80003C34.5 6.20003 32.1 6.20002 31.5 7.40002C31.2 8.00002 31.4 9.40002 31.4 10.1C31.5 13.8 31.9 18.2 30.1 21.6C28 25.4 26.2 28 21.7 28.2C19.7 28.3 17.8 28.5 15.9 28.5C13.7 28.5 11.2 28.2 8.99996 28.6C8.09996 28.8 7.59996 28.7 7.09996 29.4C5.19996 31.5 5.29996 36.2 4.99996 38.9C4.49996 43.6 4.19996 48.3 3.99996 53C3.89996 54.8 3.69996 56.5 3.99996 58.2C4.09996 59 4.39996 59.6 4.09996 60.4C3.99996 60.8 3.69996 61.2 3.39996 61.6C3.49996 61 3.59996 60.4 3.79996 59.7C3.79996 59.6 3.89996 59.4 3.89996 59.3C3.89996 59.2 3.79996 59.1 3.79996 59C2.89996 56.8 3.49996 53.8 3.59996 51.3C3.69996 49.5 3.69996 47.8 3.79996 46L3.89996 45.2C4.19996 40.3 4.49996 35.3 5.69996 30.6C6.19996 28.5 6.89996 28 7.39996 27.9C7.99996 27.7 8.79996 27.6 9.79996 27.6C10.7 27.6 11.6 27.7 12.5 27.7C13.2 27.8 13.9 27.8 14.6 27.8C15.1 27.8 15.6 27.8 16.1 27.9C16.9 27.9 17.7 28 18.6 28C20.5 28 22 27.8 23.3 27.4C30.7 25.1 30.7 16.6 30.7 11C30.7 10.4 30.7 9.80002 30.7 9.20002V8.50002C30.7 8.00002 30.7 6.90002 30.9 6.70002C31.9 5.90002 34.3 5.60002 36 5.40002L36.9 5.30003C38.9 5.00003 41 4.90003 43 4.80003L44.3 4.70002C48.1 4.50002 52 4.40003 55.8 4.30003C57.2 4.30003 58.7 4.20002 60.1 4.20002C68.3 4.00002 78.1 3.70002 88 3.50002C92.8 3.40002 97.5 3.40003 102.3 3.30003C106.1 3.20003 110 3.20002 113.9 3.10002C115.7 3.10002 117.8 2.80002 119.6 3.00002C120.7 3.20002 121.9 3.60002 123 3.40002C124.3 3.20002 125.1 3.00002 126.4 3.00002C128.7 3.00002 131 2.90002 133.3 2.90002C134.1 2.90002 134.6 2.90002 134.9 2.90002C135 2.90002 135.1 2.90002 135.2 2.90002C135.3 2.90002 135.4 2.90002 135.5 2.90002C135.8 2.90002 136.3 2.90002 137.1 2.90002C145.5 2.90002 179.3 3.40002 182.4 3.40002C192.4 3.60002 202.1 3.90002 210.3 4.10002C211.7 4.10002 213.2 4.20002 214.6 4.20002C218.4 4.30002 222.3 4.40002 226.1 4.60002L227.4 4.70002C229.4 4.80002 231.5 5.00002 233.5 5.20002L234.4 5.30003C236 5.50003 238.5 5.80002 239.5 6.60002C239.6 6.80002 239.6 7.80002 239.6 8.40002C239.6 8.70002 239.6 8.90002 239.6 9.10002C239.6 9.70002 239.6 10.3 239.6 10.9C239.6 13.8 239.6 16.8 240.3 19.6C240.7 21.1 241.2 22.5 242.1 23.8C243.1 25.3 244.2 25.7 244.5 27.5C244.5 27.8 244.7 28.1 244.9 28.1C245 28.1 245.2 28 245.3 28C247.1 26.8 249.6 28 251.8 28C252.6 28 253.4 28 254.3 27.9C254.8 27.9 255.3 27.8 255.8 27.8C256.4 27.8 257.1 27.7 257.9 27.7C258.8 27.6 259.7 27.6 260.6 27.6C261.6 27.6 262.4 27.7 263 27.9C263.5 28 264.1 28.5 264.7 30.6C265.6 34.1 265.9 37.7 266.2 41.2C266.3 41.9 266.4 42.7 266.3 43.4C265.8 42.6 265.6 41.8 265.5 41.3Z" fill="#CCA5B3"/>
<path d="M266.7 60.9V61.1C266.7 64.1 266.3 74.8 266.2 76V76.8C266.1 78.4 266.2 80.3 265.9 81.9C265.9 82 265.8 82 265.8 82.1C265.4 81.1 265.9 79.4 265.9 78.4C266 76.4 266 74.4 265.9 72.4C265.8 69.3 265.9 66.3 266.2 63.2C266.4 61.4 265.9 59.8 265.9 58C265.9 55.9 265.9 53.7 266 51.6C266 50.7 265.6 46.1 265.2 45.9C265.2 45.9 265.5 45.9 265.6 45.9C265.9 46.4 266.3 46.8 266.5 47.4C266.7 48.6 266.3 50.3 266.4 51.6C266.6 54.7 266.7 57.8 266.7 60.9Z" fill="#CCA5B3"/>
<path d="M196.4 112.9C196.3 113 196.2 113.1 196.1 113.3C196 112.8 195.9 112.5 194.7 112.2C193.6 111.9 191.8 112.3 190.6 112.3C187.4 112.3 184.2 112.4 181 112.3C172.5 111.9 164 112.3 155.5 111.9C149.8 111.6 144.2 112.4 138.5 112.4C135.5 112.4 132.4 111.7 129.4 112C127.3 112.2 125.2 112.1 123 112.2C120.6 112.3 118.1 112.3 115.7 112.3C114 112.3 111.7 111.6 110.1 112.4C109.2 112.9 109.1 113.5 108.1 113.6C107.2 113.7 105.7 113.1 104.8 112.8C104.1 112.5 103.6 112 102.9 111.9C99.4 111.1 95.3 112.3 91.7 112.1C88.2 111.9 84.7 111.6 81.2 111.6C78 111.6 74.9 112.1 71.8 112.1C66.3 112.1 60.7 111.6 55.2 112.1C51.4 112.5 47.2 112.3 43.4 111.8C42.3 111.7 41.3 111.7 40.2 111.6C37.6 111.3 35.2 110.8 34.8 107.9C34.3 104.5 34.1 101.1 33.6 97.8C33.2 95.1 32.3 92.3 30 90.5C29.8 90.4 28.9 90.1 28.7 90C28.4 89.8 28.1 89.6 27.7 89.5C22.7 87 11.5 91.4 10.4 83.6C10.1 81.2 9.49996 79 9.39996 76.6C9.29996 74.5 9.49996 72.5 9.39996 70.4C9.29996 67 9.59996 63.8 9.69996 60.6V61.9C9.69996 66 9.69996 69.6 9.89996 73C9.99996 75.1 10.1 77.1 10.3 79C10.3 79.3 10.4 79.7 10.4 80.1C10.5 81.7 10.6 83.6 11.4 85.2C12 86.3 12.8 87.1 13.9 87.5C14.6 87.7 15.3 87.8 16.3 87.8C17 87.8 17.7 87.7 18.4 87.7C18.7 87.7 18.9 87.7 19.1 87.6C19.7 87.6 20.2 87.5 20.8 87.5C21.6 87.5 22.5 87.5 23.2 87.6C24.5 87.7 25.8 88 27 88.5C27.7 88.8 28.4 89.1 29.1 89.5C29.7 89.8 30.2 89.8 30.9 90C31 90 31.1 90.1 31.1 90.1C31.2 90.2 31.2 90.2 31.2 90.3C31.4 91.6 32.5 92.5 33.1 93.7C33.8 95.1 34.2 96.7 34.5 98.3C35 101.1 35.3 104.3 35.5 108.1C35.5 108.4 35.6 109.3 36.3 110C37 110.7 37.8 110.8 38.1 110.8C41.5 111.1 44.9 111.1 48.1 111.2C49.1 111.2 50 111.2 51 111.2C55.2 111.3 59.4 111.3 63.6 111.4C68.9 111.4 74.2 111.5 79.5 111.5C82.8 111.5 86 111.5 89.2 111.5C92.3 111.5 95.5 111.5 98.6 111.5C100 111.5 101.6 111.2 102.9 111.5C104.4 111.8 106.1 112.8 107.5 113.4C107.6 113.4 107.7 113.5 107.8 113.4C107.9 113.4 108 113.2 108 113.1C108.8 111.3 110.5 111.4 112.2 111.4C114.7 111.5 117.1 111.4 119.6 111.4C124.4 111.4 129.3 111.4 134.1 111.4H135.9C145 111.4 154.6 111.5 164.1 111.5C169.7 111.5 175.3 111.6 180.7 111.6C184 111.6 187.2 111.6 190.5 111.6C191.5 111.6 196.5 111 196.8 112C196.8 112.2 196.6 112.6 196.4 112.9Z" fill="#CCA5B3"/>
<path d="M260.7 74.1C259.8 76.4 259.6 78.4 259.6 80.8C259.6 82.4 259.9 84.3 259.1 85.8C258.3 87.3 256.7 87 255.6 88.1C254.8 88.9 251.5 88.7 250.4 88.7C248.9 88.8 247.4 88.5 245.8 88.6C244 88.7 242.7 89.5 241.4 90.6C240.4 91.5 239 92.1 238.1 93.1C236 95.6 236.1 99.5 235.8 102.5C235.5 105.7 236.2 109.7 232.8 111.6C231 112.6 227.6 112 225.5 112.1C222.3 112.2 219.1 112.3 216 112.3C210.8 112.3 205.5 111.3 200.4 112.2C198.9 112.5 197.9 113.7 196.4 114.1V114C197.1 113.4 197.9 112.9 198.7 112.3C201 110.8 203.7 111.3 206.3 111.2C210.5 111.2 214.7 111.1 219 111C220 111 220.9 111 221.8 111C225.1 111 228.4 110.9 231.8 110.6C232.1 110.6 232.9 110.5 233.6 109.8C234.3 109.1 234.4 108.2 234.4 107.9C234.6 104.1 235 100.9 235.4 98.1C235.9 94.7 237.1 92.3 238.9 90.6C241.2 88.5 244.4 87.7 246.6 87.5C247.4 87.4 248.2 87.4 249 87.4C249.6 87.4 250.1 87.4 250.7 87.5C250.9 87.5 251.2 87.5 251.4 87.6C252 87.7 252.7 87.7 253.5 87.7C254.5 87.7 255.3 87.6 255.9 87.4C257 87 257.8 86.2 258.4 85.1C259.2 83.4 259.3 81.6 259.4 80C259.4 79.6 259.4 79.3 259.5 78.9C259.6 77.5 259.6 76.1 259.8 74.7C260 73.4 261.3 71.4 261.2 70.2C261.1 69.2 260.1 68.5 260 67.3C259.9 65.5 260 63.6 260 61.8V60.4C260 56.9 260 53.7 259.9 50.7C260.1 51.3 260.2 52 260.3 52.6C260.5 54.6 260.5 56.7 260.6 58.7C260.8 62.3 260.4 65.5 261.1 69C261.6 70.8 261.4 72.4 260.7 74.1Z" fill="#CCA5B3"/>
<path d="M257.5 44.4C257.4 44.5 257.3 44.7 257.2 44.8C257.2 42.7 255.4 41.1 253.5 40.4C251.5 39.8 249.4 39.9 247.4 39.8C243.6 39.6 239.8 38.5 236.6 36.4C233.5 34.2 231.1 30.8 230.6 27C230.1 23.6 230.1 20.1 229.5 16.7C229.4 16 224.7 15.7 224.1 15.7C222.3 15.6 220.5 15.5 218.6 15.5C214.4 15.4 210.2 15.6 206 15.6C196.7 15.7 187.3 15.7 178 15.8C149.3 16 120.6 16.2 91.8998 16.4C74.3998 16.5 56.9999 16.6 39.5999 18C39.8999 23.1 38.4999 27.7 36.5999 32.5C34.2999 38.3 31.6999 38.2 25.7999 38.8C22.9999 39.1 20.3999 39.4 17.6999 39.2C16.7999 39.2 15.6999 39 14.8999 39.5C13.9999 40 12.9999 41.4 12.5999 42.5C12.6999 41 12.6999 39.2 13.3999 37.9C13.6999 37.4 14.0999 36.9 14.6999 36.7C15.8999 36.3 17.7999 36.6 18.9999 36.6C20.4999 36.7 21.9999 36.7 23.4999 36.5C26.7999 36.1 29.9999 35.1 32.3999 32.8C34.8999 30.5 36.0999 27.3 36.5999 24C37.0999 20.7 37.3999 17.3 37.5999 14C37.5999 13.8 37.5999 13.6 37.7999 13.5C37.8999 13.4 38.0999 13.4 38.1999 13.3C42.4999 12.9 46.5999 13 50.8999 12.9C55.0999 12.8 59.2999 12.8 63.4999 12.7C71.9999 12.6 80.5999 12.6 89.0999 12.7C103.9 12.7 120.1 12.9 134.8 12.9C149.6 12.9 165.8 12.8 180.5 12.7C189 12.7 197.6 12.7 206.1 12.7C210.3 12.7 214.5 12.8 218.7 12.9C223 13 227.1 12.9 231.4 13.3C231.6 13.3 231.7 13.3 231.9 13.5C232 13.6 232 13.8 232 14C232.2 17.3 232.5 20.8 233 24C233.5 27.3 234.7 30.5 237.2 32.8C239.7 35 242.9 36.1 246.1 36.5C247.6 36.7 249.1 36.7 250.6 36.6C251.8 36.5 253.8 36.2 254.9 36.7C255.5 36.9 255.9 37.4 256.2 37.9C257 39.5 256.9 41.5 257.1 43.3C257.4 43.7 257.5 44.1 257.5 44.4Z" fill="#CDBFDE"/>
<path d="M63.0998 9C63.0998 8.9 62.9998 8.9 62.9998 8.9V8.8L62.8998 8.7C62.7998 8.6 62.7998 8.5 62.6998 8.5C62.5998 8.3 62.2998 8.1 62.0998 8C61.8998 7.8 61.6998 7.7 61.4998 7.6C61.3998 7.5 61.2998 7.5 61.0998 7.4C60.8998 7.3 60.7998 7.3 60.5998 7.2C60.4998 7.1 60.3998 7.1 60.2998 7.1C60.1998 7.1 60.1998 7.1 60.0998 7C59.9998 7 59.8998 7 59.7998 7C59.6998 7 59.4998 7 59.3998 7.1C59.2998 7.1 59.0998 7.2 59.0998 7.3C59.0998 7.4 58.9998 7.4 58.8998 7.5C58.7998 7.6 58.7998 7.6 58.7998 7.7C58.7998 7.8 58.7998 7.8 58.7998 7.9V8C58.7998 8.1 58.7998 8.1 58.7998 8.2C58.7998 8.3 58.7998 8.4 58.7998 8.4C58.7998 8.5 58.8998 8.6 58.9998 8.7C59.1998 8.9 59.3998 9.2 59.6998 9.3C59.7998 9.4 59.8998 9.5 59.9998 9.5C60.1998 9.6 60.3998 9.6 60.5998 9.7C60.6998 9.7 60.7998 9.7 60.7998 9.8C60.8998 9.8 61.0998 9.8 61.1998 9.8H61.2998C61.3998 9.8 61.5998 9.8 61.6998 9.8C61.9998 9.8 62.1998 9.7 62.4998 9.6C62.5998 9.5 62.9998 9.4 62.9998 9.2C63.1998 9.1 63.1998 9.1 63.0998 9Z" fill="#E8E6E8"/>
<path d="M65.2998 8.80004C65.1998 8.70004 65.1998 8.70004 65.1998 8.70004C65.1998 8.70004 65.1998 8.70004 65.0998 8.60004C64.9998 8.50004 64.9998 8.50004 64.8998 8.40004C64.8998 8.40004 64.8998 8.40004 64.8998 8.30004C64.8998 8.30004 64.8998 8.20004 64.7998 8.20004C64.6998 8.20004 64.5998 8.10004 64.3998 8.10004C64.3998 8.10004 64.3998 8.10004 64.4998 8.10004C64.3998 8.10004 64.2998 8.00004 64.1998 8.00004C64.0998 7.90004 63.8998 8.00004 63.7998 8.10004C63.6998 8.10004 63.6998 8.20004 63.5998 8.20004L63.4998 8.30004C63.4998 8.40004 63.4998 8.50004 63.5998 8.60004C63.5998 8.70004 63.5998 8.70004 63.6998 8.70004L63.7998 8.80004H63.8998C63.9998 8.90004 64.1998 8.90004 64.2998 8.90004C64.3998 8.90004 64.3998 8.90004 64.4998 8.90004C64.5998 8.90004 64.6998 8.90004 64.7998 8.90004C64.9998 9.10004 65.3998 8.90004 65.2998 8.80004Z" fill="#E8E6E8"/>
<path d="M191.3 4.9C190.9 4.7 190.4 4.7 189.9 4.8C189.3 4.9 188.7 5.1 188.1 5.4C187.5 5.7 186.9 6.19999 186.5 6.69999C186.4 6.79999 186.4 6.8 186.3 6.9C186.1 7.1 185.8 7.5 185.7 7.8C185.6 8.1 185.6 8.39999 185.6 8.69999C185.6 8.99999 185.8 9.2 186 9.4C186.3 9.7 186.9 9.6 187.3 9.6C187.8 9.5 188.4 9.3 188.9 9.1C189.6 8.8 190.3 8.4 190.9 7.9C191.4 7.5 191.9 6.89999 191.9 6.19999C192.2 5.59999 191.8 5.1 191.3 4.9Z" fill="#E8E6E8"/>
<path d="M195.1 6.80004C195 6.70004 195 6.60004 194.9 6.60004C194.8 6.60004 194.6 6.60004 194.5 6.60004C194.2 6.60004 193.9 6.80004 193.6 6.90004H193.5C193.4 6.90004 193.4 7.00004 193.3 7.00004C193.2 7.10004 193 7.20004 193 7.30004L192.9 7.40004C192.9 7.40004 192.9 7.40004 192.9 7.50004C192.9 7.50004 192.9 7.50004 192.9 7.60004C192.9 7.70004 192.9 7.70004 192.9 7.70004C192.9 7.70004 192.9 7.80004 193 7.80004C193.1 7.80004 193.1 7.80004 193.2 7.80004C193.3 7.80004 193.4 7.80004 193.5 7.80004C193.6 7.80004 193.7 7.80004 193.8 7.70004H193.7C193.7 7.70004 193.7 7.70004 193.8 7.70004C193.9 7.70004 193.9 7.70004 194 7.60004C194 7.60004 194 7.60004 194.1 7.60004H194.2C194.3 7.60004 194.3 7.50004 194.4 7.50004C194.4 7.50004 194.5 7.50004 194.5 7.40004H194.4C194.5 7.30004 194.7 7.30004 194.8 7.20004L194.9 7.10004C194.9 7.10004 195 7.10004 195 7.00004L195.1 6.90004C195.1 7.00004 195.1 6.90004 195.1 6.80004C195.1 6.90004 195.1 6.90004 195.1 6.80004Z" fill="#E8E6E8"/>
<path d="M193.5 7.00005C193.6 7.00005 193.6 7.00005 193.5 7.00005C193.6 6.90005 193.6 6.90005 193.5 7.00005C193.6 7.00005 193.6 6.90005 193.5 7.00005Z" fill="#E8E6E8"/>
<path d="M193.8 6.80005C193.7 6.90005 193.6 6.90005 193.6 6.90005C193.9 6.80005 193.9 6.80005 193.8 6.80005Z" fill="#E8E6E8"/>
<path d="M181.2 6.80003C181.2 6.70003 181.1 6.60002 181.1 6.60002C181 6.50002 181 6.50002 180.9 6.50002H181C180.9 6.50002 180.9 6.40002 180.8 6.40002C180.8 6.40002 180.8 6.40002 180.7 6.40002H180.6H180.5C180.4 6.40002 180.3 6.40002 180.2 6.40002C180.1 6.40002 180.1 6.40002 180 6.50002L179.9 6.60002C179.9 6.60002 179.9 6.70002 179.8 6.70002L179.7 6.80003C179.7 6.80003 179.7 6.80002 179.6 6.90002C179.5 7.00002 179.4 7.00002 179.4 7.20002V7.30003C179.4 7.40003 179.4 7.50002 179.4 7.60002V7.70002C179.4 7.70002 179.4 7.70003 179.4 7.80003C179.5 7.90003 179.5 7.90002 179.6 7.90002C179.6 7.90002 179.6 7.90002 179.7 7.90002L179.8 8.00002C179.9 8.00002 180 8.10002 180.1 8.00002C180.3 8.00002 180.4 8.00002 180.5 7.90002C180.6 7.90002 180.7 7.80002 180.8 7.70002C180.9 7.70002 180.9 7.60002 181 7.50002C181 7.50002 181 7.40002 181.1 7.40002C181.1 7.40002 181.1 7.30003 181.2 7.30003C181.2 7.30003 181.3 7.30002 181.3 7.20002C181.4 7.10002 181.4 7.10002 181.4 7.00002C181.2 7.00002 181.2 6.90003 181.2 6.80003Z" fill="#E8E6E8"/>
<path d="M158.4 7.60004L158.3 7.50005C158.2 7.40005 158.1 7.40005 158 7.30005C158 7.30005 158 7.30005 157.9 7.30005H157.8C157.7 7.30005 157.6 7.30005 157.5 7.40005C157.4 7.40005 157.3 7.50005 157.3 7.50005L157.2 7.60004C157.2 7.60004 157.2 7.70004 157.1 7.70004V8.00005V8.10004C157.1 8.10004 157.1 8.20004 157.2 8.20004H157.3H157.4C157.5 8.20004 157.6 8.20004 157.6 8.20004C157.7 8.20004 157.8 8.20004 157.9 8.10004C158 8.10004 158.1 8.00005 158.2 8.00005C158.3 8.00005 158.3 7.90005 158.4 7.90005C158.4 7.90005 158.4 7.80005 158.5 7.80005V7.70004C158.5 7.70004 158.5 7.70004 158.4 7.60004Z" fill="#E8E6E8"/>
<path d="M37.5998 8.10004C37.5998 8.00004 37.4998 8.00005 37.4998 7.90005V7.80005C37.4998 7.70005 37.3998 7.70004 37.2998 7.70004C37.1998 7.70004 37.1998 7.60004 37.0998 7.60004C37.0998 7.60004 36.9998 7.60005 36.9998 7.50005C36.8998 7.50005 36.8998 7.40005 36.7998 7.40005C36.7998 7.40005 36.6998 7.40005 36.6998 7.30005H36.5998C36.5998 7.30005 36.5998 7.30005 36.4998 7.30005C36.4998 7.30005 36.4998 7.30005 36.3998 7.30005C36.2998 7.30005 36.1998 7.30005 36.0998 7.30005C35.9998 7.30005 35.8998 7.40005 35.7998 7.50005C35.7998 7.50005 35.7998 7.50005 35.6998 7.50005V7.60004V7.70004C35.6998 7.70004 35.6998 7.80005 35.5998 7.80005C35.5998 7.80005 35.4998 7.90005 35.4998 8.00005V8.10004C35.4998 8.20004 35.4998 8.30005 35.4998 8.40005C35.4998 8.50005 35.4998 8.50005 35.5998 8.50005L35.6998 8.60004C35.6998 8.60004 35.7998 8.60004 35.7998 8.70004C35.8998 8.80004 36.0998 8.80005 36.2998 8.80005C36.2998 8.80005 36.2998 8.80005 36.3998 8.80005C36.4998 8.80005 36.6998 8.80005 36.7998 8.80005C36.8998 8.80005 37.0998 8.70004 37.1998 8.60004C37.2998 8.50004 37.3998 8.50005 37.4998 8.40005C37.4998 8.40005 37.4998 8.30005 37.5998 8.30005C37.5998 8.30005 37.5998 8.30004 37.5998 8.20004V8.10004Z" fill="#E8E6E8"/>
<path d="M35.3999 10.4V10.3C35.3999 10.3 35.3999 10.3 35.2999 10.2C35.2999 10.2 35.2999 10.2 35.1999 10.2L35.0999 10.1C35.0999 10.1 35.0999 10.1 34.9999 10.1H34.8999C34.7999 10.1 34.7999 10.1 34.6999 10.2C34.5999 10.2 34.5999 10.3 34.4999 10.3L34.3999 10.4V10.5C34.3999 10.5 34.3999 10.5 34.3999 10.6L34.4999 10.7C34.4999 10.7 34.4999 10.7 34.5999 10.7H34.6999H34.7999C34.8999 10.7 34.8999 10.7 34.9999 10.7C35.0999 10.7 35.1999 10.6 35.1999 10.6C35.2999 10.5 35.2999 10.5 35.3999 10.4Z" fill="#E8E6E8"/>
<path d="M10.5999 36.4C10.4999 36.1 10.3999 35.8 10.1999 35.5C10.0999 35.3 9.89985 35.2 9.79985 35.1C9.59985 34.9 9.29985 34.9 8.99986 34.9C8.39986 34.9 7.79985 35.1 7.29985 35.3C6.89985 35.5 6.39986 35.8 6.19986 36.2C6.09986 36.4 6.09985 36.6 6.09985 36.8C6.09985 36.9 6.09986 37 6.19986 37.2V37.3C6.19986 37.4 6.19985 37.4 6.29985 37.4C6.29985 37.5 6.19986 37.5 6.19986 37.6C6.19986 37.7 6.19986 37.8 6.19986 37.9C6.19986 38 6.19986 38.1 6.19986 38.2C6.19986 38.4 6.19985 38.5 6.29985 38.7C6.39985 38.8 6.39986 39 6.49986 39.1C6.59986 39.2 6.69985 39.4 6.79985 39.5C7.09985 39.7 7.49985 39.7 7.79985 39.7C8.39985 39.6 8.89986 39.4 9.39986 39.1C9.69986 38.9 9.99986 38.7 10.1999 38.4C10.5999 37.8 10.6999 37.1 10.5999 36.4Z" fill="#E8E6E8"/>
<path d="M10.9998 33.9C10.9998 33.9 10.9998 33.8 10.8998 33.8L10.7998 33.7L10.6998 33.6C10.6998 33.6 10.5998 33.6 10.5998 33.5C10.4998 33.5 10.4998 33.4 10.3998 33.4H10.2998C10.2998 33.4 10.1998 33.4 10.1998 33.3C10.0998 33.3 9.8998 33.2 9.7998 33.2H9.69981C9.59981 33.2 9.59981 33.2 9.49981 33.3C9.39981 33.3 9.2998 33.4 9.2998 33.5C9.2998 33.6 9.2998 33.7 9.2998 33.8C9.2998 33.8 9.29981 33.9 9.39981 33.9L9.49981 34C9.49981 34.1 9.5998 34.1 9.5998 34.1L9.69981 34.2C9.79981 34.2 9.79981 34.3 9.89981 34.3H9.99981C10.0998 34.3 10.0998 34.3 10.1998 34.3C10.2998 34.3 10.4998 34.3 10.5998 34.2C10.6998 34.2 10.7998 34.1 10.7998 34C10.9998 34 10.9998 34 10.9998 33.9Z" fill="#E8E6E8"/>
<path d="M9.09995 68.9C9.09995 68.7 8.89995 68.6 8.69995 68.6C8.29995 68.6 7.89995 68.7 7.59995 68.9C7.39995 69 7.19995 69.1 7.09995 69.3L6.99995 69.4C6.99995 69.4 6.89995 69.4 6.89995 69.5C6.89995 69.5 6.89995 69.5 6.79995 69.5C6.69995 69.5 6.69995 69.6 6.59995 69.6C6.39995 69.7 6.19995 69.9 6.09995 70C5.99995 70.2 5.79995 70.3 5.79995 70.5C5.79995 70.6 5.69995 70.6 5.69995 70.7C5.69995 70.8 5.69995 70.9 5.69995 71C5.79995 71.2 6.09995 71.1 6.29995 71.1C6.89995 71 7.49995 70.8 7.99995 70.5C8.29995 70.3 8.69995 70 8.89995 69.7C8.99995 69.6 9.09995 69.4 9.19995 69.2C9.09995 69.2 9.09995 69 9.09995 68.9Z" fill="#E8E6E8"/>
<path d="M7.99987 77.8L7.89987 77.7L7.79987 77.6001C7.79987 77.6001 7.79987 77.6 7.69987 77.5C7.69987 77.5 7.59986 77.5 7.59986 77.4C7.49986 77.4 7.29987 77.3 7.19987 77.3C7.09987 77.3 6.99987 77.3 6.99987 77.3C6.89987 77.3 6.89987 77.4 6.79987 77.4C6.69987 77.5 6.69986 77.7 6.59986 77.8C6.49986 77.9 6.59986 78.1 6.59986 78.2V78.3L6.69987 78.4L6.89987 78.5C6.99987 78.5 6.99986 78.6001 7.09986 78.6001C7.29986 78.7001 7.49986 78.6001 7.59986 78.6001C7.69986 78.5001 7.89987 78.5 7.89987 78.3C7.89987 78.2 7.89987 78.2001 7.89987 78.1001C7.89987 78.0001 7.89987 78 7.89987 77.9C7.99987 77.9 7.99987 77.9 7.99987 77.8Z" fill="#E8E6E8"/>
<path d="M27.3999 93.3V93.2V93.1C27.3999 93 27.2999 93 27.2999 92.9V92.8C27.2999 92.7 27.1999 92.7 27.1999 92.6C27.0999 92.6 27.0999 92.5 26.9999 92.5C26.8999 92.5 26.8999 92.4 26.7999 92.4C26.6999 92.3 26.5999 92.3 26.4999 92.3C26.3999 92.3 26.2999 92.2 26.1999 92.2C26.0999 92.2 26.0999 92.2 25.9999 92.2C25.8999 92.2 25.7999 92.2 25.7999 92.2C25.7999 92.2 25.7999 92.2 25.6999 92.2C25.5999 92.2 25.5999 92.2 25.4999 92.2C25.3999 92.2 25.2999 92.2 25.2999 92.2C25.1999 92.2 25.0999 92.3 24.9999 92.3C24.8999 92.3 24.6999 92.4 24.6999 92.6L24.5999 92.7C24.5999 92.7 24.5999 92.7 24.5999 92.8C24.5999 92.8 24.5999 92.8 24.5999 92.9V93V93.1C24.5999 93.2 24.5999 93.2 24.5999 93.3C24.5999 93.4 24.6999 93.4 24.6999 93.5C24.7999 93.6 24.7999 93.7 24.8999 93.7C24.9999 93.8 24.9999 93.8 25.0999 93.9C25.1999 94 25.2999 94 25.2999 94C25.3999 94 25.4999 94.1 25.5999 94.1C25.5999 94.1 25.6999 94.1 25.7999 94.1C25.8999 94.1 25.9999 94.1 26.0999 94.1C26.1999 94.1 26.1999 94.1 26.2999 94.1C26.4999 94.1 26.6999 94.1 26.7999 94C26.9999 93.9 27.0999 93.9 27.2999 93.7L27.3999 93.6C27.3999 93.6 27.3999 93.6 27.3999 93.5C27.3999 93.3 27.3999 93.3 27.3999 93.3Z" fill="#E8E6E8"/>
<path d="M29.1999 93.8C29.1999 93.7 29.1999 93.7 29.1999 93.8C29.0999 93.7 29.0999 93.7 29.1999 93.8C29.0999 93.7 28.9999 93.6 28.8999 93.6H28.7999C28.6999 93.6 28.5999 93.6 28.5999 93.6C28.4999 93.6 28.3999 93.6 28.2999 93.7C28.2999 93.7 28.1999 93.7 28.1999 93.8C28.1999 93.8 28.1999 93.8 28.0999 93.9V94C28.0999 94 28.0999 94 28.0999 94.1V94.2C28.0999 94.2 28.0999 94.2 28.0999 94.3C28.0999 94.3 28.0999 94.3 28.1999 94.3L28.2999 94.4H28.3999H28.4999C28.5999 94.4 28.5999 94.4 28.6999 94.4C28.7999 94.4 28.7999 94.4 28.8999 94.3C28.9999 94.3 28.9999 94.2 28.9999 94.2L29.0999 94.1C29.1999 94 29.1999 93.9 29.1999 93.8Z" fill="#E8E6E8"/>
<path d="M22.9999 89.7C22.8999 89.6 22.9999 89.6 22.9999 89.5C22.9999 89.4 22.8999 89.4 22.8999 89.3L22.7999 89.2C22.7999 89.1 22.7999 89.1 22.6999 89C22.4999 88.9 22.2999 88.7 22.0999 88.7C21.8999 88.6 21.5999 88.5 21.3999 88.5C21.2999 88.5 21.0999 88.5 20.9999 88.4C20.7999 88.4 20.5999 88.3 20.4999 88.4C20.2999 88.4 20.1999 88.5 19.9999 88.5C19.8999 88.5 19.7999 88.6 19.7999 88.6C19.7999 88.6 19.7999 88.6 19.6999 88.7V88.8C19.4999 88.9 19.4999 89 19.5999 89C19.5999 89 19.5999 89 19.6999 89.1C19.6999 89.2 19.7999 89.3 19.8999 89.3C19.9999 89.4 20.0999 89.4 20.0999 89.5C20.1999 89.6 20.2999 89.6 20.2999 89.7C20.3999 89.7 20.4999 89.8 20.5999 89.8C20.7999 89.9 20.9999 90 21.1999 89.9H21.2999C21.3999 89.9 21.3999 89.9 21.4999 89.9C21.6999 89.9 21.7999 89.9 21.9999 90C22.0999 90 22.2999 90 22.3999 90.1C22.5999 90.1 22.7999 90.1 22.8999 90C22.9999 90 23.1999 89.8 23.1999 89.7C22.9999 89.8 22.9999 89.8 22.9999 89.7Z" fill="#E8E6E8"/>
<path d="M19.7999 91.1C19.7999 91 19.7999 91 19.7999 91.1C19.6999 91 19.7 91 19.7 91C19.7 91 19.6999 91 19.5999 91H19.5H19.4H19.2999C19.2999 91 19.3 91 19.2 91C19.2 91 19.2 91 19.2 91.1C19.3 91.1 19.3 91.1 19.4 91.1H19.5C19.7 91.2 19.6999 91.2 19.7999 91.1Z" fill="#E8E6E8"/>
<path d="M125.9 114.8C125.4 114.4 124.9 114 124.3 113.8C123.6 113.5 122.7 113.8 122 114.1C121.7 114.3 121.3 114.5 121 114.8C121 114.7 120.9 114.7 120.9 114.7C120.9 114.7 120.8 114.6 120.7 114.6C120.6 114.5 120.6 114.5 120.5 114.4C120.4 114.4 120.3 114.3 120.3 114.3C120.2 114.3 120.2 114.2 120.2 114.2C120.2 114.2 120.2 114.1 120.1 114.1C120 114.1 120 114.1 119.9 114.1C119.8 114.1 119.7 114.1 119.6 114.1C119.8 114.1 119.8 114.1 119.7 114.1C119.5 114.1 119.2 114.1 119.1 114.2C119 114.2 119 114.3 118.9 114.3C118.8 114.3 118.8 114.4 118.8 114.4L118.7 114.5C118.6 114.6 118.5 114.6 118.5 114.7V114.8C118.5 114.9 118.5 114.9 118.5 115C118.5 115.1 118.5 115.1 118.4 115.2C118.4 115.4 118.4 115.5 118.4 115.7V115.8C118.4 115.9 118.5 115.9 118.5 116C118.5 116 118.6 116.1 118.7 116.1C118.8 116.1 118.8 116.2 118.9 116.2C119 116.3 119.2 116.3 119.3 116.3H119.6C119.5 116.3 119.5 116.3 119.6 116.3C119.8 116.3 119.9 116.3 120.1 116.2C120.3 116.1 120.5 116.1 120.6 116C120.7 116 120.7 115.9 120.8 115.9C120.8 115.8 120.9 115.8 121 115.8C121.1 116.3 121.4 116.7 121.8 117C122.1 117.3 122.4 117.5 122.8 117.6C122.9 117.6 122.9 117.7 123 117.7C123.5 118 124 118.1 124.5 118C125.4 117.9 126.5 117.6 127.1 116.8C127.2 116.7 127.2 116.6 127.2 116.5C126.9 115.7 126.4 115.2 125.9 114.8Z" fill="#E8E6E8"/>
<path d="M128.9 115.5C128.9 115.4 128.8 115.4 128.8 115.4L128.6 115.2H128.5H128.4C128.4 115.2 128.3 115.2 128.3 115.3C128.3 115.3 128.3 115.3 128.3 115.4C128.3 115.5 128.4 115.5 128.4 115.6L128.5 115.7H128.6H128.7C128.7 115.7 128.8 115.7 128.8 115.6C128.8 115.6 128.8 115.6 128.8 115.5H128.9Z" fill="#E8E6E8"/>
<path d="M116.1 115.4C116.1 115.3 116.1 115.3 116.1 115.3C116.1 115.3 116.1 115.2 116 115.2C115.9 115.1 115.9 115.1 115.8 115L115.7 114.9C115.7 114.9 115.6 114.9 115.5 114.9C115.4 114.9 115.3 114.9 115.3 114.9C115.2 114.9 115.1 115 115.1 115C115.1 115 115.1 115 115 115.1C115 115.1 115 115.2 114.9 115.2V115.3C114.9 115.4 114.9 115.5 114.9 115.5V115.6C114.9 115.6 114.9 115.7 115 115.7C115.1 115.7 115.2 115.8 115.3 115.8C115.4 115.8 115.5 115.8 115.6 115.8C115.7 115.8 115.8 115.7 115.9 115.6C115.9 115.5 116 115.4 116 115.3C116.1 115.5 116.1 115.5 116.1 115.4Z" fill="#E8E6E8"/>
<path d="M100.3 114.8C100.3 114.7 100.2 114.7 100.2 114.7C100.2 114.7 100.2 114.7 100.1 114.6C100.1 114.6 100.1 114.5 99.9999 114.5C99.9999 114.5 99.9999 114.5 99.8999 114.5C99.7999 114.5 99.7999 114.4 99.6999 114.4H99.5999C99.4999 114.4 99.2999 114.4 99.1999 114.4C98.9999 114.4 98.7999 114.5 98.6999 114.5C98.5999 114.6 98.3999 114.6 98.3999 114.8V114.9V115V115.1V115.2C98.3999 115.3 98.4999 115.3 98.4999 115.3C98.4999 115.3 98.5999 115.3 98.5999 115.4C98.5999 115.4 98.6999 115.4 98.6999 115.5C98.7999 115.6 98.9999 115.6 99.0999 115.6C99.0999 115.6 99.0999 115.6 99.1999 115.6C99.3999 115.6 99.4999 115.6 99.6999 115.6C99.7999 115.6 99.8999 115.6 99.8999 115.5C99.9999 115.5 100.1 115.4 100.1 115.3L100.2 115.2V115.1C100.2 115 100.3 114.9 100.3 114.8Z" fill="#E8E6E8"/>
<path d="M64.9999 113.4C64.7999 113.3 64.4999 113.3 64.2999 113.4C63.9999 113.4 63.7999 113.5 63.4999 113.6C63.0999 113.7 62.7999 113.9 62.4999 114.1C62.2999 114.3 62.0999 114.5 61.8999 114.7C61.7999 114.8 61.6999 115 61.5999 115.1C61.5999 115.2 61.3999 115.3 61.3999 115.4C61.3999 115.5 61.3999 115.5 61.3999 115.6C61.3999 115.7 61.3999 115.8 61.3999 115.9C61.3999 116 61.4999 116 61.4999 116.1C61.4999 116.2 61.5999 116.2 61.6999 116.2C61.8999 116.2 62.0999 116.2 62.1999 116.2C62.2999 116.2 62.2999 116.2 62.3999 116.1H62.2999C62.3999 116.1 62.4999 116 62.4999 116C62.5999 116 62.6999 115.9 62.7999 115.9C62.8999 115.9 62.9999 115.8 62.9999 115.8C63.0999 115.8 63.1999 115.7 63.1999 115.7C63.1999 115.7 63.0999 115.7 63.0999 115.8L63.1999 115.7C63.2999 115.6 63.3999 115.6 63.3999 115.5C63.5999 115.3 63.7999 115.2 63.8999 115C63.7999 115.1 63.7999 115.1 63.6999 115.2C63.7999 115.1 63.9999 114.9 64.0999 114.8C64.1999 114.7 64.1999 114.6 64.2999 114.5C64.3999 114.4 64.3999 114.3 64.4999 114.3L64.5999 114.2C64.6999 114.1 64.6999 114 64.7999 113.9C64.7999 114 64.6999 114 64.6999 114.1C64.7999 114 64.7999 113.9 64.8999 113.8C64.8999 113.7 64.8999 113.7 64.8999 113.6C65.1999 113.4 65.0999 113.4 64.9999 113.4Z" fill="#E8E6E8"/>
<path d="M66.9998 115C66.8998 114.9 66.7998 114.9 66.7998 114.9C66.6998 114.9 66.5998 114.9 66.4998 114.9C66.3998 114.9 66.2998 115 66.1998 115C66.0998 115 65.9998 115.1 65.8998 115.2C65.7998 115.2 65.7998 115.3 65.7998 115.4V115.5C65.8998 115.5 65.8998 115.5 65.9998 115.5C66.0998 115.5 66.1998 115.5 66.2998 115.5H66.3998C66.5998 115.4 66.7998 115.4 66.8998 115.3L66.9998 115.2C66.9998 115 66.9998 115 66.9998 115Z" fill="#E8E6E8"/>
<path d="M206 114.1C206 114 206.1 113.9 206.1 113.8C206.1 113.7 206 113.7 206 113.6C206 113.5 205.9 113.5 205.9 113.4V113.3C205.9 113.3 205.9 113.2 205.8 113.2C205.7 113.1 205.6 112.9 205.4 112.8C205.3 112.7 205.3 112.7 205.2 112.6C205.1 112.5 205 112.5 204.9 112.5H204.8H204.7C204.5 112.4 204.2 112.5 204 112.6C203.9 112.6 203.8 112.7 203.7 112.8C203.6 112.8 203.5 112.9 203.5 113C203.5 113 203.4 113.1 203.4 113.2C203.4 113.2 203.4 113.3 203.3 113.4L203.4 113.3C203.3 113.4 203.2 113.6 203.3 113.8C203.3 113.9 203.3 114 203.4 114.1C203.4 114.2 203.4 114.3 203.5 114.4C203.5 114.5 203.6 114.6 203.7 114.7C203.8 114.8 203.8 114.8 203.9 114.9C203.9 115 204 115 204.1 115.1C204.2 115.2 204.3 115.2 204.3 115.2C204.4 115.3 204.6 115.4 204.7 115.5C204.8 115.6 204.9 115.6 205 115.6C205.1 115.6 205.2 115.7 205.3 115.7C205.5 115.8 205.7 115.7 205.8 115.7C205.9 115.7 206 115.6 206 115.6C206 115.6 206.2 115.5 206.2 115.4C206.2 115.3 206.2 115.3 206.2 115.2C206.2 115.1 206.3 115 206.3 114.9C206 114.4 206 114.3 206 114.1Z" fill="#E8E6E8"/>
<path d="M208.7 114.9C208.7 114.8 208.7 114.8 208.7 114.9C208.6 114.8 208.6 114.7 208.6 114.7L208.5 114.6L208.4 114.5C208.4 114.5 208.3 114.5 208.2 114.5C208.1 114.5 208.1 114.5 208 114.6C208 114.7 207.9 114.8 207.9 114.8V114.9V115V115.1C207.9 115.1 207.9 115.1 207.9 115.2L208 115.3H208.1C208.2 115.3 208.3 115.3 208.3 115.3C208.3 115.3 208.4 115.3 208.4 115.2C208.4 115.2 208.5 115.2 208.5 115.1C208.5 115.1 208.5 115.1 208.5 115C208.7 115 208.7 115 208.7 114.9Z" fill="#E8E6E8"/>
<path d="M212.2 115.2C212.1 115.1 212.1 115 212.1 115C212 114.9 212 114.9 211.9 114.8H211.8C211.7 114.8 211.7 114.8 211.6 114.8C211.5 114.8 211.5 114.8 211.4 114.9L211.3 115C211.3 115.1 211.2 115.2 211.2 115.3C211.2 115.3 211.2 115.3 211.2 115.4V115.5V115.6C211.2 115.6 211.2 115.6 211.2 115.7C211.2 115.8 211.2 115.8 211.3 115.8C211.3 115.8 211.4 115.8 211.4 115.9H211.5C211.6 115.9 211.7 115.9 211.7 115.9C211.8 115.9 211.8 115.8 211.9 115.8L212 115.7C212 115.7 212 115.6 212.1 115.6V115.5C212.1 115.5 212.1 115.5 212.1 115.4C212.2 115.3 212.2 115.2 212.2 115.2Z" fill="#E8E6E8"/>
<path d="M245.5 92.6C245.5 92.5 245.5 92.5 245.4 92.4C245.4 92.3 245.3 92.2 245.2 92.2L245.1 92.1C245 92 244.9 92 244.8 91.9L244.7 91.8C244.6 91.8 244.5 91.7 244.5 91.7C244.4 91.6 244.3 91.6 244.1 91.5C244 91.5 243.8 91.5 243.7 91.5C243.6 91.5 243.4 91.5 243.3 91.6C243.2 91.7 243 91.7 242.9 91.8C242.8 91.9 242.8 91.9 242.7 92C242.7 92 242.7 92.1 242.6 92.1C242.5 92.2 242.5 92.3 242.4 92.4C242.4 92.5 242.3 92.5 242.3 92.6C242.3 92.7 242.3 92.7 242.3 92.8C242.3 93 242.3 93.1 242.3 93.3C242.3 93.3 242.3 93.4 242.3 93.5C242.3 93.6 242.4 93.7 242.5 93.7L242.6 93.8C242.7 93.9 242.8 93.9 242.9 93.9C243 93.9 243 93.9 243.1 93.9H243.2C243.4 93.9 243.6 93.9 243.7 93.9C244 93.9 244.2 93.9 244.5 93.8C244.7 93.7 245 93.5 245.1 93.3C245.2 93.2 245.3 93.1 245.3 93C245.3 93 245.3 93 245.3 92.9C245.5 92.9 245.6 92.8 245.5 92.6Z" fill="#E8E6E8"/>
<path d="M248.6 91.9C248.6 91.8 248.6 91.8 248.6 91.8C248.6 91.8 248.5 91.8 248.5 91.7H248.4C248.3 91.7 248.3 91.7 248.2 91.7C248.1 91.7 247.9 91.8 247.8 91.9L247.7 92L247.6 92.1C247.6 92.1 247.6 92.1 247.6 92.2V92.3C247.6 92.3 247.6 92.3 247.6 92.4C247.6 92.4 247.6 92.5 247.7 92.5C247.7 92.5 247.7 92.5 247.8 92.5C247.9 92.5 247.9 92.5 248 92.5H248.1C248.2 92.5 248.4 92.4 248.5 92.3C248.6 92.3 248.6 92.2 248.6 92.2C248.6 92.2 248.6 92.2 248.6 92.1C248.6 92 248.6 92 248.6 91.9Z" fill="#E8E6E8"/>
<path d="M263.9 50.1V50C263.9 49.9 263.8 49.9 263.7 49.9C263.6 49.8 263.3 49.9 263.2 49.9C263 50 262.8 50 262.6 50.2H262.7C262.8 50.2 262.9 50.1 262.9 50.1C262.8 50.2 262.7 50.2 262.6 50.3L262.5 50.4C262.4 50.5 262.3 50.5 262.2 50.6C262.1 50.7 262.1 50.8 262 50.9C261.9 51.1 261.8 51.2 261.8 51.4C261.8 51.6 261.7 51.8 261.7 51.9C261.7 52 261.7 52.2 261.8 52.3C261.8 52.3 261.9 52.3 261.9 52.4C261.9 52.5 262 52.5 262 52.6C262.1 52.7 262.3 52.6 262.4 52.6C262.6 52.6 262.8 52.5 262.9 52.4C263 52.3 263.1 52.3 263.1 52.2C263.1 52.2 263.1 52.2 263.1 52.1C263.2 52 263.2 52 263.3 51.9L263.4 51.8C263.5 51.7 263.5 51.6 263.6 51.5C263.7 51.4 263.7 51.3 263.7 51.1C263.7 51 263.7 50.9 263.8 50.8C263.8 50.7 263.8 50.6 263.8 50.5C263.9 50.3 264 50.2 263.9 50.1Z" fill="#E8E6E8"/>
<path d="M264.5 52.5C264.5 52.4 264.4 52.4 264.4 52.3H264.3H264.2C264.1 52.3 264 52.3 264 52.4C263.9 52.4 263.9 52.5 263.8 52.5V52.6001V52.7C263.8 52.7 263.8 52.7 263.8 52.8V52.9C263.8 52.9 263.8 52.9 263.8 53H263.9C264.1 53 264.2 52.9 264.4 52.9C264.5 52.9 264.6 52.8 264.6 52.7C264.4 52.7 264.5 52.7 264.5 52.5C264.5 52.6 264.5 52.6 264.5 52.5Z" fill="#E8E6E8"/>
<path d="M262.6 32.1C262.6 31.9 262.6 31.7 262.4 31.6C262.2 31.4 261.9 31.5 261.7 31.5C261.6 31.5 261.4 31.6 261.3 31.6C261.4 31.6 261.4 31.5 261.5 31.5C261.3 31.6 261.2 31.6 261.1 31.7C261 31.8 260.9 31.8 260.8 31.9C260.4 32.2 260.1 32.5 259.9 32.9C259.8 33.1 259.7 33.3 259.6 33.6C259.5 33.8 259.6 34 259.7 34.2C259.8 34.3 259.9 34.4 260 34.4H260.1H260.2C260.4 34.5 260.7 34.4 260.9 34.4C261.1 34.4 261.3 34.3 261.5 34.2C261.5 34.2 261.5 34.2 261.6 34.2C261.4 34.3 261.8 34.1 261.9 34C262 33.9 262 33.9 262 33.9L262.1 33.8C262.2 33.7 262.2 33.7 262.3 33.6C262.5 33.5 262.6 33.3 262.6 33.2C262.6 33.1 262.7 32.9 262.8 32.8C262.8 32.7 262.8 32.6 262.8 32.5C262.6 32.4 262.6 32.2 262.6 32.1Z" fill="#E8E6E8"/>
<path d="M257.5 32.2C257.5 32.1 257.5 32.1 257.5 32.2C257.4 32.1 257.3 32.1 257.3 32C257.3 32 257.3 32 257.2 32H257.1H257C257 32.1 257 32.1 257 32.2C257 32.2 257 32.2 257.1 32.3C257.1 32.3 257.1 32.3 257.2 32.3C257.2 32.3 257.2 32.3 257.3 32.3C257.4 32.3 257.4 32.3 257.5 32.3C257.5 32.3 257.6 32.3 257.6 32.2C257.5 32.3 257.5 32.3 257.5 32.2Z" fill="#E8E6E8"/>
<path d="M262.7 38.2C262.6 38.1 262.6 38.1 262.6 38.1C262.5 38 262.5 38 262.4 37.9C262.4 37.9 262.3 37.9 262.3 37.8C262.3 37.8 262.3 37.8 262.2 37.8H262.1C262.1 37.7 261.9 37.8 261.9 37.8C261.8 37.8 261.7 37.9 261.7 37.9C261.7 37.9 261.6 37.9 261.6 38C261.6 38 261.6 38 261.5 38.1C261.5 38.2 261.4 38.2 261.4 38.3C261.3 38.4 261.3 38.5 261.2 38.6C261.2 38.6 261.2 38.7 261.1 38.7C261.1 38.8 261 38.8 261.1 38.9C261.1 38.9 261.1 39 261.2 39C261.2 39 261.2 39 261.3 39C261.4 39.1 261.5 39.1 261.6 39.1C261.7 39.1 261.9 39.1 262 39C262.2 38.9 262.4 38.9 262.6 38.8C262.7 38.8 262.8 38.6 262.9 38.6L263 38.5C263 38.5 263 38.5 263 38.4C262.8 38.3 262.8 38.3 262.7 38.2Z" fill="#E8E6E8"/>
<path d="M259.8 35.9C259.8 35.8 259.7 35.8 259.7 35.8C259.7 35.8 259.7 35.8 259.6 35.8C259.6 35.8 259.6 35.8 259.5 35.8H259.4C259.3 35.8 259.2 35.8 259.1 35.9C259 35.9 259 36 258.9 36C258.9 36 258.8 36 258.8 36.1C258.8 36.1 258.8 36.1 258.7 36.2V36.3C258.7 36.3 258.7 36.3 258.8 36.4C258.8 36.4 258.8 36.4 258.8 36.5C258.8 36.5 258.8 36.5 258.9 36.5H259H259.1C259.2 36.5 259.2 36.5 259.3 36.4C259.4 36.4 259.5 36.3 259.5 36.3L259.6 36.2L259.7 36.1C259.9 36 259.8 36 259.8 35.9Z" fill="#E8E6E8"/>
<path d="M248.5 31.4C248.5 31.4 248.5 31.3 248.4 31.3C248.4 31.3 248.3 31.3 248.3 31.2C248.2 31.2 248.2 31.1 248.1 31.1H248C247.9 31.1 247.8 31.1 247.8 31.2C247.7 31.2 247.7 31.3 247.6 31.3L247.5 31.4C247.5 31.5 247.5 31.5 247.4 31.6V31.7V31.8V31.9C247.4 31.9 247.4 31.9 247.4 32C247.4 32 247.4 32.1 247.5 32.1H247.6C247.7 32.1 247.8 32.1 247.9 32.1C248 32.1 248.2 32 248.3 31.9C248.3 31.9 248.3 31.9 248.4 31.9C248.5 31.8 248.5 31.8 248.6 31.7V31.6C248.5 31.5 248.5 31.4 248.5 31.4Z" fill="#E8E6E8"/>
<path d="M63.2999 9.10001C63.1999 9.40001 62.9999 9.70002 62.6999 9.80002C62.4999 9.90002 62.3999 9.90002 62.1999 9.90002C61.7999 9.90002 61.3999 9.90002 60.9999 9.80002C60.0999 9.60002 59.2999 9.00001 58.8999 8.20001C59.2999 8.70001 59.5999 9.60002 60.1999 9.90002C60.5999 10.2 61.1999 10.2 61.6999 10.3C61.9999 10.3 62.1999 10.3 62.4999 10.3C62.6999 10 63.0999 9.50001 63.2999 9.10001Z" fill="#CCA5B3"/>
<path d="M37.4998 7.90002C37.3998 8.30002 37.0998 8.60003 36.6998 8.80003C36.2998 8.90003 35.7998 8.80002 35.4998 8.50002C35.8998 8.80002 36.3998 9.20002 36.8998 9.10002C37.3998 8.90002 37.6998 8.30002 37.4998 7.90002Z" fill="#CCA5B3"/>
<path d="M10.5998 37.8C10.1998 38.7 8.69976 39.3 7.89976 39.4C7.39976 39.4 6.79976 39.3 6.49976 38.8C6.19976 38.4 6.29976 37.8 6.49976 37.3C6.19976 37 6.09975 36.5 6.09975 36.1C5.99975 36.7 6.19975 37.3 6.09975 37.9C6.09975 38.2 5.99976 38.6 5.99976 38.9C6.09976 39.5 6.69976 39.9 7.29976 40C8.89976 40.1 10.0998 39 10.5998 37.8Z" fill="#CCA5B3"/>
<path d="M8.89986 69.6C8.59986 69.9 8.39985 70.5 8.09985 70.9C7.79985 71.2 7.59986 71.3 7.19986 71.4C6.49986 71.6 5.69985 71.4 5.59985 70.6C5.79985 70.8 6.09985 70.9 6.29985 70.9C7.09985 71 8.29986 70.1 8.89986 69.6Z" fill="#CCA5B3"/>
<path d="M22.9999 90.1001C22.7999 90.3001 22.3999 90.3 22.0999 90.3C21.5999 90.3 21.0999 90.2001 20.5999 90.1001C19.7999 89.9001 18.8999 89.3 18.8999 88.4C18.8999 88.3 18.8999 88.3 18.9999 88.3H19.0999C19.8999 88.3 19.4999 88.6 19.6999 89.2C19.8999 89.6 20.2999 89.9 20.6999 90C21.1999 90 22.5999 90.4001 22.9999 90.1001Z" fill="#CCA5B3"/>
<path d="M25.0999 93.6C25.3999 93.8 25.8999 93.9 26.2999 93.9C26.6999 93.9 26.9999 93.8 27.2999 93.5C27.1999 93.8 26.9999 94 26.6999 94.1C26.3999 94.2 26.0999 94.2 25.7999 94.2C25.3999 94.2 24.9999 94.1 24.7999 93.9C24.4999 93.6 24.3999 93.2 24.4999 92.8C24.4999 92.6 24.5999 92.3 24.8999 92.3C24.4999 92.6 24.5999 93.2 25.0999 93.6Z" fill="#CCA5B3"/>
<path d="M64.1997 114.9C63.8997 115.6 63.1997 116.1 62.4997 116.3C62.1997 116.4 61.6997 116.4 61.4997 116C61.3997 115.7 61.5997 115.3 61.7997 115.1C61.6997 115.6 62.0997 115.9 62.4997 115.9C62.6997 115.9 62.8997 115.9 63.1997 115.8C63.5997 115.7 63.8997 115.3 64.1997 114.9Z" fill="#CCA5B3"/>
<path d="M127 116.5C126.9 117.1 125.9 117.4 125.4 117.6C125.1 117.7 124.9 117.8 124.6 117.9C124.2 117.9 123.8 117.8 123.5 117.6C123.2 117.5 122.9 117.3 122.6 117.2C121.9 116.8 121.3 116.2 120.9 115.5C120.3 115.9 119.6 116.1 119 116C118.8 116 118.7 116 118.6 115.8C118.6 115.7 118.5 115.7 118.5 115.6C118.4 115.4 118.4 115.2 118.5 115.1C118.5 115.5 118.4 115.9 118.5 116.3C118.5 116.4 118.5 116.4 118.6 116.4C119.4 116.5 120.2 116.1 120.8 115.7C121.6 116.9 122.9 117.9 124.3 118.3C125.1 118.5 126.1 117.8 126.7 117.2C126.8 117.1 126.9 117 127 116.9C127 116.8 127 116.7 127 116.5Z" fill="#CCA5B3"/>
<path d="M205.9 113.4C205.9 113.8 205.9 114.2 205.8 114.6C205.8 114.8 205.6 115.1 205.4 115.2C205.3 115.2 205.1 115.2 205 115.2C204.3 115 203.7 114.6 203.2 114.1C203.7 114.9 204.6 115.5 205.5 115.7H205.6C205.7 115.7 205.7 115.6 205.7 115.6C206 114.9 206 114.1 205.9 113.4Z" fill="#CCA5B3"/>
<path d="M245.4 92.5C245.4 93 245.3 93.4 245.1 93.8C245.1 93.9 245 93.9 245 93.9H244.9C244.3 93.9 243.7 93.9 243.1 93.9C242.9 93.9 242.8 93.9 242.6 93.8C242.3 93.6 242.3 93.2 242.3 92.9C242.2 93.1 242.2 93.4 242.2 93.6C242.2 93.7 242.3 93.9 242.4 94C242.6 94.2 243 94.3 243.3 94.3C243.9 94.3 244.4 94.3 245 94.3C245.1 94.3 245.1 94.3 245.2 94.3C245.3 94.3 245.3 94.2 245.3 94.1C245.6 93.6 245.5 93 245.4 92.5Z" fill="#CCA5B3"/>
<path d="M263.4 51.5C263.5 51.3 263.7 51 263.8 50.8C263.7 50.9 263.7 51.3 263.7 51.5C263.6 51.7 263.5 51.9001 263.3 52.1001C263.1 52.3001 262.7 52.8 262.5 52.9C262.4 52.9 262.3 52.9 262.2 52.9C262 52.9 261.8 52.8 261.7 52.7C261.3 52.5 261.4 52.2 261.5 51.8C261.5 51.6 261.7 51.3 261.9 51.2C261.6 51.3 262 52.2 262.3 52.3C262.8 52.4 263.2 51.8 263.4 51.5Z" fill="#CCA5B3"/>
<path d="M262.5 31.8C262.6 32.4 262.5 33.1 262 33.6C261.9 33.7 261.7 33.9 261.5 34C260.9 34.4 259.9 34.9 259.5 34C259.6 34.3 260 34.6 260.4 34.7C261.1 34.8 261.8 34.4 262.2 33.9C262.7 33.2 262.8 32.4 262.5 31.8Z" fill="#CCA5B3"/>
<path d="M187.7 9.20004C189.4 8.80003 191 7.90004 192.3 6.60004C191.7 7.60004 190.8 8.50004 189.8 9.10004C188.9 9.60004 185.4 10.3 185.8 8.30004C186 8.60004 185.9 8.90004 186.2 9.10004C186.5 9.40004 187.3 9.30003 187.7 9.20004Z" fill="#CCA5B3"/>
<g opacity="0.4">
<path opacity="0.1" d="M50.0999 82.7C49.1999 82.1 47.9999 82 46.9999 82.2C46.4999 82.1 45.7999 82.5001 45.4999 82.8001C45.3999 81.1001 44.2999 79.9 42.9999 78.9C41.3999 77.6 39.8999 76.9001 37.7999 77.5001C36.1999 78.0001 33.9999 79.2001 33.5999 81.0001C33.1999 82.7001 34.6999 84.3001 35.5999 85.6001C36.0999 86.3001 36.5999 87 37.2999 87.4C37.2999 87.5 37.3999 87.5001 37.3999 87.6001C38.5999 89.0001 40.6999 88.3001 42.0999 87.6001C43.1999 87.1001 44.1999 86.3001 44.8999 85.3001C45.1999 85.8001 45.3999 86.2001 45.8999 86.5001C46.3999 86.8001 47.0999 87.1 47.6999 87.2C48.4999 87.4 49.7999 86.8001 50.1999 86.1001C50.4999 85.6001 50.7999 84.9001 50.8999 84.3001C50.8999 83.4001 50.5999 83 50.0999 82.7Z" fill="#E8E6E8"/>
<path d="M49.0999 91.8C48.7999 91.4 48.0999 91.2 47.5999 91.1C46.8999 90.9 46.0999 91 45.3999 91.2C44.9999 91.3 44.2999 91.5 44.0999 91.9C43.7999 92.4 43.5999 92.8 43.8999 93.3C44.0999 93.7 44.4999 94 44.8999 94.2C45.4999 94.5 46.3999 94.5 47.0999 94.4C47.6999 94.3 48.3999 94.1 48.8999 93.7C49.4999 93.1 49.5999 92.3 49.0999 91.8Z" fill="#E8E6E8"/>
<path d="M30.7999 79.5001C30.6999 79.2001 30.3999 78.9001 30.1999 78.6001C29.9999 78.3001 28.8999 78.8 28.8999 79.2C28.8999 79.5 28.8999 79.9 28.9999 80.2C29.0999 80.5 29.4999 80.7001 29.7999 80.8001C29.9999 80.9001 30.4999 80.7 30.5999 80.4C30.6999 80.3 30.8999 79.9001 30.7999 79.5001Z" fill="#E8E6E8"/>
<path d="M57.5 97C57.4 96.9 57.4 96.8 57.3 96.6C57.2 96.5 57 96.4 56.9 96.3C56.5 96.1 56 96.1 55.6 96C55.3 95.9 55 96.1 54.8 96.2C54.7 96.3 54.2 96.5 54.3 96.7C54.5 97 54.7 97.4 55.1 97.5C55.7 97.7 56.2 97.6 56.8 97.5C56.8 97.5 57.7 97.1 57.5 97Z" fill="#E8E6E8"/>
<path d="M50.6 85.5C50.1 86.1 49.5 86.7 48.7 86.9C48.4 87 48.1 87 47.9 86.9C46.7 86.8 45.5 86 45 85C44.5 86 43.5 86.6 42.5 87.2C41.8 87.6 41.1 88.1 40.2 88.2C39.5 88.3 38.9 88.1 38.3 88C37.7 87.9 37.3 87.4 36.9 86.9C35.6 85.3 34.3 83.6 33.7 81.6C33.7 82.7 34.2 83.8 34.8 84.7C35.8 86.2 36.8 87.8 38 89.2C38.8 89.3 39.8 89.3 40.5 89.1C40.9 89 41.3 88.7 41.7 88.5C42.8 87.8 43.9 87.1 44.8 86.2C44.6 86.5 47.3 87.3 47.5 87.4C49.4 87.9 49.5 87 50.6 85.5Z" fill="#E6C9C3"/>
<path d="M49.4 92.5001C49.3 93.2001 48.8 93.7001 48.1 93.9001C47.1 94.3001 43.3 94.6001 43.9 92.6001C43.7 93.4001 43.9 94.2001 44.7 94.5001C45.6 94.9001 46.6 95.0001 47.6 94.7001C48.7 94.4001 49.4 93.5001 49.4 92.5001Z" fill="#E6C9C3"/>
</g>
<path opacity="0.4" d="M223.2 28.9C223 28.4 222.4 28.1 221.8 28.1C221.1 28 220.4 28.2 219.8 28.6C219.8 28.6 219.7 28.6 219.7 28.7L219.6 28.8L219.5 28.9H219.6C219.5 29 219.4 29 219.4 29.1C219.3 29.2 219.2 29.3 219.1 29.4C218.6 27.7 217.5 26.3 215.9 25.4C215 24.9 213.6 25.4 212.8 25.7C212 26 210.6 26.5 210.3 27.5C209.6 29.5 210.4 31.7 212.4 32.5C212.9 32.9 213.4 33.2 214 33.4C215.1 33.8 216.3 33.4 217.3 33C217.8 32.8 218.4 32.5 218.8 32.1C218.8 32.1 218.8 32.2 218.9 32.2C219.1 32.3 219.4 32.4 219.7 32.5C220.3 32.7 220.9 32.5 221.4 32.3C222 32 222.6 31.3 222.9 30.8C222.9 30.1 223.4 29.5 223.2 28.9Z" fill="#E8E6E8"/>
<path opacity="0.4" d="M202.6 27.5C202.5 27.3 202.3 27.1 202.1 27C201.9 26.8 201.7 26.6 201.5 26.4C201.2 26.1 200 26.6 199.9 27C199.9 27.3 199.8 27.5 199.8 27.8C199.7 28.1 199.6 28.3 199.7 28.6C199.8 29.1 200.4 29.5 200.9 29.6C201.4 29.7 202.1 29.4 202.4 29C202.6 28.6 202.8 28 202.6 27.5Z" fill="#E8E6E8"/>
<path opacity="0.4" d="M249.1 61.2C248.7 60.6 247.7 60.4 247 60.4C245.9 60.4 244.8 60.8 243.8 61.3C243.7 61.4 243.6 61.4 243.5 61.5C243.3 61.6 243.2 61.7 243 61.8C242.9 61.8 242.9 61.9 242.8 61.9C242.8 61.9 242.7 61.9 242.7 62H242.8C242.5 62.2 242.1 62.5 241.8 62.8C241.3 63.3 240.9 63.9 240.8 64.6C240.7 64.9 240.8 65.2 241.1 65.4C241.9 66 242.7 66.2 243.8 66.2C244.9 66.1 245.9 65.7 246.8 65C248.2 64.2 250.1 62.6 249.1 61.2Z" fill="#E8E6E8"/>
<path opacity="0.4" d="M237.1 67.5C236.9 67.2 236.4 67.2 236.2 67.1C235.9 67.1 235.5 67.2 235.2 67.4C235.2 67.4 235.2 67.4 235.1 67.4C235.1 67.4 235 67.4 235 67.5L234.9 67.6C234.7 67.7 234.6 67.9 234.4 68C234.1 68.3 233.9 68.6 234 69C234.3 69.9 235.4 69.7 236.1 69.3C236.6 69.1 237.5 68.2 237.1 67.5Z" fill="#E8E6E8"/>
<path opacity="0.4" d="M180 95.1C178.5 93.5 175.6 92.9 173.8 94.6C172.7 95.6 172 96.5 171.7 97.9C171.5 98.8 171.4 100.1 171.9 101C172.4 102 174.2 102.4 175.3 102.4C176.6 102.4 178.2 101.8 179.2 101C180.1 100.3 181.2 99 181.2 97.9C181.2 96.8 180.6 95.8 180 95.1Z" fill="#E8E6E8"/>
<path opacity="0.4" d="M166.3 98.3C166.3 98.1 166 98 166 97.9C165.7 97.6 165.2 97.7 164.8 97.7C164.2 97.8 163.6 98.1 163.1 98.5C162.9 98.7 162.5 98.9 162.1 99.3C161.9 99.5 161.6 99.8 161.6 100.1C161.4 101 162.7 101 163.3 100.9C164 100.8 164.6 100.5 165.2 100C165.6 99.7 165.9 99.4 166.1 99C166.3 98.8 166.3 98.6 166.3 98.3Z" fill="#E8E6E8"/>
<g opacity="0.4">
<path d="M193.7 95.2C193.5 95.1 193.3 95 193.2 95C193 94.9 192.9 94.9 192.7 94.9C192.6 94.9 192.4 94.9 192.3 94.9C192.2 94.9 192.2 94.9 192.1 94.9C191.8 95 191.5 94.9 191.1 95C190.6 95.1 189.9 95.4 189.6 95.8C189.4 96 189.1 96.3 189.1 96.5C189.1 96.7 189.2 96.9 189.2 97.1C189.3 97.4 189.9 97.4 190.1 97.4C189.9 97.4 190.1 97.4 190.2 97.5C190.3 97.5 190.4 97.6 190.5 97.6C190.9 97.7 191.3 97.6 191.6 97.5C192.3 97.4 193 97.1 193.5 96.6C193.6 96.5 193.7 96.4 193.7 96.3C193.8 96.2 193.8 96.1 193.8 95.9C193.8 95.8 193.8 95.8 193.8 95.7C193.9 95.6 193.9 95.3 193.7 95.2Z" fill="#E8E6E8"/>
</g>
<path opacity="0.4" d="M199.1 96.1C199.1 96.1 199 96.1 199 96C198.9 96 198.7 96 198.6 96C198.5 96 198.3 96.1 198.2 96.1C197.9 96.2 197.7 96.3 197.4 96.5C197.3 96.6 197 96.7 197.1 97V97.1C197.1 97.2 197.2 97.2 197.2 97.2H197.3C197.4 97.2 197.4 97.2 197.5 97.2C197.6 97.2 197.7 97.2 197.7 97.2C197.8 97.2 198 97.1 198.1 97.1C198.3 97 198.5 97 198.6 96.9L198.7 96.8C198.7 96.8 198.7 96.8 198.8 96.8C198.8 96.8 198.9 96.8 198.9 96.7L199 96.6C199 96.6 199 96.6 199.1 96.6C199.1 96.5 199.2 96.5 199.2 96.4V96.3C199.2 96.2 199.2 96.1 199.1 96.1Z" fill="#E8E6E8"/>
<path opacity="0.4" d="M55 23C54.9 22.9 54.7 22.9 54.5 22.9C54.4 22.9 54.4 22.8 54.3 22.8C54.1 22.7 54 22.7 53.8 22.8H53.7C53.5 22.6 52.8 22.8 52.6 22.9C52.4 23 51.9 23.2 51.9 23.5C51.8 23.6 51.7 23.6 51.6 23.7C51.5 23.8 51.4 23.9 51.4 24C51.3 24.1 51.2 24.2 51.1 24.3C51 24.5 50.9 24.6 50.8 24.8C50.7 25 50.8 25.1 51 25.2C51.6 25.7 52.3 25.6 53 25.3C53.9 25 54.6 24.6 55.2 23.9C55.3 23.8 55.4 23.6 55.4 23.4C55.3 23.2 55.2 23.1 55 23Z" fill="#E8E6E8"/>
<path opacity="0.4" d="M70.0998 21.3C69.9998 21.3 69.9998 21.2 69.8998 21.2C69.6998 21.1 69.4998 21.1 69.3998 21.2C69.1998 21.2 68.9998 21.3 68.7998 21.4C68.5998 21.5 68.3998 21.6 68.2998 21.7C68.1998 21.8 67.9998 21.9 68.0998 22C68.0998 22.1 68.1998 22.2 68.1998 22.2H68.2998C68.2998 22.2 68.2998 22.2 68.3998 22.2C68.4998 22.2 68.4998 22.2 68.5998 22.2C68.6998 22.2 68.7998 22.2 68.9998 22.2C69.1998 22.2 69.3998 22.1 69.5998 22C69.6998 21.9 69.8998 21.9 69.9998 21.8C70.0998 21.7 70.1998 21.6 70.2998 21.5V21.4C70.1998 21.4 70.1998 21.4 70.0998 21.3C70.1998 21.3 70.1998 21.3 70.0998 21.3Z" fill="#E8E6E8"/>
<path opacity="0.4" d="M39.6998 68C39.4998 67.8 38.9998 67.9 38.6998 68C38.3998 68.1 38.1998 68.2 37.8998 68.3C37.5998 68.4 37.2998 68.5 37.0998 68.7C36.9998 68.8 36.7998 69 36.8998 69.1C36.9998 69.5 38.0998 69.2 38.2998 69.1C38.6998 69 38.9998 68.8 39.2998 68.6C39.3998 68.6 39.7998 68.3 39.6998 68Z" fill="#E8E6E8"/>
<path d="M183.9 98.1C183.8 98 183.7 97.9 183.7 97.7C183.5 97.4 182.9 97.5 182.6 97.6C182.2 97.7 181.7 97.9 181.3 98.2C181.3 98.2 181.2 98.2 181.2 98.3C181.1 98.4 181 98.5 181 98.6C180.9 98.8 180.6 99.1 180.7 99.4C180.8 99.9 181.3 100.1 181.8 100.2C182.3 100.3 183.2 100 183.5 99.6C183.6 99.4 183.7 99.3 183.8 99.1C183.9 98.9 183.9 98.8 183.9 98.6C184 98.4 184 98.2 183.9 98.1Z" fill="#E8E6E8"/>
<path opacity="0.4" d="M144.5 101.1C144.5 100.9 144.2 100.7 144.1 100.6C144 100.5 143.7 100.5 143.6 100.6C143.4 100.6 143.2 100.7 143 100.8C142.9 100.9 142.2 101.1 142.4 101.4C142.4 101.5 142.5 101.5 142.5 101.6C142.5 101.7 142.5 101.8 142.5 101.8C142.6 102 142.7 102.1 142.9 102.1C142.9 102.1 142.9 102.2 143 102.2C143.1 102.3 143.3 102.3 143.4 102.2C143.6 102.2 143.8 102.1 143.9 101.9C144 101.8 144 101.8 144.1 101.7C144.3 101.6 144.5 101.3 144.5 101.1Z" fill="#E8E6E8"/>
<path opacity="0.4" d="M79.0999 97.5C78.9999 97.4 78.4999 97.5 78.3999 97.5C78.1999 97.6 77.7999 97.7 77.6999 97.9C77.4999 98.1 77.2999 98.3 77.1999 98.6C77.1999 98.8 77.0999 99 77.0999 99.2C77.0999 99.4 77.6999 99.3 77.7999 99.3C77.8999 99.3 77.9999 99.2 78.0999 99.2C77.7999 99.3 77.8999 99.3 78.0999 99.2H78.1999C78.1999 99.2 78.1999 99.2 78.2999 99.2C78.2999 99.2 78.2999 99.2 78.3999 99.2C78.4999 99.2 78.5999 99.1 78.6999 99.1C78.6999 99.1 78.7999 99.1 78.7999 99C78.7999 99 78.8999 99 78.8999 98.9C78.8999 98.9 78.8999 98.9 78.7999 98.9C78.9999 98.8 79.0999 98.6 79.2999 98.4C79.3999 98.3 79.4999 98 79.4999 97.9C79.3999 97.8 79.1999 97.6 79.0999 97.5Z" fill="#E8E6E8"/>
<path opacity="0.4" d="M187.1 45.3C187 45.2 186.9 45 186.7 44.9C186.4 44.6 185.7 44.6 185.3 44.6C185.1 44.6 184.4 44.7 184.4 45C184.4 45.3 184.4 45.7 184.7 45.8C185.1 46 185.5 46.2 185.9 46.2C186.2 46.2 187 46 187.1 45.6C187.3 45.5 187.2 45.4 187.1 45.3Z" fill="#E8E6E8"/>
<path d="M87.1998 55.9C86.9998 55.6 86.7998 55.5 86.4998 55.3C86.0998 55.1 85.6998 55 85.3998 54.8C85.1998 54.7 84.6998 54.9 84.6998 55.1C84.5998 55.4 84.3998 55.7 84.3998 56.1C84.3998 56.3 84.2998 56.7 84.4998 56.9C84.8998 57.6 85.8998 57.6 86.5998 57.4C86.8998 57.3 87.4998 57 87.4998 56.7C87.4998 56.4 87.3998 56.1 87.1998 55.9Z" fill="#E8E6E8"/>
<path opacity="0.4" d="M109.8 30C109.8 29.8 108.9 30.1 108.9 30.3C108.9 30.7 109 31.2 109.5 31.4C109.7 31.5 109.9 31.4 110 31.3C110.1 31.3 110.4 31.1 110.3 31C110.1 30.7 109.9 30.4 109.8 30Z" fill="#E8E6E8"/>
<path opacity="0.4" d="M129.3 70.6C129.2 70.3 128.4 70.5 128.3 70.6C127.9 70.7 127.5 70.9 127.3 71.3C127 71.8 126.7 72.2 126.6 72.8C126.6 73 126.5 73.2 126.5 73.4C126.6 73.6 126.8 73.7 127 73.8C127.4 74.1 128.3 73.7 128.5 73.4C128.7 73.2 129 72.9 129.2 72.7C129.3 72.5 129.4 72.2 129.5 72C129.5 71.4 129.4 71 129.3 70.6Z" fill="#E8E6E8"/>
<path opacity="0.4" d="M215.3 55.9C215.3 55.8 215.3 55.7 215.2 55.7C215.2 55.6 215.2 55.5 215.1 55.5C215.1 55.4 215 55.3 214.9 55.3C214.8 55.1 214.4 55.2 214.2 55.3C214.1 55.4 213.9 55.4 213.8 55.5C213.7 55.5 213.6 55.6 213.7 55.7C213.7 55.8 213.8 55.9 213.8 55.9C213.9 56 213.9 56 214 56.1C214.2 56.2 214.3 56.4 214.5 56.4C214.7 56.4 215 56.3 215.2 56.2C215.3 56.1 215.3 56.1 215.3 55.9Z" fill="#E8E6E8"/>
<path opacity="0.4" d="M182.8 25.8C182.2 26 181.7 26.3 181.4 26.8C181.3 26.9 181.3 27.2 181.4 27.3C181.6 27.5 181.9 27.4 182 27.3C182.1 27.2 182.2 27.2 182.2 27.1C182.1 27.2 182 27.2 181.9 27.3C182.3 27.1 182.7 26.8 183 26.5C183.1 26.4 183.2 26.3 183.3 26.2C183.4 26.1 183.4 26 183.4 25.9C183.4 25.6 182.9 25.8 182.8 25.8Z" fill="#E8E6E8"/>
<g opacity="0.4">
<path d="M43.6997 26C43.7997 25.8 43.6997 25.7 43.5997 25.6C43.4997 25.4 43.2997 25.3 42.9997 25.2C42.4997 25 41.8997 25 41.3997 24.9C40.6997 24.8 39.9997 24.9 39.3997 24.7C39.0997 24.6 38.0997 24.8 38.0997 25.2C37.9997 25.7 37.5997 26 37.3997 26.5C37.2997 26.8 37.1997 27.3 37.1997 27.6C37.2997 28.1 37.7997 28.4 38.2997 28.5C39.2997 28.7 40.4997 28.4 41.4997 28C41.8997 27.9 42.1997 27.7 42.4997 27.4C42.6997 27.2 42.6997 27.1 42.7997 26.9C42.5997 26.4 42.8997 26.2 43.6997 26Z" fill="#E8E6E8"/>
<path d="M39.2999 31.6001C39.1999 31.5001 39.0999 31.5001 38.8999 31.4001C38.6999 31.4001 38.5999 31.4001 38.3999 31.4001C38.3999 31.4001 38.3999 31.4001 38.2999 31.4001H38.1999C38.0999 31.4001 38.0999 31.4001 37.9999 31.4001C37.8999 31.4001 37.6999 31.4001 37.5999 31.4001C37.2999 31.3001 36.8999 31.4001 36.5999 31.5001C36.3999 31.6001 35.9999 31.8001 35.9999 32.0001C35.8999 32.1001 35.8999 32.1001 35.8999 32.2001V32.3001C35.8999 32.4001 35.8999 32.4001 35.8999 32.5001C35.8999 32.6001 35.8999 32.7001 35.9999 32.8001C36.1999 33.3001 36.9999 33.1001 37.3999 33.0001C37.9999 32.9001 38.5999 32.7001 38.9999 32.4001C39.0999 32.2001 39.5999 31.7001 39.2999 31.6001Z" fill="#E8E6E8"/>
<path d="M39.1998 31.8C38.8998 32.2 38.5998 32.7 38.1998 33C37.7998 33.3 37.2998 33.5 36.7998 33.4C36.2998 33.3 35.7998 32.9 35.7998 32.4C36.1998 32.8 37.0998 33.1 37.5998 33C38.0998 32.8 38.7998 32.3 39.1998 31.8Z" fill="#E6C9C3"/>
<path d="M43.7999 26.3001C43.7999 26.2001 43.5999 26.1001 43.4999 26.2001C43.2999 26.2001 43.0999 26.3001 42.8999 26.3001C42.8999 26.3001 42.7999 26.3001 42.7999 26.4001C42.7999 26.4001 42.7999 26.5001 42.7999 26.6001C42.7999 27.0001 42.4999 27.4001 42.1999 27.6001C41.7999 27.8001 41.3999 27.9001 40.9999 28.0001C40.4999 28.1001 39.8999 28.1001 39.3999 28.2001C38.9999 28.2001 38.5999 28.2001 38.1999 28.1001C37.7999 28.0001 37.4999 27.6001 37.3999 27.2001C37.5999 27.7001 37.6999 28.4001 38.0999 28.7001C38.6999 29.1001 39.4999 29.0001 40.2999 28.9001C40.6999 28.8001 41.0999 28.7001 41.3999 28.6001C41.7999 28.4001 42.0999 28.1001 42.3999 27.8001C42.6999 27.2001 43.3999 26.6001 43.7999 26.3001Z" fill="#E6C9C3"/>
</g>
<path d="M55.1999 23.4C54.5999 24.4 53.4999 25.2 52.2999 25.3C51.9999 25.3 51.7999 25.3 51.4999 25.3C51.1999 25.2 50.9999 25 50.8999 24.8C50.9999 25.3 51.1999 25.8 51.6999 25.9C52.1999 26 52.6999 25.9 53.0999 25.7C53.4999 25.5 53.8999 25.1 54.1999 24.7C54.4999 24.3 54.8999 23.8 55.1999 23.4Z" fill="#E6C9C3"/>
<path opacity="0.4" d="M87.1998 56.9C86.8998 57.4 86.2998 57.8 85.6998 57.8C85.2998 57.8 84.3998 57.5 84.6998 57C85.4998 57.3 86.3998 57.2 87.1998 56.9Z" fill="#E6C9C3"/>
<path opacity="0.4" d="M201.5 29.1C201.9 28.9 202.2 28.4 202.5 28C202.5 28.7 202 29.4 201.3 29.6C200.9 29.7 199.6 29.5 199.9 29C200.4 29.2 201 29.4 201.5 29.1Z" fill="#E6C9C3"/>
<path opacity="0.4" d="M223.3 29.6C222.8 30.7 221.9 31.5 220.9 32.1C220.3 32.4 219.9 32.2 219.4 32C219.3 32 218.2 31.6 218.3 31.5C217.7 32 216.8 32.6 216.1 32.9C215.2 33.2 214.1 33.2 213.3 32.8C212.7 32.5 212.2 32 211.6 31.6C211 31.1 210.5 30.6 210 30C210.7 30.9 211.4 32.1 212.4 32.8C213.4 33.5 214.6 33.9 215.7 33.7C216.7 33.5 217.6 32.8 218.4 32.2C219.1 32.4 219.8 32.7 220.5 32.6C221.8 32.3 222.7 30.7 223.3 29.6Z" fill="#E6C9C3"/>
<path opacity="0.4" d="M249.6 62.1C249.3 63.1 248.5 63.9 247.6 64.5C246.7 65.1 245.7 65.4 244.7 65.8C243.2 66.3 242.4 66.6 241.3 65.3C241.5 65.6 241.8 65.9 242 66.1C242.9 67.2 244.6 66.5 245.6 66C246.4 65.6 247.2 65.2 247.9 64.6C248.7 64 249.4 63 249.6 62.1Z" fill="#E6C9C3"/>
<path opacity="0.4" d="M237.1 67.8C236.9 68.2 236.7 68.7 236.4 69C236.2 69.3 235.9 69.5001 235.6 69.6001C235.3 69.7001 234.9 69.7 234.6 69.5C234.3 69.3 234.1 68.9 233.8 68.9C234.2 69.2 235 69.4 235.5 69.4C235.6 69.4 235.7 69.4 235.8 69.4C235.9 69.4 236 69.3 236 69.2C236.4 68.8 236.8 68.3 237.1 67.8Z" fill="#E6C9C3"/>
<path opacity="0.4" d="M166.4 98.8C166 100.5 164 101.3 162.4 100.9C162.2 100.8 162 100.8 161.8 100.6C162.4 100.7 163.3 100.9 163.9 100.7C164.4 100.5 164.7 100.2 165.1 99.9C165.7 99.3 166.3 99.3 166.4 98.4C166.4 98.5 166.4 98.6 166.4 98.8Z" fill="#E6C9C3"/>
<path opacity="0.4" d="M171.5 99.2C171.6 100.2 171.8 101.4 172.8 101.8C173.4 102.1 174.4 102.1 175.1 102.2C177.2 102.4 179.4 101.1 180.6 99.4C180.8 99.9 181.3 100.4 181.9 100.4C182.8 100.5 183.6 99.6 183.8 98.8C183.8 99.7 183.2 100.6 182.4 100.8C181.6 101.1 180.6 100.8 180.1 100C180.3 100.2 179.3 101.2 179.2 101.3C178.8 101.7 178.3 102 177.8 102.2C176.9 102.5 176 102.5 175 102.5C174.2 102.4 173.1 102.4 172.3 102C171.8 101.7 171.3 101.2 171.3 100.6C171.4 100.1 171.5 99.7 171.5 99.2Z" fill="#E6C9C3"/>
<path opacity="0.4" d="M193.9 95.4C193.8 95.7 193.7 96.1 193.5 96.3C193.4 96.5 193.2 96.6 193.1 96.8C193 96.9 192.9 96.9 192.9 97C192.8 97.1 192.7 97.1 192.5 97.1C191.7 97.2 191 97.3 190.2 97.2C189.8 97.1 189.3 97 189.2 96.6C189.3 97 189.4 97.4 189.8 97.5C190.2 97.6 190.6 97.6 190.9 97.6C191.3 97.6 191.8 97.5 192.2 97.5C192.5 97.5 192.9 97.4 193.1 97.2C193.3 97 193.5 96.8 193.6 96.5C193.8 96 193.9 95.7 193.9 95.4Z" fill="#E6C9C3"/>
<path d="M254.6 61.9C253.1 61.2 251.8 60.1 250.5 59C249.5 58.2 248.6 57.5 247.5 56.8C247.4 56.7 247.2 56.6 247.1 56.6C246.9 56.6 246.8 56.6 246.7 56.7V56.8C246.7 56.8 246.7 56.9 246.8 56.9C247.6 57.8 248.5 58.7 249.4 59.5C250.5 60.5 251.7 61.6 253 62.3C251.9 63.2 250.9 64.3 249.8 65.3C249.2 65.8 248.6 66.3 248.1 66.9C247.9 67.2 247.6 67.4 247.3 67.6C247.1 67.8 246.6 68.1 246.6 68.4C246.5 68.9 247.7 68.5 247.8 68.4C248.6 68.1 249.1 67.4 249.8 66.9C250.4 66.4 251 65.8 251.6 65.3C252.7 64.3 254 63.2 254.8 62C254.8 62 254.7 61.9 254.6 61.9Z" fill="#E6C9C3"/>
<path d="M254.5 45C254.5 44.6 254.6 43.7 254.2 43.5C253.8 43.3 253 43.5 252.6 43.6C251.2 43.8 249.9 44.1 248.5 44.5C247.1 44.9 245.7 45.3 244.5 46C244 46.2 243.7 46.5 244 47.1C244.5 47.8 245.1 48.4 245.6 49.1C246.6 50.3 247.5 51.6 248.7 52.5C249.1 52.7 250.4 52.4 250.5 51.9C250.8 50.4 251.1 49 251.3 47.5C251.4 46.9 249.1 47.4 249.1 48.1C249.1 48.8 249 49.6 248.9 50.3C248.6 50 248.4 49.7 248.1 49.4C247.3 48.5 246.6 47.6 245.8 46.6C245.4 46.1 245.5 46.3 246 46.1C246.2 46 246.5 45.9 246.7 45.8C247.3 45.6 247.8 45.4 248.4 45.2C249.5 44.9 250.6 44.6 251.8 44.4C251.9 44.4 252.6 44.2 252.7 44.3C252.7 44.3 252.7 44.9 252.7 44.8C252.7 45.4 252.7 46.1 252.8 46.7C252.8 47.9 252.8 49.2 252.7 50.4C252.6 51.7 252.6 53 252.5 54.2C252.5 54.8 252.4 55.5 252.3 56.1C252.3 56.4 252.2 56.6 252.2 56.9C251.6 56.6 251.1 56.3 250.5 56C249.9 55.7 249.5 55.2 249 54.8C248.7 54.6 247.4 53.1 247.2 54C247.1 54.4 247.6 54.8 247.8 55C248.5 55.7 249.4 56.3 250.2 56.8C250.5 57 250.8 57.2 251.1 57.4C251.3 57.6 251.6 57.8 251.8 57.9C252.2 58 252.8 57.7 253.1 57.5C253.5 57.2 253.6 56.8 253.6 56.4C253.7 55.6 253.9 54.8 254 54C254.2 52.6 254.4 51.1 254.4 49.7C254.5 48.1 254.5 46.6 254.5 45Z" fill="#E6C9C3"/>
<path d="M255.2 80.4C255.2 80.8 255.4 81.7 254.9 82C254.5 82.3 253.7 82 253.3 82C251.9 81.8 250.6 81.6 249.2 81.2C247.8 80.9 246.4 80.5 245.1 79.9C244.6 79.7 244.2 79.4 244.6 78.9C245 78.2 245.6 77.6 246.1 76.9C247 75.7 247.9 74.4 249.1 73.4C249.5 73.1 250.8 73.4 250.9 73.9C251.3 75.4 251.6 76.7 251.8 78.2C251.9 78.8 249.6 78.4 249.6 77.7C249.5 77 249.5 76.2 249.4 75.5C249.1 75.8 248.9 76.1 248.6 76.4C247.9 77.3 247.1 78.3 246.4 79.2C246.1 79.7 246.1 79.6 246.6 79.7C246.8 79.8 247.1 79.9 247.3 80C247.9 80.2 248.4 80.4 249 80.5C250.1 80.8 251.3 81 252.4 81.2C252.5 81.2 253.2 81.4 253.3 81.3C253.3 81.3 253.3 80.7 253.3 80.8C253.3 80.2 253.3 79.5 253.3 78.9C253.3 77.7 253.2 76.4 253.1 75.2C253 73.9 252.9 72.6 252.8 71.4C252.7 70.8 252.7 70.1 252.6 69.5C252.6 69.2 252.5 69 252.5 68.7C251.7 69.2 251.1 69.6 250.4 70.2C249.7 70.8 249 71.4 248.3 72C248.2 72.1 248.1 72.1 248 72.1C247.7 72.2 247.5 71.8 247.5 71.6C247.5 71.3 247.7 71.1 247.9 70.9C248.7 70.2 249.6 69.4 250.4 68.8C250.7 68.6 251 68.4 251.3 68.2C251.5 68 251.8 67.8 252 67.7C252.4 67.6 253 67.8 253.3 68.1C253.7 68.4 253.8 68.8 253.9 69.2C254.1 70 254.2 70.8 254.3 71.6C254.5 73 254.7 74.5 254.8 75.9C255.2 77.3 255.3 78.9 255.2 80.4Z" fill="#E6C9C3"/>
<path d="M254.2 61.2C252.7 60.5 251.4 59.4 250.1 58.3C249.1 57.5 248.2 56.8 247.1 56.1C247 56 246.8 55.9 246.7 55.9C246.5 55.9 246.4 55.9 246.3 56V56.1C246.3 56.1 246.3 56.2 246.4 56.2C247.2 57.1 248.1 58 249 58.8C250.1 59.8 251.3 60.9 252.6 61.6C251.5 62.5 250.5 63.6 249.4 64.6C248.8 65.1 248.2 65.6 247.7 66.2C247.5 66.5 247.2 66.7 246.9 66.9C246.7 67.1 246.2 67.4 246.2 67.7C246.1 68.2 247.3 67.8 247.4 67.7C248.2 67.4 248.7 66.7 249.4 66.2C250 65.7 250.6 65.1 251.2 64.6C252.3 63.6 253.6 62.5 254.4 61.3C254.5 61.3 254.3 61.2 254.2 61.2Z" fill="#6D5873"/>
<path d="M254.1 44.4C254.1 44 254.2 43.1 253.8 42.9C253.4 42.7 252.6 42.9 252.2 43C250.8 43.2 249.5 43.5 248.1 43.9C246.7 44.3 245.3 44.7 244.1 45.4C243.6 45.6 243.3 45.9 243.6 46.5C244.1 47.2 244.7 47.8 245.2 48.5C246.2 49.7 247.1 51 248.3 51.9C248.7 52.1 250 51.8 250.1 51.3C250.4 49.8 250.7 48.4 250.9 46.9C251 46.3 248.7 46.8 248.7 47.5C248.7 48.2 248.6 49 248.5 49.7C248.2 49.4 248 49.1 247.7 48.8C246.9 47.9 246.2 47 245.4 46C245 45.5 245.1 45.7 245.6 45.5C245.8 45.4 246.1 45.3 246.3 45.2C246.9 45 247.4 44.8 248 44.6C249.1 44.3 250.2 44 251.4 43.8C251.5 43.8 252.2 43.6 252.3 43.7C252.3 43.7 252.3 44.3 252.3 44.2C252.3 44.8 252.3 45.5 252.4 46.1C252.4 47.3 252.4 48.6 252.3 49.8C252.2 51.1 252.2 52.4 252.1 53.6C252.1 54.2 252 54.9 251.9 55.5C251.9 55.8 251.8 56 251.8 56.3C251.2 56 250.7 55.7 250.1 55.4C249.5 55.1 249.1 54.6 248.6 54.2C248.3 54 247 52.5 246.8 53.4C246.7 53.8 247.2 54.2 247.4 54.4C248.1 55.1 249 55.7 249.8 56.2C250.1 56.4 250.4 56.6 250.7 56.8C250.9 57 251.2 57.2 251.4 57.3C251.8 57.4 252.4 57.1 252.7 56.9C253.1 56.6 253.2 56.2 253.2 55.8C253.3 55 253.5 54.2 253.6 53.4C253.8 52 254 50.5 254 49.1C254.1 47.4 254.1 45.9 254.1 44.4Z" fill="#6D5873"/>
<path d="M254.9 79.8C254.9 80.2 255.1 81.1 254.6 81.4C254.2 81.7 253.4 81.4 253 81.4C251.6 81.2 250.3 81 248.9 80.6C247.5 80.3 246.1 79.9 244.8 79.3C244.3 79.1 243.9 78.8 244.3 78.3C244.7 77.6 245.3 77 245.8 76.3C246.7 75.1 247.6 73.8 248.8 72.8C249.2 72.5 250.5 72.8 250.6 73.3C251 74.8 251.3 76.1 251.5 77.6C251.6 78.2 249.3 77.8 249.3 77.1C249.2 76.4 249.2 75.6 249.1 74.9C248.8 75.2 248.6 75.5 248.3 75.8C247.6 76.7 246.8 77.7 246.1 78.6C245.8 79.1 245.8 79 246.3 79.1C246.5 79.2 246.8 79.3 247 79.4C247.6 79.6 248.1 79.8 248.7 79.9C249.8 80.2 251 80.4 252.1 80.6C252.2 80.6 252.9 80.8 253 80.7C253 80.7 253 80.1 253 80.2C253 79.6 253 78.9 253 78.3C253 77.1 252.9 75.8 252.8 74.6C252.7 73.3 252.6 72 252.5 70.8C252.4 70.2 252.4 69.5 252.3 68.9C252.3 68.6 252.2 68.4 252.2 68.1C251.4 68.6 250.8 69 250.1 69.6C249.4 70.2 248.7 70.8 248 71.4C247.9 71.5 247.8 71.5 247.7 71.5C247.4 71.6 247.2 71.2 247.2 71C247.2 70.7 247.4 70.5 247.6 70.3C248.4 69.6 249.3 68.8 250.1 68.2C250.4 68 250.7 67.8 251 67.6C251.2 67.4 251.5 67.2 251.7 67.1C252.1 67 252.7 67.2 253 67.5C253.4 67.8 253.5 68.2 253.6 68.6C253.8 69.4 253.9 70.2 254 71C254.2 72.4 254.4 73.9 254.5 75.3C254.8 76.7 254.9 78.2 254.9 79.8Z" fill="#6D5873"/>
<path d="M16.4 60.2C17.9 59.5 19.2 58.4 20.5 57.3C21.5 56.5 22.4 55.8 23.5 55.1C23.6 55 23.8 54.9 23.9 54.9C24.1 54.9 24.1999 54.9 24.2999 55V55.1C24.2999 55.1 24.3 55.2 24.2 55.2C23.4 56.1 22.4999 57 21.5999 57.8C20.4999 58.8 19.3 59.9 18 60.6C19.1 61.5 20.1 62.6 21.2 63.6C21.8 64.1 22.4 64.6 22.9 65.2C23.1 65.5 23.4 65.7 23.7 65.9C23.9 66.1 24.4 66.4 24.4 66.7C24.5 67.2 23.3 66.8 23.2 66.7C22.4 66.4 21.9 65.7 21.2 65.2C20.6 64.7 20 64.1 19.4 63.6C18.3 62.6 17 61.5 16.2 60.3C16.2 60.3 16.4 60.3 16.4 60.2Z" fill="#E6C9C3"/>
<path d="M16.6 43.4C16.6 43 16.5 42.1 16.9 41.9C17.3 41.7 18.1 41.9 18.5 42C19.9 42.2 21.2 42.5 22.6 42.9C24 43.3 25.4 43.7 26.6 44.4C27.1 44.6 27.4 44.9 27.1 45.5C26.6 46.2 26 46.8 25.5 47.5C24.5 48.7 23.6 50 22.4 50.9C22 51.1 20.7 50.8 20.6 50.3C20.3 48.8 20 47.4 19.8 45.9C19.7 45.3 22 45.8 22 46.5C22 47.2 22.1 48 22.2 48.7C22.5 48.4 22.7 48.1 23 47.8C23.8 46.9 24.5 46 25.3 45C25.7 44.5 25.6 44.7 25.1 44.5C24.9 44.4 24.6 44.3 24.4 44.2C23.8 44 23.3 43.8 22.7 43.6C21.6 43.3 20.5 43 19.3 42.8C19.2 42.8 18.5 42.6 18.4 42.7C18.4 42.7 18.4 43.3 18.4 43.2C18.4 43.8 18.4 44.5 18.3 45.1C18.3 46.3 18.3 47.6 18.4 48.8C18.5 50.1 18.5 51.4 18.6 52.6C18.6 53.2 18.7 53.9 18.8 54.5C18.8 54.8 18.9 55 18.9 55.3C19.5 55 20 54.7 20.6 54.4C21.2 54.1 21.6 53.6 22.1 53.2C22.4 53 23.7 51.5 23.9 52.4C24 52.8 23.5 53.2 23.3 53.4C22.6 54.1 21.7 54.7 20.9 55.2C20.6 55.4 20.3 55.6 20 55.8C19.8 56 19.5 56.2 19.3 56.3C18.9 56.4 18.3 56.1 18 55.9C17.6 55.6 17.5 55.2 17.5 54.8C17.4 54 17.2 53.2 17.1 52.4C16.9 51 16.7 49.5 16.7 48.1C16.6 46.5 16.5 44.9 16.6 43.4Z" fill="#E6C9C3"/>
<path d="M15.8 78.8C15.8 79.2 15.6 80.1 16.1 80.4C16.5 80.7 17.3 80.4 17.7 80.4C19.1 80.2 20.4 80 21.8 79.6C23.2 79.3 24.6 78.9 25.9 78.3C26.4 78.1 26.8 77.8 26.4 77.3C26 76.6 25.4 76 24.9 75.3C24 74.1 23.1 72.8 21.9 71.8C21.5 71.5 20.2 71.8 20.1 72.3C19.7 73.8 19.4 75.1 19.2 76.6C19.1 77.2 21.4 76.8 21.4 76.1C21.5 75.4 21.5 74.6 21.6 73.9C21.9 74.2 22.1 74.5 22.4 74.8C23.1 75.7 23.9 76.7 24.6 77.6C24.9 78.1 24.9 78 24.4 78.1C24.2 78.2 23.9 78.3 23.7 78.4C23.1 78.6 22.6 78.8 22 78.9C20.9 79.2 19.7 79.4 18.6 79.6C18.5 79.6 17.8 79.8 17.7 79.7C17.7 79.7 17.7 79.1 17.7 79.2C17.7 78.6 17.7 77.9 17.7 77.3C17.7 76.1 17.8 74.8 17.9 73.6C18 72.3 18.1 71 18.2 69.8C18.3 69.2 18.3 68.5 18.4 67.9C18.4 67.6 18.5 67.4 18.5 67.1C19.3 67.6 19.9 68 20.6 68.6C21.3 69.2 22 69.8 22.7 70.4C22.8 70.5 22.9 70.5 23 70.5C23.3 70.6 23.5 70.2 23.5 70C23.5 69.8 23.3 69.5 23.1 69.3C22.3 68.6 21.4 67.8 20.6 67.2C20.3 67 20 66.8 19.7 66.6C19.5 66.4 19.2 66.2 19 66.1C18.6 66 18 66.2 17.7 66.5C17.3 66.8 17.2 67.2 17.1 67.6C16.9 68.4 16.8 69.2 16.7 70C16.5 71.4 16.3 72.9 16.2 74.3C15.8 75.7 15.8 77.2 15.8 78.8Z" fill="#E6C9C3"/>
<path d="M16.2999 59.4C17.7999 58.7 19.0999 57.6 20.3999 56.5C21.3999 55.7 22.2999 55 23.3999 54.3C23.4999 54.2 23.6999 54.1 23.7999 54.1C23.9999 54.1 24.0999 54.1 24.1999 54.2V54.3C24.1999 54.3 24.1999 54.4 24.0999 54.4C23.2999 55.3 22.3999 56.2 21.4999 57C20.3999 58 19.1999 59.1 17.8999 59.8C18.9999 60.7 19.9999 61.8 21.0999 62.8C21.6999 63.3 22.2999 63.8 22.7999 64.4C22.9999 64.7 23.2999 64.9 23.5999 65.1C23.7999 65.3 24.2999 65.6 24.2999 65.9C24.3999 66.4 23.1999 66 23.0999 65.9C22.2999 65.6 21.7999 64.9 21.0999 64.4C20.4999 63.9 19.8999 63.3 19.2999 62.8C18.1999 61.8 16.8999 60.7 16.0999 59.5C16.0999 59.5 16.2999 59.5 16.2999 59.4Z" fill="#6D5873"/>
<path d="M16.5 42.6C16.5 42.2 16.4 41.3 16.8 41.1C17.2 40.9 18 41.1 18.4 41.2C19.8 41.4 21.1 41.7 22.5 42.1C23.9 42.5 25.3 42.9 26.5 43.6C27 43.8 27.3 44.1 27 44.7C26.5 45.4 25.9 46 25.4 46.7C24.4 47.9 23.5 49.2 22.3 50.1C21.9 50.3 20.6 50 20.5 49.5C20.2 48 19.9 46.6 19.7 45.1C19.6 44.5 21.9 45 21.9 45.7C21.9 46.4 22 47.2 22.1 47.9C22.4 47.6 22.6 47.3 22.9 47C23.7 46.1 24.4 45.2 25.2 44.2C25.6 43.7 25.5 43.9 25 43.7C24.8 43.6 24.5 43.5 24.3 43.4C23.7 43.2 23.2 43 22.6 42.8C21.5 42.5 20.4 42.2 19.2 42C19.1 42 18.4 41.8 18.3 41.9C18.3 41.9 18.3 42.5 18.3 42.4C18.3 43 18.3 43.7 18.2 44.3C18.2 45.5 18.2 46.8 18.3 48C18.4 49.3 18.4 50.6 18.5 51.8C18.5 52.4 18.6 53.1 18.7 53.7C18.7 54 18.8 54.2 18.8 54.5C19.4 54.2 19.9 53.9 20.5 53.6C21.1 53.3 21.5 52.8 22 52.4C22.3 52.2 23.6 50.7 23.8 51.6C23.9 52 23.4 52.4 23.2 52.6C22.5 53.3 21.6 53.9 20.8 54.4C20.5 54.6 20.2 54.8 19.9 55C19.7 55.2 19.4 55.4 19.2 55.5C18.8 55.6 18.2 55.3 17.9 55.1C17.5 54.8 17.4 54.4 17.4 54C17.3 53.2 17.1 52.4 17 51.6C16.8 50.2 16.6 48.7 16.6 47.3C16.4 45.7 16.4 44.1 16.5 42.6Z" fill="#6D5873"/>
<path d="M15.6999 78.0001C15.6999 78.4001 15.4999 79.3001 15.9999 79.6001C16.3999 79.9001 17.1999 79.6001 17.5999 79.6001C18.9999 79.4001 20.2999 79.2001 21.6999 78.8001C23.0999 78.5001 24.4999 78.1001 25.7999 77.5001C26.2999 77.3001 26.6999 77.0001 26.2999 76.5001C25.8999 75.8001 25.2999 75.2001 24.7999 74.5001C23.8999 73.3001 22.9999 72.0001 21.7999 71.0001C21.3999 70.7001 20.0999 71.0001 19.9999 71.5001C19.5999 73.0001 19.2999 74.3001 19.0999 75.8001C18.9999 76.4001 21.2999 76.0001 21.2999 75.3001C21.3999 74.6001 21.3999 73.8001 21.4999 73.1001C21.7999 73.4001 21.9999 73.7001 22.2999 74.0001C22.9999 74.9001 23.7999 75.9001 24.4999 76.8001C24.7999 77.3001 24.7999 77.2001 24.2999 77.3001C24.0999 77.4001 23.7999 77.5001 23.5999 77.6001C22.9999 77.8001 22.4999 78.0001 21.8999 78.1001C20.7999 78.4001 19.5999 78.6001 18.4999 78.8001C18.3999 78.8001 17.6999 79.0001 17.5999 78.9001C17.5999 78.9001 17.5999 78.3001 17.5999 78.4001C17.5999 77.8001 17.5999 77.1001 17.5999 76.5001C17.5999 75.3001 17.6999 74.0001 17.7999 72.8001C17.8999 71.5001 17.9999 70.2001 18.0999 69.0001C18.1999 68.4001 18.1999 67.7001 18.2999 67.1001C18.2999 66.8001 18.3999 66.6001 18.3999 66.3001C19.1999 66.8001 19.7999 67.2001 20.4999 67.8001C21.1999 68.4001 21.8999 69.0001 22.5999 69.6001C22.6999 69.7001 22.7999 69.7001 22.8999 69.7001C23.1999 69.8001 23.3999 69.4001 23.3999 69.2001C23.3999 68.9001 23.1999 68.7001 22.9999 68.5001C22.1999 67.8001 21.2999 67.0001 20.4999 66.4001C20.1999 66.2001 19.8999 66.0001 19.5999 65.8001C19.3999 65.6001 19.0999 65.4001 18.8999 65.3001C18.4999 65.2001 17.8999 65.4001 17.5999 65.7001C17.1999 66.0001 17.0999 66.4001 16.9999 66.8001C16.7999 67.6001 16.6999 68.4001 16.5999 69.2001C16.3999 70.6001 16.1999 72.1001 16.0999 73.5001C15.6999 74.9001 15.6999 76.4001 15.6999 78.0001Z" fill="#6D5873"/>
<defs>
<linearGradient id="paint0_linear_9_6129" x1="134.247" y1="-16.8873" x2="135.608" y2="130.765" gradientUnits="userSpaceOnUse">
<stop stop-color="#965485"/>
<stop offset="0.6592" stop-color="#2F2959"/>
<stop offset="1" stop-color="#0A4A6B"/>
</linearGradient>
<linearGradient id="paint1_linear_9_6129" x1="134.74" y1="45.1691" x2="138.702" y2="369.104" gradientUnits="userSpaceOnUse">
<stop stop-color="#A66F94"/>
<stop offset="1" stop-color="#362C54"/>
</linearGradient>
<linearGradient id="paint2_linear_9_6129" x1="135.846" y1="173.22" x2="135.329" y2="-8.55727" gradientUnits="userSpaceOnUse">
<stop stop-color="#965485"/>
<stop offset="1" stop-color="#2F2959"/>
</linearGradient>
<linearGradient id="paint3_linear_9_6129" x1="196.153" y1="115.502" x2="196.144" y2="112.491" gradientUnits="userSpaceOnUse">
<stop stop-color="#965485"/>
<stop offset="1" stop-color="#2F2959"/>
</linearGradient>
<radialGradient id="paint4_radial_9_6129" cx="0" cy="0" r="1" gradientUnits="userSpaceOnUse" gradientTransform="translate(138.359 -14.081) scale(339.77 339.77)">
<stop stop-color="#CCAAAC"/>
<stop offset="1" stop-color="#6C6778"/>
</radialGradient>
</defs>
</svg>
