<svg width="37" height="42" viewBox="0 0 37 42" fill="none" xmlns="http://www.w3.org/2000/svg">
<path d="M2.30002 3.70001C0.600017 6.20001 1.00001 9.40002 0.700012 12.3C0.700012 12.7 0.700019 12.9 0.800018 13.2C1.00002 13.8 1.6 14.1 2 14.7C2.1 14.8 2.20001 15 2.20001 15.1C2.20001 15.2 2.1 15.4 2 15.5C0.799999 16.9 0.499999 17.9 0.499999 19.1L0.499999 19.2C0.499999 20 0.499999 20.7 0.499999 21.5L0.499999 21.7C0.499999 24.7 0.800025 27.9 0.900023 31C1.00002 33.9 0.50001 36.9 2.20001 39.5C2.70001 40.3 3.6 40.9 4.6 41.2C4.9 41.3 5.30001 41.3 5.6 41.3C6.9 41.3 8.50001 40.5 9.70001 40C12.2 38.9 13 38.2 14.5 35.9C14.7 35.6 14.9 35.2 15.3 35.1C16.6 34.8 17.7 35.1 19.1 34.4C20.5 33.7 22.3 32.7 23.5 31.7C23.7 31.6 23.9 31.4 24.1 31.3C27.4 28.8 33.2 25.8 34.2 21.5C33.3 17.8 29.5 15.5 26.6 13.4C22.8 10.7 18.9 8.40001 14.9 6.00001C11.7 4.10001 8.50002 2.30002 4.80002 1.80002C3.70002 2.30002 2.80002 2.90001 2.30002 3.70001Z" fill="#E8E6E8"/>
<path d="M8.49998 40C8.19998 40 7.79998 40 7.49998 39.9C6.49998 39.7 5.69999 39.1 5.09999 38.2C3.29999 35.7 3.9 32.6 3.8 29.7C3.7 26.6 3.40001 23.4 3.40001 20.4L3.40001 20.2C3.40001 19.4 3.40001 18.7 3.40001 17.9L3.40001 17.8C3.50001 16.6 3.80001 15.5 4.90001 14.2C5.00001 14.1 5.09999 13.9 5.09999 13.8C5.09999 13.6 5.00001 13.5 4.90001 13.4C4.40001 12.8 3.9 12.5 3.7 11.9C3.6 11.6 3.59999 11.4 3.59999 11C3.89999 8.20001 3.4 4.90001 5.2 2.40001C5.7 1.60001 6.59999 1.00001 7.59999 0.700011C11.3 1.20001 14.5 3.00001 17.7 4.90001C21.7 7.20001 25.7 9.60002 29.4 12.3C32.3 14.3 36.1 16.7 37 20.4C35.9 24.7 30.1 27.7 26.9 30.2C26.7 30.3 26.5 30.5 26.3 30.6C25.1 31.6 23.3 32.6 21.9 33.3C20.5 34 19.5 33.6 18.1 34C17.7 34.1 17.5 34.4 17.3 34.8C15.8 37.1 15 37.8 12.5 38.9C11.4 39.2 9.79998 39.9 8.49998 40Z" fill="url(#paint0_linear_9_6453)"/>
<path d="M7.90002 32.5C7.90002 32.2 7.90002 31.8 7.90002 31.5C7.90002 31.1 7.90002 30.8 7.90002 30.4C7.90002 30.1 7.90002 29.8 7.90002 29.5C7.90002 28.1 7.80001 26.7 7.70001 25.3C7.60001 23.5 7.5 21.8 7.5 20.2L7.5 19.9C7.5 19.2 7.5 18.5 7.5 17.7C7.5 17.3 7.60001 17.1 8.10001 16.5C8.9 15.6 9.20001 14.6 9.20001 13.5C9.20001 12.4 8.80001 11.4 8.10001 10.5C7.90001 10.3 7.80001 10.2 7.70001 10.1C7.70001 9.59999 7.80002 9 7.80002 8.5C7.80002 7.7 7.4 5.59999 8 4.89999C8.6 4.19999 9.60003 4.9 10.4 5.2C10.7 5.3 11.1 5.49999 11.4 5.59999C12.9 6.29999 14.2 7.1 15.6 8C19.4 10.2 23.3 12.6 27.1 15.2L28 15.8C29.2 16.7 32.1 18.2 32.2 20.1C32.2 21.9 28.4 23.9 27 24.8C26.1 25.4 25.3 26 24.5 26.6C24.3 26.7 24.1 26.9 23.9 27.1C23.1 27.8 21.7 28.6 20.3 29.3C20.2 29.3 19.9 29.4 19.6 29.4C19 29.4 18.2 29.5 17.3 29.7C17.2 29.7 17.2 29.7 17.1 29.8C15.9 30.2 15 30.9 14.5 31.5C14.3 31.7 14.1 32 14 32.1C14 32.1 14 32.2 13.9 32.2C12.9 33.8 12.7 33.9 10.9 34.7L10.5 34.9C8.5 36.1 7.90002 34.4 7.90002 32.5Z" fill="url(#paint1_linear_9_6453)"/>
<path d="M7.90002 32.5C7.90002 32.2 7.90002 31.8 7.90002 31.5C7.90002 31.1 7.90002 30.8 7.90002 30.4C7.90002 30.1 7.90002 29.8 7.90002 29.5C7.90002 28.1 7.80001 26.7 7.70001 25.3C7.60001 23.5 7.5 21.8 7.5 20.2L7.5 19.9C7.5 19.2 7.5 18.5 7.5 17.7C7.5 17.3 7.60001 17.1 8.10001 16.5C8.9 15.6 9.20001 14.6 9.20001 13.5C9.20001 12.4 8.80001 11.4 8.10001 10.5C7.90001 10.3 7.80001 10.2 7.70001 10.1C7.70001 9.59999 7.80002 9 7.80002 8.5C7.80002 7.7 7.4 5.59999 8 4.89999C8.6 4.19999 9.60003 4.9 10.4 5.2C10.7 5.3 11.1 5.49999 11.4 5.59999C12.9 6.29999 14.2 7.1 15.6 8C19.4 10.2 23.3 12.6 27.1 15.2L28 15.8C29.2 16.7 32.1 18.2 32.2 20.1C32.2 21.9 28.4 23.9 27 24.8C26.1 25.4 25.3 26 24.5 26.6C24.3 26.7 24.1 26.9 23.9 27.1C23.1 27.8 21.7 28.6 20.3 29.3C20.2 29.3 19.9 29.4 19.6 29.4C19 29.4 18.2 29.5 17.3 29.7C17.2 29.7 17.2 29.7 17.1 29.8C15.9 30.2 15 30.9 14.5 31.5C14.3 31.7 14.1 32 14 32.1C14 32.1 14 32.2 13.9 32.2C12.9 33.8 12.7 33.9 10.9 34.7L10.5 34.9C8.5 36.1 7.90002 34.4 7.90002 32.5Z" fill="url(#paint2_radial_9_6453)"/>
<path d="M7.90002 32.5C7.90002 32.2 7.90002 31.8 7.90002 31.5C7.90002 31.1 7.90002 30.8 7.90002 30.4C7.90002 30.1 7.90002 29.8 7.90002 29.5C7.90002 28.1 7.80001 26.7 7.70001 25.3C7.60001 23.5 7.5 21.8 7.5 20.2L7.5 19.9C7.5 19.2 7.5 18.5 7.5 17.7C7.5 17.3 7.60001 17.1 8.10001 16.5C8.9 15.6 9.20001 14.6 9.20001 13.5C9.20001 12.4 8.80001 11.4 8.10001 10.5C7.90001 10.3 7.80001 10.2 7.70001 10.1C7.70001 9.59999 7.80002 9 7.80002 8.5C7.80002 7.7 7.4 5.59999 8 4.89999C8.6 4.19999 9.60003 4.9 10.4 5.2C10.7 5.3 11.1 5.49999 11.4 5.59999C12.9 6.29999 14.2 7.1 15.6 8C19.4 10.2 23.3 12.6 27.1 15.2L28 15.8C29.2 16.7 32.1 18.2 32.2 20.1C32.2 21.9 28.4 23.9 27 24.8C26.1 25.4 25.3 26 24.5 26.6C24.3 26.7 24.1 26.9 23.9 27.1C23.1 27.8 21.7 28.6 20.3 29.3C20.2 29.3 19.9 29.4 19.6 29.4C19 29.4 18.2 29.5 17.3 29.7C17.2 29.7 17.2 29.7 17.1 29.8C15.9 30.2 15 30.9 14.5 31.5C14.3 31.7 14.1 32 14 32.1C14 32.1 14 32.2 13.9 32.2C12.9 33.8 12.7 33.9 10.9 34.7L10.5 34.9C8.5 36.1 7.90002 34.4 7.90002 32.5Z" fill="#F8FD00"/>
<path d="M17.2 29.9C17.1 29.9 17.1 29.9 17 30C17.7 29.6 18.5 29.3 19.3 29C20 28.8 20.7 28.6 21.3 28.3C22.2 27.9 23 27.2 23.8 26.5C26 24.6 28.2 22.7 30.4 20.7C30.6 20.5 30.8 20.4 30.8 20.1C30.8 19.9 30.7 19.7 30.6 19.5C29.5 17.8 27.8 16.7 26.2 15.6C24.3 14.4 22.5 13.1 20.6 11.8C20 11.4 19.5 11 18.7 10.8C18.1 10.6 17.4 10.7 16.9 10.2C16.7 9.89999 16.6 9.6 16.4 9.3C16 8.6 15.3 8.1 14.6 7.8C13.9 7.5 13.1 7.09999 12.5 6.59999C13 6.19999 15 7.79999 15.5 8.09999C19.3 10.3 23.2 12.7 27 15.3L27.9 15.9C29.1 16.8 32 18.3 32.1 20.2C32.1 22 28.3 24 26.9 24.9C26 25.5 25.2 26.1 24.4 26.7C24.2 26.8 24 27 23.8 27.2C23 27.9 21.6 28.7 20.2 29.4C20.1 29.4 19.8 29.5 19.5 29.5C18.9 29.7 18.1 29.7 17.2 29.9Z" fill="#CCA5B3"/>
<path d="M14 32.4C13.7 32.6 13.4 32.8 13.1 33.1C13.5 32.6 14 32.2 14.5 31.8C14.2 32 14.1 32.2 14 32.4Z" fill="#CCA5B3"/>
<path opacity="0.4" d="M15.3 28C16 27.9 16.8 27.6 17.4 27.2C17.7 26.9 18 26.7 18.2 26.3C18.5 25.7 18.5 25.1 18.5 24.5C18.4 23.2 17.9 21.9 17.1 20.8C16.8 20.4 16.4 20.1 15.9 19.9C15.2 19.6 14.3 19.8 13.8 20.2C13.6 20.3 13.4 20.5 13.2 20.7C13 20.7 12.9 20.8 12.7 20.8C12.4 20.9 12.1 21.1 11.8 21.3C11.5 21.5 11.2 21.8 11 22.2C10.7 22.9 10.8 23.7 11 24.5C11.3 25.6 11.8 26.7 12.6 27.5C13.4 28.1 14.3 28.2 15.3 28Z" fill="#E8E6E8"/>
<path opacity="0.4" d="M15 17.9C15.1 17.9 15.1 17.9 15.2 17.9L15.3 17.9C15.3 17.9 15.4 17.9 15.4 17.8L15.5 17.7C15.6 17.7 15.6 17.6 15.7 17.6C15.8 17.6 15.8 17.5 15.9 17.5C16 17.5 15.9 17.4 15.9 17.3C15.9 17.2 15.8 17.1 15.8 17C15.6 16.8 15.5 16.6 15.3 16.5C15.2 16.4 15.1 16.4 15.1 16.3C15 16.3 15 16.2 14.9 16.2L14.8 16.2C14.7 16.2 14.6 16.2 14.5 16.2C14.5 16.2 14.4 16.2 14.3 16.2C14.3 16.2 14.2 16.2 14.2 16.3C14.2 16.3 14.2 16.3 14.2 16.4C14.1 16.6 14 16.7 13.9 16.9C13.8 17 13.9 17.2 13.9 17.4C13.9 17.5 14 17.7 14.2 17.8C14.4 17.9 14.5 17.9 14.7 18C14.8 18.1 14.9 18.1 15 18.1C14.9 17.9 15 17.9 15 17.9Z" fill="#E8E6E8"/>
<path opacity="0.4" d="M22 23.8C22.1 23.8 22.1 23.8 22.1 23.8C22.2 23.7 22.2 23.5 22.3 23.4C22.3 23.3 22.3 23.2 22.3 23.1C22.3 23 22.3 22.9 22.2 22.8C22.2 22.7 22.1 22.6 22.1 22.5C22.1 22.5 22 22.4 21.9 22.4C21.8 22.4 21.7 22.5 21.6 22.5C21.6 22.5 21.6 22.5 21.6 22.6L21.6 22.7L21.6 22.8C21.6 22.9 21.5 23 21.5 23.1L21.5 23.2C21.5 23.3 21.5 23.3 21.5 23.3C21.5 23.4 21.5 23.5 21.6 23.6C21.6 23.7 21.7 23.7 21.7 23.8C21.7 23.8 21.8 23.9 21.9 23.9C21.9 23.9 21.9 23.9 22 23.8Z" fill="#E8E6E8"/>
<defs>
<linearGradient id="paint0_linear_9_6453" x1="44.5426" y1="19.8884" x2="-14.6783" y2="20.5851" gradientUnits="userSpaceOnUse">
<stop stop-color="#965485"/>
<stop offset="1" stop-color="#2F2959"/>
</linearGradient>
<linearGradient id="paint1_linear_9_6453" x1="37.6957" y1="19.8186" x2="-24.2022" y2="20.53" gradientUnits="userSpaceOnUse">
<stop stop-color="#A66F94"/>
<stop offset="1" stop-color="#362C54"/>
</linearGradient>
<radialGradient id="paint2_radial_9_6453" cx="0" cy="0" r="1" gradientUnits="userSpaceOnUse" gradientTransform="translate(39.2164 19.4212) rotate(90) scale(36.4413 130.077)">
<stop stop-color="#FFFBFB"/>
<stop offset="1" stop-color="#6C6778"/>
</radialGradient>
</defs>
</svg>
