<svg width="37" height="42" viewBox="0 0 37 42" fill="none" xmlns="http://www.w3.org/2000/svg">
<path d="M32.4266 39.55C34.2266 37.05 33.6266 33.95 33.7266 31.05C33.9266 24.65 34.1266 18.45 33.9266 12.05C33.8266 9.25002 34.0266 6.05003 32.4266 3.75003C31.9266 2.95003 31.0266 2.35002 30.0266 2.05002C26.3266 2.55002 23.1266 4.35003 19.9266 6.25003C18.0266 7.35003 16.1266 8.55002 14.2266 9.65002C13.6266 9.95002 12.6266 10.35 12.2266 10.85C11.6266 11.65 12.0265 12.65 10.8265 12.85C8.32655 13.45 6.62657 14.45 4.72657 16.05C3.62657 16.95 0.226569 19.75 0.726569 21.55C1.82657 25.85 7.62655 28.85 10.8265 31.35C11.0265 31.45 11.2266 31.65 11.4266 31.75C12.6266 32.75 14.4265 33.75 15.8265 34.45C17.2265 35.15 18.2266 34.75 19.6266 35.15C20.0266 35.25 20.2266 35.55 20.4266 35.95C21.9266 38.25 22.7266 38.95 25.2266 40.05C26.4266 40.55 27.9265 41.25 29.3265 41.35C29.6265 41.35 30.0265 41.35 30.3265 41.25C30.9265 40.95 31.8266 40.35 32.4266 39.55Z" fill="#E8E6E8"/>
<path d="M31.9266 39.95C32.2266 39.95 32.6266 39.95 32.9266 39.85C33.9266 39.65 34.7266 39.05 35.3266 38.15C37.1266 35.65 36.5266 32.55 36.6266 29.65C36.8266 23.25 37.0266 17.05 36.8266 10.65C36.7266 7.85002 36.9266 4.65002 35.3266 2.35002C34.8266 1.55002 33.9266 0.950024 32.9266 0.650024C29.2266 1.15002 26.0266 2.95002 22.8266 4.85002C20.9266 5.95002 19.0266 7.15003 17.1266 8.25003C16.5266 8.55003 15.5266 8.95003 15.1266 9.45003C14.5266 10.25 14.9266 11.25 13.7266 11.45C11.2266 12.05 9.5266 13.05 7.6266 14.65C6.5266 15.55 3.12659 18.35 3.62659 20.15C4.72659 24.45 10.5266 27.45 13.7266 29.95C13.9266 30.05 14.1266 30.25 14.3266 30.35C15.5266 31.35 17.3266 32.35 18.7266 33.05C20.1266 33.75 21.1266 33.35 22.5266 33.75C22.9266 33.85 23.1266 34.15 23.3266 34.55C24.8266 36.85 25.6266 37.55 28.1266 38.65C29.0266 39.15 30.5266 39.85 31.9266 39.95Z" fill="url(#paint0_linear_9_6463)"/>
<path d="M29.8266 35.15L29.4266 34.95C27.6266 34.15 27.4266 34.05 26.4266 32.45C26.4266 32.45 26.4266 32.35 26.3266 32.35C26.2266 32.15 26.0266 31.95 25.8266 31.75C25.3266 31.15 24.5266 30.35 23.2266 30.05C23.1266 30.05 23.1266 30.05 23.0266 29.95C22.1266 29.75 21.3266 29.65 20.7266 29.65C20.4266 29.65 20.1266 29.65 20.0266 29.55C19.9266 29.55 19.9266 29.45 19.8266 29.45C18.4266 28.75 17.2266 28.05 16.4266 27.35C16.2266 27.15 15.9266 26.95 15.8266 26.85C15.0266 26.25 14.2266 25.65 13.3266 25.05C12.0266 24.15 8.12657 22.15 8.12657 20.35C8.12657 18.45 11.0266 16.95 12.3266 16.05C13.8266 14.95 16.1266 15.65 17.4266 14.45C18.1266 13.85 17.8266 12.95 18.2266 12.25C18.6266 11.65 19.4266 11.35 20.0266 10.95C21.5266 10.05 23.1266 9.15001 24.6266 8.15001C25.2266 7.85001 25.7266 7.45001 26.3266 7.15001C27.1266 6.65001 27.9266 6.15001 28.8266 5.75001C29.7266 5.35001 30.8266 5.05 31.7266 5.55C32.9266 6.25 32.7266 8.95001 33.0266 10.25C34.0266 15.05 32.9266 20.35 32.6266 25.25C32.5266 26.65 32.4266 28.05 32.4266 29.45C32.4266 29.75 32.4266 30.05 32.4266 30.35C32.4266 30.75 32.4266 31.05 32.4266 31.45C32.4266 31.75 32.4266 32.15 32.4266 32.45C32.5266 34.35 31.9266 36.05 29.8266 35.15Z" fill="url(#paint1_linear_9_6463)"/>
<path d="M29.8266 35.15L29.4266 34.95C27.6266 34.15 27.4266 34.05 26.4266 32.45C26.4266 32.45 26.4266 32.35 26.3266 32.35C26.2266 32.15 26.0266 31.95 25.8266 31.75C25.3266 31.15 24.5266 30.35 23.2266 30.05C23.1266 30.05 23.1266 30.05 23.0266 29.95C22.1266 29.75 21.3266 29.65 20.7266 29.65C20.4266 29.65 20.1266 29.65 20.0266 29.55C19.9266 29.55 19.9266 29.45 19.8266 29.45C18.4266 28.75 17.2266 28.05 16.4266 27.35C16.2266 27.15 15.9266 26.95 15.8266 26.85C15.0266 26.25 14.2266 25.65 13.3266 25.05C12.0266 24.15 8.12657 22.15 8.12657 20.35C8.12657 18.45 11.0266 16.95 12.3266 16.05C13.8266 14.95 16.1266 15.65 17.4266 14.45C18.1266 13.85 17.8266 12.95 18.2266 12.25C18.6266 11.65 19.4266 11.35 20.0266 10.95C21.5266 10.05 23.1266 9.15001 24.6266 8.15001C25.2266 7.85001 25.7266 7.45001 26.3266 7.15001C27.1266 6.65001 27.9266 6.15001 28.8266 5.75001C29.7266 5.35001 30.8266 5.05 31.7266 5.55C32.9266 6.25 32.7266 8.95001 33.0266 10.25C34.0266 15.05 32.9266 20.35 32.6266 25.25C32.5266 26.65 32.4266 28.05 32.4266 29.45C32.4266 29.75 32.4266 30.05 32.4266 30.35C32.4266 30.75 32.4266 31.05 32.4266 31.45C32.4266 31.75 32.4266 32.15 32.4266 32.45C32.5266 34.35 31.9266 36.05 29.8266 35.15Z" fill="url(#paint2_radial_9_6463)"/>
<path d="M29.8266 35.15L29.4266 34.95C27.6266 34.15 27.4266 34.05 26.4266 32.45C26.4266 32.45 26.4266 32.35 26.3266 32.35C26.2266 32.15 26.0266 31.95 25.8266 31.75C25.3266 31.15 24.5266 30.35 23.2266 30.05C23.1266 30.05 23.1266 30.05 23.0266 29.95C22.1266 29.75 21.3266 29.65 20.7266 29.65C20.4266 29.65 20.1266 29.65 20.0266 29.55C19.9266 29.55 19.9266 29.45 19.8266 29.45C18.4266 28.75 17.2266 28.05 16.4266 27.35C16.2266 27.15 15.9266 26.95 15.8266 26.85C15.0266 26.25 14.2266 25.65 13.3266 25.05C12.0266 24.15 8.12657 22.15 8.12657 20.35C8.12657 18.45 11.0266 16.95 12.3266 16.05C13.8266 14.95 16.1266 15.65 17.4266 14.45C18.1266 13.85 17.8266 12.95 18.2266 12.25C18.6266 11.65 19.4266 11.35 20.0266 10.95C21.5266 10.05 23.1266 9.15001 24.6266 8.15001C25.2266 7.85001 25.7266 7.45001 26.3266 7.15001C27.1266 6.65001 27.9266 6.15001 28.8266 5.75001C29.7266 5.35001 30.8266 5.05 31.7266 5.55C32.9266 6.25 32.7266 8.95001 33.0266 10.25C34.0266 15.05 32.9266 20.35 32.6266 25.25C32.5266 26.65 32.4266 28.05 32.4266 29.45C32.4266 29.75 32.4266 30.05 32.4266 30.35C32.4266 30.75 32.4266 31.05 32.4266 31.45C32.4266 31.75 32.4266 32.15 32.4266 32.45C32.5266 34.35 31.9266 36.05 29.8266 35.15Z" fill="#F8FD00"/>
<path opacity="0.4" d="M27.0265 9.85001C27.6265 10.35 28.1265 10.95 28.4265 11.65C28.6265 12.05 28.7265 12.45 28.6265 12.85C28.5265 13.45 28.3265 14.05 27.9265 14.55C27.1265 15.65 26.0265 16.45 24.8265 16.95C24.3265 17.15 23.8265 17.25 23.3265 17.15C22.6265 17.05 21.9265 16.45 21.6265 15.75C21.5265 15.55 21.4265 15.35 21.4265 15.05C21.3265 14.95 21.2265 14.85 21.1265 14.65C20.9265 14.35 20.7265 14.05 20.6265 13.75C20.5265 13.35 20.3265 12.95 20.4265 12.55C20.5265 11.75 21.0265 11.15 21.6265 10.55C22.4265 9.75 23.4265 9.05001 24.5265 8.85001C25.4265 8.85001 26.3265 9.25001 27.0265 9.85001Z" fill="#E8E6E8"/>
<path opacity="0.4" d="M21.6266 18.35L21.7266 18.45C21.7266 18.45 21.8266 18.45 21.8266 18.55L21.8266 18.65C21.8266 18.65 21.8266 18.75 21.9266 18.75C21.9266 18.85 21.9266 18.85 22.0266 18.95C22.0266 19.05 22.0266 19.05 22.1266 19.15C22.1266 19.25 22.1266 19.25 22.0266 19.35C21.9266 19.45 21.8266 19.45 21.8266 19.55C21.6266 19.65 21.3266 19.65 21.1266 19.75C21.0266 19.75 20.9266 19.75 20.8266 19.75C20.7266 19.75 20.6266 19.75 20.6266 19.75L20.5266 19.75C20.4266 19.75 20.3266 19.65 20.3266 19.65L20.2266 19.55L20.1266 19.45C20.1266 19.45 20.1266 19.45 20.1266 19.35C20.1266 19.15 20.1266 18.95 20.1266 18.75C20.1266 18.65 20.3266 18.45 20.4266 18.35C20.5266 18.25 20.7266 18.15 20.8266 18.15C21.0266 18.15 21.1266 18.15 21.3266 18.25C21.4266 18.25 21.5266 18.25 21.6266 18.35C21.5266 18.25 21.5266 18.25 21.6266 18.35Z" fill="#E8E6E8"/>
<path opacity="0.4" d="M28.8265 27.25C28.9265 27.35 28.9265 27.35 28.9265 27.35C28.9265 27.35 28.9265 27.35 28.9265 27.45C28.9265 27.65 28.9265 27.75 28.9265 27.95C28.9265 28.05 28.8265 28.15 28.8265 28.15C28.7265 28.25 28.6265 28.35 28.6265 28.35C28.5265 28.45 28.4265 28.45 28.3265 28.45C28.2265 28.45 28.1265 28.55 28.1265 28.45C28.0265 28.35 28.0265 28.25 27.9265 28.15C27.9265 28.15 27.9265 28.15 27.9265 28.05L27.9265 27.95L27.9265 27.85C27.9265 27.75 27.9265 27.65 28.0265 27.55C28.0265 27.55 28.0265 27.55 28.0265 27.45L28.1265 27.35C28.2265 27.25 28.2265 27.25 28.3265 27.15C28.4265 27.15 28.4265 27.05 28.5265 27.05C28.6265 27.05 28.6265 27.05 28.7265 27.05C28.7265 27.15 28.7265 27.25 28.8265 27.25Z" fill="#E8E6E8"/>
<path opacity="0.4" d="M22.4266 26.25C22.6266 26.05 22.9266 25.85 23.1266 25.65C23.2266 25.55 23.3266 25.45 23.4266 25.35C23.5266 25.15 23.6266 24.95 23.6266 24.75C23.6266 24.65 23.7266 24.65 23.7266 24.55C23.7266 24.45 23.7266 24.25 23.8266 24.15C23.8266 24.05 23.8266 24.25 23.8266 24.05C23.9266 23.75 23.7266 23.35 23.7266 23.15C23.6266 22.85 23.5266 22.55 23.2266 22.35C23.1266 22.25 23.1266 22.25 23.1266 22.35C23.0266 22.25 23.0266 22.15 22.9266 22.05C22.8266 22.05 22.8266 21.95 22.7266 21.95C22.5266 21.85 22.3266 21.65 22.1266 21.65C21.8266 21.55 21.4266 21.55 21.1266 21.65C21.0266 21.65 20.8266 21.65 20.7266 21.65C20.5266 21.65 20.3266 21.85 20.2266 21.95C20.1266 22.05 20.1266 22.05 20.1266 22.15C20.1266 22.25 20.0266 22.35 19.9266 22.35C19.9266 22.45 19.8266 22.45 19.8266 22.55C19.7266 22.65 19.7266 22.85 19.7266 22.95C19.7266 23.15 19.6266 23.35 19.5266 23.55C19.4266 23.95 19.4266 24.25 19.5266 24.65C19.6266 25.15 19.9266 25.75 20.4266 25.95C20.5266 26.05 20.7266 26.05 20.8266 26.15C20.9266 26.25 21.1266 26.35 21.2266 26.35C21.3266 26.35 21.5266 26.35 21.6266 26.45C21.9266 26.55 22.2266 26.45 22.4266 26.25Z" fill="#E8E6E8"/>
<path d="M29.8266 35.15L29.4266 34.95C27.6266 34.15 27.4266 34.05 26.4266 32.45C26.4266 32.45 26.4266 32.35 26.3266 32.35C26.2266 32.15 26.0266 31.95 25.8266 31.75C25.3266 31.15 24.5266 30.35 23.2266 30.05C23.1266 30.05 23.1266 30.05 23.0266 29.95C22.1266 29.75 21.3266 29.65 20.7266 29.65C20.4266 29.65 20.1266 29.65 20.0266 29.55C19.9266 29.55 19.9266 29.45 19.8266 29.45C21.4266 29.35 23.1266 29.35 24.5266 30.25C25.6266 30.95 26.3266 32.15 27.2266 33.05C28.1266 33.95 29.6266 34.55 30.7266 33.75C32.2266 32.75 31.1266 28.95 31.2266 27.45C31.3266 25.95 31.5266 24.55 31.6266 23.05C31.8266 21.55 31.9266 20.05 31.9266 18.55C32.0266 15.25 31.1266 12.15 31.2266 8.85001C31.2266 8.15001 31.2266 7.35001 30.6266 6.95001C28.9266 5.85001 27.7266 6.95002 26.2266 7.25002C27.0266 6.75002 27.8266 6.25001 28.7266 5.85001C29.6266 5.45001 30.7266 5.15001 31.6266 5.65001C32.8266 6.35001 32.6266 9.05001 32.9266 10.35C33.9266 15.15 32.8266 20.45 32.5266 25.35C32.4266 26.75 32.3266 28.15 32.3266 29.55C32.3266 29.85 32.3266 30.15 32.3266 30.45C32.3266 30.85 32.3266 31.15 32.3266 31.55C32.3266 31.85 32.3266 32.25 32.3266 32.55C32.5266 34.35 31.9266 36.05 29.8266 35.15Z" fill="#CCA5B3"/>
<defs>
<linearGradient id="paint0_linear_9_6463" x1="51.8337" y1="21.1482" x2="-9.0461" y2="18.394" gradientUnits="userSpaceOnUse">
<stop stop-color="#965485"/>
<stop offset="1" stop-color="#2F2959"/>
</linearGradient>
<linearGradient id="paint1_linear_9_6463" x1="39.3734" y1="20.2844" x2="-24.2199" y2="21.0153" gradientUnits="userSpaceOnUse">
<stop stop-color="#A66F94"/>
<stop offset="1" stop-color="#362C54"/>
</linearGradient>
<radialGradient id="paint2_radial_9_6463" cx="0" cy="0" r="1" gradientUnits="userSpaceOnUse" gradientTransform="translate(40.6279 19.8245) rotate(90) scale(35.7388 133.296)">
<stop stop-color="#FFFBFB"/>
<stop offset="1" stop-color="#6C6778"/>
</radialGradient>
</defs>
</svg>
