<svg width="318" height="87" viewBox="0 0 318 87" fill="none" xmlns="http://www.w3.org/2000/svg">
<path d="M64.7451 27.808C63.636 30.1494 62.4036 32.3677 61.1713 34.4627C60.8016 35.0788 60.4319 35.695 59.8157 36.0647C58.5834 36.8041 56.9813 36.3112 55.6257 35.695C51.3125 33.8465 47.2457 31.7515 43.3022 29.41C41.9466 28.5474 40.5911 27.6847 40.0981 26.2059C40.8376 22.0159 40.591 17.4562 39.3587 13.3895C38.2496 9.44596 37.6334 5.50245 37.387 1.43569C37.387 1.31246 37.387 1.18922 37.387 0.942755C37.387 -0.0431247 47.4923 1.92863 48.3549 2.29834C51.8055 3.53069 54.3934 5.62568 56.8581 8.21361C57.5975 8.95302 58.2137 9.81567 58.9531 10.6783C61.9107 14.4986 64.0057 18.9351 65.1148 23.4947C65.4845 25.0968 65.3613 26.5756 64.7451 27.808Z" fill="url(#paint0_linear_9_6404)"/>
<path d="M55.5025 57.2612C55.5025 57.3844 37.2637 56.645 35.6616 56.5218C30.3625 56.0288 24.817 57.0147 19.6411 58.4935C18.7784 58.74 18.039 58.9865 17.1764 59.2329C17.7926 52.455 21.2431 45.9236 25.8028 40.8709C25.9261 40.7477 25.9261 40.7477 26.0493 40.6245C27.1584 39.3921 28.3908 38.283 29.7464 37.4204C32.9505 35.5718 36.894 35.6951 40.591 36.188C46.7528 36.9274 51.559 36.681 53.4075 43.3356C54.7631 47.8953 55.5025 52.5783 55.5025 57.2612Z" fill="url(#paint1_linear_9_6404)"/>
<path d="M52.1752 41.6102C52.052 42.1031 51.8055 42.4729 51.4358 42.7193C51.0661 42.8426 50.6964 42.8426 50.3267 42.7193C41.0841 41.487 31.595 40.0082 22.9685 36.5576C21.3665 35.9414 19.8876 35.202 18.4088 34.3393C20.0109 32.2444 21.8594 30.2726 23.8312 28.4241C20.6271 29.1635 18.1624 29.9029 15.6977 31.9979C11.0148 29.2867 6.20858 26.9453 1.03271 25.0967C7.07123 20.2906 14.4653 17.5794 22.1059 16.1006C25.31 15.4844 28.6373 15.2379 31.8414 15.8541C35.785 16.5935 39.2355 18.442 42.3164 20.9067C46.1367 23.8644 49.3408 27.8079 52.2984 31.6282C54.3934 34.2161 53.1611 38.5293 52.1752 41.6102Z" fill="url(#paint2_linear_9_6404)"/>
<path d="M59.0762 10.8015C58.8298 11.2945 58.3369 11.541 57.9672 11.6642C56.1186 12.5268 54.2701 13.3895 52.5448 14.2521C50.6963 11.4177 48.6013 8.70656 46.3831 6.24186C47.9851 8.82979 48.971 11.7874 49.3407 14.7451C49.3407 14.9915 49.3407 15.238 49.2174 15.4845C49.0942 15.7309 48.7245 15.8542 48.4781 15.8542C46.3831 16.2239 44.4113 16.7168 42.3163 17.0865C40.3446 12.8965 38.8657 8.46008 38.0031 3.90039C37.8799 3.16098 37.6334 2.29834 37.5101 1.43569C37.5101 1.31246 37.5101 1.18922 37.5101 0.942755C37.5101 -0.0431247 47.6154 1.92863 48.4781 2.29834C51.9286 3.53069 54.5166 5.62568 56.9813 8.21361C57.7207 9.19949 58.3368 9.9389 59.0762 10.8015Z" fill="url(#paint3_linear_9_6404)"/>
<path d="M42.3163 20.9069C42.0699 22.6321 39.9749 24.8504 38.2496 25.2201C37.5102 25.3433 36.7708 25.2201 36.0314 25.0968C30.7323 24.2342 25.3099 23.618 19.8876 23.2483C23.9543 23.8645 28.0211 24.8504 31.8414 26.0827C33.4434 26.5757 35.0455 27.1918 36.1546 28.4242C33.9364 30.7657 32.2111 32.8606 29.6231 34.8324C29.007 35.3253 28.2675 35.8183 27.5281 36.188C26.419 36.6809 25.3099 36.6809 24.2008 36.6809C23.7078 36.6809 23.3382 36.6809 22.8452 36.6809C21.2432 36.0648 19.7643 35.3253 18.2855 34.4627C19.8876 32.3677 21.7361 30.3959 23.7079 28.5474C20.5038 29.2868 18.039 30.0262 15.5743 32.1212C10.8914 29.4101 6.08529 27.0686 0.909424 25.2201C6.94794 20.4139 14.342 17.7027 21.9826 16.2239C25.1867 15.6078 28.514 15.3613 31.7182 15.9775C35.7849 16.4704 39.2355 18.4422 42.3163 20.9069Z" fill="url(#paint4_linear_9_6404)"/>
<path d="M40.2214 53.6874C33.197 54.55 26.0494 55.7824 19.5179 58.3703C18.6553 58.6168 17.9159 58.8632 17.0532 59.1097C17.6694 52.3318 21.12 45.8003 25.6797 40.7477C29.3767 41.1174 33.0738 42.5962 36.0314 44.9377C31.3485 45.6771 26.7888 47.7721 23.215 50.853C26.7888 49.4974 30.4859 48.6347 34.1829 48.5115C34.7991 48.5115 35.4153 48.3883 36.0314 48.6347C38.4961 49.1277 39.482 51.5924 40.2214 53.6874Z" fill="url(#paint5_linear_9_6404)"/>
<path d="M272.149 42.8425C271.78 45.184 271.656 47.5255 271.656 49.8669C271.656 50.4831 271.657 51.2225 271.903 51.8387C272.519 53.071 273.998 53.4408 275.354 53.6872C279.544 54.4266 283.857 54.9196 288.17 54.9196C289.649 54.9196 291.128 54.9196 292.237 54.0569C293.716 50.3599 296.18 47.0325 299.261 44.4446C302.096 41.9799 304.683 39.1455 306.778 36.0646C306.902 35.9414 306.902 35.8182 307.025 35.6949C307.518 34.9555 298.645 31.3817 297.782 31.2585C294.455 30.5191 291.497 30.7655 288.17 31.6282C287.184 31.8746 286.321 32.1211 285.336 32.4908C281.146 33.9696 277.202 36.3111 273.998 39.392C272.889 40.2546 272.396 41.487 272.149 42.8425Z" fill="url(#paint6_linear_9_6404)"/>
<path d="M263.77 76.116C263.77 76.2392 280.283 79.6898 281.762 79.9363C286.691 80.6757 291.374 82.7707 295.811 85.3586C296.427 85.7283 297.166 86.098 297.782 86.591C298.768 80.306 297.043 73.6513 294.085 68.1057C294.085 67.9825 293.962 67.8593 293.962 67.8593C293.223 66.5037 292.483 65.2713 291.374 64.1622C288.909 61.8208 285.336 60.9581 281.885 60.5884C276.216 59.849 271.903 58.6166 268.699 64.1622C266.481 67.8593 264.879 71.926 263.77 76.116Z" fill="url(#paint7_linear_9_6404)"/>
<path d="M268.822 60.0955C268.699 60.4652 268.699 60.9581 268.945 61.3278C269.192 61.5743 269.438 61.6975 269.808 61.944C277.818 65.2713 286.075 68.4754 294.578 69.7078C296.18 69.9543 297.659 70.0775 299.261 70.0775C299.015 67.6128 298.399 65.1481 297.659 62.8066C299.877 64.9016 301.603 66.6269 302.589 69.4613C307.641 69.3381 312.571 69.831 317.5 70.6937C314.789 64.039 310.229 58.3702 304.807 53.6873C302.465 51.7155 300.001 49.9902 297.166 48.8811C293.716 47.6487 290.019 47.5255 286.322 48.0185C281.885 48.6346 277.449 50.2367 273.259 51.962C270.424 53.0711 269.438 57.1378 268.822 60.0955Z" fill="url(#paint8_linear_9_6404)"/>
<path d="M285.212 32.4909C285.212 32.9838 285.336 33.3535 285.582 33.7232C286.568 35.3253 287.554 36.9273 288.54 38.4061C291.374 37.1738 294.332 36.0647 297.289 35.202C294.825 36.4344 292.483 38.1597 290.758 40.3779C290.635 40.6244 290.388 40.7476 290.388 40.9941C290.388 41.2405 290.635 41.487 290.758 41.6102C292.114 42.9658 293.469 44.3214 294.948 45.677C298.645 43.4588 301.972 40.7476 304.93 37.5435C305.423 37.0505 306.039 36.4344 306.532 35.9414C306.655 35.8182 306.655 35.695 306.778 35.5717C307.271 34.8323 298.399 31.2585 297.536 31.1353C294.209 30.3959 291.251 30.6423 287.924 31.505C287.061 31.8747 286.075 32.1211 285.212 32.4909Z" fill="url(#paint9_linear_9_6404)"/>
<path d="M286.321 48.0185C285.705 49.6205 286.321 52.3317 287.554 53.3176C288.047 53.8105 288.786 54.057 289.402 54.3034C294.085 56.152 298.645 58.1237 303.205 60.342C299.631 58.9864 295.934 57.8773 292.237 57.0146C290.758 56.6449 289.156 56.3984 287.8 56.8914C288.416 59.849 288.909 62.3137 290.018 65.1481C290.265 65.8875 290.635 66.6269 291.004 67.2431C291.621 68.1058 292.606 68.5987 293.469 69.2149C293.839 69.4613 294.208 69.5846 294.578 69.831C296.18 70.0775 297.659 70.2008 299.261 70.2008C299.015 67.7361 298.398 65.2714 297.659 62.9299C299.877 65.0249 301.603 66.7502 302.588 69.5846C307.641 69.4613 312.57 69.9543 317.5 70.8169C314.789 64.1622 310.229 58.4934 304.807 53.8105C302.465 51.8387 300.001 50.1135 297.166 49.0043C293.592 47.6488 289.895 47.5255 286.321 48.0185Z" fill="url(#paint10_linear_9_6404)"/>
<path d="M278.188 76.3625C284.35 78.704 290.511 81.4151 295.687 85.2354C296.303 85.6051 297.043 85.9748 297.659 86.4678C298.645 80.1828 296.92 73.5281 293.962 67.9825C290.511 67.4896 286.938 67.9825 283.734 69.4613C287.8 71.1866 291.374 74.021 293.962 77.5948C291.128 75.6231 287.923 74.021 284.596 72.9119C283.98 72.7887 283.487 72.5422 282.871 72.5422C280.899 72.6654 279.42 74.6372 278.188 76.3625Z" fill="url(#paint11_linear_9_6404)"/>
<path d="M282.501 29.7798C282.378 34.093 282.131 38.4062 281.515 42.5962C281.515 42.8427 281.515 42.9659 281.392 43.0892C281.269 43.3356 281.022 43.3356 280.899 43.5821C280.406 44.075 280.529 44.8144 280.776 45.4306C281.146 46.5397 281.392 47.7721 281.392 49.0044C281.515 54.9197 280.16 61.2047 279.297 66.9967C279.174 67.4897 279.051 67.9826 278.804 68.3523C277.325 70.6938 275.477 72.7888 273.382 74.5141C271.656 75.9929 269.315 77.9646 266.974 77.8414C263.646 77.5949 260.319 77.5949 257.115 77.7182C253.911 77.8414 250.83 77.7182 247.626 77.7182C243.066 77.7182 238.383 77.5949 233.823 77.5949C228.894 77.5949 223.965 77.4717 219.035 77.4717C214.229 77.4717 209.3 77.8414 204.617 76.4858C204.247 76.3626 203.877 76.2394 203.508 76.3626C202.645 76.4858 201.906 77.3485 201.043 77.4717C200.18 77.7182 198.701 77.3485 197.715 77.3485C195.004 77.3485 192.293 77.3485 189.582 77.3485C184.283 77.3485 178.984 77.2252 173.685 77.2252C163.21 77.2252 152.735 77.2252 142.137 77.2252C130.183 77.3485 118.229 77.3485 106.398 77.4717L57.4742 77.8414C56.9812 77.8414 56.365 77.7182 55.9953 77.4717C53.1609 75.9929 50.6962 74.0211 48.6012 71.6797C46.6295 69.4614 45.8901 66.627 45.0275 63.6694C44.5345 61.5744 45.6436 60.9582 47.6154 60.7118C46.876 60.5885 46.1366 60.342 45.3972 60.2188C45.1507 60.2188 44.9042 60.0956 44.781 59.9723C44.6577 59.8491 44.6577 59.6026 44.5345 59.4794C42.4395 49.6206 42.686 39.8851 42.3163 29.903C42.3163 29.1636 42.4395 28.4242 42.9325 27.9313C45.6436 24.2342 49.0942 20.6604 52.1751 18.6886C52.668 18.3189 53.2842 18.1957 53.9004 18.1957C57.5974 18.1957 61.2944 18.1957 64.8683 18.1957C68.4421 18.1957 72.0159 18.1957 75.5897 18.1957C79.0403 18.1957 83.1071 17.5795 86.3112 19.0583C87.1738 19.4281 87.79 18.8119 88.5294 18.5654C89.392 18.3189 90.2546 18.1957 91.1173 18.1957C93.3355 18.1957 95.677 18.1957 97.8952 18.1957C99.867 18.1957 101.962 18.1957 103.934 18.1957C127.348 18.1957 150.763 18.0725 174.301 18.0725C179.6 18.0725 184.899 18.0725 190.198 18.0725C192.786 18.0725 195.374 18.0725 197.962 18.0725C199.194 18.0725 200.673 17.9492 201.906 18.0725C203.261 18.3189 203.384 18.8119 204.247 19.921C204.247 20.0442 204.37 20.0442 204.493 20.1675C204.74 20.1675 204.863 20.0442 204.986 19.7978C205.849 18.1957 207.698 18.0725 209.3 18.0725L271.04 18.1957C271.533 18.3189 272.273 18.5654 272.766 18.6886C275.97 20.6604 279.297 24.2342 282.008 27.9313C282.378 28.4242 282.501 29.1636 282.501 29.7798Z" fill="url(#paint12_linear_9_6404)"/>
<path d="M278.311 29.4101C278.311 29.6566 278.311 29.7799 278.311 30.0263C278.311 30.7657 278.311 31.3819 278.188 32.1213C278.065 35.6951 277.818 39.2689 277.572 42.8428C277.572 43.7054 277.449 44.4448 277.325 45.1842C276.832 51.8389 276.093 58.3704 275.23 64.9018C275.107 65.3947 275.107 65.8877 274.984 66.5039C274.491 67.3665 273.875 68.2292 273.259 68.9686C272.519 69.9544 271.657 70.8171 270.671 71.5565C270.671 71.5565 270.671 71.5565 270.547 71.5565L270.301 71.803C269.438 72.4191 267.836 73.898 267.22 73.898C265.618 73.7747 263.769 73.6515 261.798 73.6515C260.196 73.6515 258.47 73.6515 256.868 73.7747C256.006 73.7747 255.143 73.7747 254.28 73.7747C252.925 73.7747 251.692 73.7747 250.337 73.7747C249.351 73.7747 248.488 73.7747 247.502 73.7747L233.7 73.6515C227.662 73.6515 221.5 73.5283 215.461 73.5283C212.504 73.5283 209.053 74.0212 206.219 73.0353C205.479 72.7888 204.617 72.5424 203.754 72.5424C202.768 72.5424 201.906 73.0353 200.92 73.1585C200.55 73.2818 200.18 73.2818 199.687 73.2818C197.962 73.2818 196.114 73.2818 194.388 73.2818C190.814 73.2818 187.241 73.2818 183.667 73.1585C176.396 73.1585 169.125 73.0353 161.731 73.0353C154.707 73.0353 148.175 73.0353 141.767 73.1585L129.69 73.2818L118.968 73.405L57.351 73.898C56.9813 73.898 56.6116 73.7747 56.2419 73.5283C55.6257 73.2818 55.1328 72.7888 54.5166 72.2959C53.2843 71.1868 52.0519 69.708 51.559 69.0918C50.2034 67.613 49.5872 66.1342 49.2175 64.4089C49.0942 63.9159 49.0943 63.423 49.0943 62.93C49.0943 62.5603 49.0943 62.1906 49.0943 61.8209C51.1893 61.2048 53.4075 60.5886 55.6257 60.0956C53.4075 60.3421 51.1893 60.4654 48.9711 60.4654C48.8478 58.6168 48.7246 56.7683 48.4781 54.9198C48.3549 54.3036 48.3548 53.6874 48.2316 53.0713C47.9851 50.6066 47.6154 48.1419 47.369 45.6772C47.369 45.3075 47.369 44.9377 47.2458 44.6913C47.2458 44.1983 47.1225 43.7054 47.1225 43.2125C46.9993 41.3639 46.876 39.5154 46.7528 37.6669C46.6295 36.3113 46.6296 34.8325 46.5064 33.4769C46.5064 32.7375 46.0134 30.1496 46.3831 29.6566C47.1225 28.5475 47.9851 27.5616 48.8478 26.5757C49.7104 25.5899 50.5731 24.7272 51.4358 23.8646C52.2984 23.1252 53.1611 22.3858 53.9005 21.8928L75.3433 21.7696H84.8324H100.73H103.194H103.811C110.342 21.7696 116.627 21.7696 122.912 21.7696C124.144 21.7696 125.377 21.7696 126.732 21.7696C140.165 21.7696 152.735 21.7696 165.058 21.7696H170.111C183.174 21.7696 196.237 21.7696 209.3 21.8928C212.381 21.8928 215.461 22.0161 218.542 22.2625C218.789 22.2625 219.158 22.2625 219.405 22.2625C219.651 22.1393 219.898 22.016 220.268 21.8928C221.746 21.1534 223.472 22.0161 224.951 22.0161C226.306 22.0161 227.785 22.0161 229.14 22.0161C232.098 22.0161 235.179 22.0161 238.26 22.0161C244.175 22.0161 250.09 22.0161 256.006 22.0161C259.456 22.0161 263.03 22.0161 266.481 22.0161C267.713 22.0161 269.438 21.7696 270.547 22.0161L271.04 22.1393C273.382 23.3716 275.97 26.206 278.311 29.4101Z" fill="url(#paint13_radial_9_6404)"/>
<path d="M278.311 29.4101C278.311 29.6566 278.311 29.7799 278.311 30.0263C278.311 30.7657 278.311 31.3819 278.188 32.1213C278.065 35.6951 277.818 39.2689 277.572 42.8428C277.572 43.7054 277.449 44.4448 277.325 45.1842C276.832 51.8389 276.093 58.3704 275.23 64.9018C275.107 65.3947 275.107 65.8877 274.984 66.5039C274.491 67.3665 273.875 68.2292 273.259 68.9686C272.519 69.9544 271.657 70.8171 270.671 71.5565C270.671 71.5565 270.671 71.5565 270.547 71.5565L270.301 71.803C269.438 72.4191 267.836 73.898 267.22 73.898C265.618 73.7747 263.769 73.6515 261.798 73.6515C260.196 73.6515 258.47 73.6515 256.868 73.7747C256.006 73.7747 255.143 73.7747 254.28 73.7747C252.925 73.7747 251.692 73.7747 250.337 73.7747C249.351 73.7747 248.488 73.7747 247.502 73.7747L233.7 73.6515C227.662 73.6515 221.5 73.5283 215.461 73.5283C212.504 73.5283 209.053 74.0212 206.219 73.0353C205.479 72.7888 204.617 72.5424 203.754 72.5424C202.768 72.5424 201.906 73.0353 200.92 73.1585C200.55 73.2818 200.18 73.2818 199.687 73.2818C197.962 73.2818 196.114 73.2818 194.388 73.2818C190.814 73.2818 187.241 73.2818 183.667 73.1585C176.396 73.1585 169.125 73.0353 161.731 73.0353C154.707 73.0353 148.175 73.0353 141.767 73.1585L129.69 73.2818L118.968 73.405L57.351 73.898C56.9813 73.898 56.6116 73.7747 56.2419 73.5283C55.6257 73.2818 55.1328 72.7888 54.5166 72.2959C53.2843 71.1868 52.0519 69.708 51.559 69.0918C50.2034 67.613 49.5872 66.1342 49.2175 64.4089C49.0942 63.9159 49.0943 63.423 49.0943 62.93C49.0943 62.5603 49.0943 62.1906 49.0943 61.8209C51.1893 61.2048 53.4075 60.5886 55.6257 60.0956C53.4075 60.3421 51.1893 60.4654 48.9711 60.4654C48.8478 58.6168 48.7246 56.7683 48.4781 54.9198C48.3549 54.3036 48.3548 53.6874 48.2316 53.0713C47.9851 50.6066 47.6154 48.1419 47.369 45.6772C47.369 45.3075 47.369 44.9377 47.2458 44.6913C47.2458 44.1983 47.1225 43.7054 47.1225 43.2125C46.9993 41.3639 46.876 39.5154 46.7528 37.6669C46.6295 36.3113 46.6296 34.8325 46.5064 33.4769C46.5064 32.7375 46.0134 30.1496 46.3831 29.6566C47.1225 28.5475 47.9851 27.5616 48.8478 26.5757C49.7104 25.5899 50.5731 24.7272 51.4358 23.8646C52.2984 23.1252 53.1611 22.3858 53.9005 21.8928L75.3433 21.7696H84.8324H100.73H103.194H103.811C110.342 21.7696 116.627 21.7696 122.912 21.7696C124.144 21.7696 125.377 21.7696 126.732 21.7696C140.165 21.7696 152.735 21.7696 165.058 21.7696H170.111C183.174 21.7696 196.237 21.7696 209.3 21.8928C212.381 21.8928 215.461 22.0161 218.542 22.2625C218.789 22.2625 219.158 22.2625 219.405 22.2625C219.651 22.1393 219.898 22.016 220.268 21.8928C221.746 21.1534 223.472 22.0161 224.951 22.0161C226.306 22.0161 227.785 22.0161 229.14 22.0161C232.098 22.0161 235.179 22.0161 238.26 22.0161C244.175 22.0161 250.09 22.0161 256.006 22.0161C259.456 22.0161 263.03 22.0161 266.481 22.0161C267.713 22.0161 269.438 21.7696 270.547 22.0161L271.04 22.1393C273.382 23.3716 275.97 26.206 278.311 29.4101Z" fill="#F8FD00"/>
<path d="M277.695 33.2304C277.695 32.491 277.818 31.7516 277.572 31.1354C277.325 30.396 276.709 29.7799 276.093 29.1637C274.244 27.3152 272.519 24.7272 270.178 23.4949C267.96 22.2625 264.879 23.1252 262.414 23.0019C259.087 23.0019 255.882 23.0019 252.555 22.8787C245.9 22.8787 239.122 22.7555 232.468 22.7555C228.771 22.7555 225.074 22.6322 221.377 22.0161C221.13 22.0161 220.884 21.8928 220.514 21.8928C220.144 21.8928 219.898 22.1393 219.651 22.2625C217.803 23.1252 215.708 22.6322 213.736 22.6322C211.518 22.6322 209.176 22.6322 206.958 22.6322C202.398 22.6322 197.839 22.6322 193.402 22.6322C176.642 22.6322 160.006 22.6322 143.246 22.6322C140.658 22.6322 137.947 22.509 135.359 22.6322C133.264 22.7555 131.538 23.6181 129.567 23.9878C127.965 24.3575 126.363 23.3716 124.884 22.8787C123.528 22.509 122.173 22.3858 120.817 22.3858C115.518 22.3858 110.096 22.7555 104.673 23.0019C102.701 23.1252 100.73 22.7555 98.7579 22.7555C91.3638 22.7555 83.8465 22.8787 76.4524 23.0019C72.7554 23.0019 69.0583 23.1252 65.238 23.1252C63.2662 23.1252 61.4178 23.1252 59.446 23.2484C58.4601 23.2484 55.256 22.7555 54.5166 23.3716C52.0519 25.2202 50.2034 27.5616 48.2316 29.9031C47.9851 30.1496 47.8619 30.396 47.7387 30.7657C47.6155 31.0122 47.7387 31.2587 47.7387 31.5052C47.8619 33.6001 47.4922 35.2022 48.1084 37.2972C48.6013 38.8992 47.9851 39.8851 47.8619 41.4872C47.6154 43.2125 47.9852 45.1842 48.1084 46.9095C48.2316 48.8813 48.3548 50.7298 48.4781 52.7015C48.6013 53.9339 48.2316 57.0148 48.8478 58.0007C48.7245 57.8774 48.6013 57.631 48.4781 57.5077C47.4922 48.3883 46.7528 39.0225 46.5063 29.6566C48.8478 26.3293 51.6822 23.4949 54.0236 21.8928L103.934 21.7696C125.993 21.6464 146.08 21.6464 165.058 21.6464C179.846 21.6464 194.511 21.6464 209.3 21.7696C212.134 21.7696 214.968 21.7696 217.803 21.5231C218.173 21.5231 218.542 21.3999 218.789 21.3999C219.528 21.1534 220.021 20.6605 220.76 20.414C221.377 20.2908 222.116 20.414 222.732 20.6605C224.334 21.1534 225.936 21.7696 227.538 21.8928C229.14 21.8928 230.619 21.8928 232.221 21.8928C235.425 21.8928 238.63 21.8928 241.957 21.8928C247.995 21.8928 253.911 21.8928 259.949 21.8928C263.523 21.8928 267.097 21.8928 270.547 21.8928L271.04 22.0161C273.382 23.6181 275.97 26.4525 278.311 29.6566C278.188 31.9981 278.188 34.4628 278.065 36.8043C277.941 39.0225 277.449 41.2407 277.818 43.3357C277.941 43.7054 277.942 44.0751 277.942 44.4448C278.065 45.9236 277.325 47.2792 277.202 48.758C277.079 50.6066 276.832 52.5783 276.709 54.4268C276.339 57.8774 275.477 61.6977 275.477 65.1483C275.477 54.3036 277.079 43.7054 277.695 33.2304Z" fill="#E6C9C3"/>
<path d="M272.766 61.6976C272.396 61.3279 272.026 60.9582 271.656 60.7117C270.054 59.4794 268.329 58.6167 266.357 58.247C266.234 58.1238 266.111 58.1238 265.988 58.1238C265.618 58.1238 265.248 58.3703 264.879 58.6168C263.277 59.8491 261.921 61.5744 260.935 63.4229C260.689 63.9159 260.565 64.2856 260.812 64.6553C261.058 65.025 261.551 65.2714 261.921 65.5179C262.907 66.1341 263.769 66.5038 264.755 66.9967C265.248 67.12 265.741 66.9967 266.111 66.7503C266.974 66.2573 267.836 65.1482 268.452 64.4088C268.452 64.2856 268.576 64.2856 268.576 64.1623C268.576 64.0391 268.452 63.9158 268.452 63.9158C268.206 63.6694 268.083 63.5461 267.836 63.2997L267.713 63.1764C267.59 63.1764 267.59 63.1764 267.467 63.2997C266.727 64.0391 265.988 64.7785 265.248 65.5179C264.879 65.2714 264.509 65.025 264.016 64.7785C263.646 64.532 263.153 64.4088 262.907 64.0391C262.784 63.9159 262.537 63.6694 262.66 63.4229C262.66 63.1764 262.907 63.0532 263.03 62.8067C263.523 62.0673 264.016 61.3279 264.509 60.5885C264.879 60.0956 265.372 59.6026 265.741 59.1097C267.343 59.4794 268.699 60.0956 270.054 61.0814C270.054 61.2047 270.547 61.5744 270.671 61.5744C270.917 61.8209 271.04 61.9441 271.287 62.1906C271.533 62.437 271.78 62.6835 271.903 62.93C272.026 63.0532 272.273 63.4229 272.273 63.5461C272.273 63.7926 271.903 64.2856 271.656 64.4088C271.287 64.7785 271.04 65.1482 270.671 65.5179C270.054 66.2573 269.315 66.8735 268.699 67.6129C268.452 67.8594 268.206 68.1058 267.836 68.4755C267.22 69.0917 266.727 69.7079 265.988 70.2008C265.248 70.6938 264.509 70.9402 263.646 70.9402C262.66 70.9402 261.674 70.9402 260.689 70.9402C256.745 70.9402 252.925 70.9402 248.981 70.9402C245.038 70.9402 241.217 70.9402 237.274 70.9402C233.454 70.9402 229.51 70.9402 225.69 70.9402C212.011 70.9402 198.455 70.9402 184.776 71.0635C157.787 71.0635 130.676 71.1867 103.687 71.1867C100.853 71.1867 97.8952 71.1867 95.0608 71.1867C88.2829 71.1867 81.505 71.1867 74.7271 71.1867C71.3997 71.1867 67.9491 71.1867 64.6218 71.3099C63.7592 71.3099 62.8965 71.3099 62.0339 71.3099C61.2945 71.3099 60.5551 71.4332 59.8157 71.4332C59.1995 71.4332 58.4601 70.817 57.9672 70.5705C57.351 70.2008 56.7348 69.8311 56.2418 69.3382C55.8721 68.9685 55.5025 68.5988 55.1328 68.2291C55.0095 68.1058 55.0095 67.9826 54.8863 67.8594C54.3933 63.9159 53.6539 54.3035 53.161 50.36C52.9145 48.3882 52.5448 46.4165 52.2983 44.568C52.1751 43.5821 52.0519 42.7194 51.9286 41.7336C51.8054 40.6245 51.6822 39.5153 51.1892 38.5295C51.066 38.4062 50.5731 38.5295 50.5731 38.7759C50.2034 40.6244 50.8195 42.7194 51.066 44.568C51.3124 46.663 51.5589 48.6347 51.8054 50.7297C52.1751 53.1944 52.6681 61.3279 53.0378 63.7926C53.161 65.025 53.4074 66.2573 53.5307 67.6129C53.6539 68.5988 54.2701 69.3382 55.0095 70.0776C55.7489 70.817 56.6115 71.3099 57.4742 71.9261C58.0904 72.4191 58.8298 72.2958 59.5692 72.2958C60.4318 72.2958 61.2945 72.2958 62.1571 72.2958C63.8824 72.2958 65.4845 72.2958 67.2098 72.2958C70.5371 72.2958 73.9877 72.2958 77.3151 72.2958C84.093 72.2958 90.7476 72.1726 97.5255 72.1726C111.081 72.1726 124.761 72.1726 138.316 72.1726C165.428 72.1726 192.416 72.0494 219.528 72.0494C234.932 72.0494 250.214 71.8029 265.618 71.8029C266.234 71.8029 266.85 71.1867 267.343 70.817C267.959 70.3241 268.452 69.9544 268.945 69.3382C269.685 68.5988 270.424 67.7361 271.04 66.8735C271.656 66.0108 272.396 65.2714 273.012 64.532C273.135 64.4088 273.012 64.4088 273.012 64.4088C273.259 64.1623 273.505 63.7926 273.382 63.4229C273.505 62.437 273.135 62.0673 272.766 61.6976Z" fill="#E6C9C3"/>
<path d="M273.505 27.5616C273.012 26.8222 272.149 26.3292 271.533 25.713C271.04 25.2201 270.301 25.3433 269.562 25.3433C268.699 25.3433 267.836 25.3433 266.974 25.3433C265.248 25.3433 263.646 25.3433 261.921 25.3433C258.594 25.3433 255.143 25.3433 251.816 25.3433C245.038 25.3433 233.823 25.4666 227.169 25.4666C213.613 25.4666 199.934 25.4666 186.378 25.4666C159.266 25.4666 132.278 25.5898 105.166 25.5898C89.7618 25.5898 74.4806 25.8363 59.0762 25.8363C58.4601 25.8363 57.8439 26.4525 57.351 26.8222C56.7348 27.3151 56.2419 27.6848 55.7489 28.301C55.0095 29.0404 54.2701 29.903 53.6539 30.7657C53.0378 31.6283 52.2983 32.3677 51.6821 33.1071C51.5589 33.2304 51.6821 33.2304 51.6821 33.2304C51.4357 33.4768 51.1892 33.8465 51.3124 34.2163C51.4357 34.7092 51.8054 35.0789 52.1751 35.3254C52.5448 35.6951 52.9145 36.0648 53.2842 36.3112C54.8863 37.5436 56.6116 38.4062 58.5833 38.7759C58.7066 38.8992 58.8298 38.8992 58.953 38.8992C59.3227 38.8992 59.6925 38.6527 60.0622 38.4062C61.6642 37.1739 63.0197 35.4486 64.0056 33.6001C64.2521 33.1071 64.3754 32.7374 64.1289 32.3677C63.8824 31.998 63.3895 31.7516 63.0198 31.5051C62.0339 30.8889 61.1713 30.5192 60.1854 30.0263C59.6924 29.903 59.1995 30.0263 58.8298 30.2727C57.9672 30.7657 57.1045 31.8748 56.4883 32.6142C56.4883 32.7374 56.3651 32.7374 56.3651 32.8607C56.3651 32.9839 56.4883 33.1071 56.4883 33.1071C56.7348 33.3536 56.858 33.4768 57.1045 33.7233L57.2277 33.8466C57.3509 33.8466 57.351 33.8466 57.4742 33.7233C58.2136 32.9839 58.953 32.2445 59.6924 31.5051C60.0621 31.7516 60.4318 31.998 60.9248 32.2445C61.2945 32.491 61.7874 32.6142 62.0339 32.9839C62.1571 33.1071 62.4036 33.3536 62.2804 33.6001C62.2804 33.8465 62.0339 33.9698 61.9107 34.2163C61.4178 34.9557 60.9248 35.6951 60.4319 36.4345C60.0622 36.9274 59.5692 37.4204 59.1995 37.9133C57.5975 37.5436 56.2419 36.9274 54.8863 35.9415C54.8863 35.8183 54.3933 35.4486 54.2701 35.4486C54.0236 35.2021 53.9004 35.0789 53.6539 34.8324C53.4075 34.586 53.161 34.3395 53.0378 34.093C52.9145 33.9698 52.6681 33.6001 52.6681 33.4768C52.6681 33.2304 53.0378 32.7374 53.2842 32.6142C53.654 32.2445 53.9004 31.8748 54.2701 31.5051C54.8863 30.7657 55.6257 30.1495 56.2418 29.4101C56.4883 29.1636 56.7348 28.9172 57.1045 28.5475C57.7207 27.9313 58.2136 27.3151 58.953 26.8222C59.6924 26.3292 60.4319 26.0828 61.2945 26.0828C62.2804 26.0828 63.2662 26.0828 64.2521 26.0828C68.1956 26.0828 72.0159 26.0828 75.9594 26.0828C79.9029 26.0828 83.7232 26.0828 87.6667 26.0828C91.487 26.0828 95.4306 26.0828 99.2509 26.0828C112.93 26.0828 126.486 26.0828 140.165 25.9595C167.153 25.9595 194.265 25.8363 221.253 25.8363C224.088 25.8363 227.045 25.8363 229.88 25.8363C236.658 25.8363 247.626 25.8363 254.404 25.8363C257.854 25.8363 261.182 25.8363 264.632 25.713C265.495 25.713 266.357 25.713 267.22 25.713C267.959 25.713 268.699 25.5898 269.438 25.5898C270.054 25.5898 270.671 26.206 271.04 26.4525C271.533 26.8222 272.026 27.1919 272.519 27.6848C272.889 28.0545 273.135 28.4242 273.382 28.7939C273.505 28.9172 273.505 29.0404 273.628 29.1636C273.259 33.1071 272.766 37.0507 272.396 40.8709C272.149 42.8427 272.026 50.36 271.903 52.3318C271.78 53.3177 271.78 54.1803 271.656 55.1662C271.533 56.2753 271.41 57.3844 271.656 58.3703C271.656 58.4935 272.273 58.3703 272.273 58.1238C273.012 56.2753 273.012 54.1803 273.135 52.3318C273.382 50.2368 273.628 42.5962 273.875 40.5012C274.121 38.0365 274.368 35.5718 274.614 33.1071C274.737 31.8748 274.861 30.6424 274.984 29.2869C274.368 29.0404 273.998 28.301 273.505 27.5616Z" fill="#E6C9C3"/>
<path d="M272.15 61.0815C271.78 60.7118 271.41 60.3421 271.04 60.0956C269.438 58.8632 267.713 58.0006 265.741 57.6309C265.618 57.5077 265.495 57.5077 265.372 57.5077C265.002 57.5077 264.632 57.7541 264.262 58.0006C262.66 59.233 261.305 60.9582 260.319 62.8068C260.073 63.2997 259.949 63.6694 260.196 64.0391C260.442 64.4088 260.935 64.6553 261.305 64.9018C262.291 65.5179 263.153 65.8876 264.139 66.3806C264.632 66.5038 265.125 66.3806 265.495 66.1341C266.357 65.6412 267.22 64.532 267.836 63.7926C267.836 63.6694 267.96 63.6694 267.96 63.5462C267.96 63.4229 267.836 63.2997 267.836 63.2997C267.59 63.0532 267.467 62.93 267.22 62.6835L267.097 62.5603C266.974 62.5603 266.974 62.5603 266.85 62.6835C266.111 63.4229 265.372 64.1623 264.632 64.9018C264.263 64.6553 263.893 64.4088 263.4 64.1623C263.03 63.9159 262.537 63.7926 262.291 63.4229C262.168 63.2997 261.921 63.0532 262.044 62.8068C262.044 62.5603 262.291 62.4371 262.414 62.1906C262.907 61.4512 263.4 60.7118 263.893 59.9724C264.262 59.4794 264.755 58.9865 265.125 58.4935C266.727 58.8632 268.083 59.4794 269.438 60.4653C269.438 60.5885 269.931 60.9582 270.055 60.9582C270.301 61.2047 270.424 61.3279 270.671 61.5744C270.917 61.8209 271.164 62.0674 271.287 62.3138C271.41 62.4371 271.657 62.8068 271.657 62.93C271.657 63.1765 271.287 63.6694 271.04 63.7926C270.671 64.1623 270.424 64.532 270.055 64.9018C269.438 65.6412 268.699 66.2573 268.083 66.9967C267.836 67.2432 267.59 67.4897 267.22 67.8594C266.604 68.4756 266.111 69.0917 265.372 69.5847C264.632 70.0776 263.893 70.3241 263.03 70.3241C262.044 70.3241 261.058 70.3241 260.073 70.3241C256.129 70.3241 252.309 70.3241 248.365 70.3241C244.422 70.3241 240.601 70.3241 236.658 70.3241C232.838 70.3241 228.894 70.3241 225.074 70.3241C211.395 70.3241 197.839 70.3241 184.16 70.4473C157.171 70.4473 130.06 70.5706 103.071 70.5706C100.237 70.5706 97.2792 70.5706 94.4448 70.5706C87.6668 70.5706 80.8889 70.5706 74.111 70.5706C70.7836 70.5706 67.3331 70.5706 64.0057 70.6938C63.1431 70.6938 62.2804 70.6938 61.4178 70.6938C60.6784 70.6938 59.939 70.817 59.1996 70.817C58.5834 70.817 57.844 70.2009 57.3511 69.9544C56.7349 69.5847 56.1187 69.215 55.6257 68.722C55.256 68.3523 54.8864 67.9826 54.5167 67.6129C54.3934 67.4897 54.3934 67.3665 54.2702 67.2432C53.7773 63.2997 53.0378 53.6874 52.5449 49.7439C52.2984 47.7721 51.9287 45.8003 51.6822 43.9518C51.559 42.9659 51.4358 42.1033 51.3125 41.1174C51.1893 40.0083 51.0661 38.8992 50.5731 37.9133C50.4499 37.7901 49.957 37.9133 49.957 38.1598C49.5873 40.0083 50.2034 42.1033 50.4499 43.9518C50.6963 46.0468 50.9429 48.0186 51.1893 50.1136C51.559 52.5783 52.052 60.7118 52.4217 63.1765C52.5449 64.4088 52.7913 65.6412 52.9146 66.9967C53.0378 67.9826 53.654 68.722 54.3934 69.4614C55.1328 70.2009 55.9955 70.6938 56.8581 71.31C57.4743 71.8029 58.2137 71.6797 58.9531 71.6797C59.8158 71.6797 60.6784 71.6797 61.541 71.6797C63.2663 71.6797 64.8684 71.6797 66.5937 71.6797C69.921 71.6797 73.3716 71.6797 76.699 71.6797C83.4769 71.6797 90.1315 71.5564 96.9095 71.5564C110.465 71.5564 124.144 71.5564 137.7 71.5564C164.812 71.5564 191.8 71.4332 218.912 71.4332C234.316 71.4332 249.598 71.1867 265.002 71.1867C265.618 71.1867 266.234 70.5706 266.727 70.2009C267.343 69.7079 267.836 69.3382 268.329 68.722C269.069 67.9826 269.808 67.12 270.424 66.2573C271.04 65.3947 271.78 64.6553 272.396 63.9159C272.519 63.7926 272.396 63.7926 272.396 63.7926C272.643 63.5462 272.889 63.1765 272.766 62.8068C272.889 61.8209 272.396 61.4512 272.15 61.0815Z" fill="#6D5873"/>
<path d="M272.766 26.9454C272.273 26.206 271.41 25.713 270.794 25.0969C270.301 24.6039 269.561 24.7272 268.822 24.7272C267.959 24.7272 267.097 24.7272 266.234 24.7272C264.509 24.7272 262.907 24.7272 261.182 24.7272C257.854 24.7272 254.404 24.7272 251.076 24.7272C244.298 24.7272 233.084 24.8504 226.429 24.8504C212.873 24.8504 199.194 24.8504 185.639 24.8504C158.527 24.8504 131.538 24.9736 104.427 24.9736C89.0224 24.9736 73.7412 25.2201 58.3368 25.2201C57.7207 25.2201 57.1045 25.8363 56.6115 26.206C55.9954 26.6989 55.5024 27.0686 55.0095 27.6848C54.2701 28.4242 53.5307 29.2869 52.9145 30.1495C52.2983 31.0121 51.5589 31.7516 50.9428 32.491C50.8195 32.6142 50.9428 32.6142 50.9428 32.6142C50.6963 32.8607 50.4498 33.2304 50.5731 33.6001C50.6963 34.093 51.066 34.4627 51.4357 34.7092C51.8054 35.0789 52.1751 35.4486 52.5448 35.6951C54.1468 36.9274 55.8721 37.7901 57.8439 38.1598C57.9671 38.283 58.0904 38.283 58.2136 38.283C58.5833 38.283 58.953 38.0365 59.3227 37.7901C60.9248 36.5577 62.2804 34.8324 63.2662 32.9839C63.5127 32.491 63.6359 32.1213 63.3895 31.7516C63.143 31.3818 62.6501 31.1354 62.2804 30.8889C61.2945 30.2727 60.4319 29.903 59.446 29.4101C58.9531 29.2869 58.4601 29.4101 58.0904 29.6566C57.2277 30.1495 56.3651 31.2586 55.7489 31.998C55.7489 32.1213 55.6257 32.1213 55.6257 32.2445C55.6257 32.3677 55.7489 32.491 55.7489 32.491C55.9954 32.7374 56.1187 32.8607 56.3651 33.1071L56.4883 33.2304C56.6116 33.2304 56.6116 33.2304 56.7348 33.1071C57.4742 32.3677 58.2136 31.6283 58.953 30.8889C59.3227 31.1354 59.6924 31.3818 60.1854 31.6283C60.5551 31.8748 61.048 31.998 61.2945 32.3677C61.4178 32.491 61.6642 32.7374 61.5409 32.9839C61.5409 33.2304 61.2945 33.3536 61.1712 33.6001C60.6783 34.3395 60.1853 35.0789 59.6924 35.8183C59.3227 36.3112 58.8298 36.8042 58.4601 37.2971C56.858 36.9274 55.5024 36.3112 54.1468 35.3254C54.1468 35.2021 53.6539 34.8324 53.5307 34.8324C53.2842 34.586 53.161 34.4627 52.9145 34.2162C52.668 33.9698 52.4215 33.7233 52.2983 33.4768C52.1751 33.3536 51.9286 32.9839 51.9286 32.8607C51.9286 32.6142 52.2983 32.1213 52.5448 31.998C52.9145 31.6283 53.161 31.2586 53.5307 30.8889C54.1468 30.1495 54.8863 29.5333 55.5025 28.7939C55.7489 28.5474 55.9954 28.301 56.3651 27.9313C56.9813 27.3151 57.4742 26.6989 58.2136 26.206C58.9531 25.713 59.6924 25.4666 60.5551 25.4666C61.5409 25.4666 62.5269 25.4666 63.5127 25.4666C67.4562 25.4666 71.2765 25.4666 75.22 25.4666C79.1636 25.4666 82.9838 25.4666 86.9274 25.4666C90.7477 25.4666 94.6911 25.4666 98.5114 25.4666C112.19 25.4666 125.746 25.4666 139.425 25.3433C166.414 25.3433 193.526 25.2201 220.514 25.2201C223.348 25.2201 226.306 25.2201 229.14 25.2201C235.918 25.2201 246.886 25.2201 253.664 25.2201C257.115 25.2201 260.442 25.2201 263.893 25.0969C264.755 25.0969 265.618 25.0969 266.481 25.0969C267.22 25.0969 267.959 24.9736 268.699 24.9736C269.315 24.9736 269.931 25.5898 270.301 25.8363C270.794 26.206 271.287 26.5757 271.78 27.0686C272.149 27.4383 272.396 27.808 272.642 28.1777C272.766 28.301 272.766 28.4242 272.889 28.5474C272.519 32.491 272.026 36.4345 271.656 40.2548C271.41 42.2265 271.287 49.7439 271.164 51.7156C271.04 52.7015 271.04 53.5641 270.917 54.55C270.794 55.6591 270.671 56.7682 270.917 57.7541C270.917 57.8774 271.533 57.7541 271.533 57.5077C272.273 55.6591 272.273 53.5641 272.396 51.7156C272.642 49.6206 272.889 41.9801 273.135 39.8851C273.382 37.4204 273.628 34.9557 273.875 32.491C273.998 31.2586 274.121 30.0263 274.244 28.6707C273.752 28.4242 273.259 27.6848 272.766 26.9454Z" fill="#6D5873"/>
<g opacity="0.4">
<path d="M237.89 46.4165C238.999 45.8003 240.478 45.6771 241.834 45.9236C242.45 45.8003 243.312 46.4165 243.559 46.663C243.805 44.568 245.161 43.2124 246.886 41.98C248.981 40.5012 250.953 39.6386 253.418 40.5012C255.389 41.2406 258.101 42.7195 258.47 45.0609C258.84 47.2791 256.992 49.0044 255.759 50.6065C255.02 51.4691 254.404 52.2085 253.664 52.7015C253.664 52.8247 253.541 52.8247 253.541 52.948C251.939 54.6732 249.474 53.6874 247.626 52.7015C246.393 51.9621 245.038 50.9762 244.298 49.7438C243.929 50.2368 243.682 50.7297 243.066 51.0994C242.45 51.4691 241.587 51.7156 240.848 51.8388C239.862 52.0853 238.26 51.2227 237.767 50.36C237.397 49.7438 237.027 48.758 237.027 48.0186C236.781 47.2791 237.274 46.7862 237.89 46.4165Z" fill="#E8E6E8"/>
<path d="M238.506 57.7541C238.999 57.2611 239.862 57.0147 240.478 56.8914C241.464 56.645 242.327 56.8914 243.312 57.1379C243.805 57.2611 244.545 57.5076 244.915 58.1238C245.161 58.74 245.407 59.2329 245.038 59.8491C244.668 60.342 244.175 60.7117 243.682 60.8349C242.82 61.0814 241.71 61.0814 240.848 60.9582C240.108 60.8349 239.246 60.4652 238.753 59.9723C238.137 59.3561 238.013 58.3702 238.506 57.7541Z" fill="#E8E6E8"/>
<path d="M262.044 43.5821C262.167 43.2124 262.537 42.8427 262.784 42.5962C263.03 42.2265 264.386 42.9659 264.386 43.3356C264.386 43.7053 264.386 44.1983 264.262 44.568C264.139 44.9377 263.646 45.1841 263.276 45.3074C263.03 45.4306 262.414 45.0609 262.291 44.8144C262.044 44.4447 261.921 43.9518 262.044 43.5821Z" fill="#E8E6E8"/>
<path d="M227.908 63.6694C228.031 63.5461 228.031 63.4229 228.155 63.1764C228.278 63.0532 228.524 62.93 228.648 62.8067C229.14 62.5603 229.757 62.5603 230.25 62.437C230.619 62.3138 230.989 62.5603 231.235 62.6835C231.359 62.8067 231.975 63.1764 231.852 63.4229C231.605 63.7926 231.359 64.2856 230.866 64.4088C230.126 64.6553 229.51 64.4088 228.771 64.2856C228.771 64.4088 227.662 63.9158 227.908 63.6694Z" fill="#E8E6E8"/>
<path d="M237.151 49.867C237.767 50.6064 238.383 51.4691 239.369 51.7155C239.739 51.8388 240.108 51.8388 240.355 51.8388C241.834 51.7155 243.313 50.8529 244.052 49.6205C244.668 50.8529 245.9 51.7155 247.01 52.4549C247.872 53.0711 248.735 53.5641 249.721 53.8105C250.583 53.9338 251.323 53.6873 252.185 53.6873C252.925 53.5641 253.418 53.0711 253.911 52.4549C255.636 50.4832 257.238 48.5114 258.224 46.0467C258.101 47.4023 257.485 48.7579 256.622 49.867C255.266 51.7155 254.034 53.5641 252.432 55.1661C251.446 55.2893 250.214 55.1661 249.228 54.9196C248.735 54.6732 248.242 54.4267 247.749 54.057C246.393 53.1943 245.038 52.2085 244.052 50.9761C244.298 51.3458 240.971 52.2085 240.601 52.3317C238.506 52.9479 238.383 51.7155 237.151 49.867Z" fill="#E6C9C3"/>
<path d="M238.137 58.6167C238.137 59.4794 238.876 60.0955 239.615 60.4653C240.848 60.9582 245.531 61.5744 244.915 59.1097C245.161 60.0956 244.791 61.0814 243.805 61.4511C242.573 61.9441 241.341 61.9441 240.108 61.5744C238.999 61.0814 238.137 59.8491 238.137 58.6167Z" fill="#E6C9C3"/>
</g>
<path opacity="0.4" d="M77.8079 55.4126C77.5614 55.0429 77.0685 54.9197 76.6988 54.7965C76.4524 54.6732 76.2059 54.55 76.0827 54.3035C75.713 53.9338 74.727 54.3035 74.3573 54.4268C73.8644 54.55 73.125 54.9197 72.8785 55.4126C72.7553 55.7823 72.7553 56.0288 72.5088 56.2753C72.3856 56.3985 72.3856 56.645 72.3856 56.7682C72.0159 56.0288 71.3997 55.4126 70.9068 54.9197C68.6886 52.5782 64.745 52.455 62.4035 54.9197C60.555 56.8915 61.4177 60.342 63.7592 61.5744C65.7309 62.6835 69.6744 62.93 71.3997 61.0814C72.1391 60.342 72.8785 58.8632 72.632 57.7541C72.632 57.6309 72.632 57.6309 72.632 57.5076C72.7553 57.6309 73.0017 57.7541 73.2482 57.7541C73.9876 58.0006 75.0967 57.7541 75.7129 57.5076C76.5755 57.3844 78.5473 56.5218 77.8079 55.4126Z" fill="#E8E6E8"/>
<path opacity="0.4" d="M72.8785 31.5051C72.8785 31.5051 72.7553 31.5051 72.7553 31.6283C72.3856 31.6283 72.0159 31.7516 71.6462 31.998C70.2906 32.7374 69.3047 33.7233 69.5512 35.3254C69.6744 35.8183 71.03 35.5718 71.2765 35.4486C73.2483 34.9557 75.5898 33.7233 76.0827 31.5051C76.3292 30.2727 73.2482 31.3819 72.8785 31.5051Z" fill="#E8E6E8"/>
<path opacity="0.15" d="M119.954 60.0956C119.215 59.4794 118.352 59.3562 117.49 59.4794C116.997 59.4794 116.381 59.7259 115.888 59.9724H115.764C115.518 59.9724 115.025 60.0956 114.778 60.3421C114.532 60.7118 114.162 60.9583 114.039 61.4512C114.039 61.8209 114.039 62.1906 114.286 62.5603C114.532 63.1765 115.395 63.5462 116.011 63.7927C116.997 64.1624 118.106 63.7927 118.968 63.423C119.585 63.1765 120.817 62.6835 120.817 61.8209C120.817 61.0815 120.447 60.5886 119.954 60.0956Z" fill="#E8E6E8"/>
<path opacity="0.15" d="M111.574 62.6835C111.451 62.5603 111.451 62.4371 111.205 62.4371C111.081 62.4371 110.958 62.3138 110.712 62.3138C110.465 62.3138 110.219 62.3138 109.972 62.3138C109.479 62.4371 109.11 62.4371 108.74 62.8068C108.617 62.93 108.37 63.1765 108.247 63.423C108.247 63.5462 108.247 63.6694 108.247 63.6694L108.37 63.7927C108.493 63.7927 108.617 63.9159 108.74 63.9159C109.11 64.0391 109.603 64.0391 109.972 63.9159C110.465 63.7927 110.958 63.5462 111.328 63.2997C111.451 63.1765 111.574 62.93 111.574 62.6835C111.574 62.8068 111.574 62.8068 111.574 62.6835Z" fill="#E8E6E8"/>
<path opacity="0.15" d="M149.284 61.6976L149.161 61.5744C149.161 61.4512 149.038 61.4511 148.914 61.3279C148.791 61.2047 148.545 61.2047 148.298 61.2047C148.052 61.2047 147.682 61.2047 147.436 61.3279C147.066 61.3279 146.45 61.5744 146.203 61.9441C146.08 62.0673 145.957 62.3138 146.08 62.437C146.203 62.6835 146.573 62.6835 146.819 62.6835C146.943 62.6835 147.066 62.6835 147.189 62.8067C147.559 62.8067 147.805 62.8067 148.175 62.6835C148.422 62.5603 148.668 62.5603 148.914 62.3138C149.038 62.1906 149.284 62.0673 149.284 61.9441C149.284 61.9441 149.284 61.9441 149.284 61.6976C149.161 61.8209 149.161 61.6976 149.284 61.6976Z" fill="#E8E6E8"/>
<path opacity="0.4" d="M68.8118 50.2368H68.6886C68.5654 50.2368 68.4421 50.2368 68.3188 50.2368H68.1956C68.0724 50.2368 67.8259 50.36 67.7027 50.36C67.5794 50.36 67.5795 50.3601 67.4563 50.4833L67.333 50.6065C67.2097 50.7298 67.0865 50.7298 66.9633 50.853C66.8401 50.9762 66.8401 50.9762 66.8401 51.0995C66.8401 51.2227 66.9633 51.2227 67.0865 51.2227C67.2097 51.2227 67.2097 51.2227 67.333 51.2227C67.5795 51.2227 67.826 51.2227 68.0724 51.0995C68.3189 50.9762 68.5653 50.853 68.8118 50.7298C68.9351 50.6065 68.935 50.6065 68.935 50.4833C68.8118 50.3601 68.8118 50.3601 68.8118 50.2368Z" fill="#E8E6E8"/>
<path opacity="0.15" d="M221.87 31.505C221.623 31.1353 221.13 30.8889 220.76 30.7656C220.268 30.6424 219.775 30.5192 219.158 30.6424C218.419 30.7656 217.556 31.0121 217.187 31.505C216.94 31.8747 216.817 31.998 216.94 32.3677C216.94 32.6141 217.063 32.7374 217.187 32.8606C217.433 33.1071 217.803 33.3536 218.173 33.4768C218.665 33.6 219.405 33.6 220.021 33.4768C220.514 33.3536 221.13 33.2303 221.5 32.8606C221.746 32.4909 222.239 31.998 221.87 31.505Z" fill="#E8E6E8"/>
<path opacity="0.15" d="M233.7 32.7375C233.577 32.7375 233.577 32.6143 233.454 32.6143C233.33 32.6143 233.207 32.491 233.084 32.491C232.838 32.491 232.714 32.491 232.468 32.6143C232.345 32.6143 232.221 32.7375 232.221 32.8607C232.221 32.984 232.221 32.984 232.221 33.1072C232.221 33.2304 232.345 33.2304 232.468 33.2304C232.714 33.3537 232.961 33.3537 233.207 33.3537C233.33 33.3537 233.7 33.2304 233.7 33.1072C233.7 32.984 233.7 32.984 233.7 32.8607C233.823 32.8607 233.823 32.8607 233.7 32.7375Z" fill="#E8E6E8"/>
<path opacity="0.4" d="M72.7553 57.8773C72.7553 58.9864 72.2624 60.0955 71.523 60.9582C71.2765 61.2047 70.9068 61.5744 70.5371 61.6976C69.7977 62.0673 68.9351 62.1905 68.0724 62.1905C66.7168 62.1905 65.238 61.9441 64.0056 61.2047C62.7733 60.4652 61.7874 59.2329 61.6642 57.8773C61.7874 59.3561 62.5268 60.5885 63.7592 61.3279C64.9915 62.1905 66.3471 62.5602 67.7027 63.0532C68.0724 63.1764 68.5653 63.2997 68.935 63.1764C69.3047 63.0532 69.6744 62.8067 70.0441 62.5602C70.6603 62.0673 71.2765 61.5744 71.7695 60.8349C72.2624 60.2188 72.6321 59.1097 72.7553 57.8773Z" fill="#E6C9C3"/>
<path opacity="0.4" d="M78.0545 55.7824C77.808 56.2753 77.4383 56.7683 76.9453 57.0147C76.5756 57.2612 76.206 57.3844 75.8363 57.5077C75.3433 57.6309 74.8504 57.7541 74.3574 57.8774C73.9877 57.8774 73.6181 57.8774 73.3716 57.8774C73.6181 58.0006 73.8645 58.1238 74.111 58.1238C74.3574 58.2471 74.6039 58.2471 74.8504 58.2471C75.2201 58.2471 75.5898 58.1238 75.9595 58.0006C76.8221 57.6309 77.5616 56.7683 78.0545 55.7824Z" fill="#E6C9C3"/>
<path opacity="0.4" d="M75.8362 31.7515C75.3433 33.4768 73.3715 34.4627 71.7695 34.9556C71.3998 35.0788 68.6886 35.8182 69.428 34.4627C68.9351 34.8324 69.1815 35.5718 69.6745 35.8183C70.1674 36.0647 70.7836 36.0647 71.2765 35.8183C72.5089 35.4485 73.618 34.5859 74.6039 33.6C75.22 33.1071 75.8362 32.4909 75.8362 31.7515Z" fill="#E6C9C3"/>
<path opacity="0.15" d="M120.817 61.3279C120.694 61.8209 120.447 62.1906 120.077 62.4371C119.954 62.5603 119.708 62.6835 119.585 62.6835C118.845 63.0532 118.229 63.2997 117.49 63.4229C116.75 63.5462 116.011 63.4229 115.271 63.1765C115.025 63.0532 114.655 63.0532 114.532 62.8068C114.162 62.4371 114.162 61.9441 114.285 61.3279C114.162 61.9441 114.039 62.5603 114.285 63.0532C114.532 63.6694 115.148 64.0391 115.764 64.1623C116.38 64.2856 116.997 64.2856 117.613 64.1623C118.352 64.0391 119.092 63.6694 119.708 63.1765C120.077 62.8068 120.694 62.0674 120.817 61.3279Z" fill="#E6C9C3"/>
<path opacity="0.15" d="M221.993 31.6283C221.993 31.8748 221.87 32.1212 221.746 32.3677C221.623 32.4909 221.5 32.6142 221.253 32.7374C220.144 33.4768 218.665 33.4768 217.556 32.7374C217.433 32.6142 217.187 32.4909 217.063 32.2445C216.94 31.998 216.94 31.7515 217.063 31.6283C216.94 32.1212 217.063 32.7374 217.433 33.1071C217.803 33.4768 218.419 33.7233 218.912 33.8465C219.282 33.9698 219.651 33.9698 220.021 33.9698C220.514 33.8465 221.007 33.6001 221.377 33.1071C221.5 32.8606 221.746 32.1212 221.993 31.6283Z" fill="#E6C9C3"/>
<defs>
<linearGradient id="paint0_linear_9_6404" x1="16.9613" y1="-11.9077" x2="56.5899" y2="25.1365" gradientUnits="userSpaceOnUse">
<stop stop-color="#B39B19"/>
<stop offset="0.3744" stop-color="#7C852D"/>
<stop offset="1" stop-color="#195C52"/>
</linearGradient>
<linearGradient id="paint1_linear_9_6404" x1="-10.5259" y1="7.34451" x2="29.1025" y2="44.3885" gradientUnits="userSpaceOnUse">
<stop stop-color="#B39B19"/>
<stop offset="0.3744" stop-color="#7C852D"/>
<stop offset="1" stop-color="#195C52"/>
</linearGradient>
<linearGradient id="paint2_linear_9_6404" x1="-3.27496" y1="-0.412531" x2="36.3537" y2="36.6316" gradientUnits="userSpaceOnUse">
<stop stop-color="#B39B19"/>
<stop offset="0.3744" stop-color="#7C852D"/>
<stop offset="1" stop-color="#195C52"/>
</linearGradient>
<linearGradient id="paint3_linear_9_6404" x1="6.93457" y1="-26.6393" x2="93.9448" y2="53.4925" gradientUnits="userSpaceOnUse">
<stop stop-color="#B39B19"/>
<stop offset="0.3744" stop-color="#7C852D"/>
<stop offset="1" stop-color="#195C52"/>
</linearGradient>
<linearGradient id="paint4_linear_9_6404" x1="-16.1299" y1="-11.8221" x2="70.8802" y2="68.3095" gradientUnits="userSpaceOnUse">
<stop stop-color="#B39B19"/>
<stop offset="0.3744" stop-color="#7C852D"/>
<stop offset="1" stop-color="#195C52"/>
</linearGradient>
<linearGradient id="paint5_linear_9_6404" x1="-28.3192" y1="1.41432" x2="58.6905" y2="81.5456" gradientUnits="userSpaceOnUse">
<stop stop-color="#B39B19"/>
<stop offset="0.3744" stop-color="#7C852D"/>
<stop offset="1" stop-color="#195C52"/>
</linearGradient>
<linearGradient id="paint6_linear_9_6404" x1="329.39" y1="35.8872" x2="279.881" y2="44.8331" gradientUnits="userSpaceOnUse">
<stop stop-color="#B39B19"/>
<stop offset="0.3744" stop-color="#7C852D"/>
<stop offset="1" stop-color="#195C52"/>
</linearGradient>
<linearGradient id="paint7_linear_9_6404" x1="334.356" y1="46.0853" x2="290.376" y2="70.5166" gradientUnits="userSpaceOnUse">
<stop stop-color="#B39B19"/>
<stop offset="0.3744" stop-color="#7C852D"/>
<stop offset="1" stop-color="#195C52"/>
</linearGradient>
<linearGradient id="paint8_linear_9_6404" x1="332.811" y1="52.1638" x2="283.783" y2="63.45" gradientUnits="userSpaceOnUse">
<stop stop-color="#B39B19"/>
<stop offset="0.3744" stop-color="#7C852D"/>
<stop offset="1" stop-color="#195C52"/>
</linearGradient>
<linearGradient id="paint9_linear_9_6404" x1="344.612" y1="29.4523" x2="236.511" y2="48.1463" gradientUnits="userSpaceOnUse">
<stop stop-color="#B39B19"/>
<stop offset="0.3744" stop-color="#7C852D"/>
<stop offset="1" stop-color="#195C52"/>
</linearGradient>
<linearGradient id="paint10_linear_9_6404" x1="348.432" y1="48.9892" x2="241.345" y2="72.8046" gradientUnits="userSpaceOnUse">
<stop stop-color="#B39B19"/>
<stop offset="0.3744" stop-color="#7C852D"/>
<stop offset="1" stop-color="#195C52"/>
</linearGradient>
<linearGradient id="paint11_linear_9_6404" x1="351.699" y1="44.745" x2="255.406" y2="97.3059" gradientUnits="userSpaceOnUse">
<stop stop-color="#B39B19"/>
<stop offset="0.3744" stop-color="#7C852D"/>
<stop offset="1" stop-color="#195C52"/>
</linearGradient>
<linearGradient id="paint12_linear_9_6404" x1="162.254" y1="-11.189" x2="162.756" y2="96.0701" gradientUnits="userSpaceOnUse">
<stop stop-color="#BFA0A2"/>
<stop offset="0.2596" stop-color="#8B7588"/>
<stop offset="0.5642" stop-color="#493E66"/>
<stop offset="0.8176" stop-color="#224569"/>
<stop offset="1" stop-color="#0A4A6B"/>
</linearGradient>
<radialGradient id="paint13_radial_9_6404" cx="0" cy="0" r="1" gradientUnits="userSpaceOnUse" gradientTransform="translate(158.283 6.73542) scale(275.45 275.45)">
<stop stop-color="#FFFBFB"/>
<stop offset="1" stop-color="#6C6778"/>
</radialGradient>
</defs>
</svg>
